<?xml version="1.0" encoding="UTF-8" standalone="no"?>
<svg
   xmlns:dc="http://purl.org/dc/elements/1.1/"
   xmlns:cc="http://creativecommons.org/ns#"
   xmlns:rdf="http://www.w3.org/1999/02/22-rdf-syntax-ns#"
   xmlns:svg="http://www.w3.org/2000/svg"
   xmlns="http://www.w3.org/2000/svg"
   viewBox="0 0 952 518.66669"
   height="518.66669"
   width="952"
   xml:space="preserve"
   id="svg2"
   version="1.1"><metadata
     id="metadata8"><rdf:RDF><cc:Work
         rdf:about=""><dc:format>image/svg+xml</dc:format><dc:type
           rdf:resource="http://purl.org/dc/dcmitype/StillImage" /></cc:Work></rdf:RDF></metadata><defs
     id="defs6"><clipPath
       id="clipPath44"
       clipPathUnits="userSpaceOnUse"><path
         id="path42"
         d="m 138.723,2789.41 h 6864.8 v 612.109 h -6864.8 z" /></clipPath><clipPath
       id="clipPath86"
       clipPathUnits="userSpaceOnUse"><path
         id="path84"
         d="m 138.723,204.215 h 4354.41 v 2576 H 138.723 Z" /></clipPath><clipPath
       id="clipPath124"
       clipPathUnits="userSpaceOnUse"><path
         id="path122"
         d="m 4457.12,204.215 h 2547.89 v 2505.2 H 4457.12 Z" /></clipPath><clipPath
       id="clipPath164"
       clipPathUnits="userSpaceOnUse"><path
         id="path162"
         d="m 264.625,1704.08 h 4102.61 v 622.109 H 264.625 Z" /></clipPath><clipPath
       id="clipPath210"
       clipPathUnits="userSpaceOnUse"><path
         id="path208"
         d="m 264.625,994.078 h 4102.61 v 622.109 H 264.625 Z" /></clipPath><clipPath
       id="clipPath256"
       clipPathUnits="userSpaceOnUse"><path
         id="path254"
         d="m 264.625,284.078 h 4102.61 V 906.187 H 264.625 Z" /></clipPath></defs><g
     transform="matrix(1.3333333,0,0,-1.3333333,0,518.66667)"
     id="g10"><g
       transform="scale(0.1)"
       id="g12"><path
         id="path14"
         style="fill:#ffffff;fill-opacity:1;fill-rule:nonzero;stroke:none"
         d="M 0,0 H 7140 V 3890 H 0 Z" /><path
         id="path16"
         style="fill:#ffffff;fill-opacity:1;fill-rule:nonzero;stroke:none"
         d="m 79.5234,85.0742 h 6983.2 v 3426.45 h -6983.2 z" /><path
         id="path18"
         style="fill:none;stroke:#b51700;stroke-width:50;stroke-linecap:butt;stroke-linejoin:miter;stroke-miterlimit:4;stroke-dasharray:none;stroke-opacity:1"
         d="m 79.5234,85.0742 h 6983.2 v 3426.45 h -6983.2 z" /><path
         id="path20"
         style="fill:#b51700;fill-opacity:1;fill-rule:nonzero;stroke:none"
         d="m 100,3831.95 h 41.391 l 39.89,-152.68 h 0.61 l 47.672,152.68 h 37.187 l 46.797,-152.68 h 0.609 l 41.688,152.68 h 38.375 L 332.438,3620 h -35.985 l -49.187,161.34 h -0.594 L 197.469,3620 H 162.688 L 100,3831.95" /><path
         id="path22"
         style="fill:#b51700;fill-opacity:1;fill-rule:nonzero;stroke:none"
         d="m 437.984,3678.98 c 0.868,-10.73 5.395,-19.09 12.594,-25.04 7.004,-5.94 15.899,-8.94 26.11,-8.94 8.757,0 16.531,1.84 22.625,5.53 6,3.85 11.453,8.35 16.046,13.95 L 541.172,3645 c -8.465,-10.47 -17.813,-17.92 -28.219,-22.36 -10.715,-4.3 -21.289,-6.64 -32.672,-6.64 -10.898,0 -21.008,1.81 -30.609,5.42 -9.82,3.82 -17.891,8.76 -24.891,15.39 -7.25,6.7 -12.539,14.63 -16.64,23.97 -4.141,9.42 -6.141,19.74 -6.141,31.2 0,11.47 2.051,21.86 6.156,31.21 4.051,9.61 9.657,17.33 16.657,23.97 6.738,6.91 15.32,11.75 24.937,15.37 9.363,3.78 19.828,5.44 30.641,5.44 9.867,0.01 19.156,-1.77 27.468,-5.3 8.024,-3.42 15.422,-8.63 21.329,-15.29 5.851,-6.45 10.523,-14.88 13.828,-24.66 3.297,-9.69 4.953,-21.03 4.953,-33.75 v -9.99 z m 73.985,27 c -0.524,10.84 -3.508,19.37 -9.922,25.61 -6.434,6.39 -15.34,9.38 -26.766,9.38 -10.918,0.01 -19.398,-3.17 -25.718,-9.52 -6.5,-6.16 -10.172,-14.83 -11.579,-25.47 h 73.985" /><path
         id="path24"
         style="fill:#b51700;fill-opacity:1;fill-rule:nonzero;stroke:none"
         d="m 581,3847.41 h 35.984 v -101.07 h 1 c 1.485,2.6 4.118,4.79 6.922,7.25 2.508,2.61 6.227,4.79 10.25,6.97 3.969,2.32 8.641,3.96 13.86,5.33 5.211,1.42 11.238,2.08 18.062,2.08 10.211,0.01 19.676,-1.97 28.313,-5.89 8.504,-3.61 16.007,-9.29 22.125,-16.13 5.953,-6.82 10.894,-14.87 14.312,-24.12 3.141,-9.19 5.125,-19.19 5.125,-29.85 -0.32,-10.65 -1.605,-20.6 -4.812,-29.85 -3.258,-8.95 -7.922,-17.28 -14.141,-24.11 -6.219,-6.51 -13.746,-12.22 -22.578,-16.14 -8.965,-3.88 -18.75,-5.88 -29.781,-5.88 -10.446,0 -19.762,1.98 -28.594,5.92 -8.84,3.99 -15.844,10.28 -21.063,18.97 h -0.796 L 614.984,3620 H 581 Z m 119.969,-155.43 c -0.324,5.72 -0.961,11.21 -2.875,16.49 -1.938,5.47 -4.719,9.97 -8.438,14.05 -3.929,4.24 -8.179,7.34 -13.406,9.78 -5.305,2.68 -11.148,3.67 -17.781,3.67 -6.781,0.01 -12.555,-1.23 -17.781,-3.67 -5.45,-2.21 -9.688,-5.7 -13.407,-9.78 -3.804,-3.92 -6.523,-8.76 -8.437,-14.05 -2.188,-5.11 -2.86,-10.78 -2.86,-16.49 -0.328,-5.7 0.954,-11.21 2.86,-16.5 1.633,-5.12 4.726,-9.98 8.437,-14.06 3.625,-3.88 8.188,-7.33 13.407,-9.76 5,-2.33 11.156,-3.66 17.781,-3.66 6.476,0 12.562,1.22 17.781,3.66 5.145,2.55 9.695,5.69 13.406,9.76 3.5,4.28 6.532,8.77 8.438,14.06 1.883,5.47 2.875,10.79 2.875,16.5" /><path
         id="path26"
         style="fill:#b51700;fill-opacity:1;fill-rule:nonzero;stroke:none"
         d="m 863,3831.95 h 71.047 c 10.129,0.02 19.941,-0.99 29.391,-2.98 9.312,-1.98 17.765,-5.33 24.921,-10.02 7.047,-4.66 12.891,-10.95 17.171,-18.82 4.1,-7.58 6.42,-17.67 6.42,-29.41 -0.32,-13.25 -2.28,-24.11 -6.84,-32.28 -4.59,-7.98 -10.7,-14.49 -18.438,-18.97 -7.965,-4.29 -16.719,-7.5 -26.938,-9.09 -10.453,-1.39 -20.867,-2.4 -31.968,-2.4 H 900.984 V 3620 H 863 Z m 60.375,-91.98 c 5.176,0.01 10.797,0.19 16.484,0.59 5.411,0.55 10.954,1.62 15.766,3.63 4.602,2.28 8.738,5.02 11.781,9.04 2.907,4.28 4.563,9.65 4.563,16.9 -0.324,6.9 -1.375,11.87 -4.125,15.79 -3.031,3.96 -6.289,6.94 -10.61,9.05 -4.402,2.12 -9.136,3.47 -14.437,4.08 -5.559,0.92 -10.391,0.9 -15.297,0.9 h -26.516 v -59.98 h 22.391" /><path
         id="path28"
         style="fill:#b51700;fill-opacity:1;fill-rule:nonzero;stroke:none"
         d="m 1132.97,3639.41 h -1 c -5.54,-8 -11.84,-14.16 -19.86,-17.86 -8.05,-3.55 -16.84,-5.55 -26.47,-5.55 -6.83,0 -13.09,0.91 -19.41,2.72 -6.4,1.91 -11.93,4.53 -16.84,8.16 -5.04,3.67 -8.87,8.17 -11.87,13.6 -3.19,5.61 -4.52,11.79 -4.52,19.04 0,8.01 1.41,14.55 4.22,20.09 2.74,5.67 6.57,10.18 11.28,13.91 4.55,3.89 10.19,6.69 16.41,8.9 5.92,2.41 12.7,3.88 19.43,4.99 6.62,1.31 13.51,1.82 20.33,2.12 6.6,0.46 13.24,0.45 19.27,0.45 h 9.03 v 3.91 c -0.33,9.06 -3.1,15.79 -9.3,20.3 -6.42,4.79 -14.09,6.78 -23.69,6.78 -7.93,0.01 -14.71,-1.35 -21.31,-4.05 -6.82,-2.67 -12.29,-6.35 -17.09,-10.95 l -18.89,18.91 c 7.76,8.23 17.33,14.09 28.03,17.68 10.47,3.75 21.76,5.41 33.16,5.41 9.89,0.01 18.76,-1.16 25.73,-3.47 6.77,-2.14 12.74,-5.26 17.28,-8.87 4.24,-3.49 8.05,-7.77 10.52,-12.49 2.33,-4.42 4.24,-9.47 5.32,-14.28 0.85,-4.77 1.74,-9.48 1.94,-13.98 -0.03,-4.47 0.3,-8.46 0.3,-11.86 V 3620 h -32 z m -2,45.57 h -7.56 c -5.17,0.01 -10.68,-0.2 -16.93,-0.6 -6.41,-0.2 -12.14,-1.39 -17.68,-2.93 -5.81,-1.35 -10.23,-3.78 -14.07,-6.75 -4.07,-2.86 -5.75,-7.09 -5.75,-12.4 -0.32,-3.24 0.76,-6.39 2.27,-8.74 1.43,-2.2 3.47,-4.33 5.89,-5.97 2.38,-1.5 5.15,-2.81 8.17,-3.53 2.93,-0.4 6.06,-1.06 9.08,-1.06 12.37,0 21.72,3.01 27.66,9.03 5.93,6.35 8.92,14.26 8.92,24.67 v 8.28" /><path
         id="path30"
         style="fill:#b51700;fill-opacity:1;fill-rule:nonzero;stroke:none"
         d="m 1351.95,3763.97 v -131.06 c -0.32,-12.97 -1.6,-24.75 -4.79,-35.24 -3.25,-10.39 -8.14,-19.4 -14.85,-26.7 -6.8,-7.29 -15.15,-12.95 -25.34,-16.95 -10.52,-3.68 -22.29,-6 -36.28,-6 -13.63,0.32 -26.1,1.68 -38.1,5.04 -12.18,3.67 -23.08,9.48 -33.28,18.36 l 21.58,29.27 c 6.9,-6.49 14.7,-11.69 22.5,-15.28 7.67,-3.4 16.8,-5.39 27,-5.39 8.46,0.32 15.84,1.19 21.74,3.59 5.85,2.53 10.59,5.69 14.09,9.89 3.42,4.36 6,9.23 7.5,15.13 1.26,6.01 2.25,12.42 2.25,19.62 v 10.48 h -1 c -5.53,-6.82 -12.12,-12.1 -20.74,-15.56 -8.69,-3.17 -17.42,-5.17 -26.42,-5.17 -11.09,0 -20.64,1.96 -29.45,5.88 -8.93,3.95 -16.38,9.18 -22.69,15.81 -6.53,6.72 -11.15,14.45 -14.56,23.48 -3.45,9.31 -5.11,18.67 -5.11,28.91 0,10.95 1.6,20.58 4.81,29.81 2.94,9.27 7.92,17.25 14.14,24.08 5.9,6.84 13.69,12.21 22.43,16.12 8.6,4.22 18.7,5.88 29.93,5.88 10.13,0.01 19.76,-1.98 28.58,-5.94 8.54,-3.62 15.86,-10.26 21.08,-18.95 h 0.8 l 0.2,20.89 z m -76.97,-28 c -6.78,0.01 -12.31,-1.07 -17.56,-3.2 -5.39,-2.06 -9.74,-5.09 -13.48,-8.85 -4.05,-3.73 -6.66,-8.33 -8.78,-13.72 -2.17,-5.11 -3.18,-11.32 -3.18,-17.82 -0.32,-5.69 1.06,-11.39 3.18,-16.47 2.07,-5.06 5.1,-9.56 8.93,-13.43 3.8,-3.69 8.38,-6.91 13.63,-9.14 5.01,-2.01 10.91,-3.34 16.97,-3.34 6.41,0 12.64,1.11 17.98,3.34 5.13,2.45 9.9,5.23 13.63,8.99 3.64,3.99 6.61,8.3 8.64,13.58 1.7,5.31 3.03,10.97 3.03,17.07 -0.33,12.82 -3.84,23.18 -11.52,31.1 -7.82,8.23 -18.15,11.89 -31.47,11.89" /><path
         id="path32"
         style="fill:#b51700;fill-opacity:1;fill-rule:nonzero;stroke:none"
         d="m 1420.98,3678.98 c 0.87,-10.73 5.4,-19.09 12.6,-25.04 7,-5.94 15.9,-8.94 26.11,-8.94 8.76,0 16.53,1.84 22.62,5.53 6,3.85 11.46,8.35 16.05,13.95 l 25.81,-19.48 c -8.46,-10.47 -17.81,-17.92 -28.22,-22.36 -10.71,-4.3 -21.29,-6.64 -32.67,-6.64 -10.9,0 -21.01,1.81 -30.61,5.42 -9.82,3.82 -17.89,8.76 -24.89,15.39 -7.25,6.7 -12.54,14.63 -16.64,23.97 -4.14,9.42 -6.14,19.74 -6.14,31.2 0,11.47 2.05,21.86 6.16,31.21 4.05,9.61 9.65,17.33 16.65,23.97 6.74,6.91 15.32,11.75 24.94,15.37 9.36,3.78 19.83,5.44 30.64,5.44 9.87,0.01 19.16,-1.77 27.47,-5.3 8.02,-3.42 15.42,-8.63 21.33,-15.29 5.85,-6.45 10.52,-14.88 13.83,-24.66 3.29,-9.69 4.95,-21.03 4.95,-33.75 v -9.99 z m 73.99,27 c -0.52,10.84 -3.51,19.37 -9.92,25.61 -6.44,6.39 -15.34,9.38 -26.77,9.38 -10.92,0.01 -19.4,-3.17 -25.72,-9.52 -6.5,-6.16 -10.17,-14.83 -11.58,-25.47 h 73.99" /><path
         id="path34"
         style="fill:#ff9300;fill-opacity:1;fill-rule:nonzero;stroke:none"
         d="m 199.523,2779.41 h 6743.2 v 632.109 h -6743.2 z" /><path
         id="path36"
         style="fill:none;stroke:#000000;stroke-width:10;stroke-linecap:butt;stroke-linejoin:miter;stroke-miterlimit:4;stroke-dasharray:none;stroke-opacity:1"
         d="m 199.523,2779.41 h 6743.2 v 632.109 h -6743.2 z" /><g
         id="g38"><g
           clip-path="url(#clipPath44)"
           id="g40"><path
             id="path46"
             style="fill:#ffffff;fill-opacity:1;fill-rule:nonzero;stroke:none"
             d="M 2567,3180.95 V 3010 h 15.98 v 82.98 h 102.99 V 3010 h 16 v 170.95 h -16 v -73.98 h -102.99 v 73.98 H 2567" /><path
             id="path48"
             style="fill:#ffffff;fill-opacity:1;fill-rule:nonzero;stroke:none"
             d="M 2821.97,3080.98 H 2742 c 0.63,5.59 1.95,11.04 3.95,16.38 1.68,5.55 4.68,10.05 8.02,14.11 3.02,4.24 7.41,7.33 12.2,9.8 4.74,2.71 10.3,3.7 16.53,3.7 5.84,0.01 11.5,-1.24 16.28,-3.7 4.47,-2.23 8.86,-5.74 12.21,-9.8 3.29,-3.89 5.94,-8.73 7.78,-13.99 1.52,-5.09 2.84,-10.76 3,-16.5 z m -79.97,-13 h 94.97 c 0,8.7 -0.48,17.25 -2.39,25.69 -2.11,8.56 -5.07,15.93 -9.45,22.46 -4.42,6.81 -10.08,11.78 -17.08,15.81 -7.03,4.04 -15.46,6.03 -25.35,6.03 -9.96,0.01 -18.14,-1.89 -25.23,-5.66 -7.24,-3.53 -12.86,-8.73 -17.33,-14.9 -4.51,-5.97 -7.76,-13.18 -9.92,-21.02 -2.22,-7.64 -3.22,-15.85 -3.22,-24.03 0,-8.6 1.08,-17.18 3.23,-25.11 2.09,-7.68 5.49,-14.9 9.97,-20.91 4.43,-5.79 10.29,-10.74 17.41,-14.18 6.92,-3.16 15.57,-5.16 25.33,-5.16 15.38,0 27.83,3.76 36.39,11.28 8.45,7.76 14.44,18.31 17.64,32.38 h -15 c -2.73,-9.47 -6.74,-17.26 -13,-23.02 -6.59,-5.64 -14.93,-8.64 -26.02,-8.64 -7.54,0 -13.41,1.52 -18.56,4.58 -5.26,3.2 -9.39,6.92 -12.76,11.58 -3.58,4.94 -5.82,9.93 -7.35,15.81 -1.62,5.88 -2.28,11.55 -2.28,17.01" /><path
             id="path50"
             style="fill:#ffffff;fill-opacity:1;fill-rule:nonzero;stroke:none"
             d="m 2857,3096.19 h 15 c 0.32,10.34 3.54,17.38 9.66,21.94 5.9,4.85 14.02,6.84 23.68,6.84 4.4,0.01 8.74,-0.36 12.69,-1.08 3.95,-0.68 7.43,-2.04 10.41,-3.97 2.83,-1.89 5.31,-4.51 7,-7.79 1.55,-2.99 2.54,-7.47 2.54,-12.57 -0.32,-3.21 -0.44,-6.07 -1.32,-8.15 -1.1,-1.88 -2.12,-3.72 -3.72,-4.93 -1.92,-1.02 -3.61,-2.03 -6.02,-2.51 -2.7,-0.47 -5.19,-0.88 -8.39,-1.2 -8.34,-0.89 -16.21,-1.97 -24.14,-3 -8.06,-0.96 -15.05,-2.83 -21.37,-5.39 -6.33,-2.35 -11.41,-6.28 -15.25,-11.16 -4.11,-4.62 -5.77,-11.63 -5.77,-20.27 0,-6.2 1.08,-11.61 3.23,-16.17 2.08,-4.48 5.11,-8.31 8.86,-11.26 3.73,-2.8 8.15,-5.12 13.18,-6.47 4.94,-1.05 10.42,-2.05 16.18,-2.05 5.91,0 11.29,0.56 15.69,1.69 4.35,1.22 8.31,2.71 11.75,4.79 3.14,2.26 6.55,4.69 9.34,7.82 2.73,3.36 5.56,6.69 8.27,10.7 h 0.48 c -0.32,-3.21 0.2,-6.14 0.6,-8.78 0.2,-2.38 1.23,-4.92 2.51,-6.84 1.26,-1.72 3.11,-3.42 5.44,-4.46 2.16,-1.01 5.43,-1.56 9.28,-1.56 1.82,0.21 3.8,0.08 5.16,0.23 1.04,0.3 2.92,0.41 4.69,0.74 v 12.73 c -1.67,-0.32 -3.06,-0.95 -4.82,-0.95 -6.2,0.3 -8.87,3.04 -8.87,9.12 v 65.85 c -0.33,8.63 -1.37,15.08 -4.09,20.3 -3.03,5.41 -6.26,9.25 -10.58,12.14 -4.42,3.04 -9.22,4.84 -14.67,5.89 -5.66,1.23 -10.91,1.56 -16.36,1.56 -7.31,0.01 -13.8,-0.82 -19.74,-2.45 -6.1,-1.48 -11.09,-4.17 -15.5,-7.58 -4.42,-3.4 -7.9,-7.77 -10.47,-13.05 -2.75,-5.25 -4.08,-11.51 -4.56,-18.7 z m 80.98,-18.64 v -19.69 c -0.32,-6.04 -1.16,-11.52 -3.5,-16.31 -2.48,-4.64 -5.44,-8.87 -9.37,-12.24 -3.97,-3.12 -8.54,-5.91 -13.84,-7.67 -5.39,-1.64 -10.83,-2.64 -16.61,-2.64 -3.75,0 -6.97,0.55 -10.35,1.67 -3.47,1.24 -6.33,2.77 -8.89,4.92 -2.7,2.29 -4.61,4.71 -6.14,7.68 -1.62,3.21 -2.28,6.36 -2.28,10.18 0,6.27 1.8,10.77 5.41,14.05 3.47,3.45 8.21,5.8 13.82,7.56 5.54,2.07 11.84,3.08 18.66,3.96 6.52,1.21 13.44,1.88 19.86,3 1.83,0.64 4.49,0.88 7.22,1.68 2.41,0.9 4.57,2.09 5.53,3.85 h 0.48" /><path
             id="path52"
             style="fill:#ffffff;fill-opacity:1;fill-rule:nonzero;stroke:none"
             d="m 3090.97,3010.34 v 170.61 h -15 v -70.11 c -1.93,4.54 -3.9,8.41 -6.88,11.77 -3,3.49 -6.38,6.2 -10.23,8.52 -4.13,2.61 -7.98,4.03 -12.39,5.15 -4.56,1.36 -8.94,1.69 -13.59,1.69 -9.78,0.01 -17.72,-1.77 -24.69,-5.3 -7.05,-3.41 -12.8,-8.29 -17.46,-14.29 -4.9,-5.81 -8.1,-12.99 -10.35,-20.91 -2.38,-7.75 -3.38,-16.3 -3.38,-25.11 0,-8.6 1.12,-17.18 3.36,-25.11 2.13,-7.68 5.69,-14.9 10.34,-20.91 4.41,-5.79 10.46,-10.74 17.43,-14.18 6.92,-3.16 15.17,-5.16 24.62,-5.16 4.24,0 9.02,0.64 13.58,1.92 4.46,1.3 8.86,3.06 12.86,5.36 3.94,2.55 7.56,5.14 10.69,8.49 2.83,3.43 5.48,7.02 7.09,11 h 0.19 l -0.19,-23.43 z m -98.97,61.64 c 0,6.43 0.76,12.82 2.28,19.16 1.43,6.63 3.92,12 7.19,16.97 3.12,5.27 7.48,9.03 12.59,12.16 5.1,3.37 11.29,4.7 18.49,4.7 7.81,0.01 14.75,-1.57 20.28,-4.7 5.24,-2.89 9.99,-7.18 13.42,-12.16 3.35,-4.67 5.91,-10.63 7.44,-16.97 1.29,-6.06 2.28,-12.73 2.28,-19.16 -0.33,-6.42 -0.76,-12.81 -2.28,-19.15 -1.75,-6.29 -4,-12.01 -7.44,-16.99 -3.51,-4.91 -7.9,-9.02 -13.42,-12.15 -5.8,-3.03 -12.28,-4.69 -20.28,-4.69 -7.39,0 -13.36,1.56 -18.49,4.69 -5.13,3.24 -9.31,7.19 -12.59,12.15 -3.43,5.04 -5.67,10.64 -7.19,16.99 -1.62,6.4 -2.28,12.72 -2.28,19.15" /><path
             id="path54"
             style="fill:#ffffff;fill-opacity:1;fill-rule:nonzero;stroke:none"
             d="M 3208.97,3080.98 H 3129 c 0.63,5.59 1.95,11.04 3.95,16.38 1.68,5.55 4.68,10.05 8.02,14.11 3.02,4.24 7.41,7.33 12.2,9.8 4.74,2.71 10.3,3.7 16.53,3.7 5.84,0.01 11.5,-1.24 16.28,-3.7 4.47,-2.23 8.86,-5.74 12.21,-9.8 3.29,-3.89 5.94,-8.73 7.78,-13.99 1.52,-5.09 2.84,-10.76 3,-16.5 z m -79.97,-13 h 94.97 c 0,8.7 -0.48,17.25 -2.39,25.69 -2.11,8.56 -5.07,15.93 -9.45,22.46 -4.42,6.81 -10.08,11.78 -17.08,15.81 -7.03,4.04 -15.46,6.03 -25.35,6.03 -9.96,0.01 -18.14,-1.89 -25.23,-5.66 -7.24,-3.53 -12.86,-8.73 -17.33,-14.9 -4.51,-5.97 -7.76,-13.18 -9.92,-21.02 -2.22,-7.64 -3.22,-15.85 -3.22,-24.03 0,-8.6 1.08,-17.18 3.23,-25.11 2.09,-7.68 5.49,-14.9 9.97,-20.91 4.43,-5.79 10.29,-10.74 17.41,-14.18 6.92,-3.16 15.57,-5.16 25.33,-5.16 15.38,0 27.83,3.76 36.39,11.28 8.45,7.76 14.44,18.31 17.64,32.38 h -15 c -2.73,-9.47 -6.74,-17.26 -13,-23.02 -6.59,-5.64 -14.93,-8.64 -26.02,-8.64 -7.54,0 -13.41,1.52 -18.56,4.58 -5.26,3.2 -9.39,6.92 -12.76,11.58 -3.58,4.94 -5.82,9.93 -7.35,15.81 -1.62,5.88 -2.28,11.55 -2.28,17.01" /><path
             id="path56"
             style="fill:#ffffff;fill-opacity:1;fill-rule:nonzero;stroke:none"
             d="M 3244,3132.97 V 3010 h 15 v 65.75 c 0,6.61 1.11,12.55 3.34,18.05 2.13,5.56 5.4,10.24 9.49,14.22 3.8,4.3 8.92,7.03 14.51,9.18 5.49,2.43 11.85,3.08 18.72,2.77 v 15 c -11.22,0.49 -20.84,-2.06 -28.92,-7.61 -8.12,-5.33 -13.98,-13.35 -17.73,-23.42 H 3258 v 29.03 h -14" /><path
             id="path58"
             style="fill:#ffffff;fill-opacity:1;fill-rule:nonzero;stroke:none"
             d="m 3515.09,3129.44 h 16.32 c -1.25,9.14 -3.8,16.87 -8.03,23.75 -4.37,7.15 -9.53,12.69 -15.85,17.42 -6.5,4.87 -13.37,8.31 -21.12,10.72 -7.9,2.64 -15.72,3.62 -23.86,3.62 -13.62,0.02 -25.25,-2.45 -35.41,-7.36 -10.2,-4.76 -18.57,-11.48 -25.25,-19.75 -6.98,-8.21 -11.66,-17.77 -14.95,-28.53 -3.61,-10.53 -4.94,-22.08 -4.94,-33.95 0,-11.67 1.64,-23.21 4.94,-33.97 2.97,-10.56 8.27,-20.23 14.95,-28.42 6.38,-8.17 15.09,-14.72 25.25,-19.63 10.12,-4.67 21.97,-7.34 35.41,-7.34 9.89,0 19.22,1.64 27.47,4.91 8.23,3.31 15.39,7.89 21.46,13.84 5.93,6.04 11.04,13.17 14.88,21.64 3.72,8.68 6.32,18 7.44,28.56 h -16.32 c -0.95,-7.66 -2.63,-14.84 -5.51,-21.48 -3.2,-6.46 -6.64,-12.43 -11.28,-17.39 -4.87,-4.65 -10.16,-8.88 -16.56,-11.77 -6.44,-2.65 -13.59,-4.31 -21.58,-4.31 -11.55,0 -21.13,2.16 -29.28,6.48 -8.25,4.51 -14.84,10.07 -20.05,17.19 -5.27,7.24 -9.04,15.23 -11.52,24.28 -2.7,9.07 -3.7,18.23 -3.7,27.53 0,9.62 1.23,18.66 3.7,27.63 2.25,9.27 6.32,17.03 11.52,24.17 5.13,7.38 11.89,12.86 20.05,17.19 8.06,4.5 17.91,6.48 29.28,6.48 6.04,0.02 12.18,-0.92 17.86,-2.76 5.55,-1.56 10.89,-4.51 15.61,-8.03 4.71,-3.25 8.71,-7.89 12,-13.08 3.27,-4.89 5.64,-11.08 7.07,-17.64" /><path
             id="path60"
             style="fill:#ffffff;fill-opacity:1;fill-rule:nonzero;stroke:none"
             d="m 3608.48,3124.97 c 7.05,0.01 13.54,-1.53 18.99,-4.58 5.29,-2.85 9.97,-7.07 13.56,-12.05 3.6,-4.75 6.33,-10.62 8.17,-16.96 1.78,-6.14 2.77,-12.81 2.77,-19.4 -0.33,-6.57 -0.92,-13.04 -2.77,-19.39 -1.91,-6.21 -4.57,-12 -8.17,-16.98 -3.6,-4.84 -8.12,-8.98 -13.56,-12.03 -5.61,-2.92 -11.78,-4.58 -18.99,-4.58 -7.37,0 -13.53,1.52 -18.98,4.58 -5.62,3.19 -9.98,7.06 -13.58,12.03 -3.9,5.11 -6.31,10.64 -8.15,16.98 -2.11,6.48 -2.77,12.81 -2.77,19.39 0,6.59 0.92,13.05 2.77,19.4 1.58,6.55 4.56,12 8.15,16.96 3.3,5.2 8.13,9 13.58,12.05 5.28,3.25 11.77,4.58 18.98,4.58 z m 0,13 c -9.59,0.01 -17.77,-1.77 -25.04,-5.3 -7.42,-3.41 -13.39,-8.24 -18.35,-14.17 -4.98,-5.76 -8.7,-12.86 -11.26,-20.78 -2.83,-7.84 -3.83,-16.38 -3.83,-25.36 0,-8.76 1.27,-17.42 3.83,-25.34 2.28,-7.61 6.31,-14.86 11.26,-20.8 4.93,-5.67 11.07,-10.62 18.35,-14.06 7.12,-3.16 15.61,-5.16 25.04,-5.16 9.27,0 17.78,1.72 25.05,5.16 7.1,3.72 13.38,8.13 18.33,14.06 4.67,6.19 8.71,12.87 11.27,20.8 2.51,8.25 3.84,16.37 3.84,25.34 -0.33,9.19 -1.28,17.43 -3.84,25.36 -2.6,8.02 -6.31,14.85 -11.27,20.78 -5.23,6.09 -11.06,10.65 -18.33,14.17 -7.45,3.64 -15.62,5.3 -25.05,5.3" /><path
             id="path62"
             style="fill:#ffffff;fill-opacity:1;fill-rule:nonzero;stroke:none"
             d="M 3689,3134.36 V 3010 h 15 v 69.27 c 0,6.82 0.72,12.64 2.16,18.17 1.38,5.72 3.63,10.33 6.59,14.42 2.72,4.13 6.82,7.28 11.55,9.61 4.63,2.51 10.3,3.5 16.72,3.5 4.8,0.01 8.89,-0.81 12.26,-2.41 3.27,-1.46 6.05,-3.81 8.05,-6.62 1.9,-2.78 3.45,-6.09 4.33,-9.86 0.66,-3.45 1.32,-7.73 1.32,-11.89 V 3010 h 14.99 v 70.23 c -0.33,6.03 0.52,11.35 1.56,16.72 0.86,5.39 2.85,10.15 5.41,14.32 2.26,4.41 6.02,7.48 10.34,9.96 4.24,2.75 9.79,3.74 16.36,3.74 10.68,0.01 18.5,-2.69 22.83,-8.06 4.16,-5.35 6.48,-13.19 6.48,-23.44 V 3010 h 15 v 84.36 c -0.32,29.28 -13.67,43.61 -41.01,43.61 -8.47,0.01 -15.84,-2 -23.03,-6 -7.5,-3.99 -12.64,-10.08 -16.32,-18.24 -2.43,8.25 -6.64,14.24 -13.23,18.24 -6.72,4.01 -13.95,6 -22.06,6 -10.12,0.01 -18.25,-2.17 -24.69,-6.52 -6.64,-4.15 -11.64,-10.36 -15.61,-18.07 h -1.19 v 20.98 H 3689" /><path
             id="path64"
             style="fill:#ffffff;fill-opacity:1;fill-rule:nonzero;stroke:none"
             d="m 3889,3134.34 v -170.32 h 15 v 69.86 c 1.63,-4.44 3.93,-8.41 6.92,-11.77 2.69,-3.06 6.44,-6.15 10.33,-8.39 3.81,-2.15 8.11,-3.92 12.66,-5.03 4.23,-1.02 9.08,-1.69 13.62,-1.69 9.4,0 17.88,1.72 24.94,5.16 6.89,3.72 12.92,8.17 17.62,14.18 4.68,6.23 8.2,12.98 10.47,20.91 2.08,8.18 3.41,16.3 3.41,25.11 -0.33,9.02 -1.14,17.18 -3.41,25.11 -2.45,8.1 -5.74,14.89 -10.43,20.91 -4.74,6.21 -10.56,10.77 -17.6,14.29 -7.21,3.64 -15.32,5.3 -24.87,5.3 -10.42,0.01 -19.31,-2.38 -27.32,-7.13 -8.12,-4.68 -13.79,-11.45 -17.34,-20.14 h -0.19 v 23.64 z m 99.97,-62.36 c -0.33,-6.42 -0.77,-12.81 -2.31,-19.15 -1.75,-6.29 -3.96,-12.01 -7.28,-16.99 -3.45,-4.91 -7.58,-9.02 -12.75,-12.15 -5.38,-3.03 -11.4,-4.69 -18.69,-4.69 -8.41,0 -14.94,1.56 -20.52,4.69 -5.72,3.24 -10.12,7.19 -13.61,12.15 -3.75,5.04 -5.98,10.64 -7.51,16.99 -1.64,6.4 -2.3,12.72 -2.3,19.15 0,7.07 0.68,13.81 2.05,20.24 1.36,6.69 3.75,12.05 7.15,16.86 3.34,5.12 7.94,8.66 13.61,11.55 5.4,3.01 12.71,4.34 21.13,4.34 6.97,0.01 13.52,-1.57 18.69,-4.7 4.96,-2.89 9.42,-7.18 12.75,-12.16 3.19,-4.67 5.75,-10.63 7.28,-16.97 1.32,-6.06 2.31,-12.73 2.31,-19.16" /><path
             id="path66"
             style="fill:#ffffff;fill-opacity:1;fill-rule:nonzero;stroke:none"
             d="m 4079.48,3124.97 c 7.05,0.01 13.54,-1.53 18.99,-4.58 5.29,-2.85 9.97,-7.07 13.56,-12.05 3.6,-4.75 6.33,-10.62 8.17,-16.96 1.78,-6.14 2.77,-12.81 2.77,-19.4 -0.33,-6.57 -0.92,-13.04 -2.77,-19.39 -1.91,-6.21 -4.57,-12 -8.17,-16.98 -3.6,-4.84 -8.12,-8.98 -13.56,-12.03 -5.61,-2.92 -11.78,-4.58 -18.99,-4.58 -7.37,0 -13.53,1.52 -18.98,4.58 -5.62,3.19 -9.98,7.06 -13.58,12.03 -3.9,5.11 -6.31,10.64 -8.15,16.98 -2.11,6.48 -2.77,12.81 -2.77,19.39 0,6.59 0.92,13.05 2.77,19.4 1.58,6.55 4.56,12 8.15,16.96 3.3,5.2 8.13,9 13.58,12.05 5.28,3.25 11.77,4.58 18.98,4.58 z m 0,13 c -9.59,0.01 -17.77,-1.77 -25.04,-5.3 -7.42,-3.41 -13.39,-8.24 -18.35,-14.17 -4.98,-5.76 -8.7,-12.86 -11.26,-20.78 -2.83,-7.84 -3.83,-16.38 -3.83,-25.36 0,-8.76 1.27,-17.42 3.83,-25.34 2.28,-7.61 6.31,-14.86 11.26,-20.8 4.93,-5.67 11.07,-10.62 18.35,-14.06 7.12,-3.16 15.61,-5.16 25.04,-5.16 9.27,0 17.78,1.72 25.05,5.16 7.1,3.72 13.38,8.13 18.33,14.06 4.67,6.19 8.71,12.87 11.27,20.8 2.51,8.25 3.84,16.37 3.84,25.34 -0.33,9.19 -1.28,17.43 -3.84,25.36 -2.6,8.02 -6.31,14.85 -11.27,20.78 -5.23,6.09 -11.06,10.65 -18.33,14.17 -7.45,3.64 -15.62,5.3 -25.05,5.3" /><path
             id="path68"
             style="fill:#ffffff;fill-opacity:1;fill-rule:nonzero;stroke:none"
             d="M 4160,3134.36 V 3010 h 15 v 72.41 c 0.16,6.29 1.17,11.74 3.02,16.95 1.84,5.42 4.43,9.69 7.75,13.45 3.05,3.83 7.34,6.74 12.11,8.91 4.47,2.26 10.22,3.25 16.35,3.25 6.07,0.01 11.28,-0.97 15.4,-2.89 3.91,-1.62 7.39,-4.58 9.81,-7.94 2.27,-3.08 4.11,-7.34 5.08,-11.91 0.79,-4.3 1.45,-9.49 1.45,-14.78 V 3010 h 15 v 80.02 c -0.33,7.72 -0.73,14.06 -2.19,20 -1.72,6.26 -3.97,10.95 -7.53,15.04 -3.65,4.42 -8.3,7.28 -14.2,9.53 -5.92,2.39 -13.24,3.38 -21.99,3.38 -8.93,0.01 -17.08,-2.29 -24.53,-6.88 -7.62,-4.27 -12.62,-10.63 -15.53,-18.18 v 21.45 h -15" /><path
             id="path70"
             style="fill:#ffffff;fill-opacity:1;fill-rule:nonzero;stroke:none"
             d="M 4377.97,3080.98 H 4298 c 0.63,5.59 1.95,11.04 3.95,16.38 1.68,5.55 4.68,10.05 8.02,14.11 3.02,4.24 7.41,7.33 12.2,9.8 4.74,2.71 10.3,3.7 16.53,3.7 5.84,0.01 11.5,-1.24 16.28,-3.7 4.47,-2.23 8.86,-5.74 12.21,-9.8 3.29,-3.89 5.94,-8.73 7.78,-13.99 1.52,-5.09 2.84,-10.76 3,-16.5 z m -79.97,-13 h 94.97 c 0,8.7 -0.48,17.25 -2.39,25.69 -2.11,8.56 -5.07,15.93 -9.45,22.46 -4.42,6.81 -10.08,11.78 -17.08,15.81 -7.03,4.04 -15.46,6.03 -25.35,6.03 -9.96,0.01 -18.14,-1.89 -25.23,-5.66 -7.24,-3.53 -12.86,-8.73 -17.33,-14.9 -4.51,-5.97 -7.76,-13.18 -9.92,-21.02 -2.22,-7.64 -3.22,-15.85 -3.22,-24.03 0,-8.6 1.08,-17.18 3.23,-25.11 2.09,-7.68 5.49,-14.9 9.97,-20.91 4.43,-5.79 10.29,-10.74 17.41,-14.18 6.92,-3.16 15.57,-5.16 25.33,-5.16 15.38,0 27.83,3.76 36.39,11.28 8.45,7.76 14.44,18.31 17.64,32.38 h -15 c -2.73,-9.47 -6.74,-17.26 -13,-23.02 -6.59,-5.64 -14.93,-8.64 -26.02,-8.64 -7.54,0 -13.41,1.52 -18.56,4.58 -5.26,3.2 -9.39,6.92 -12.76,11.58 -3.58,4.94 -5.82,9.93 -7.35,15.81 -1.62,5.88 -2.28,11.55 -2.28,17.01" /><path
             id="path72"
             style="fill:#ffffff;fill-opacity:1;fill-rule:nonzero;stroke:none"
             d="M 4414,3134.36 V 3010 h 15 v 72.41 c 0.16,6.29 1.17,11.74 3.02,16.95 1.84,5.42 4.43,9.69 7.75,13.45 3.05,3.83 7.34,6.74 12.11,8.91 4.47,2.26 10.22,3.25 16.35,3.25 6.07,0.01 11.28,-0.97 15.4,-2.89 3.91,-1.62 7.39,-4.58 9.81,-7.94 2.27,-3.08 4.11,-7.34 5.08,-11.91 0.79,-4.3 1.45,-9.49 1.45,-14.78 V 3010 h 15 v 80.02 c -0.33,7.72 -0.73,14.06 -2.19,20 -1.72,6.26 -3.97,10.95 -7.53,15.04 -3.65,4.42 -8.3,7.28 -14.2,9.53 -5.92,2.39 -13.24,3.38 -21.99,3.38 -8.93,0.01 -17.08,-2.29 -24.53,-6.88 -7.62,-4.27 -12.62,-10.63 -15.53,-18.18 v 21.45 h -15" /><path
             id="path74"
             style="fill:#ffffff;fill-opacity:1;fill-rule:nonzero;stroke:none"
             d="m 4566.98,3133.97 v 36.98 H 4552 v -36.98 h -21.59 v -13 H 4552 l 0.28,-84.45 c -0.25,-10.38 1.73,-17.75 5.66,-21.66 3.62,-3.86 10.87,-5.86 20.81,-5.86 1.95,0 4.4,0 6.61,0 2.09,0 4.41,0 6.62,0 v 13 c -4.6,-0.67 -8.57,-1 -12.85,-1 -5.44,0.32 -8.78,1.88 -10.13,4.69 -1.34,2.9 -2.02,6.69 -2.02,11.65 v 83.63 h 25 v 13 h -25" /></g></g><path
         id="path76"
         style="fill:#ff9300;fill-opacity:1;fill-rule:nonzero;stroke:none"
         d="m 199.523,194.215 h 4232.81 v 2525.2 H 199.523 Z" /><path
         id="path78"
         style="fill:none;stroke:#000000;stroke-width:10;stroke-linecap:butt;stroke-linejoin:miter;stroke-miterlimit:4;stroke-dasharray:none;stroke-opacity:1"
         d="m 199.523,194.215 h 4232.81 v 2525.2 H 199.523 Z" /><g
         id="g80"><g
           clip-path="url(#clipPath86)"
           id="g82"><path
             id="path88"
             style="fill:#ffffff;fill-opacity:1;fill-rule:nonzero;stroke:none"
             d="M 1507,2650.95 V 2480 h 111.97 v 14 h -95.99 v 156.95 H 1507" /><path
             id="path90"
             style="fill:#ffffff;fill-opacity:1;fill-rule:nonzero;stroke:none"
             d="m 1634,2650.95 v -24.22 h 15 v 24.22 z m 0,-47.14 V 2480 h 15 v 123.81 h -15" /><path
             id="path92"
             style="fill:#ffffff;fill-opacity:1;fill-rule:nonzero;stroke:none"
             d="m 1751.98,2567.86 h 14.99 c -0.65,6.77 -1.7,12.55 -4.13,17.52 -2.71,5.16 -5.7,9.14 -9.82,12.56 -4.14,3.44 -8.91,5.94 -14.33,7.58 -5.65,1.79 -11.28,2.45 -17.6,2.45 -5.54,0.01 -11.05,-0.65 -16.64,-1.94 -5.73,-0.96 -10.64,-3.29 -15.17,-6.03 -4.62,-2.73 -8.2,-6.35 -11.03,-10.86 -2.92,-4.23 -4.25,-9.9 -4.25,-16.16 0,-5.3 0.89,-9.78 2.67,-13.4 1.56,-3.48 4.24,-6.67 7.39,-9.17 3.14,-2.3 6.83,-4.58 11.03,-6.27 4.18,-1.4 8.82,-3.18 13.83,-4.47 l 19.64,-4.34 c 3.22,-0.58 6.77,-1.77 10.08,-2.89 3.1,-0.94 6.26,-2.54 8.84,-4.24 2.43,-1.42 4.66,-3.78 6.19,-6.28 1.32,-2.46 2.31,-5.58 2.31,-9.28 -0.32,-4.21 -1.09,-7.99 -3.28,-10.97 -2.41,-2.87 -4.96,-5.44 -8.36,-7.37 -3.5,-1.7 -7.05,-3.3 -11.01,-4.1 -4.07,-0.54 -7.8,-1.2 -11.52,-1.2 -10.45,0 -18.7,2.6 -25.56,7.8 -6.94,5.26 -10.61,12.91 -11.25,23.14 h -15 c 1.28,-15.17 6.46,-26.14 15.53,-32.86 8.91,-6.42 20.94,-10.08 35.56,-10.08 5.75,0 11.65,0.64 17.6,1.92 5.72,1.31 11.28,3.4 16.01,6.36 4.51,3.2 8.64,6.79 11.69,11.5 2.92,4.79 4.58,10.43 4.58,17.14 -0.33,5.46 -1.06,10.15 -3.16,14.14 -2.37,4.32 -4.81,7.36 -8.12,10.08 -3.53,3 -7.1,4.91 -11.39,6.59 -4.39,1.77 -8.61,2.84 -12.97,3.49 l -20.39,4.55 c -2.9,0.72 -5.42,1.48 -8.49,2.51 -3.22,1.28 -5.9,2.36 -8.48,3.95 -2.91,1.86 -4.73,3.57 -6.42,5.9 -1.89,2.61 -2.55,5.16 -2.55,8.51 0,4.11 0.89,7.34 2.69,10.06 1.57,2.82 4.17,4.92 7.11,6.6 2.67,1.91 6.16,2.87 9.67,3.59 3.36,0.75 6.99,1.08 10.42,1.08 4.12,0.01 8.58,-0.52 12.5,-1.56 3.8,-0.85 7.4,-2.69 10.42,-4.93 2.75,-2.07 5.43,-5.07 7.22,-8.51 1.79,-3.42 2.79,-7.47 2.95,-12.11" /><path
             id="path94"
             style="fill:#ffffff;fill-opacity:1;fill-rule:nonzero;stroke:none"
             d="m 1816.98,2603.97 v 36.98 H 1802 v -36.98 h -21.59 v -13 H 1802 l 0.28,-84.45 c -0.25,-10.38 1.73,-17.75 5.66,-21.66 3.62,-3.86 10.87,-5.86 20.81,-5.86 1.95,0 4.4,0 6.61,0 2.09,0 4.41,0 6.62,0 v 13 c -4.6,-0.67 -8.57,-1 -12.85,-1 -5.44,0.32 -8.78,1.88 -10.13,4.69 -1.34,2.9 -2.02,6.69 -2.02,11.65 v 83.63 h 25 v 13 h -25" /><path
             id="path96"
             style="fill:#ffffff;fill-opacity:1;fill-rule:nonzero;stroke:none"
             d="m 2058.09,2599.44 h 16.32 c -1.25,9.14 -3.8,16.87 -8.03,23.75 -4.37,7.15 -9.53,12.69 -15.85,17.42 -6.5,4.87 -13.37,8.31 -21.12,10.72 -7.9,2.64 -15.72,3.62 -23.86,3.62 -13.62,0.02 -25.25,-2.45 -35.41,-7.36 -10.2,-4.76 -18.57,-11.48 -25.25,-19.75 -6.98,-8.21 -11.66,-17.77 -14.95,-28.53 -3.61,-10.53 -4.94,-22.08 -4.94,-33.95 0,-11.67 1.64,-23.21 4.94,-33.97 2.97,-10.56 8.27,-20.23 14.95,-28.42 6.38,-8.17 15.09,-14.72 25.25,-19.63 10.12,-4.67 21.97,-7.34 35.41,-7.34 9.89,0 19.22,1.64 27.47,4.91 8.23,3.31 15.39,7.89 21.46,13.84 5.93,6.04 11.04,13.17 14.88,21.64 3.72,8.68 6.32,18 7.44,28.56 h -16.32 c -0.95,-7.66 -2.63,-14.84 -5.51,-21.48 -3.2,-6.46 -6.64,-12.43 -11.28,-17.39 -4.87,-4.65 -10.16,-8.88 -16.56,-11.77 -6.44,-2.65 -13.59,-4.31 -21.58,-4.31 -11.55,0 -21.13,2.16 -29.28,6.48 -8.25,4.51 -14.84,10.07 -20.05,17.19 -5.27,7.24 -9.04,15.23 -11.52,24.28 -2.7,9.07 -3.7,18.23 -3.7,27.53 0,9.62 1.23,18.66 3.7,27.63 2.25,9.27 6.32,17.03 11.52,24.17 5.13,7.38 11.89,12.86 20.05,17.19 8.06,4.5 17.91,6.48 29.28,6.48 6.04,0.02 12.18,-0.92 17.86,-2.76 5.55,-1.56 10.89,-4.51 15.61,-8.03 4.71,-3.25 8.71,-7.89 12,-13.08 3.27,-4.89 5.64,-11.08 7.07,-17.64" /><path
             id="path98"
             style="fill:#ffffff;fill-opacity:1;fill-rule:nonzero;stroke:none"
             d="m 2151.48,2594.97 c 7.05,0.01 13.54,-1.53 18.99,-4.58 5.29,-2.85 9.97,-7.07 13.56,-12.05 3.6,-4.75 6.33,-10.62 8.17,-16.96 1.78,-6.14 2.77,-12.81 2.77,-19.4 -0.33,-6.57 -0.92,-13.04 -2.77,-19.39 -1.91,-6.21 -4.57,-12 -8.17,-16.98 -3.6,-4.84 -8.12,-8.98 -13.56,-12.03 -5.61,-2.92 -11.78,-4.58 -18.99,-4.58 -7.37,0 -13.53,1.52 -18.98,4.58 -5.62,3.19 -9.98,7.06 -13.58,12.03 -3.9,5.11 -6.31,10.64 -8.15,16.98 -2.11,6.48 -2.77,12.81 -2.77,19.39 0,6.59 0.92,13.05 2.77,19.4 1.58,6.55 4.56,12 8.15,16.96 3.3,5.2 8.13,9 13.58,12.05 5.28,3.25 11.77,4.58 18.98,4.58 z m 0,13 c -9.59,0.01 -17.77,-1.77 -25.04,-5.3 -7.42,-3.41 -13.39,-8.24 -18.35,-14.17 -4.98,-5.76 -8.7,-12.86 -11.26,-20.78 -2.83,-7.84 -3.83,-16.38 -3.83,-25.36 0,-8.76 1.27,-17.42 3.83,-25.34 2.28,-7.61 6.31,-14.86 11.26,-20.8 4.93,-5.67 11.07,-10.62 18.35,-14.06 7.12,-3.16 15.61,-5.16 25.04,-5.16 9.27,0 17.78,1.72 25.05,5.16 7.1,3.72 13.38,8.13 18.33,14.06 4.67,6.19 8.71,12.87 11.27,20.8 2.51,8.25 3.84,16.37 3.84,25.34 -0.33,9.19 -1.28,17.43 -3.84,25.36 -2.6,8.02 -6.31,14.85 -11.27,20.78 -5.23,6.09 -11.06,10.65 -18.33,14.17 -7.45,3.64 -15.62,5.3 -25.05,5.3" /><path
             id="path100"
             style="fill:#ffffff;fill-opacity:1;fill-rule:nonzero;stroke:none"
             d="M 2233,2604.36 V 2480 h 15 v 69.27 c 0,6.82 0.72,12.64 2.16,18.17 1.38,5.72 3.63,10.33 6.59,14.42 2.72,4.13 6.82,7.28 11.55,9.61 4.63,2.51 10.3,3.5 16.72,3.5 4.8,0.01 8.89,-0.81 12.26,-2.41 3.27,-1.46 6.05,-3.81 8.05,-6.62 1.9,-2.78 3.45,-6.09 4.33,-9.86 0.66,-3.45 1.32,-7.73 1.32,-11.89 V 2480 h 14.99 v 70.23 c -0.33,6.03 0.52,11.35 1.56,16.72 0.86,5.39 2.85,10.15 5.41,14.32 2.26,4.41 6.02,7.48 10.34,9.96 4.24,2.75 9.79,3.74 16.36,3.74 10.68,0.01 18.5,-2.69 22.83,-8.06 4.16,-5.35 6.48,-13.19 6.48,-23.44 V 2480 h 15 v 84.36 c -0.32,29.28 -13.67,43.61 -41.01,43.61 -8.47,0.01 -15.84,-2 -23.03,-6 -7.5,-3.99 -12.64,-10.08 -16.32,-18.24 -2.43,8.25 -6.64,14.24 -13.23,18.24 -6.72,4.01 -13.95,6 -22.06,6 -10.12,0.01 -18.25,-2.17 -24.69,-6.52 -6.64,-4.15 -11.64,-10.36 -15.61,-18.07 h -1.19 v 20.98 H 2233" /><path
             id="path102"
             style="fill:#ffffff;fill-opacity:1;fill-rule:nonzero;stroke:none"
             d="m 2433,2604.34 v -170.32 h 15 v 69.86 c 1.63,-4.44 3.93,-8.41 6.92,-11.77 2.69,-3.06 6.44,-6.15 10.33,-8.39 3.81,-2.15 8.11,-3.92 12.66,-5.03 4.23,-1.02 9.08,-1.69 13.62,-1.69 9.4,0 17.88,1.72 24.94,5.16 6.89,3.72 12.92,8.17 17.62,14.18 4.68,6.23 8.2,12.98 10.47,20.91 2.08,8.18 3.41,16.3 3.41,25.11 -0.33,9.02 -1.14,17.18 -3.41,25.11 -2.45,8.1 -5.74,14.89 -10.43,20.91 -4.74,6.21 -10.56,10.77 -17.6,14.29 -7.21,3.64 -15.32,5.3 -24.87,5.3 -10.42,0.01 -19.31,-2.38 -27.32,-7.13 -8.12,-4.68 -13.79,-11.45 -17.34,-20.14 h -0.19 v 23.64 z m 99.97,-62.36 c -0.33,-6.42 -0.77,-12.81 -2.31,-19.15 -1.75,-6.29 -3.96,-12.01 -7.28,-16.99 -3.45,-4.91 -7.58,-9.02 -12.75,-12.15 -5.38,-3.03 -11.4,-4.69 -18.69,-4.69 -8.41,0 -14.94,1.56 -20.52,4.69 -5.72,3.24 -10.12,7.19 -13.61,12.15 -3.75,5.04 -5.98,10.64 -7.51,16.99 -1.64,6.4 -2.3,12.72 -2.3,19.15 0,7.07 0.68,13.81 2.05,20.24 1.36,6.69 3.75,12.05 7.15,16.86 3.34,5.12 7.94,8.66 13.61,11.55 5.4,3.01 12.71,4.34 21.13,4.34 6.97,0.01 13.52,-1.57 18.69,-4.7 4.96,-2.89 9.42,-7.18 12.75,-12.16 3.19,-4.67 5.75,-10.63 7.28,-16.97 1.32,-6.06 2.31,-12.73 2.31,-19.16" /><path
             id="path104"
             style="fill:#ffffff;fill-opacity:1;fill-rule:nonzero;stroke:none"
             d="m 2623.48,2594.97 c 7.05,0.01 13.54,-1.53 18.99,-4.58 5.29,-2.85 9.97,-7.07 13.56,-12.05 3.6,-4.75 6.33,-10.62 8.17,-16.96 1.78,-6.14 2.77,-12.81 2.77,-19.4 -0.33,-6.57 -0.92,-13.04 -2.77,-19.39 -1.91,-6.21 -4.57,-12 -8.17,-16.98 -3.6,-4.84 -8.12,-8.98 -13.56,-12.03 -5.61,-2.92 -11.78,-4.58 -18.99,-4.58 -7.37,0 -13.53,1.52 -18.98,4.58 -5.62,3.19 -9.98,7.06 -13.58,12.03 -3.9,5.11 -6.31,10.64 -8.15,16.98 -2.11,6.48 -2.77,12.81 -2.77,19.39 0,6.59 0.92,13.05 2.77,19.4 1.58,6.55 4.56,12 8.15,16.96 3.3,5.2 8.13,9 13.58,12.05 5.28,3.25 11.77,4.58 18.98,4.58 z m 0,13 c -9.59,0.01 -17.77,-1.77 -25.04,-5.3 -7.42,-3.41 -13.39,-8.24 -18.35,-14.17 -4.98,-5.76 -8.7,-12.86 -11.26,-20.78 -2.83,-7.84 -3.83,-16.38 -3.83,-25.36 0,-8.76 1.27,-17.42 3.83,-25.34 2.28,-7.61 6.31,-14.86 11.26,-20.8 4.93,-5.67 11.07,-10.62 18.35,-14.06 7.12,-3.16 15.61,-5.16 25.04,-5.16 9.27,0 17.78,1.72 25.05,5.16 7.1,3.72 13.38,8.13 18.33,14.06 4.67,6.19 8.71,12.87 11.27,20.8 2.51,8.25 3.84,16.37 3.84,25.34 -0.33,9.19 -1.28,17.43 -3.84,25.36 -2.6,8.02 -6.31,14.85 -11.27,20.78 -5.23,6.09 -11.06,10.65 -18.33,14.17 -7.45,3.64 -15.62,5.3 -25.05,5.3" /><path
             id="path106"
             style="fill:#ffffff;fill-opacity:1;fill-rule:nonzero;stroke:none"
             d="M 2704,2604.36 V 2480 h 15 v 72.41 c 0.16,6.29 1.17,11.74 3.02,16.95 1.84,5.42 4.43,9.69 7.75,13.45 3.05,3.83 7.34,6.74 12.11,8.91 4.47,2.26 10.22,3.25 16.35,3.25 6.07,0.01 11.28,-0.97 15.4,-2.89 3.91,-1.62 7.39,-4.58 9.81,-7.94 2.27,-3.08 4.11,-7.34 5.08,-11.91 0.79,-4.3 1.45,-9.49 1.45,-14.78 V 2480 h 15 v 80.02 c -0.33,7.72 -0.73,14.06 -2.19,20 -1.72,6.26 -3.97,10.95 -7.53,15.04 -3.65,4.42 -8.3,7.28 -14.2,9.53 -5.92,2.39 -13.24,3.38 -21.99,3.38 -8.93,0.01 -17.08,-2.29 -24.53,-6.88 -7.62,-4.27 -12.62,-10.63 -15.53,-18.18 v 21.45 h -15" /><path
             id="path108"
             style="fill:#ffffff;fill-opacity:1;fill-rule:nonzero;stroke:none"
             d="M 2921.97,2550.98 H 2842 c 0.63,5.59 1.95,11.04 3.95,16.38 1.68,5.55 4.68,10.05 8.02,14.11 3.02,4.24 7.41,7.33 12.2,9.8 4.74,2.71 10.3,3.7 16.53,3.7 5.84,0.01 11.5,-1.24 16.28,-3.7 4.47,-2.23 8.86,-5.74 12.21,-9.8 3.29,-3.89 5.94,-8.73 7.78,-13.99 1.52,-5.09 2.84,-10.76 3,-16.5 z m -79.97,-13 h 94.97 c 0,8.7 -0.48,17.25 -2.39,25.69 -2.11,8.56 -5.07,15.93 -9.45,22.46 -4.42,6.81 -10.08,11.78 -17.08,15.81 -7.03,4.04 -15.46,6.03 -25.35,6.03 -9.96,0.01 -18.14,-1.89 -25.23,-5.66 -7.24,-3.53 -12.86,-8.73 -17.33,-14.9 -4.51,-5.97 -7.76,-13.18 -9.92,-21.02 -2.22,-7.64 -3.22,-15.85 -3.22,-24.03 0,-8.6 1.08,-17.18 3.23,-25.11 2.09,-7.68 5.49,-14.9 9.97,-20.91 4.43,-5.79 10.29,-10.74 17.41,-14.18 6.92,-3.16 15.57,-5.16 25.33,-5.16 15.38,0 27.83,3.76 36.39,11.28 8.45,7.76 14.44,18.31 17.64,32.38 h -15 c -2.73,-9.47 -6.74,-17.26 -13,-23.02 -6.59,-5.64 -14.93,-8.64 -26.02,-8.64 -7.54,0 -13.41,1.52 -18.56,4.58 -5.26,3.2 -9.39,6.92 -12.76,11.58 -3.58,4.94 -5.82,9.93 -7.35,15.81 -1.62,5.88 -2.28,11.55 -2.28,17.01" /><path
             id="path110"
             style="fill:#ffffff;fill-opacity:1;fill-rule:nonzero;stroke:none"
             d="M 2957,2604.36 V 2480 h 15 v 72.41 c 0.16,6.29 1.17,11.74 3.02,16.95 1.84,5.42 4.43,9.69 7.75,13.45 3.05,3.83 7.34,6.74 12.11,8.91 4.47,2.26 10.22,3.25 16.35,3.25 6.07,0.01 11.28,-0.97 15.4,-2.89 3.91,-1.62 7.39,-4.58 9.81,-7.94 2.27,-3.08 4.11,-7.34 5.08,-11.91 0.79,-4.3 1.45,-9.49 1.45,-14.78 V 2480 h 15 v 80.02 c -0.33,7.72 -0.73,14.06 -2.19,20 -1.72,6.26 -3.97,10.95 -7.53,15.04 -3.65,4.42 -8.3,7.28 -14.2,9.53 -5.92,2.39 -13.24,3.38 -21.99,3.38 -8.93,0.01 -17.08,-2.29 -24.53,-6.88 -7.62,-4.27 -12.62,-10.63 -15.53,-18.18 v 21.45 h -15" /><path
             id="path112"
             style="fill:#ffffff;fill-opacity:1;fill-rule:nonzero;stroke:none"
             d="m 3109.98,2603.97 v 36.98 H 3095 v -36.98 h -21.59 v -13 H 3095 l 0.28,-84.45 c -0.25,-10.38 1.73,-17.75 5.66,-21.66 3.62,-3.86 10.87,-5.86 20.81,-5.86 1.95,0 4.4,0 6.61,0 2.09,0 4.41,0 6.62,0 v 13 c -4.6,-0.67 -8.57,-1 -12.85,-1 -5.44,0.32 -8.78,1.88 -10.13,4.69 -1.34,2.9 -2.02,6.69 -2.02,11.65 v 83.63 h 25 v 13 h -25" /></g></g><path
         id="path114"
         style="fill:#ff9300;fill-opacity:1;fill-rule:nonzero;stroke:none"
         d="m 4517.92,194.215 h 2426.29 v 2525.2 H 4517.92 Z" /><path
         id="path116"
         style="fill:none;stroke:#000000;stroke-width:10;stroke-linecap:butt;stroke-linejoin:miter;stroke-miterlimit:4;stroke-dasharray:none;stroke-opacity:1"
         d="m 4517.92,194.215 h 2426.29 v 2525.2 H 4517.92 Z" /><g
         id="g118"><g
           clip-path="url(#clipPath124)"
           id="g120"><path
             id="path126"
             style="fill:#ffffff;fill-opacity:1;fill-rule:nonzero;stroke:none"
             d="m 4841.5,1436.98 34.33,87.83 33.09,-87.83 z m 25.92,103.97 -68.86,-170.95 h 17.28 l 20.63,52.98 h 77.98 l 20.88,-52.98 h 17.51 l -67.17,170.95 h -18.25" /><path
             id="path128"
             style="fill:#ffffff;fill-opacity:1;fill-rule:nonzero;stroke:none"
             d="m 5039.98,1457.86 h 14.99 c -0.65,6.77 -1.7,12.55 -4.13,17.52 -2.71,5.16 -5.7,9.14 -9.82,12.56 -4.14,3.44 -8.91,5.94 -14.33,7.58 -5.65,1.79 -11.28,2.45 -17.6,2.45 -5.54,0.01 -11.05,-0.65 -16.64,-1.94 -5.73,-0.96 -10.64,-3.29 -15.17,-6.03 -4.62,-2.73 -8.2,-6.35 -11.03,-10.86 -2.92,-4.23 -4.25,-9.9 -4.25,-16.16 0,-5.3 0.89,-9.78 2.67,-13.4 1.56,-3.48 4.24,-6.67 7.39,-9.17 3.14,-2.3 6.83,-4.58 11.03,-6.27 4.18,-1.4 8.82,-3.18 13.83,-4.47 l 19.64,-4.34 c 3.22,-0.58 6.77,-1.77 10.08,-2.89 3.1,-0.94 6.26,-2.54 8.84,-4.24 2.43,-1.42 4.66,-3.78 6.19,-6.28 1.32,-2.46 2.31,-5.58 2.31,-9.28 -0.32,-4.21 -1.09,-7.99 -3.28,-10.97 -2.41,-2.87 -4.96,-5.44 -8.36,-7.37 -3.5,-1.7 -7.05,-3.3 -11.01,-4.1 -4.07,-0.54 -7.8,-1.2 -11.52,-1.2 -10.45,0 -18.7,2.6 -25.56,7.8 -6.94,5.26 -10.61,12.91 -11.25,23.14 h -15 c 1.28,-15.17 6.46,-26.14 15.53,-32.86 8.91,-6.42 20.94,-10.08 35.56,-10.08 5.75,0 11.65,0.64 17.6,1.92 5.72,1.31 11.28,3.4 16.01,6.36 4.51,3.2 8.64,6.79 11.69,11.5 2.92,4.79 4.58,10.43 4.58,17.14 -0.33,5.46 -1.06,10.15 -3.16,14.14 -2.37,4.32 -4.81,7.36 -8.12,10.08 -3.53,3 -7.1,4.91 -11.39,6.59 -4.39,1.77 -8.61,2.84 -12.97,3.49 l -20.39,4.55 c -2.9,0.72 -5.42,1.48 -8.49,2.51 -3.22,1.28 -5.9,2.36 -8.48,3.95 -2.91,1.86 -4.73,3.57 -6.42,5.9 -1.89,2.61 -2.55,5.16 -2.55,8.51 0,4.11 0.89,7.34 2.69,10.06 1.57,2.82 4.17,4.92 7.11,6.6 2.67,1.91 6.16,2.87 9.67,3.59 3.36,0.75 6.99,1.08 10.42,1.08 4.12,0.01 8.58,-0.52 12.5,-1.56 3.8,-0.85 7.4,-2.69 10.42,-4.93 2.75,-2.07 5.43,-5.07 7.22,-8.51 1.79,-3.42 2.79,-7.47 2.95,-12.11" /><path
             id="path130"
             style="fill:#ffffff;fill-opacity:1;fill-rule:nonzero;stroke:none"
             d="m 5082,1540.95 v -24.22 h 15 v 24.22 z m 0,-47.14 V 1370 h 15 v 123.81 h -15" /><path
             id="path132"
             style="fill:#ffffff;fill-opacity:1;fill-rule:nonzero;stroke:none"
             d="m 5233.97,1370.34 v 170.61 h -15 v -70.11 c -1.93,4.54 -3.9,8.41 -6.88,11.77 -3,3.49 -6.38,6.2 -10.23,8.52 -4.13,2.61 -7.98,4.03 -12.39,5.15 -4.56,1.36 -8.94,1.69 -13.59,1.69 -9.78,0.01 -17.72,-1.77 -24.69,-5.3 -7.05,-3.41 -12.8,-8.29 -17.46,-14.29 -4.9,-5.81 -8.1,-12.99 -10.35,-20.91 -2.38,-7.75 -3.38,-16.3 -3.38,-25.11 0,-8.6 1.12,-17.18 3.36,-25.11 2.13,-7.68 5.69,-14.9 10.34,-20.91 4.41,-5.79 10.46,-10.74 17.43,-14.18 6.92,-3.16 15.17,-5.16 24.62,-5.16 4.24,0 9.02,0.64 13.58,1.92 4.46,1.3 8.86,3.06 12.86,5.36 3.94,2.55 7.56,5.14 10.69,8.49 2.83,3.43 5.48,7.02 7.09,11 h 0.19 l -0.19,-23.43 z m -98.97,61.64 c 0,6.43 0.76,12.82 2.28,19.16 1.43,6.63 3.92,12 7.19,16.97 3.12,5.27 7.48,9.03 12.59,12.16 5.1,3.37 11.29,4.7 18.49,4.7 7.81,0.01 14.75,-1.57 20.28,-4.7 5.24,-2.89 9.99,-7.18 13.42,-12.16 3.35,-4.67 5.91,-10.63 7.44,-16.97 1.29,-6.06 2.28,-12.73 2.28,-19.16 -0.33,-6.42 -0.76,-12.81 -2.28,-19.15 -1.75,-6.29 -4,-12.01 -7.44,-16.99 -3.51,-4.91 -7.9,-9.02 -13.42,-12.15 -5.8,-3.03 -12.28,-4.69 -20.28,-4.69 -7.39,0 -13.36,1.56 -18.49,4.69 -5.13,3.24 -9.31,7.19 -12.59,12.15 -3.43,5.04 -5.67,10.64 -7.19,16.99 -1.62,6.4 -2.28,12.72 -2.28,19.15" /><path
             id="path134"
             style="fill:#ffffff;fill-opacity:1;fill-rule:nonzero;stroke:none"
             d="M 5351.97,1440.98 H 5272 c 0.63,5.59 1.95,11.04 3.95,16.38 1.68,5.55 4.68,10.05 8.02,14.11 3.02,4.24 7.41,7.33 12.2,9.8 4.74,2.71 10.3,3.7 16.53,3.7 5.84,0.01 11.5,-1.24 16.28,-3.7 4.47,-2.23 8.86,-5.74 12.21,-9.8 3.29,-3.89 5.94,-8.73 7.78,-13.99 1.52,-5.09 2.84,-10.76 3,-16.5 z m -79.97,-13 h 94.97 c 0,8.7 -0.48,17.25 -2.39,25.69 -2.11,8.56 -5.07,15.93 -9.45,22.46 -4.42,6.81 -10.08,11.78 -17.08,15.81 -7.03,4.04 -15.46,6.03 -25.35,6.03 -9.96,0.01 -18.14,-1.89 -25.23,-5.66 -7.24,-3.53 -12.86,-8.73 -17.33,-14.9 -4.51,-5.97 -7.76,-13.18 -9.92,-21.02 -2.22,-7.64 -3.22,-15.85 -3.22,-24.03 0,-8.6 1.08,-17.18 3.23,-25.11 2.09,-7.68 5.49,-14.9 9.97,-20.91 4.43,-5.79 10.29,-10.74 17.41,-14.18 6.92,-3.16 15.57,-5.16 25.33,-5.16 15.38,0 27.83,3.76 36.39,11.28 8.45,7.76 14.44,18.31 17.64,32.38 h -15 c -2.73,-9.47 -6.74,-17.26 -13,-23.02 -6.59,-5.64 -14.93,-8.64 -26.02,-8.64 -7.54,0 -13.41,1.52 -18.56,4.58 -5.26,3.2 -9.39,6.92 -12.76,11.58 -3.58,4.94 -5.82,9.93 -7.35,15.81 -1.62,5.88 -2.28,11.55 -2.28,17.01" /><path
             id="path136"
             style="fill:#ffffff;fill-opacity:1;fill-rule:nonzero;stroke:none"
             d="m 5582.09,1489.44 h 16.32 c -1.25,9.14 -3.8,16.87 -8.03,23.75 -4.37,7.15 -9.53,12.69 -15.85,17.42 -6.5,4.87 -13.37,8.31 -21.12,10.72 -7.9,2.64 -15.72,3.62 -23.86,3.62 -13.62,0.02 -25.25,-2.45 -35.41,-7.36 -10.2,-4.76 -18.57,-11.48 -25.25,-19.75 -6.98,-8.21 -11.66,-17.77 -14.95,-28.53 -3.61,-10.53 -4.94,-22.08 -4.94,-33.95 0,-11.67 1.64,-23.21 4.94,-33.97 2.97,-10.56 8.27,-20.23 14.95,-28.42 6.38,-8.17 15.09,-14.72 25.25,-19.63 10.12,-4.67 21.97,-7.34 35.41,-7.34 9.89,0 19.22,1.64 27.47,4.91 8.23,3.31 15.39,7.89 21.46,13.84 5.93,6.04 11.04,13.17 14.88,21.64 3.72,8.68 6.32,18 7.44,28.56 h -16.32 c -0.95,-7.66 -2.63,-14.84 -5.51,-21.48 -3.2,-6.46 -6.64,-12.43 -11.28,-17.39 -4.87,-4.65 -10.16,-8.88 -16.56,-11.77 -6.44,-2.65 -13.59,-4.31 -21.58,-4.31 -11.55,0 -21.13,2.16 -29.28,6.48 -8.25,4.51 -14.84,10.07 -20.05,17.19 -5.27,7.24 -9.04,15.23 -11.52,24.28 -2.7,9.07 -3.7,18.23 -3.7,27.53 0,9.62 1.23,18.66 3.7,27.63 2.25,9.27 6.32,17.03 11.52,24.17 5.13,7.38 11.89,12.86 20.05,17.19 8.06,4.5 17.91,6.48 29.28,6.48 6.04,0.02 12.18,-0.92 17.86,-2.76 5.55,-1.56 10.89,-4.51 15.61,-8.03 4.71,-3.25 8.71,-7.89 12,-13.08 3.27,-4.89 5.64,-11.08 7.07,-17.64" /><path
             id="path138"
             style="fill:#ffffff;fill-opacity:1;fill-rule:nonzero;stroke:none"
             d="m 5675.48,1484.97 c 7.05,0.01 13.54,-1.53 18.99,-4.58 5.29,-2.85 9.97,-7.07 13.56,-12.05 3.6,-4.75 6.33,-10.62 8.17,-16.96 1.78,-6.14 2.77,-12.81 2.77,-19.4 -0.33,-6.57 -0.92,-13.04 -2.77,-19.39 -1.91,-6.21 -4.57,-12 -8.17,-16.98 -3.6,-4.84 -8.12,-8.98 -13.56,-12.03 -5.61,-2.92 -11.78,-4.58 -18.99,-4.58 -7.37,0 -13.53,1.52 -18.98,4.58 -5.62,3.19 -9.98,7.06 -13.58,12.03 -3.9,5.11 -6.31,10.64 -8.15,16.98 -2.11,6.48 -2.77,12.81 -2.77,19.39 0,6.59 0.92,13.05 2.77,19.4 1.58,6.55 4.56,12 8.15,16.96 3.3,5.2 8.13,9 13.58,12.05 5.28,3.25 11.77,4.58 18.98,4.58 z m 0,13 c -9.59,0.01 -17.77,-1.77 -25.04,-5.3 -7.42,-3.41 -13.39,-8.24 -18.35,-14.17 -4.98,-5.76 -8.7,-12.86 -11.26,-20.78 -2.83,-7.84 -3.83,-16.38 -3.83,-25.36 0,-8.76 1.27,-17.42 3.83,-25.34 2.28,-7.61 6.31,-14.86 11.26,-20.8 4.93,-5.67 11.07,-10.62 18.35,-14.06 7.12,-3.16 15.61,-5.16 25.04,-5.16 9.27,0 17.78,1.72 25.05,5.16 7.1,3.72 13.38,8.13 18.33,14.06 4.67,6.19 8.71,12.87 11.27,20.8 2.51,8.25 3.84,16.37 3.84,25.34 -0.33,9.19 -1.28,17.43 -3.84,25.36 -2.6,8.02 -6.31,14.85 -11.27,20.78 -5.23,6.09 -11.06,10.65 -18.33,14.17 -7.45,3.64 -15.62,5.3 -25.05,5.3" /><path
             id="path140"
             style="fill:#ffffff;fill-opacity:1;fill-rule:nonzero;stroke:none"
             d="M 5756,1494.36 V 1370 h 15 v 69.27 c 0,6.82 0.72,12.64 2.16,18.17 1.38,5.72 3.63,10.33 6.59,14.42 2.72,4.13 6.82,7.28 11.55,9.61 4.63,2.51 10.3,3.5 16.72,3.5 4.8,0.01 8.89,-0.81 12.26,-2.41 3.27,-1.46 6.05,-3.81 8.05,-6.62 1.9,-2.78 3.45,-6.09 4.33,-9.86 0.66,-3.45 1.32,-7.73 1.32,-11.89 V 1370 h 14.99 v 70.23 c -0.33,6.03 0.52,11.35 1.56,16.72 0.86,5.39 2.85,10.15 5.41,14.32 2.26,4.41 6.02,7.48 10.34,9.96 4.24,2.75 9.79,3.74 16.36,3.74 10.68,0.01 18.5,-2.69 22.83,-8.06 4.16,-5.35 6.48,-13.19 6.48,-23.44 V 1370 h 15 v 84.36 c -0.32,29.28 -13.67,43.61 -41.01,43.61 -8.47,0.01 -15.84,-2 -23.03,-6 -7.5,-3.99 -12.64,-10.08 -16.32,-18.24 -2.43,8.25 -6.64,14.24 -13.23,18.24 -6.72,4.01 -13.95,6 -22.06,6 -10.12,0.01 -18.25,-2.17 -24.69,-6.52 -6.64,-4.15 -11.64,-10.36 -15.61,-18.07 h -1.19 v 20.98 H 5756" /><path
             id="path142"
             style="fill:#ffffff;fill-opacity:1;fill-rule:nonzero;stroke:none"
             d="m 5956,1494.34 v -170.32 h 15 v 69.86 c 1.63,-4.44 3.93,-8.41 6.92,-11.77 2.69,-3.06 6.44,-6.15 10.33,-8.39 3.81,-2.15 8.11,-3.92 12.66,-5.03 4.23,-1.02 9.08,-1.69 13.62,-1.69 9.4,0 17.88,1.72 24.94,5.16 6.89,3.72 12.92,8.17 17.62,14.18 4.68,6.23 8.2,12.98 10.47,20.91 2.08,8.18 3.41,16.3 3.41,25.11 -0.33,9.02 -1.14,17.18 -3.41,25.11 -2.45,8.1 -5.74,14.89 -10.43,20.91 -4.74,6.21 -10.56,10.77 -17.6,14.29 -7.21,3.64 -15.32,5.3 -24.87,5.3 -10.42,0.01 -19.31,-2.38 -27.32,-7.13 -8.12,-4.68 -13.79,-11.45 -17.34,-20.14 h -0.19 v 23.64 z m 99.97,-62.36 c -0.33,-6.42 -0.77,-12.81 -2.31,-19.15 -1.75,-6.29 -3.96,-12.01 -7.28,-16.99 -3.45,-4.91 -7.58,-9.02 -12.75,-12.15 -5.38,-3.03 -11.4,-4.69 -18.69,-4.69 -8.41,0 -14.94,1.56 -20.52,4.69 -5.72,3.24 -10.12,7.19 -13.61,12.15 -3.75,5.04 -5.98,10.64 -7.51,16.99 -1.64,6.4 -2.3,12.72 -2.3,19.15 0,7.07 0.68,13.81 2.05,20.24 1.36,6.69 3.75,12.05 7.15,16.86 3.34,5.12 7.94,8.66 13.61,11.55 5.4,3.01 12.71,4.34 21.13,4.34 6.97,0.01 13.52,-1.57 18.69,-4.7 4.96,-2.89 9.42,-7.18 12.75,-12.16 3.19,-4.67 5.75,-10.63 7.28,-16.97 1.32,-6.06 2.31,-12.73 2.31,-19.16" /><path
             id="path144"
             style="fill:#ffffff;fill-opacity:1;fill-rule:nonzero;stroke:none"
             d="m 6146.48,1484.97 c 7.05,0.01 13.54,-1.53 18.99,-4.58 5.29,-2.85 9.97,-7.07 13.56,-12.05 3.6,-4.75 6.33,-10.62 8.17,-16.96 1.78,-6.14 2.77,-12.81 2.77,-19.4 -0.33,-6.57 -0.92,-13.04 -2.77,-19.39 -1.91,-6.21 -4.57,-12 -8.17,-16.98 -3.6,-4.84 -8.12,-8.98 -13.56,-12.03 -5.61,-2.92 -11.78,-4.58 -18.99,-4.58 -7.37,0 -13.53,1.52 -18.98,4.58 -5.62,3.19 -9.98,7.06 -13.58,12.03 -3.9,5.11 -6.31,10.64 -8.15,16.98 -2.11,6.48 -2.77,12.81 -2.77,19.39 0,6.59 0.92,13.05 2.77,19.4 1.58,6.55 4.56,12 8.15,16.96 3.3,5.2 8.13,9 13.58,12.05 5.28,3.25 11.77,4.58 18.98,4.58 z m 0,13 c -9.59,0.01 -17.77,-1.77 -25.04,-5.3 -7.42,-3.41 -13.39,-8.24 -18.35,-14.17 -4.98,-5.76 -8.7,-12.86 -11.26,-20.78 -2.83,-7.84 -3.83,-16.38 -3.83,-25.36 0,-8.76 1.27,-17.42 3.83,-25.34 2.28,-7.61 6.31,-14.86 11.26,-20.8 4.93,-5.67 11.07,-10.62 18.35,-14.06 7.12,-3.16 15.61,-5.16 25.04,-5.16 9.27,0 17.78,1.72 25.05,5.16 7.1,3.72 13.38,8.13 18.33,14.06 4.67,6.19 8.71,12.87 11.27,20.8 2.51,8.25 3.84,16.37 3.84,25.34 -0.33,9.19 -1.28,17.43 -3.84,25.36 -2.6,8.02 -6.31,14.85 -11.27,20.78 -5.23,6.09 -11.06,10.65 -18.33,14.17 -7.45,3.64 -15.62,5.3 -25.05,5.3" /><path
             id="path146"
             style="fill:#ffffff;fill-opacity:1;fill-rule:nonzero;stroke:none"
             d="M 6228,1494.36 V 1370 h 15 v 72.41 c 0.16,6.29 1.17,11.74 3.02,16.95 1.84,5.42 4.43,9.69 7.75,13.45 3.05,3.83 7.34,6.74 12.11,8.91 4.47,2.26 10.22,3.25 16.35,3.25 6.07,0.01 11.28,-0.97 15.4,-2.89 3.91,-1.62 7.39,-4.58 9.81,-7.94 2.27,-3.08 4.11,-7.34 5.08,-11.91 0.79,-4.3 1.45,-9.49 1.45,-14.78 V 1370 h 15 v 80.02 c -0.33,7.72 -0.73,14.06 -2.19,20 -1.72,6.26 -3.97,10.95 -7.53,15.04 -3.65,4.42 -8.3,7.28 -14.2,9.53 -5.92,2.39 -13.24,3.38 -21.99,3.38 -8.93,0.01 -17.08,-2.29 -24.53,-6.88 -7.62,-4.27 -12.62,-10.63 -15.53,-18.18 v 21.45 h -15" /><path
             id="path148"
             style="fill:#ffffff;fill-opacity:1;fill-rule:nonzero;stroke:none"
             d="M 6444.97,1440.98 H 6365 c 0.63,5.59 1.95,11.04 3.95,16.38 1.68,5.55 4.68,10.05 8.02,14.11 3.02,4.24 7.41,7.33 12.2,9.8 4.74,2.71 10.3,3.7 16.53,3.7 5.84,0.01 11.5,-1.24 16.28,-3.7 4.47,-2.23 8.86,-5.74 12.21,-9.8 3.29,-3.89 5.94,-8.73 7.78,-13.99 1.52,-5.09 2.84,-10.76 3,-16.5 z m -79.97,-13 h 94.97 c 0,8.7 -0.48,17.25 -2.39,25.69 -2.11,8.56 -5.07,15.93 -9.45,22.46 -4.42,6.81 -10.08,11.78 -17.08,15.81 -7.03,4.04 -15.46,6.03 -25.35,6.03 -9.96,0.01 -18.14,-1.89 -25.23,-5.66 -7.24,-3.53 -12.86,-8.73 -17.33,-14.9 -4.51,-5.97 -7.76,-13.18 -9.92,-21.02 -2.22,-7.64 -3.22,-15.85 -3.22,-24.03 0,-8.6 1.08,-17.18 3.23,-25.11 2.09,-7.68 5.49,-14.9 9.97,-20.91 4.43,-5.79 10.29,-10.74 17.41,-14.18 6.92,-3.16 15.57,-5.16 25.33,-5.16 15.38,0 27.83,3.76 36.39,11.28 8.45,7.76 14.44,18.31 17.64,32.38 h -15 c -2.73,-9.47 -6.74,-17.26 -13,-23.02 -6.59,-5.64 -14.93,-8.64 -26.02,-8.64 -7.54,0 -13.41,1.52 -18.56,4.58 -5.26,3.2 -9.39,6.92 -12.76,11.58 -3.58,4.94 -5.82,9.93 -7.35,15.81 -1.62,5.88 -2.28,11.55 -2.28,17.01" /><path
             id="path150"
             style="fill:#ffffff;fill-opacity:1;fill-rule:nonzero;stroke:none"
             d="M 6481,1494.36 V 1370 h 15 v 72.41 c 0.16,6.29 1.17,11.74 3.02,16.95 1.84,5.42 4.43,9.69 7.75,13.45 3.05,3.83 7.34,6.74 12.11,8.91 4.47,2.26 10.22,3.25 16.35,3.25 6.07,0.01 11.28,-0.97 15.4,-2.89 3.91,-1.62 7.39,-4.58 9.81,-7.94 2.27,-3.08 4.11,-7.34 5.08,-11.91 0.79,-4.3 1.45,-9.49 1.45,-14.78 V 1370 h 15 v 80.02 c -0.33,7.72 -0.73,14.06 -2.19,20 -1.72,6.26 -3.97,10.95 -7.53,15.04 -3.65,4.42 -8.3,7.28 -14.2,9.53 -5.92,2.39 -13.24,3.38 -21.99,3.38 -8.93,0.01 -17.08,-2.29 -24.53,-6.88 -7.62,-4.27 -12.62,-10.63 -15.53,-18.18 v 21.45 h -15" /><path
             id="path152"
             style="fill:#ffffff;fill-opacity:1;fill-rule:nonzero;stroke:none"
             d="m 6633.98,1493.97 v 36.98 H 6619 v -36.98 h -21.59 v -13 H 6619 l 0.28,-84.45 c -0.25,-10.38 1.73,-17.75 5.66,-21.66 3.62,-3.86 10.87,-5.86 20.81,-5.86 1.95,0 4.4,0 6.61,0 2.09,0 4.41,0 6.62,0 v 13 c -4.6,-0.67 -8.57,-1 -12.85,-1 -5.44,0.32 -8.78,1.88 -10.13,4.69 -1.34,2.9 -2.02,6.69 -2.02,11.65 v 83.63 h 25 v 13 h -25" /></g></g><path
         id="path154"
         style="fill:#f9ba00;fill-opacity:1;fill-rule:nonzero;stroke:none"
         d="m 319.523,1694.08 h 3992.81 v 642.109 H 319.523 Z" /><path
         id="path156"
         style="fill:none;stroke:#000000;stroke-width:10;stroke-linecap:butt;stroke-linejoin:miter;stroke-miterlimit:4;stroke-dasharray:none;stroke-opacity:1"
         d="m 319.523,1694.08 h 3992.81 v 642.109 H 319.523 Z" /><g
         id="g158"><g
           clip-path="url(#clipPath164)"
           id="g160"><path
             id="path166"
             style="fill:#ffffff;fill-opacity:1;fill-rule:nonzero;stroke:none"
             d="M 1336,2086.95 V 1930 h 102.97 v 13 h -87.99 v 143.95 H 1336" /><path
             id="path168"
             style="fill:#ffffff;fill-opacity:1;fill-rule:nonzero;stroke:none"
             d="m 1451,2086.95 v -22.22 h 13.98 v 22.22 z m 0,-43.47 V 1930 h 13.98 v 113.48 H 1451" /><path
             id="path170"
             style="fill:#ffffff;fill-opacity:1;fill-rule:nonzero;stroke:none"
             d="m 1559.97,2010.11 h 14 c -0.62,6.46 -1.54,11.52 -3.74,16.06 -2.26,4.83 -5.14,8.4 -8.87,11.55 -3.84,3.24 -8.03,5.47 -12.92,6.98 -5.05,1.61 -10.2,2.27 -15.91,2.27 -5.15,0.01 -9.98,-0.59 -15.03,-1.77 -5.21,-0.91 -9.61,-3.02 -13.7,-5.53 -4.35,-2.4 -7.41,-5.83 -9.97,-9.95 -2.83,-4.03 -3.83,-9.06 -3.83,-14.81 0,-4.84 0.8,-8.96 2.41,-12.27 1.47,-3.18 3.82,-6.1 6.67,-8.39 2.83,-2.03 6.17,-4.2 9.95,-5.75 3.78,-1.37 7.95,-2.9 12.49,-4.08 l 17.73,-3.98 c 2.98,-0.56 6.09,-1.63 9.08,-2.66 2.88,-0.96 5.65,-2.32 7.98,-3.87 2.23,-1.52 4.19,-3.46 5.58,-5.75 1.09,-2 2.08,-5.12 2.08,-8.5 -0.33,-3.86 -0.99,-7.32 -2.95,-10.05 -1.97,-2.6 -4.47,-4.98 -7.54,-6.75 -3.21,-1.72 -6.36,-3.01 -9.93,-3.75 -3.75,-0.45 -7.02,-1.11 -10.36,-1.11 -9.24,0 -16.86,2.38 -23.05,7.14 -6.23,5.06 -9.56,11.84 -10.14,21.22 h -14 c 1.16,-13.7 5.88,-23.96 14.14,-30.13 8.22,-5.9 19.07,-9.23 32.39,-9.23 5.1,0 10.61,0.59 16.02,1.77 5.23,1.24 10.28,3.1 14.59,5.81 4.27,2.85 7.88,6.22 10.66,10.53 2.51,4.61 4.17,9.54 4.17,15.69 -0.33,5.03 -0.95,9.28 -2.84,12.93 -1.94,3.76 -4.35,6.74 -7.35,9.22 -3.25,2.51 -6.42,4.5 -10.28,6.03 -4.02,1.55 -7.76,2.61 -11.7,3.19 l -18.39,4.17 c -2.47,0.82 -4.89,1.37 -7.66,2.32 -3.02,1.06 -5.33,2.14 -7.67,3.61 -2.36,1.71 -4.27,3.25 -5.8,5.37 -1.62,2.24 -2.28,4.72 -2.28,7.8 0,3.84 0.8,6.72 2.39,9.22 1.46,2.6 3.7,4.5 6.31,6.03 2.38,1.64 5.48,2.64 8.6,3.29 3.02,0.66 6.21,0.99 9.26,0.99 3.74,0.01 7.63,-0.48 11.11,-1.44 3.27,-0.79 6.58,-2.45 9.27,-4.5 2.37,-1.73 4.83,-4.65 6.42,-7.81 1.47,-2.89 2.46,-6.85 2.61,-11.11" /><path
             id="path172"
             style="fill:#ffffff;fill-opacity:1;fill-rule:nonzero;stroke:none"
             d="m 1619.98,2043.97 v 33.98 H 1606 v -33.98 h -19.8 v -12 h 19.8 l 0.34,-77.66 c -0.26,-9.46 1.6,-16.33 5.22,-19.92 3.45,-3.39 10.04,-5.39 19.21,-5.39 1.77,0 4.06,0 6.09,0 1.75,0 4.08,0 6.12,0 v 12 c -4.27,-0.67 -7.89,-1 -11.82,-1 -5.03,0.29 -8.08,1.73 -9.32,4.31 -1.52,2.82 -1.86,6.16 -1.86,10.72 v 76.94 h 23 v 12 h -23" /><path
             id="path174"
             style="fill:#ffffff;fill-opacity:1;fill-rule:nonzero;stroke:none"
             d="M 1728,2086.95 V 1930 h 14.98 v 156.95 H 1728" /><path
             id="path176"
             style="fill:#ffffff;fill-opacity:1;fill-rule:nonzero;stroke:none"
             d="m 1794.98,2043.97 v 33.98 H 1781 v -33.98 h -19.8 v -12 h 19.8 l 0.34,-77.66 c -0.26,-9.46 1.6,-16.33 5.22,-19.92 3.45,-3.39 10.04,-5.39 19.21,-5.39 1.77,0 4.06,0 6.09,0 1.75,0 4.08,0 6.12,0 v 12 c -4.27,-0.67 -7.89,-1 -11.82,-1 -5.03,0.29 -8.08,1.73 -9.32,4.31 -1.52,2.82 -1.86,6.16 -1.86,10.72 v 76.94 h 23 v 12 h -23" /><path
             id="path178"
             style="fill:#ffffff;fill-opacity:1;fill-rule:nonzero;stroke:none"
             d="M 1919.97,1994.98 H 1846 c 0.59,5.08 1.8,10.04 3.64,14.88 1.63,4.9 4.32,9.13 7.42,12.83 3.08,3.8 6.87,6.66 11.3,8.9 4.32,2.39 9.53,3.38 15.3,3.38 5.38,0.01 10.61,-1.13 15.04,-3.38 4.19,-2.1 8.19,-5.21 11.3,-8.9 3.1,-3.6 5.5,-7.94 7.2,-12.72 1.63,-4.76 2.62,-9.77 2.77,-14.99 z m -73.97,-12 h 87.97 c -0.03,7.96 -0.45,15.79 -2.22,23.5 -2.02,7.9 -4.7,14.56 -8.77,20.52 -4.39,5.96 -9.34,10.77 -15.84,14.45 -6.55,3.86 -14.33,5.52 -23.48,5.52 -9.25,0.01 -16.82,-1.73 -23.39,-5.17 -6.67,-3.39 -11.94,-8 -16.08,-13.66 -4.2,-5.36 -7.21,-12.06 -9.21,-19.25 -2.32,-7.15 -2.98,-14.53 -2.98,-22.01 0,-8.04 1,-15.75 3,-23 2.01,-7.22 5.09,-13.65 9.25,-19.16 4.07,-5.41 9.54,-9.83 16.14,-12.99 6.47,-3.06 14.43,-4.73 23.49,-4.73 14.25,0 25.78,3.45 33.71,10.34 7.75,7.12 13.41,16.79 16.38,29.69 h -14 c -2.56,-8.47 -6.24,-15.83 -12.03,-21.11 -6.11,-5.26 -13.81,-7.92 -24.06,-7.92 -6.99,0 -12.42,1.4 -17.18,4.2 -4.98,3.08 -8.68,6.36 -11.79,10.64 -3.42,4.34 -5.39,9.12 -6.8,14.52 -1.45,5.61 -2.11,10.6 -2.11,15.62" /><path
             id="path180"
             style="fill:#ffffff;fill-opacity:1;fill-rule:nonzero;stroke:none"
             d="M 1952,2043.66 V 1930 h 13.98 v 63.25 c -0.32,6.25 0.66,11.52 1.99,16.56 1.01,5.12 3.36,9.44 6.09,13.17 2.71,3.75 6.27,6.68 10.63,8.8 4.12,2.2 9.48,3.19 15.39,3.19 4.4,0.01 8.19,-0.74 11.28,-2.2 2.97,-1.39 5.56,-3.47 7.41,-6.04 1.58,-2.47 3.17,-5.57 3.98,-9.01 0.56,-3.34 1.22,-7.06 1.22,-10.86 V 1930 h 14 v 64.13 c -0.33,5.56 0.48,10.35 1.44,15.25 0.82,5.11 2.61,9.25 4.98,13.06 2.24,4 5.54,6.85 9.52,9.12 3.68,2.42 9,3.41 15.04,3.41 9.71,0.01 17.04,-2.45 21.02,-7.36 3.66,-4.78 5.98,-12.04 5.98,-21.41 V 1930 h 14 v 77.09 c -0.32,26.89 -12.63,39.88 -37.89,39.88 -7.54,0.01 -14.6,-1.84 -21.25,-5.5 -6.92,-3.49 -11.67,-9.24 -15.06,-16.72 -2.3,7.56 -6.12,13.05 -12.22,16.72 -6.26,3.84 -12.87,5.5 -20.34,5.5 -9.31,0.01 -16.85,-1.99 -22.8,-5.95 -6.07,-3.64 -10.74,-9.47 -14.41,-16.52 h -1.1 v 19.16 H 1952" /><path
             id="path182"
             style="fill:#ffffff;fill-opacity:1;fill-rule:nonzero;stroke:none"
             d="m 2313.33,2039.91 h 14.95 c -1.12,8.23 -3.49,15.46 -7.37,21.76 -4.19,6.41 -8.73,11.63 -14.52,16 -5.91,4.49 -12.23,7.68 -19.34,9.92 -7.14,2.38 -14.42,3.36 -21.89,3.36 -12.37,0.02 -23.13,-2.24 -32.44,-6.73 -9.56,-4.23 -17.06,-10.52 -23.22,-18.09 -6.32,-7.29 -10.78,-16.3 -13.87,-26.16 -3.3,-9.84 -4.63,-20.23 -4.63,-31.11 0,-10.83 1.54,-21.25 4.63,-31.11 2.88,-9.77 7.71,-18.53 13.87,-26.03 6,-7.41 13.91,-13.5 23.22,-17.99 9.07,-4.39 20.12,-6.73 32.44,-6.73 9.18,0 17.63,1.52 25.18,4.56 7.44,3.19 14.11,7.3 19.68,12.77 5.56,5.7 10.11,12.1 13.64,19.86 3.3,8.04 5.79,16.5 6.82,26.19 h -14.96 c -0.91,-6.84 -2.42,-13.61 -5.05,-19.71 -2.79,-5.97 -6.09,-11.4 -10.34,-15.94 -4.3,-4.45 -9.31,-8.13 -15.18,-10.78 -6.18,-2.62 -12.46,-3.95 -19.79,-3.95 -10.46,0 -19.36,1.97 -26.83,5.92 -7.59,3.99 -13.61,9.19 -18.38,15.71 -5.07,6.64 -8.27,13.91 -10.54,22.18 -2.41,8.35 -3.41,16.67 -3.41,25.16 0,8.66 1.13,17.07 3.41,25.26 2.13,8.47 5.78,15.57 10.54,22.08 4.46,6.75 10.9,11.76 18.38,15.71 7.37,4.28 16.42,5.93 26.83,5.93 5.66,0.02 11.18,-0.84 16.39,-2.53 5.02,-1.49 9.97,-4.15 14.29,-7.37 4.05,-2.92 8,-7.23 11,-11.99 2.72,-4.45 5.16,-10.15 6.49,-16.15" /><path
             id="path184"
             style="fill:#ffffff;fill-opacity:1;fill-rule:nonzero;stroke:none"
             d="m 2398.98,2034.97 c 6.3,0.01 12.44,-1.4 17.44,-4.19 4.87,-2.72 9.17,-6.47 12.49,-11.03 3.02,-4.47 5.82,-9.73 7.51,-15.53 1.56,-5.54 2.55,-11.72 2.55,-17.74 -0.33,-5.85 -0.85,-11.93 -2.55,-17.75 -1.83,-5.71 -4.19,-10.98 -7.51,-15.53 -3.62,-4.29 -7.48,-8.22 -12.49,-11.01 -5.14,-2.53 -10.81,-4.19 -17.44,-4.19 -6.95,0 -12.44,1.39 -17.45,4.19 -5.19,3.06 -9.18,6.46 -12.5,11.01 -3.32,4.82 -5.81,9.73 -7.5,15.53 -1.87,5.9 -2.53,11.73 -2.53,17.75 0,6.2 0.84,11.93 2.53,17.74 1.51,6.06 4.19,10.98 7.5,15.53 3.31,4.64 7.49,8.24 12.5,11.03 4.83,2.86 10.83,4.19 17.45,4.19 z m 0,12 c -9.03,0.01 -16.42,-1.62 -23.14,-4.84 -6.99,-2.94 -12.35,-7.57 -16.92,-13 -4.87,-5.14 -8.03,-11.78 -10.39,-19.04 -2.53,-6.96 -3.53,-15 -3.53,-23.21 0,-8.18 1.18,-15.97 3.53,-23.22 2.19,-7.15 5.83,-13.61 10.39,-19.05 4.27,-5.3 10.21,-9.72 16.92,-12.88 6.44,-3.06 14.43,-4.73 23.14,-4.73 8.38,0 16.42,1.58 23.13,4.73 6.67,3.25 12.35,7.45 16.92,12.88 4.56,5.57 8.04,11.78 10.39,19.05 2.22,7.37 3.55,15 3.55,23.22 -0.33,8.25 -1.18,15.95 -3.55,23.21 -2.49,7.57 -5.82,13.61 -10.39,19.04 -4.58,5.72 -10.21,9.76 -16.92,13 -6.75,3.51 -14.42,4.84 -23.13,4.84" /><path
             id="path186"
             style="fill:#ffffff;fill-opacity:1;fill-rule:nonzero;stroke:none"
             d="M 2474,2043.66 V 1930 h 13.98 v 63.25 c -0.32,6.25 0.66,11.52 1.99,16.56 1.01,5.12 3.36,9.44 6.09,13.17 2.71,3.75 6.27,6.68 10.63,8.8 4.12,2.2 9.48,3.19 15.39,3.19 4.4,0.01 8.19,-0.74 11.28,-2.2 2.97,-1.39 5.56,-3.47 7.41,-6.04 1.58,-2.47 3.17,-5.57 3.98,-9.01 0.56,-3.34 1.22,-7.06 1.22,-10.86 V 1930 h 14 v 64.13 c -0.33,5.56 0.48,10.35 1.44,15.25 0.82,5.11 2.61,9.25 4.98,13.06 2.24,4 5.54,6.85 9.52,9.12 3.68,2.42 9,3.41 15.04,3.41 9.71,0.01 17.04,-2.45 21.02,-7.36 3.66,-4.78 5.98,-12.04 5.98,-21.41 V 1930 h 14 v 77.09 c -0.32,26.89 -12.63,39.88 -37.89,39.88 -7.54,0.01 -14.6,-1.84 -21.25,-5.5 -6.92,-3.49 -11.67,-9.24 -15.06,-16.72 -2.3,7.56 -6.12,13.05 -12.22,16.72 -6.26,3.84 -12.87,5.5 -20.34,5.5 -9.31,0.01 -16.85,-1.99 -22.8,-5.95 -6.07,-3.64 -10.74,-9.47 -14.41,-16.52 h -1.1 v 19.16 H 2474" /><path
             id="path188"
             style="fill:#ffffff;fill-opacity:1;fill-rule:nonzero;stroke:none"
             d="m 2657,2043.66 v -155.64 h 13.98 v 63.62 c 1.15,-3.98 3.59,-7.7 6.32,-10.78 2.63,-3.04 5.86,-5.65 9.4,-7.7 3.31,-1.78 7.38,-3.59 11.52,-4.61 4.06,-0.88 8.26,-1.55 12.39,-1.55 8.5,0 16.27,1.58 22.69,4.73 6.31,3.25 11.76,7.49 16.04,12.99 4.17,5.6 7.46,11.89 9.52,19.16 1.78,7.3 3.11,14.92 3.11,23 -0.33,8.11 -1.03,15.73 -3.09,23 -2.36,7.3 -5.24,13.64 -9.52,19.14 -4.39,5.83 -9.62,9.87 -16.03,13.11 -6.53,3.51 -13.97,4.84 -22.66,4.84 -9.51,0.01 -17.57,-2.17 -24.87,-6.52 -7.57,-4.15 -12.58,-10.47 -15.82,-18.4 h -0.1 v 21.61 z m 90.97,-57.18 c -0.33,-5.7 -0.7,-11.71 -2.09,-17.53 -1.69,-5.79 -3.61,-10.98 -6.61,-15.53 -3.09,-4.36 -6.85,-8.26 -11.54,-11.12 -4.93,-2.64 -10.33,-4.3 -16.93,-4.3 -7.6,0 -13.53,1.43 -18.6,4.3 -5.12,3.09 -9.15,6.57 -12.31,11.12 -3.44,4.74 -5.42,9.73 -6.81,15.53 -1.42,5.83 -2.1,11.66 -2.1,17.53 -0.32,6.65 0.62,12.65 1.86,18.52 0.97,5.88 3.42,11.02 6.5,15.42 2.97,4.6 7.19,7.93 12.32,10.58 4.91,2.64 11.51,3.97 19.14,3.97 6.33,0.01 12.25,-1.43 16.93,-4.3 4.45,-2.76 8.54,-6.58 11.54,-11.14 2.92,-4.4 5.21,-9.73 6.61,-15.53 1.1,-5.8 2.09,-11.64 2.09,-17.52" /><path
             id="path190"
             style="fill:#ffffff;fill-opacity:1;fill-rule:nonzero;stroke:none"
             d="m 2830.98,2034.97 c 6.3,0.01 12.44,-1.4 17.44,-4.19 4.87,-2.72 9.17,-6.47 12.49,-11.03 3.02,-4.47 5.82,-9.73 7.51,-15.53 1.56,-5.54 2.55,-11.72 2.55,-17.74 -0.33,-5.85 -0.85,-11.93 -2.55,-17.75 -1.83,-5.71 -4.19,-10.98 -7.51,-15.53 -3.62,-4.29 -7.48,-8.22 -12.49,-11.01 -5.14,-2.53 -10.81,-4.19 -17.44,-4.19 -6.95,0 -12.44,1.39 -17.45,4.19 -5.19,3.06 -9.18,6.46 -12.5,11.01 -3.32,4.82 -5.81,9.73 -7.5,15.53 -1.87,5.9 -2.53,11.73 -2.53,17.75 0,6.2 0.84,11.93 2.53,17.74 1.51,6.06 4.19,10.98 7.5,15.53 3.31,4.64 7.49,8.24 12.5,11.03 4.83,2.86 10.83,4.19 17.45,4.19 z m 0,12 c -9.03,0.01 -16.42,-1.62 -23.14,-4.84 -6.99,-2.94 -12.35,-7.57 -16.92,-13 -4.87,-5.14 -8.03,-11.78 -10.39,-19.04 -2.53,-6.96 -3.53,-15 -3.53,-23.21 0,-8.18 1.18,-15.97 3.53,-23.22 2.19,-7.15 5.83,-13.61 10.39,-19.05 4.27,-5.3 10.21,-9.72 16.92,-12.88 6.44,-3.06 14.43,-4.73 23.14,-4.73 8.38,0 16.42,1.58 23.13,4.73 6.67,3.25 12.35,7.45 16.92,12.88 4.56,5.57 8.04,11.78 10.39,19.05 2.22,7.37 3.55,15 3.55,23.22 -0.33,8.25 -1.18,15.95 -3.55,23.21 -2.49,7.57 -5.82,13.61 -10.39,19.04 -4.58,5.72 -10.21,9.76 -16.92,13 -6.75,3.51 -14.42,4.84 -23.13,4.84" /><path
             id="path192"
             style="fill:#ffffff;fill-opacity:1;fill-rule:nonzero;stroke:none"
             d="M 2906,2043.66 V 1930 h 13.98 v 66.11 c -0.18,5.86 1.06,10.72 2.74,15.47 1.44,4.9 4,8.86 6.98,12.3 2.76,3.47 6.63,6.14 10.93,8.12 4.08,1.98 9.2,2.97 14.75,2.97 5.4,0.01 10.14,-0.88 13.85,-2.64 3.63,-1.53 6.65,-4.17 8.83,-7.25 2.17,-2.77 3.72,-6.7 4.6,-10.88 0.65,-3.9 1.31,-8.66 1.31,-13.48 V 1930 h 14 v 73.14 c -0.33,7.02 -0.67,12.83 -1.99,18.27 -1.65,5.63 -3.6,10.02 -6.82,13.76 -3.28,4.03 -7.53,6.65 -12.89,8.71 -5.45,2.1 -12,3.09 -19.93,3.09 -8.2,0.01 -15.5,-2.09 -22.26,-6.28 -6.78,-4.09 -11.45,-9.74 -14.1,-16.64 v 19.61 H 2906" /><path
             id="path194"
             style="fill:#ffffff;fill-opacity:1;fill-rule:nonzero;stroke:none"
             d="M 3105.97,1994.98 H 3032 c 0.59,5.08 1.8,10.04 3.64,14.88 1.63,4.9 4.32,9.13 7.42,12.83 3.08,3.8 6.87,6.66 11.3,8.9 4.32,2.39 9.53,3.38 15.3,3.38 5.38,0.01 10.61,-1.13 15.04,-3.38 4.19,-2.1 8.19,-5.21 11.3,-8.9 3.1,-3.6 5.5,-7.94 7.2,-12.72 1.63,-4.76 2.62,-9.77 2.77,-14.99 z m -73.97,-12 h 87.97 c -0.03,7.96 -0.45,15.79 -2.22,23.5 -2.02,7.9 -4.7,14.56 -8.77,20.52 -4.39,5.96 -9.34,10.77 -15.84,14.45 -6.55,3.86 -14.33,5.52 -23.48,5.52 -9.25,0.01 -16.82,-1.73 -23.39,-5.17 -6.67,-3.39 -11.94,-8 -16.08,-13.66 -4.2,-5.36 -7.21,-12.06 -9.21,-19.25 -2.32,-7.15 -2.98,-14.53 -2.98,-22.01 0,-8.04 1,-15.75 3,-23 2.01,-7.22 5.09,-13.65 9.25,-19.16 4.07,-5.41 9.54,-9.83 16.14,-12.99 6.47,-3.06 14.43,-4.73 23.49,-4.73 14.25,0 25.78,3.45 33.71,10.34 7.75,7.12 13.41,16.79 16.38,29.69 h -14 c -2.56,-8.47 -6.24,-15.83 -12.03,-21.11 -6.11,-5.26 -13.81,-7.92 -24.06,-7.92 -6.99,0 -12.42,1.4 -17.18,4.2 -4.98,3.08 -8.68,6.36 -11.79,10.64 -3.42,4.34 -5.39,9.12 -6.8,14.52 -1.45,5.61 -2.11,10.6 -2.11,15.62" /><path
             id="path196"
             style="fill:#ffffff;fill-opacity:1;fill-rule:nonzero;stroke:none"
             d="M 3138,2043.66 V 1930 h 13.98 v 66.11 c -0.18,5.86 1.06,10.72 2.74,15.47 1.44,4.9 4,8.86 6.98,12.3 2.76,3.47 6.63,6.14 10.93,8.12 4.08,1.98 9.2,2.97 14.75,2.97 5.4,0.01 10.14,-0.88 13.85,-2.64 3.63,-1.53 6.65,-4.17 8.83,-7.25 2.17,-2.77 3.72,-6.7 4.6,-10.88 0.65,-3.9 1.31,-8.66 1.31,-13.48 V 1930 h 14 v 73.14 c -0.33,7.02 -0.67,12.83 -1.99,18.27 -1.65,5.63 -3.6,10.02 -6.82,13.76 -3.28,4.03 -7.53,6.65 -12.89,8.71 -5.45,2.1 -12,3.09 -19.93,3.09 -8.2,0.01 -15.5,-2.09 -22.26,-6.28 -6.78,-4.09 -11.45,-9.74 -14.1,-16.64 v 19.61 H 3138" /><path
             id="path198"
             style="fill:#ffffff;fill-opacity:1;fill-rule:nonzero;stroke:none"
             d="m 3277.98,2043.97 v 33.98 H 3264 v -33.98 h -19.8 v -12 h 19.8 l 0.34,-77.66 c -0.26,-9.46 1.6,-16.33 5.22,-19.92 3.45,-3.39 10.04,-5.39 19.21,-5.39 1.77,0 4.06,0 6.09,0 1.75,0 4.08,0 6.12,0 v 12 c -4.27,-0.67 -7.89,-1 -11.82,-1 -5.03,0.29 -8.08,1.73 -9.32,4.31 -1.52,2.82 -1.86,6.16 -1.86,10.72 v 76.94 h 23 v 12 h -23" /></g></g><path
         id="path200"
         style="fill:#f9ba00;fill-opacity:1;fill-rule:nonzero;stroke:none"
         d="m 319.523,984.078 h 3992.81 v 642.109 H 319.523 Z" /><path
         id="path202"
         style="fill:none;stroke:#000000;stroke-width:10;stroke-linecap:butt;stroke-linejoin:miter;stroke-miterlimit:4;stroke-dasharray:none;stroke-opacity:1"
         d="m 319.523,984.078 h 3992.81 v 642.109 H 319.523 Z" /><g
         id="g204"><g
           clip-path="url(#clipPath210)"
           id="g206"><path
             id="path212"
             style="fill:#ffffff;fill-opacity:1;fill-rule:nonzero;stroke:none"
             d="M 1336,1376.95 V 1220 h 102.97 v 13 h -87.99 v 143.95 H 1336" /><path
             id="path214"
             style="fill:#ffffff;fill-opacity:1;fill-rule:nonzero;stroke:none"
             d="m 1451,1376.95 v -22.22 h 13.98 v 22.22 z m 0,-43.47 V 1220 h 13.98 v 113.48 H 1451" /><path
             id="path216"
             style="fill:#ffffff;fill-opacity:1;fill-rule:nonzero;stroke:none"
             d="m 1559.97,1300.11 h 14 c -0.62,6.46 -1.54,11.52 -3.74,16.06 -2.26,4.83 -5.14,8.4 -8.87,11.55 -3.84,3.24 -8.03,5.47 -12.92,6.98 -5.05,1.61 -10.2,2.27 -15.91,2.27 -5.15,0.01 -9.98,-0.59 -15.03,-1.77 -5.21,-0.91 -9.61,-3.02 -13.7,-5.53 -4.35,-2.4 -7.41,-5.83 -9.97,-9.95 -2.83,-4.03 -3.83,-9.06 -3.83,-14.81 0,-4.84 0.8,-8.96 2.41,-12.27 1.47,-3.18 3.82,-6.1 6.67,-8.39 2.83,-2.03 6.17,-4.2 9.95,-5.75 3.78,-1.37 7.95,-2.9 12.49,-4.08 l 17.73,-3.98 c 2.98,-0.56 6.09,-1.63 9.08,-2.66 2.88,-0.96 5.65,-2.32 7.98,-3.87 2.23,-1.52 4.19,-3.46 5.58,-5.75 1.09,-2 2.08,-5.12 2.08,-8.5 -0.33,-3.86 -0.99,-7.32 -2.95,-10.05 -1.97,-2.6 -4.47,-4.98 -7.54,-6.75 -3.21,-1.72 -6.36,-3.01 -9.93,-3.75 -3.75,-0.45 -7.02,-1.11 -10.36,-1.11 -9.24,0 -16.86,2.38 -23.05,7.14 -6.23,5.06 -9.56,11.84 -10.14,21.22 h -14 c 1.16,-13.7 5.88,-23.96 14.14,-30.13 8.22,-5.9 19.07,-9.23 32.39,-9.23 5.1,0 10.61,0.59 16.02,1.77 5.23,1.24 10.28,3.1 14.59,5.81 4.27,2.85 7.88,6.22 10.66,10.53 2.51,4.61 4.17,9.54 4.17,15.69 -0.33,5.03 -0.95,9.28 -2.84,12.93 -1.94,3.76 -4.35,6.74 -7.35,9.22 -3.25,2.51 -6.42,4.5 -10.28,6.03 -4.02,1.55 -7.76,2.61 -11.7,3.19 l -18.39,4.17 c -2.47,0.82 -4.89,1.37 -7.66,2.32 -3.02,1.06 -5.33,2.14 -7.67,3.61 -2.36,1.71 -4.27,3.25 -5.8,5.37 -1.62,2.24 -2.28,4.72 -2.28,7.8 0,3.84 0.8,6.72 2.39,9.22 1.46,2.6 3.7,4.5 6.31,6.03 2.38,1.64 5.48,2.64 8.6,3.29 3.02,0.66 6.21,0.99 9.26,0.99 3.74,0.01 7.63,-0.48 11.11,-1.44 3.27,-0.79 6.58,-2.45 9.27,-4.5 2.37,-1.73 4.83,-4.65 6.42,-7.81 1.47,-2.89 2.46,-6.85 2.61,-11.11" /><path
             id="path218"
             style="fill:#ffffff;fill-opacity:1;fill-rule:nonzero;stroke:none"
             d="m 1619.98,1333.97 v 33.98 H 1606 v -33.98 h -19.8 v -12 h 19.8 l 0.34,-77.66 c -0.26,-9.46 1.6,-16.33 5.22,-19.92 3.45,-3.39 10.04,-5.39 19.21,-5.39 1.77,0 4.06,0 6.09,0 1.75,0 4.08,0 6.12,0 v 12 c -4.27,-0.67 -7.89,-1 -11.82,-1 -5.03,0.29 -8.08,1.73 -9.32,4.31 -1.52,2.82 -1.86,6.16 -1.86,10.72 v 76.94 h 23 v 12 h -23" /><path
             id="path220"
             style="fill:#ffffff;fill-opacity:1;fill-rule:nonzero;stroke:none"
             d="M 1728,1376.95 V 1220 h 14.98 v 156.95 H 1728" /><path
             id="path222"
             style="fill:#ffffff;fill-opacity:1;fill-rule:nonzero;stroke:none"
             d="m 1794.98,1333.97 v 33.98 H 1781 v -33.98 h -19.8 v -12 h 19.8 l 0.34,-77.66 c -0.26,-9.46 1.6,-16.33 5.22,-19.92 3.45,-3.39 10.04,-5.39 19.21,-5.39 1.77,0 4.06,0 6.09,0 1.75,0 4.08,0 6.12,0 v 12 c -4.27,-0.67 -7.89,-1 -11.82,-1 -5.03,0.29 -8.08,1.73 -9.32,4.31 -1.52,2.82 -1.86,6.16 -1.86,10.72 v 76.94 h 23 v 12 h -23" /><path
             id="path224"
             style="fill:#ffffff;fill-opacity:1;fill-rule:nonzero;stroke:none"
             d="M 1919.97,1284.98 H 1846 c 0.59,5.08 1.8,10.04 3.64,14.88 1.63,4.9 4.32,9.13 7.42,12.83 3.08,3.8 6.87,6.66 11.3,8.9 4.32,2.39 9.53,3.38 15.3,3.38 5.38,0.01 10.61,-1.13 15.04,-3.38 4.19,-2.1 8.19,-5.21 11.3,-8.9 3.1,-3.6 5.5,-7.94 7.2,-12.72 1.63,-4.76 2.62,-9.77 2.77,-14.99 z m -73.97,-12 h 87.97 c -0.03,7.96 -0.45,15.79 -2.22,23.5 -2.02,7.9 -4.7,14.56 -8.77,20.52 -4.39,5.96 -9.34,10.77 -15.84,14.45 -6.55,3.86 -14.33,5.52 -23.48,5.52 -9.25,0.01 -16.82,-1.73 -23.39,-5.17 -6.67,-3.39 -11.94,-8 -16.08,-13.66 -4.2,-5.36 -7.21,-12.06 -9.21,-19.25 -2.32,-7.15 -2.98,-14.53 -2.98,-22.01 0,-8.04 1,-15.75 3,-23 2.01,-7.22 5.09,-13.65 9.25,-19.16 4.07,-5.41 9.54,-9.83 16.14,-12.99 6.47,-3.06 14.43,-4.73 23.49,-4.73 14.25,0 25.78,3.45 33.71,10.34 7.75,7.12 13.41,16.79 16.38,29.69 h -14 c -2.56,-8.47 -6.24,-15.83 -12.03,-21.11 -6.11,-5.26 -13.81,-7.92 -24.06,-7.92 -6.99,0 -12.42,1.4 -17.18,4.2 -4.98,3.08 -8.68,6.36 -11.79,10.64 -3.42,4.34 -5.39,9.12 -6.8,14.52 -1.45,5.61 -2.11,10.6 -2.11,15.62" /><path
             id="path226"
             style="fill:#ffffff;fill-opacity:1;fill-rule:nonzero;stroke:none"
             d="M 1952,1333.66 V 1220 h 13.98 v 63.25 c -0.32,6.25 0.66,11.52 1.99,16.56 1.01,5.12 3.36,9.44 6.09,13.17 2.71,3.75 6.27,6.68 10.63,8.8 4.12,2.2 9.48,3.19 15.39,3.19 4.4,0.01 8.19,-0.74 11.28,-2.2 2.97,-1.39 5.56,-3.47 7.41,-6.04 1.58,-2.47 3.17,-5.57 3.98,-9.01 0.56,-3.34 1.22,-7.06 1.22,-10.86 V 1220 h 14 v 64.13 c -0.33,5.56 0.48,10.35 1.44,15.25 0.82,5.11 2.61,9.25 4.98,13.06 2.24,4 5.54,6.85 9.52,9.12 3.68,2.42 9,3.41 15.04,3.41 9.71,0.01 17.04,-2.45 21.02,-7.36 3.66,-4.78 5.98,-12.04 5.98,-21.41 V 1220 h 14 v 77.09 c -0.32,26.89 -12.63,39.88 -37.89,39.88 -7.54,0.01 -14.6,-1.84 -21.25,-5.5 -6.92,-3.49 -11.67,-9.24 -15.06,-16.72 -2.3,7.56 -6.12,13.05 -12.22,16.72 -6.26,3.84 -12.87,5.5 -20.34,5.5 -9.31,0.01 -16.85,-1.99 -22.8,-5.95 -6.07,-3.64 -10.74,-9.47 -14.41,-16.52 h -1.1 v 19.16 H 1952" /><path
             id="path228"
             style="fill:#ffffff;fill-opacity:1;fill-rule:nonzero;stroke:none"
             d="m 2313.33,1329.91 h 14.95 c -1.12,8.23 -3.49,15.46 -7.37,21.76 -4.19,6.41 -8.73,11.63 -14.52,16 -5.91,4.49 -12.23,7.68 -19.34,9.92 -7.14,2.38 -14.42,3.36 -21.89,3.36 -12.37,0.02 -23.13,-2.24 -32.44,-6.73 -9.56,-4.23 -17.06,-10.52 -23.22,-18.09 -6.32,-7.29 -10.78,-16.3 -13.87,-26.16 -3.3,-9.84 -4.63,-20.23 -4.63,-31.11 0,-10.83 1.54,-21.25 4.63,-31.11 2.88,-9.77 7.71,-18.53 13.87,-26.03 6,-7.41 13.91,-13.5 23.22,-17.99 9.07,-4.39 20.12,-6.73 32.44,-6.73 9.18,0 17.63,1.52 25.18,4.56 7.44,3.19 14.11,7.3 19.68,12.77 5.56,5.7 10.11,12.1 13.64,19.86 3.3,8.04 5.79,16.5 6.82,26.19 h -14.96 c -0.91,-6.84 -2.42,-13.61 -5.05,-19.71 -2.79,-5.97 -6.09,-11.4 -10.34,-15.94 -4.3,-4.45 -9.31,-8.13 -15.18,-10.78 -6.18,-2.62 -12.46,-3.95 -19.79,-3.95 -10.46,0 -19.36,1.97 -26.83,5.92 -7.59,3.99 -13.61,9.19 -18.38,15.71 -5.07,6.64 -8.27,13.91 -10.54,22.18 -2.41,8.35 -3.41,16.67 -3.41,25.16 0,8.66 1.13,17.07 3.41,25.26 2.13,8.47 5.78,15.57 10.54,22.08 4.46,6.75 10.9,11.76 18.38,15.71 7.37,4.28 16.42,5.93 26.83,5.93 5.66,0.02 11.18,-0.84 16.39,-2.53 5.02,-1.49 9.97,-4.15 14.29,-7.37 4.05,-2.92 8,-7.23 11,-11.99 2.72,-4.45 5.16,-10.15 6.49,-16.15" /><path
             id="path230"
             style="fill:#ffffff;fill-opacity:1;fill-rule:nonzero;stroke:none"
             d="m 2398.98,1324.97 c 6.3,0.01 12.44,-1.4 17.44,-4.19 4.87,-2.72 9.17,-6.47 12.49,-11.03 3.02,-4.47 5.82,-9.73 7.51,-15.53 1.56,-5.54 2.55,-11.72 2.55,-17.74 -0.33,-5.85 -0.85,-11.93 -2.55,-17.75 -1.83,-5.71 -4.19,-10.98 -7.51,-15.53 -3.62,-4.29 -7.48,-8.22 -12.49,-11.01 -5.14,-2.53 -10.81,-4.19 -17.44,-4.19 -6.95,0 -12.44,1.39 -17.45,4.19 -5.19,3.06 -9.18,6.46 -12.5,11.01 -3.32,4.82 -5.81,9.73 -7.5,15.53 -1.87,5.9 -2.53,11.73 -2.53,17.75 0,6.2 0.84,11.93 2.53,17.74 1.51,6.06 4.19,10.98 7.5,15.53 3.31,4.64 7.49,8.24 12.5,11.03 4.83,2.86 10.83,4.19 17.45,4.19 z m 0,12 c -9.03,0.01 -16.42,-1.62 -23.14,-4.84 -6.99,-2.94 -12.35,-7.57 -16.92,-13 -4.87,-5.14 -8.03,-11.78 -10.39,-19.04 -2.53,-6.96 -3.53,-15 -3.53,-23.21 0,-8.18 1.18,-15.97 3.53,-23.22 2.19,-7.15 5.83,-13.61 10.39,-19.05 4.27,-5.3 10.21,-9.72 16.92,-12.88 6.44,-3.06 14.43,-4.73 23.14,-4.73 8.38,0 16.42,1.58 23.13,4.73 6.67,3.25 12.35,7.45 16.92,12.88 4.56,5.57 8.04,11.78 10.39,19.05 2.22,7.37 3.55,15 3.55,23.22 -0.33,8.25 -1.18,15.95 -3.55,23.21 -2.49,7.57 -5.82,13.61 -10.39,19.04 -4.58,5.72 -10.21,9.76 -16.92,13 -6.75,3.51 -14.42,4.84 -23.13,4.84" /><path
             id="path232"
             style="fill:#ffffff;fill-opacity:1;fill-rule:nonzero;stroke:none"
             d="M 2474,1333.66 V 1220 h 13.98 v 63.25 c -0.32,6.25 0.66,11.52 1.99,16.56 1.01,5.12 3.36,9.44 6.09,13.17 2.71,3.75 6.27,6.68 10.63,8.8 4.12,2.2 9.48,3.19 15.39,3.19 4.4,0.01 8.19,-0.74 11.28,-2.2 2.97,-1.39 5.56,-3.47 7.41,-6.04 1.58,-2.47 3.17,-5.57 3.98,-9.01 0.56,-3.34 1.22,-7.06 1.22,-10.86 V 1220 h 14 v 64.13 c -0.33,5.56 0.48,10.35 1.44,15.25 0.82,5.11 2.61,9.25 4.98,13.06 2.24,4 5.54,6.85 9.52,9.12 3.68,2.42 9,3.41 15.04,3.41 9.71,0.01 17.04,-2.45 21.02,-7.36 3.66,-4.78 5.98,-12.04 5.98,-21.41 V 1220 h 14 v 77.09 c -0.32,26.89 -12.63,39.88 -37.89,39.88 -7.54,0.01 -14.6,-1.84 -21.25,-5.5 -6.92,-3.49 -11.67,-9.24 -15.06,-16.72 -2.3,7.56 -6.12,13.05 -12.22,16.72 -6.26,3.84 -12.87,5.5 -20.34,5.5 -9.31,0.01 -16.85,-1.99 -22.8,-5.95 -6.07,-3.64 -10.74,-9.47 -14.41,-16.52 h -1.1 v 19.16 H 2474" /><path
             id="path234"
             style="fill:#ffffff;fill-opacity:1;fill-rule:nonzero;stroke:none"
             d="m 2657,1333.66 v -155.64 h 13.98 v 63.62 c 1.15,-3.98 3.59,-7.7 6.32,-10.78 2.63,-3.04 5.86,-5.65 9.4,-7.7 3.31,-1.78 7.38,-3.59 11.52,-4.61 4.06,-0.88 8.26,-1.55 12.39,-1.55 8.5,0 16.27,1.58 22.69,4.73 6.31,3.25 11.76,7.49 16.04,12.99 4.17,5.6 7.46,11.89 9.52,19.16 1.78,7.3 3.11,14.92 3.11,23 -0.33,8.11 -1.03,15.73 -3.09,23 -2.36,7.3 -5.24,13.64 -9.52,19.14 -4.39,5.83 -9.62,9.87 -16.03,13.11 -6.53,3.51 -13.97,4.84 -22.66,4.84 -9.51,0.01 -17.57,-2.17 -24.87,-6.52 -7.57,-4.15 -12.58,-10.47 -15.82,-18.4 h -0.1 v 21.61 z m 90.97,-57.18 c -0.33,-5.7 -0.7,-11.71 -2.09,-17.53 -1.69,-5.79 -3.61,-10.98 -6.61,-15.53 -3.09,-4.36 -6.85,-8.26 -11.54,-11.12 -4.93,-2.64 -10.33,-4.3 -16.93,-4.3 -7.6,0 -13.53,1.43 -18.6,4.3 -5.12,3.09 -9.15,6.57 -12.31,11.12 -3.44,4.74 -5.42,9.73 -6.81,15.53 -1.42,5.83 -2.1,11.66 -2.1,17.53 -0.32,6.65 0.62,12.65 1.86,18.52 0.97,5.88 3.42,11.02 6.5,15.42 2.97,4.6 7.19,7.93 12.32,10.58 4.91,2.64 11.51,3.97 19.14,3.97 6.33,0.01 12.25,-1.43 16.93,-4.3 4.45,-2.76 8.54,-6.58 11.54,-11.14 2.92,-4.4 5.21,-9.73 6.61,-15.53 1.1,-5.8 2.09,-11.64 2.09,-17.52" /><path
             id="path236"
             style="fill:#ffffff;fill-opacity:1;fill-rule:nonzero;stroke:none"
             d="m 2830.98,1324.97 c 6.3,0.01 12.44,-1.4 17.44,-4.19 4.87,-2.72 9.17,-6.47 12.49,-11.03 3.02,-4.47 5.82,-9.73 7.51,-15.53 1.56,-5.54 2.55,-11.72 2.55,-17.74 -0.33,-5.85 -0.85,-11.93 -2.55,-17.75 -1.83,-5.71 -4.19,-10.98 -7.51,-15.53 -3.62,-4.29 -7.48,-8.22 -12.49,-11.01 -5.14,-2.53 -10.81,-4.19 -17.44,-4.19 -6.95,0 -12.44,1.39 -17.45,4.19 -5.19,3.06 -9.18,6.46 -12.5,11.01 -3.32,4.82 -5.81,9.73 -7.5,15.53 -1.87,5.9 -2.53,11.73 -2.53,17.75 0,6.2 0.84,11.93 2.53,17.74 1.51,6.06 4.19,10.98 7.5,15.53 3.31,4.64 7.49,8.24 12.5,11.03 4.83,2.86 10.83,4.19 17.45,4.19 z m 0,12 c -9.03,0.01 -16.42,-1.62 -23.14,-4.84 -6.99,-2.94 -12.35,-7.57 -16.92,-13 -4.87,-5.14 -8.03,-11.78 -10.39,-19.04 -2.53,-6.96 -3.53,-15 -3.53,-23.21 0,-8.18 1.18,-15.97 3.53,-23.22 2.19,-7.15 5.83,-13.61 10.39,-19.05 4.27,-5.3 10.21,-9.72 16.92,-12.88 6.44,-3.06 14.43,-4.73 23.14,-4.73 8.38,0 16.42,1.58 23.13,4.73 6.67,3.25 12.35,7.45 16.92,12.88 4.56,5.57 8.04,11.78 10.39,19.05 2.22,7.37 3.55,15 3.55,23.22 -0.33,8.25 -1.18,15.95 -3.55,23.21 -2.49,7.57 -5.82,13.61 -10.39,19.04 -4.58,5.72 -10.21,9.76 -16.92,13 -6.75,3.51 -14.42,4.84 -23.13,4.84" /><path
             id="path238"
             style="fill:#ffffff;fill-opacity:1;fill-rule:nonzero;stroke:none"
             d="M 2906,1333.66 V 1220 h 13.98 v 66.11 c -0.18,5.86 1.06,10.72 2.74,15.47 1.44,4.9 4,8.86 6.98,12.3 2.76,3.47 6.63,6.14 10.93,8.12 4.08,1.98 9.2,2.97 14.75,2.97 5.4,0.01 10.14,-0.88 13.85,-2.64 3.63,-1.53 6.65,-4.17 8.83,-7.25 2.17,-2.77 3.72,-6.7 4.6,-10.88 0.65,-3.9 1.31,-8.66 1.31,-13.48 V 1220 h 14 v 73.14 c -0.33,7.02 -0.67,12.83 -1.99,18.27 -1.65,5.63 -3.6,10.02 -6.82,13.76 -3.28,4.03 -7.53,6.65 -12.89,8.71 -5.45,2.1 -12,3.09 -19.93,3.09 -8.2,0.01 -15.5,-2.09 -22.26,-6.28 -6.78,-4.09 -11.45,-9.74 -14.1,-16.64 v 19.61 H 2906" /><path
             id="path240"
             style="fill:#ffffff;fill-opacity:1;fill-rule:nonzero;stroke:none"
             d="M 3105.97,1284.98 H 3032 c 0.59,5.08 1.8,10.04 3.64,14.88 1.63,4.9 4.32,9.13 7.42,12.83 3.08,3.8 6.87,6.66 11.3,8.9 4.32,2.39 9.53,3.38 15.3,3.38 5.38,0.01 10.61,-1.13 15.04,-3.38 4.19,-2.1 8.19,-5.21 11.3,-8.9 3.1,-3.6 5.5,-7.94 7.2,-12.72 1.63,-4.76 2.62,-9.77 2.77,-14.99 z m -73.97,-12 h 87.97 c -0.03,7.96 -0.45,15.79 -2.22,23.5 -2.02,7.9 -4.7,14.56 -8.77,20.52 -4.39,5.96 -9.34,10.77 -15.84,14.45 -6.55,3.86 -14.33,5.52 -23.48,5.52 -9.25,0.01 -16.82,-1.73 -23.39,-5.17 -6.67,-3.39 -11.94,-8 -16.08,-13.66 -4.2,-5.36 -7.21,-12.06 -9.21,-19.25 -2.32,-7.15 -2.98,-14.53 -2.98,-22.01 0,-8.04 1,-15.75 3,-23 2.01,-7.22 5.09,-13.65 9.25,-19.16 4.07,-5.41 9.54,-9.83 16.14,-12.99 6.47,-3.06 14.43,-4.73 23.49,-4.73 14.25,0 25.78,3.45 33.71,10.34 7.75,7.12 13.41,16.79 16.38,29.69 h -14 c -2.56,-8.47 -6.24,-15.83 -12.03,-21.11 -6.11,-5.26 -13.81,-7.92 -24.06,-7.92 -6.99,0 -12.42,1.4 -17.18,4.2 -4.98,3.08 -8.68,6.36 -11.79,10.64 -3.42,4.34 -5.39,9.12 -6.8,14.52 -1.45,5.61 -2.11,10.6 -2.11,15.62" /><path
             id="path242"
             style="fill:#ffffff;fill-opacity:1;fill-rule:nonzero;stroke:none"
             d="M 3138,1333.66 V 1220 h 13.98 v 66.11 c -0.18,5.86 1.06,10.72 2.74,15.47 1.44,4.9 4,8.86 6.98,12.3 2.76,3.47 6.63,6.14 10.93,8.12 4.08,1.98 9.2,2.97 14.75,2.97 5.4,0.01 10.14,-0.88 13.85,-2.64 3.63,-1.53 6.65,-4.17 8.83,-7.25 2.17,-2.77 3.72,-6.7 4.6,-10.88 0.65,-3.9 1.31,-8.66 1.31,-13.48 V 1220 h 14 v 73.14 c -0.33,7.02 -0.67,12.83 -1.99,18.27 -1.65,5.63 -3.6,10.02 -6.82,13.76 -3.28,4.03 -7.53,6.65 -12.89,8.71 -5.45,2.1 -12,3.09 -19.93,3.09 -8.2,0.01 -15.5,-2.09 -22.26,-6.28 -6.78,-4.09 -11.45,-9.74 -14.1,-16.64 v 19.61 H 3138" /><path
             id="path244"
             style="fill:#ffffff;fill-opacity:1;fill-rule:nonzero;stroke:none"
             d="m 3277.98,1333.97 v 33.98 H 3264 v -33.98 h -19.8 v -12 h 19.8 l 0.34,-77.66 c -0.26,-9.46 1.6,-16.33 5.22,-19.92 3.45,-3.39 10.04,-5.39 19.21,-5.39 1.77,0 4.06,0 6.09,0 1.75,0 4.08,0 6.12,0 v 12 c -4.27,-0.67 -7.89,-1 -11.82,-1 -5.03,0.29 -8.08,1.73 -9.32,4.31 -1.52,2.82 -1.86,6.16 -1.86,10.72 v 76.94 h 23 v 12 h -23" /></g></g><path
         id="path246"
         style="fill:#f9ba00;fill-opacity:1;fill-rule:nonzero;stroke:none"
         d="m 319.523,274.078 h 3992.81 V 916.187 H 319.523 Z" /><path
         id="path248"
         style="fill:none;stroke:#000000;stroke-width:10;stroke-linecap:butt;stroke-linejoin:miter;stroke-miterlimit:4;stroke-dasharray:none;stroke-opacity:1"
         d="m 319.523,274.078 h 3992.81 V 916.187 H 319.523 Z" /><g
         id="g250"><g
           clip-path="url(#clipPath256)"
           id="g252"><path
             id="path258"
             style="fill:#ffffff;fill-opacity:1;fill-rule:nonzero;stroke:none"
             d="M 1336,666.953 V 510 h 102.97 v 13 h -87.99 V 666.953 H 1336" /><path
             id="path260"
             style="fill:#ffffff;fill-opacity:1;fill-rule:nonzero;stroke:none"
             d="m 1451,666.953 v -22.219 h 13.98 v 22.219 z m 0,-43.469 V 510 h 13.98 V 623.484 H 1451" /><path
             id="path262"
             style="fill:#ffffff;fill-opacity:1;fill-rule:nonzero;stroke:none"
             d="m 1559.97,590.109 h 14 c -0.62,6.461 -1.54,11.52 -3.74,16.063 -2.26,4.828 -5.14,8.398 -8.87,11.547 -3.84,3.238 -8.03,5.472 -12.92,6.984 -5.05,1.61 -10.2,2.266 -15.91,2.266 -5.15,0.008 -9.98,-0.59 -15.03,-1.766 -5.21,-0.914 -9.61,-3.023 -13.7,-5.531 -4.35,-2.402 -7.41,-5.828 -9.97,-9.953 -2.83,-4.031 -3.83,-9.063 -3.83,-14.813 0,-4.836 0.8,-8.953 2.41,-12.265 1.47,-3.184 3.82,-6.102 6.67,-8.391 2.83,-2.031 6.17,-4.199 9.95,-5.75 3.78,-1.375 7.95,-2.902 12.49,-4.078 l 17.73,-3.984 c 2.98,-0.555 6.09,-1.625 9.08,-2.657 2.88,-0.961 5.65,-2.324 7.98,-3.875 2.23,-1.511 4.19,-3.461 5.58,-5.75 1.09,-2 2.08,-5.117 2.08,-8.5 -0.33,-3.855 -0.99,-7.32 -2.95,-10.047 -1.97,-2.601 -4.47,-4.98 -7.54,-6.75 -3.21,-1.714 -6.36,-3.011 -9.93,-3.75 -3.75,-0.445 -7.02,-1.109 -10.36,-1.109 -9.24,0 -16.86,2.379 -23.05,7.141 -6.23,5.054 -9.56,11.843 -10.14,21.218 h -14 c 1.16,-13.703 5.88,-23.961 14.14,-30.125 8.22,-5.902 19.07,-9.234 32.39,-9.234 5.1,0 10.61,0.59 16.02,1.766 5.23,1.242 10.28,3.101 14.59,5.812 4.27,2.848 7.88,6.219 10.66,10.531 2.51,4.61 4.17,9.539 4.17,15.688 -0.33,5.035 -0.95,9.281 -2.84,12.937 -1.94,3.754 -4.35,6.739 -7.35,9.219 -3.25,2.504 -6.42,4.5 -10.28,6.031 -4.02,1.547 -7.76,2.602 -11.7,3.188 l -18.39,4.172 c -2.47,0.812 -4.89,1.363 -7.66,2.312 -3.02,1.063 -5.33,2.149 -7.67,3.61 -2.36,1.711 -4.27,3.257 -5.8,5.375 -1.62,2.242 -2.28,4.722 -2.28,7.797 0,3.843 0.8,6.726 2.39,9.218 1.46,2.602 3.7,4.5 6.31,6.032 2.38,1.644 5.48,2.64 8.6,3.296 3.02,0.661 6.21,0.985 9.26,0.985 3.74,0.008 7.63,-0.481 11.11,-1.438 3.27,-0.793 6.58,-2.449 9.27,-4.5 2.37,-1.73 4.83,-4.656 6.42,-7.812 1.47,-2.887 2.46,-6.852 2.61,-11.11" /><path
             id="path264"
             style="fill:#ffffff;fill-opacity:1;fill-rule:nonzero;stroke:none"
             d="m 1619.98,623.969 v 33.984 H 1606 v -33.984 h -19.8 v -12 h 19.8 l 0.34,-77.656 c -0.26,-9.461 1.6,-16.329 5.22,-19.922 3.45,-3.391 10.04,-5.391 19.21,-5.391 1.77,0 4.06,0 6.09,0 1.75,0 4.08,0 6.12,0 v 12 c -4.27,-0.668 -7.89,-1 -11.82,-1 -5.03,0.289 -8.08,1.727 -9.32,4.313 -1.52,2.812 -1.86,6.156 -1.86,10.718 v 76.938 h 23 v 12 h -23" /><path
             id="path266"
             style="fill:#ffffff;fill-opacity:1;fill-rule:nonzero;stroke:none"
             d="M 1728,666.953 V 510 h 14.98 V 666.953 H 1728" /><path
             id="path268"
             style="fill:#ffffff;fill-opacity:1;fill-rule:nonzero;stroke:none"
             d="m 1794.98,623.969 v 33.984 H 1781 v -33.984 h -19.8 v -12 h 19.8 l 0.34,-77.656 c -0.26,-9.461 1.6,-16.329 5.22,-19.922 3.45,-3.391 10.04,-5.391 19.21,-5.391 1.77,0 4.06,0 6.09,0 1.75,0 4.08,0 6.12,0 v 12 c -4.27,-0.668 -7.89,-1 -11.82,-1 -5.03,0.289 -8.08,1.727 -9.32,4.313 -1.52,2.812 -1.86,6.156 -1.86,10.718 v 76.938 h 23 v 12 h -23" /><path
             id="path270"
             style="fill:#ffffff;fill-opacity:1;fill-rule:nonzero;stroke:none"
             d="M 1919.97,574.984 H 1846 c 0.59,5.079 1.8,10.032 3.64,14.875 1.63,4.899 4.32,9.129 7.42,12.829 3.08,3.8 6.87,6.664 11.3,8.906 4.32,2.383 9.53,3.375 15.3,3.375 5.38,0.008 10.61,-1.125 15.04,-3.375 4.19,-2.106 8.19,-5.211 11.3,-8.906 3.1,-3.594 5.5,-7.938 7.2,-12.719 1.63,-4.762 2.62,-9.766 2.77,-14.985 z m -73.97,-12 h 87.97 c -0.03,7.954 -0.45,15.782 -2.22,23.5 -2.02,7.891 -4.7,14.555 -8.77,20.516 -4.39,5.957 -9.34,10.773 -15.84,14.453 -6.55,3.86 -14.33,5.516 -23.48,5.516 -9.25,0.008 -16.82,-1.727 -23.39,-5.172 -6.67,-3.383 -11.94,-8 -16.08,-13.656 -4.2,-5.36 -7.21,-12.063 -9.21,-19.25 -2.32,-7.153 -2.98,-14.528 -2.98,-22.016 0,-8.031 1,-15.742 3,-23 2.01,-7.219 5.09,-13.648 9.25,-19.156 4.07,-5.406 9.54,-9.828 16.14,-12.985 6.47,-3.066 14.43,-4.734 23.49,-4.734 14.25,0 25.78,3.445 33.71,10.344 7.75,7.113 13.41,16.789 16.38,29.687 h -14 c -2.56,-8.468 -6.24,-15.828 -12.03,-21.109 -6.11,-5.258 -13.81,-7.922 -24.06,-7.922 -6.99,0 -12.42,1.398 -17.18,4.203 -4.98,3.078 -8.68,6.36 -11.79,10.641 -3.42,4.332 -5.39,9.117 -6.8,14.515 -1.45,5.61 -2.11,10.602 -2.11,15.625" /><path
             id="path272"
             style="fill:#ffffff;fill-opacity:1;fill-rule:nonzero;stroke:none"
             d="M 1952,623.656 V 510 h 13.98 v 63.25 c -0.32,6.25 0.66,11.52 1.99,16.563 1.01,5.113 3.36,9.441 6.09,13.171 2.71,3.743 6.27,6.672 10.63,8.797 4.12,2.196 9.48,3.188 15.39,3.188 4.4,0.008 8.19,-0.735 11.28,-2.203 2.97,-1.383 5.56,-3.469 7.41,-6.032 1.58,-2.476 3.17,-5.57 3.98,-9.015 0.56,-3.344 1.22,-7.059 1.22,-10.86 V 510 h 14 v 64.125 c -0.33,5.563 0.48,10.352 1.44,15.25 0.82,5.113 2.61,9.258 4.98,13.063 2.24,4 5.54,6.851 9.52,9.125 3.68,2.414 9,3.406 15.04,3.406 9.71,0.008 17.04,-2.453 21.02,-7.36 3.66,-4.777 5.98,-12.043 5.98,-21.406 V 510 h 14 v 77.094 c -0.32,26.883 -12.63,39.875 -37.89,39.875 -7.54,0.008 -14.6,-1.836 -21.25,-5.5 -6.92,-3.492 -11.67,-9.242 -15.06,-16.719 -2.3,7.563 -6.12,13.051 -12.22,16.719 -6.26,3.844 -12.87,5.5 -20.34,5.5 -9.31,0.008 -16.85,-1.985 -22.8,-5.953 -6.07,-3.633 -10.74,-9.465 -14.41,-16.516 h -1.1 v 19.156 H 1952" /><path
             id="path274"
             style="fill:#ffffff;fill-opacity:1;fill-rule:nonzero;stroke:none"
             d="m 2313.33,619.906 h 14.95 c -1.12,8.239 -3.49,15.461 -7.37,21.766 -4.19,6.41 -8.73,11.633 -14.52,16 -5.91,4.484 -12.23,7.68 -19.34,9.922 -7.14,2.375 -14.42,3.359 -21.89,3.359 -12.37,0.016 -23.13,-2.246 -32.44,-6.734 -9.56,-4.231 -17.06,-10.524 -23.22,-18.094 -6.32,-7.281 -10.78,-16.293 -13.87,-26.156 -3.3,-9.844 -4.63,-20.227 -4.63,-31.11 0,-10.828 1.54,-21.246 4.63,-31.109 2.88,-9.773 7.71,-18.531 13.87,-26.031 6,-7.406 13.91,-13.496 23.22,-17.985 9.07,-4.398 20.12,-6.734 32.44,-6.734 9.18,0 17.63,1.523 25.18,4.563 7.44,3.187 14.11,7.296 19.68,12.765 5.56,5.703 10.11,12.098 13.64,19.86 3.3,8.039 5.79,16.5 6.82,26.187 h -14.96 c -0.91,-6.836 -2.42,-13.609 -5.05,-19.703 -2.79,-5.977 -6.09,-11.399 -10.34,-15.938 -4.3,-4.453 -9.31,-8.136 -15.18,-10.781 -6.18,-2.621 -12.46,-3.953 -19.79,-3.953 -10.46,0 -19.36,1.973 -26.83,5.922 -7.59,3.984 -13.61,9.191 -18.38,15.703 -5.07,6.645 -8.27,13.914 -10.54,22.188 -2.41,8.343 -3.41,16.664 -3.41,25.156 0,8.656 1.13,17.066 3.41,25.265 2.13,8.461 5.78,15.567 10.54,22.079 4.46,6.75 10.9,11.753 18.38,15.703 7.37,4.285 16.42,5.937 26.83,5.937 5.66,0.016 11.18,-0.844 16.39,-2.531 5.02,-1.496 9.97,-4.149 14.29,-7.375 4.05,-2.914 8,-7.227 11,-11.984 2.72,-4.45 5.16,-10.149 6.49,-16.157" /><path
             id="path276"
             style="fill:#ffffff;fill-opacity:1;fill-rule:nonzero;stroke:none"
             d="m 2398.98,614.969 c 6.3,0.008 12.44,-1.399 17.44,-4.188 4.87,-2.718 9.17,-6.468 12.49,-11.031 3.02,-4.469 5.82,-9.73 7.51,-15.531 1.56,-5.543 2.55,-11.715 2.55,-17.735 -0.33,-5.851 -0.85,-11.937 -2.55,-17.75 -1.83,-5.714 -4.19,-10.98 -7.51,-15.531 -3.62,-4.289 -7.48,-8.226 -12.49,-11.015 -5.14,-2.524 -10.81,-4.188 -17.44,-4.188 -6.95,0 -12.44,1.395 -17.45,4.188 -5.19,3.062 -9.18,6.46 -12.5,11.015 -3.32,4.817 -5.81,9.727 -7.5,15.531 -1.87,5.899 -2.53,11.727 -2.53,17.75 0,6.192 0.84,11.93 2.53,17.735 1.51,6.062 4.19,10.976 7.5,15.531 3.31,4.645 7.49,8.238 12.5,11.031 4.83,2.864 10.83,4.188 17.45,4.188 z m 0,12 c -9.03,0.008 -16.42,-1.617 -23.14,-4.844 -6.99,-2.937 -12.35,-7.562 -16.92,-13 -4.87,-5.137 -8.03,-11.773 -10.39,-19.031 -2.53,-6.961 -3.53,-15 -3.53,-23.219 0,-8.18 1.18,-15.961 3.53,-23.219 2.19,-7.148 5.83,-13.609 10.39,-19.047 4.27,-5.296 10.21,-9.718 16.92,-12.875 6.44,-3.066 14.43,-4.734 23.14,-4.734 8.38,0 16.42,1.578 23.13,4.734 6.67,3.243 12.35,7.446 16.92,12.875 4.56,5.567 8.04,11.786 10.39,19.047 2.22,7.375 3.55,15 3.55,23.219 -0.33,8.258 -1.18,15.957 -3.55,23.219 -2.49,7.562 -5.82,13.601 -10.39,19.031 -4.58,5.727 -10.21,9.77 -16.92,13 -6.75,3.52 -14.42,4.844 -23.13,4.844" /><path
             id="path278"
             style="fill:#ffffff;fill-opacity:1;fill-rule:nonzero;stroke:none"
             d="M 2474,623.656 V 510 h 13.98 v 63.25 c -0.32,6.25 0.66,11.52 1.99,16.563 1.01,5.113 3.36,9.441 6.09,13.171 2.71,3.743 6.27,6.672 10.63,8.797 4.12,2.196 9.48,3.188 15.39,3.188 4.4,0.008 8.19,-0.735 11.28,-2.203 2.97,-1.383 5.56,-3.469 7.41,-6.032 1.58,-2.476 3.17,-5.57 3.98,-9.015 0.56,-3.344 1.22,-7.059 1.22,-10.86 V 510 h 14 v 64.125 c -0.33,5.563 0.48,10.352 1.44,15.25 0.82,5.113 2.61,9.258 4.98,13.063 2.24,4 5.54,6.851 9.52,9.125 3.68,2.414 9,3.406 15.04,3.406 9.71,0.008 17.04,-2.453 21.02,-7.36 3.66,-4.777 5.98,-12.043 5.98,-21.406 V 510 h 14 v 77.094 c -0.32,26.883 -12.63,39.875 -37.89,39.875 -7.54,0.008 -14.6,-1.836 -21.25,-5.5 -6.92,-3.492 -11.67,-9.242 -15.06,-16.719 -2.3,7.563 -6.12,13.051 -12.22,16.719 -6.26,3.844 -12.87,5.5 -20.34,5.5 -9.31,0.008 -16.85,-1.985 -22.8,-5.953 -6.07,-3.633 -10.74,-9.465 -14.41,-16.516 h -1.1 v 19.156 H 2474" /><path
             id="path280"
             style="fill:#ffffff;fill-opacity:1;fill-rule:nonzero;stroke:none"
             d="m 2657,623.656 v -155.64 h 13.98 v 63.625 c 1.15,-3.985 3.59,-7.7 6.32,-10.782 2.63,-3.039 5.86,-5.652 9.4,-7.703 3.31,-1.773 7.38,-3.586 11.52,-4.609 4.06,-0.879 8.26,-1.547 12.39,-1.547 8.5,0 16.27,1.578 22.69,4.734 6.31,3.243 11.76,7.485 16.04,12.985 4.17,5.601 7.46,11.894 9.52,19.156 1.78,7.301 3.11,14.926 3.11,23 -0.33,8.113 -1.03,15.738 -3.09,23 -2.36,7.301 -5.24,13.641 -9.52,19.141 -4.39,5.836 -9.62,9.879 -16.03,13.109 -6.53,3.52 -13.97,4.844 -22.66,4.844 -9.51,0.008 -17.57,-2.172 -24.87,-6.516 -7.57,-4.152 -12.58,-10.469 -15.82,-18.406 h -0.1 v 21.609 z m 90.97,-57.172 c -0.33,-5.703 -0.7,-11.718 -2.09,-17.531 -1.69,-5.789 -3.61,-10.98 -6.61,-15.531 -3.09,-4.359 -6.85,-8.262 -11.54,-11.125 -4.93,-2.633 -10.33,-4.297 -16.93,-4.297 -7.6,0 -13.53,1.43 -18.6,4.297 -5.12,3.098 -9.15,6.57 -12.31,11.125 -3.44,4.742 -5.42,9.726 -6.81,15.531 -1.42,5.828 -2.1,11.656 -2.1,17.531 -0.32,6.641 0.62,12.641 1.86,18.516 0.97,5.875 3.42,11.016 6.5,15.422 2.97,4.598 7.19,7.93 12.32,10.578 4.91,2.645 11.51,3.969 19.14,3.969 6.33,0.008 12.25,-1.434 16.93,-4.297 4.45,-2.758 8.54,-6.578 11.54,-11.141 2.92,-4.398 5.21,-9.73 6.61,-15.531 1.1,-5.805 2.09,-11.641 2.09,-17.516" /><path
             id="path282"
             style="fill:#ffffff;fill-opacity:1;fill-rule:nonzero;stroke:none"
             d="m 2830.98,614.969 c 6.3,0.008 12.44,-1.399 17.44,-4.188 4.87,-2.718 9.17,-6.468 12.49,-11.031 3.02,-4.469 5.82,-9.73 7.51,-15.531 1.56,-5.543 2.55,-11.715 2.55,-17.735 -0.33,-5.851 -0.85,-11.937 -2.55,-17.75 -1.83,-5.714 -4.19,-10.98 -7.51,-15.531 -3.62,-4.289 -7.48,-8.226 -12.49,-11.015 -5.14,-2.524 -10.81,-4.188 -17.44,-4.188 -6.95,0 -12.44,1.395 -17.45,4.188 -5.19,3.062 -9.18,6.46 -12.5,11.015 -3.32,4.817 -5.81,9.727 -7.5,15.531 -1.87,5.899 -2.53,11.727 -2.53,17.75 0,6.192 0.84,11.93 2.53,17.735 1.51,6.062 4.19,10.976 7.5,15.531 3.31,4.645 7.49,8.238 12.5,11.031 4.83,2.864 10.83,4.188 17.45,4.188 z m 0,12 c -9.03,0.008 -16.42,-1.617 -23.14,-4.844 -6.99,-2.937 -12.35,-7.562 -16.92,-13 -4.87,-5.137 -8.03,-11.773 -10.39,-19.031 -2.53,-6.961 -3.53,-15 -3.53,-23.219 0,-8.18 1.18,-15.961 3.53,-23.219 2.19,-7.148 5.83,-13.609 10.39,-19.047 4.27,-5.296 10.21,-9.718 16.92,-12.875 6.44,-3.066 14.43,-4.734 23.14,-4.734 8.38,0 16.42,1.578 23.13,4.734 6.67,3.243 12.35,7.446 16.92,12.875 4.56,5.567 8.04,11.786 10.39,19.047 2.22,7.375 3.55,15 3.55,23.219 -0.33,8.258 -1.18,15.957 -3.55,23.219 -2.49,7.562 -5.82,13.601 -10.39,19.031 -4.58,5.727 -10.21,9.77 -16.92,13 -6.75,3.52 -14.42,4.844 -23.13,4.844" /><path
             id="path284"
             style="fill:#ffffff;fill-opacity:1;fill-rule:nonzero;stroke:none"
             d="M 2906,623.656 V 510 h 13.98 v 66.109 c -0.18,5.86 1.06,10.719 2.74,15.469 1.44,4.899 4,8.86 6.98,12.297 2.76,3.477 6.63,6.145 10.93,8.125 4.08,1.977 9.2,2.969 14.75,2.969 5.4,0.008 10.14,-0.883 13.85,-2.641 3.63,-1.527 6.65,-4.168 8.83,-7.25 2.17,-2.765 3.72,-6.699 4.6,-10.875 0.65,-3.902 1.31,-8.664 1.31,-13.484 V 510 h 14 v 73.141 c -0.33,7.023 -0.67,12.828 -1.99,18.265 -1.65,5.633 -3.6,10.024 -6.82,13.766 -3.28,4.023 -7.53,6.648 -12.89,8.703 -5.45,2.102 -12,3.094 -19.93,3.094 -8.2,0.008 -15.5,-2.094 -22.26,-6.281 -6.78,-4.086 -11.45,-9.735 -14.1,-16.641 v 19.609 H 2906" /><path
             id="path286"
             style="fill:#ffffff;fill-opacity:1;fill-rule:nonzero;stroke:none"
             d="M 3105.97,574.984 H 3032 c 0.59,5.079 1.8,10.032 3.64,14.875 1.63,4.899 4.32,9.129 7.42,12.829 3.08,3.8 6.87,6.664 11.3,8.906 4.32,2.383 9.53,3.375 15.3,3.375 5.38,0.008 10.61,-1.125 15.04,-3.375 4.19,-2.106 8.19,-5.211 11.3,-8.906 3.1,-3.594 5.5,-7.938 7.2,-12.719 1.63,-4.762 2.62,-9.766 2.77,-14.985 z m -73.97,-12 h 87.97 c -0.03,7.954 -0.45,15.782 -2.22,23.5 -2.02,7.891 -4.7,14.555 -8.77,20.516 -4.39,5.957 -9.34,10.773 -15.84,14.453 -6.55,3.86 -14.33,5.516 -23.48,5.516 -9.25,0.008 -16.82,-1.727 -23.39,-5.172 -6.67,-3.383 -11.94,-8 -16.08,-13.656 -4.2,-5.36 -7.21,-12.063 -9.21,-19.25 -2.32,-7.153 -2.98,-14.528 -2.98,-22.016 0,-8.031 1,-15.742 3,-23 2.01,-7.219 5.09,-13.648 9.25,-19.156 4.07,-5.406 9.54,-9.828 16.14,-12.985 6.47,-3.066 14.43,-4.734 23.49,-4.734 14.25,0 25.78,3.445 33.71,10.344 7.75,7.113 13.41,16.789 16.38,29.687 h -14 c -2.56,-8.468 -6.24,-15.828 -12.03,-21.109 -6.11,-5.258 -13.81,-7.922 -24.06,-7.922 -6.99,0 -12.42,1.398 -17.18,4.203 -4.98,3.078 -8.68,6.36 -11.79,10.641 -3.42,4.332 -5.39,9.117 -6.8,14.515 -1.45,5.61 -2.11,10.602 -2.11,15.625" /><path
             id="path288"
             style="fill:#ffffff;fill-opacity:1;fill-rule:nonzero;stroke:none"
             d="M 3138,623.656 V 510 h 13.98 v 66.109 c -0.18,5.86 1.06,10.719 2.74,15.469 1.44,4.899 4,8.86 6.98,12.297 2.76,3.477 6.63,6.145 10.93,8.125 4.08,1.977 9.2,2.969 14.75,2.969 5.4,0.008 10.14,-0.883 13.85,-2.641 3.63,-1.527 6.65,-4.168 8.83,-7.25 2.17,-2.765 3.72,-6.699 4.6,-10.875 0.65,-3.902 1.31,-8.664 1.31,-13.484 V 510 h 14 v 73.141 c -0.33,7.023 -0.67,12.828 -1.99,18.265 -1.65,5.633 -3.6,10.024 -6.82,13.766 -3.28,4.023 -7.53,6.648 -12.89,8.703 -5.45,2.102 -12,3.094 -19.93,3.094 -8.2,0.008 -15.5,-2.094 -22.26,-6.281 -6.78,-4.086 -11.45,-9.735 -14.1,-16.641 v 19.609 H 3138" /><path
             id="path290"
             style="fill:#ffffff;fill-opacity:1;fill-rule:nonzero;stroke:none"
             d="m 3277.98,623.969 v 33.984 H 3264 v -33.984 h -19.8 v -12 h 19.8 l 0.34,-77.656 c -0.26,-9.461 1.6,-16.329 5.22,-19.922 3.45,-3.391 10.04,-5.391 19.21,-5.391 1.77,0 4.06,0 6.09,0 1.75,0 4.08,0 6.12,0 v 12 c -4.27,-0.668 -7.89,-1 -11.82,-1 -5.03,0.289 -8.08,1.727 -9.32,4.313 -1.52,2.812 -1.86,6.156 -1.86,10.718 v 76.938 h 23 v 12 h -23" /></g></g></g></g></svg>