<?xml version="1.0" encoding="UTF-8" standalone="no"?>
<svg
   xmlns:dc="http://purl.org/dc/elements/1.1/"
   xmlns:cc="http://creativecommons.org/ns#"
   xmlns:rdf="http://www.w3.org/1999/02/22-rdf-syntax-ns#"
   xmlns:svg="http://www.w3.org/2000/svg"
   xmlns="http://www.w3.org/2000/svg"
   viewBox="0 0 2560 1440"
   height="1440"
   width="2560"
   xml:space="preserve"
   id="svg2"
   version="1.1"><metadata
     id="metadata8"><rdf:RDF><cc:Work
         rdf:about=""><dc:format>image/svg+xml</dc:format><dc:type
           rdf:resource="http://purl.org/dc/dcmitype/StillImage" /></cc:Work></rdf:RDF></metadata><defs
     id="defs6"><clipPath
       id="clipPath24"
       clipPathUnits="userSpaceOnUse"><path
         id="path22"
         d="m 5834,8202.29 h 7532 V 9403.05 H 5834 Z" /></clipPath><clipPath
       id="clipPath46"
       clipPathUnits="userSpaceOnUse"><path
         id="path44"
         d="m 5834,2758.7 h 7532 V 3959.47 H 5834 Z" /></clipPath><clipPath
       id="clipPath70"
       clipPathUnits="userSpaceOnUse"><path
         id="path68"
         d="M 6750,4370 H 7760 V 7790 H 6750 Z" /></clipPath><clipPath
       id="clipPath76"
       clipPathUnits="userSpaceOnUse"><path
         id="path74"
         d="M 6750,4370 H 7760 V 7790 H 6750 Z" /></clipPath><clipPath
       id="clipPath80"
       clipPathUnits="userSpaceOnUse"><path
         id="path78"
         d="M 6750,4370 H 7760 V 7790 H 6750 Z" /></clipPath><clipPath
       id="clipPath98"
       clipPathUnits="userSpaceOnUse"><path
         id="path96"
         d="M 5960,5190 H 8560 V 6970 H 5960 Z" /></clipPath><clipPath
       id="clipPath104"
       clipPathUnits="userSpaceOnUse"><path
         id="path102"
         d="M 5960,5190 H 8560 V 6970 H 5960 Z" /></clipPath><clipPath
       id="clipPath108"
       clipPathUnits="userSpaceOnUse"><path
         id="path106"
         d="M 5960,5190 H 8560 V 6970 H 5960 Z" /></clipPath><clipPath
       id="clipPath112"
       clipPathUnits="userSpaceOnUse"><path
         id="path110"
         d="M 5960,5192 V 6969 H 8560 V 5192 Z" /></clipPath><clipPath
       id="clipPath156"
       clipPathUnits="userSpaceOnUse"><path
         id="path154"
         d="m 10510.4,5192.75 h 2854.85 V 6968.99 H 10510.4 Z" /></clipPath></defs><g
     transform="matrix(1.3333333,0,0,-1.3333333,0,1440)"
     id="g10"><g
       transform="scale(0.1)"
       id="g12"><path
         id="path14"
         style="fill:#ffffff;fill-opacity:1;fill-rule:nonzero;stroke:none"
         d="M 0,0 H 19200 V 10800 H 0 Z" /><path
         id="path16"
         style="fill:#b51700;fill-opacity:1;fill-rule:nonzero;stroke:none"
         d="m 5970.6,8202.29 h 7258.8 V 9403.05 H 5970.6 Z" /><g
         id="g18"><g
           clip-path="url(#clipPath24)"
           id="g20"><path
             id="path26"
             style="fill:#ffffff;fill-opacity:1;fill-rule:nonzero;stroke:none"
             d="m 9211.95,8905.94 c -12.82,18.69 -30.73,28 -54.68,28 -7.55,0.02 -14.79,-1 -21.97,-3 -7.28,-1.97 -13.64,-5.05 -19.36,-9.17 -6.03,-4.05 -10.31,-9.45 -13.77,-15.97 -3.51,-6.46 -5.19,-14.17 -5.19,-22.96 -0.32,-12.71 3.6,-22.68 10.79,-29.73 6.93,-6.76 16.1,-12.84 26.75,-17.36 10.48,-4.44 22.3,-8.59 34.95,-12.19 12.49,-3.45 24.29,-8.39 34.94,-14.39 10.52,-5.72 19.57,-13.94 26.76,-23.81 7.13,-9.65 10.78,-23.32 10.78,-40.38 -0.32,-12.79 -2.73,-24.33 -8.18,-34.59 -5.71,-10.06 -12.64,-18.86 -21.55,-25.8 -8.98,-6.79 -18.88,-12.25 -29.92,-15.98 -11.14,-3.61 -22.16,-5.61 -33.33,-5.61 -17.61,0 -33.71,3.28 -49.28,9.83 -15.8,6.62 -28.8,17.33 -39.69,32.3 l 25.98,18.85 c 5.8,-10.57 14.65,-19.06 25.57,-25.43 10.73,-6.22 23.82,-9.55 38.72,-9.55 7.09,0 14.37,1.13 21.56,3.39 6.91,2.47 13.64,5.6 19.36,10 5.66,4.6 10.45,9.79 14.17,16.19 3.61,6.55 5.59,13.74 5.59,22 -0.32,10.01 -2.06,18.07 -6.18,24.59 -4.39,6.81 -9.59,11.99 -16.38,16.39 -6.91,4.55 -14.5,8.07 -23.16,11 -8.73,3.08 -17.57,5.87 -26.76,8.8 -9.34,3.15 -18.09,6.27 -26.75,9.98 -8.9,3.95 -16.38,8.46 -23.17,14.18 -6.97,5.89 -12.24,12.92 -16.36,21.57 -4.19,8.96 -6.19,19.51 -6.19,32.57 0,13.68 2.6,25.41 7.81,35.53 4.94,10.39 12.16,18.51 20.85,25.17 8.47,6.87 18.5,11.58 29.45,14.77 10.92,3.48 22.18,4.79 33.67,4.79 15.78,0.03 30.6,-2.53 43.69,-7.59 12.94,-4.84 25.25,-14 36.48,-26.8 l -26,-19.59" /><path
             id="path28"
             style="fill:#ffffff;fill-opacity:1;fill-rule:nonzero;stroke:none"
             d="m 9435.95,8777.97 c -0.32,17.87 -5.32,32.33 -15.95,43.39 -10.62,11.27 -25.51,16.59 -44.64,16.59 -8.62,0.02 -16.74,-1.66 -24.72,-5 -8.18,-3.31 -14.94,-7.79 -20.92,-13.39 -6.22,-5.45 -10.77,-11.99 -14.36,-19.2 -3.7,-6.98 -5.38,-14.66 -5.38,-22.39 z m -126.76,-21.99 c 0.74,-9.29 3.06,-18.07 6.79,-26.32 3.41,-8.13 8.68,-15.36 14.8,-21.33 5.88,-5.75 13.2,-10.69 21.19,-14.14 7.67,-3.19 16.66,-5.19 26,-5.19 13.81,0 26.33,3.22 36.59,9.67 10.07,6.56 18.06,13.88 23.39,22.31 l 20,-16.68 c -11.5,-13.79 -23.5,-24.08 -36.95,-30.17 -13.45,-5.79 -27.9,-9.13 -43.34,-9.13 -14.06,0 -26.68,2.47 -38.53,7.41 -11.9,5.13 -22.05,11.8 -30.58,20.61 -8.71,9.12 -15.25,19.2 -20.17,31.21 -5.05,12.28 -7.38,25.11 -7.38,39.25 0,14.31 2.39,27.21 7.19,39.22 4.74,12.12 11.47,22.43 20,31.24 8.47,8.82 18.53,15.67 30,20.61 11.4,5.08 23.86,7.4 37.19,7.4 14,0.02 26.78,-2.54 37.98,-7.62 11.08,-4.86 20.59,-11.84 28.19,-20.27 7.42,-8.11 13.4,-18.33 17.4,-29.72 3.68,-11.15 6,-23.48 6,-36.32 v -12.04 h -155.76" /><path
             id="path30"
             style="fill:#ffffff;fill-opacity:1;fill-rule:nonzero;stroke:none"
             d="m 9517,8798.63 c 0,8.38 -0.2,16.64 -0.59,25.17 -0.53,8.58 -0.73,19.57 -1,33.15 h 25.57 v -34.57 h 0.82 c 1.61,5.26 4.55,9.92 8.04,14.57 3.22,4.68 7.74,8.87 12.71,12.6 4.78,3.89 10.74,6.74 17.31,9 6.3,2.42 14.03,3.4 22.36,3.4 7.44,0.02 14.1,-0.79 19.75,-2.36 l -5.24,-25.64 c -3.74,1.35 -8.6,2 -15.32,2 -10.35,0.02 -18.94,-1.93 -26.19,-5.81 -7.33,-3.58 -13.29,-8.81 -18.13,-14.83 -4.86,-5.78 -8.39,-12.49 -10.68,-19.43 -2.42,-6.91 -3.43,-13.64 -3.43,-20.05 V 8670 H 9517 v 128.63" /><path
             id="path32"
             style="fill:#ffffff;fill-opacity:1;fill-rule:nonzero;stroke:none"
             d="m 9728.97,8670 h -28.99 L 9624,8856.95 h 30.98 l 59.88,-157.39 h 0.78 l 58.33,157.39 h 30.98 L 9728.97,8670" /><path
             id="path34"
             style="fill:#ffffff;fill-opacity:1;fill-rule:nonzero;stroke:none"
             d="m 9983.95,8777.97 c -0.32,17.87 -5.32,32.33 -15.95,43.39 -10.62,11.27 -25.51,16.59 -44.64,16.59 -8.62,0.02 -16.74,-1.66 -24.72,-5 -8.18,-3.31 -14.94,-7.79 -20.92,-13.39 -6.22,-5.45 -10.77,-11.99 -14.36,-19.2 -3.7,-6.98 -5.38,-14.66 -5.38,-22.39 z m -126.76,-21.99 c 0.74,-9.29 3.06,-18.07 6.79,-26.32 3.41,-8.13 8.68,-15.36 14.8,-21.33 5.88,-5.75 13.2,-10.69 21.19,-14.14 7.67,-3.19 16.66,-5.19 26,-5.19 13.81,0 26.33,3.22 36.59,9.67 10.07,6.56 18.06,13.88 23.39,22.31 l 20.05,-16.68 c -11.55,-13.79 -23.55,-24.08 -37,-30.17 -13.45,-5.79 -27.9,-9.13 -43.34,-9.13 -14.06,0 -26.68,2.47 -38.53,7.41 -11.9,5.13 -22.05,11.8 -30.58,20.61 -8.71,9.12 -15.25,19.2 -20.17,31.21 -5.05,12.28 -7.38,25.11 -7.38,39.25 0,14.31 2.39,27.21 7.19,39.22 4.74,12.12 11.47,22.43 20,31.24 8.47,8.82 18.53,15.67 30,20.61 11.4,5.08 23.86,7.4 37.19,7.4 14,0.02 26.78,-2.54 37.98,-7.62 11.08,-4.86 20.59,-11.84 28.19,-20.27 7.42,-8.11 13.45,-18.33 17.45,-29.72 3.6,-11.15 6,-23.48 6,-36.32 v -12.04 h -155.81" /><path
             id="path36"
             style="fill:#ffffff;fill-opacity:1;fill-rule:nonzero;stroke:none"
             d="m 10065,8798.63 c 0,8.38 -0.2,16.64 -0.6,25.17 -0.5,8.58 -0.7,19.57 -1,33.15 h 25.6 v -34.57 h 0.8 c 1.6,5.26 4.6,9.92 8,14.57 3.3,4.68 7.8,8.87 12.7,12.6 4.8,3.89 10.8,6.74 17.4,9 6.3,2.42 14,3.4 22.3,3.4 7.5,0.02 14.1,-0.79 19.8,-2.36 l -5.3,-25.64 c -3.7,1.35 -8.6,2 -15.3,2 -10.3,0.02 -18.9,-1.93 -26.2,-5.81 -7.3,-3.58 -13.3,-8.81 -18.1,-14.83 -4.9,-5.78 -8.4,-12.49 -10.7,-19.43 -2.4,-6.91 -3.4,-13.64 -3.4,-20.05 V 8670 h -26 v 128.63" /></g></g><path
         id="path38"
         style="fill:#ff9300;fill-opacity:1;fill-rule:nonzero;stroke:none"
         d="m 5970.6,2758.7 h 7258.8 V 3959.47 H 5970.6 Z" /><g
         id="g40"><g
           clip-path="url(#clipPath46)"
           id="g42"><path
             id="path48"
             style="fill:#ffffff;fill-opacity:1;fill-rule:nonzero;stroke:none"
             d="M 8736.98,3387.97 H 8788 c 12.76,0.01 23.59,1.33 32.48,4 8.74,2.67 16,6.2 21.32,10.61 5.05,4.55 9.17,9.63 11.56,15.64 2.27,6.27 3.59,12.49 3.59,19.44 -0.32,6.79 -1.2,13.01 -3.59,19.01 -2.51,6.12 -6.24,11.29 -11.56,15.83 -5.58,4.72 -12.42,8.09 -21.32,10.63 -9.05,2.83 -19.72,3.81 -32.48,3.81 h -51.02 z m 0,-157.97 h -29 v 282.94 h 86.99 c 28.41,0.02 51.41,-6.25 68.03,-18.74 16.63,-12.21 24.95,-31.32 24.95,-56.54 -0.32,-19.55 -6.25,-36.19 -18.76,-49.6 -12.56,-13.09 -30.58,-21.17 -54.22,-23.29 L 8896.94,3230 h -34.99 l -77.98,131.97 h -46.99 V 3230" /><path
             id="path50"
             style="fill:#ffffff;fill-opacity:1;fill-rule:nonzero;stroke:none"
             d="m 9080.95,3337.97 c -0.32,17.87 -5.32,32.33 -15.95,43.39 -10.62,11.27 -25.51,16.59 -44.64,16.59 -8.62,0.02 -16.74,-1.66 -24.72,-5 -8.18,-3.31 -14.94,-7.79 -20.92,-13.39 -6.22,-5.45 -10.77,-11.99 -14.36,-19.2 -3.7,-6.98 -5.38,-14.66 -5.38,-22.39 z m -126.76,-21.99 c 0.74,-9.29 3.06,-18.07 6.79,-26.32 3.41,-8.13 8.68,-15.36 14.8,-21.33 5.88,-5.75 13.2,-10.69 21.19,-14.14 7.67,-3.19 16.66,-5.19 26,-5.19 13.81,0 26.33,3.22 36.59,9.67 10.07,6.56 18.06,13.88 23.39,22.31 l 20,-16.68 c -11.5,-13.79 -23.5,-24.08 -36.95,-30.17 -13.45,-5.79 -27.9,-9.13 -43.34,-9.13 -14.06,0 -26.68,2.47 -38.53,7.41 -11.9,5.13 -22.05,11.8 -30.58,20.61 -8.71,9.12 -15.25,19.2 -20.17,31.21 -5.05,12.28 -7.38,25.11 -7.38,39.25 0,14.31 2.39,27.21 7.19,39.22 4.74,12.12 11.47,22.43 20,31.24 8.47,8.82 18.53,15.67 30,20.61 11.4,5.08 23.86,7.4 37.19,7.4 14,0.02 26.78,-2.54 37.98,-7.62 11.08,-4.86 20.59,-11.84 28.19,-20.27 7.42,-8.11 13.4,-18.33 17.4,-29.72 3.68,-11.15 6,-23.48 6,-36.32 v -12.04 h -155.76" /><path
             id="path52"
             style="fill:#ffffff;fill-opacity:1;fill-rule:nonzero;stroke:none"
             d="m 9265.34,3322.98 c -6.79,0.01 -15.02,-0.33 -25.04,-1 -10.11,-0.66 -19.63,-2.26 -28.85,-4.79 -9.37,-2.26 -17.1,-6.47 -23.65,-11.8 -6.81,-5.13 -9.82,-12.67 -9.82,-22 -0.32,-5.93 1.27,-11.4 3.8,-15.8 2.28,-4.26 5.95,-7.99 10.22,-10.79 4.28,-2.74 9.02,-4.81 14.23,-6 5.15,-1.14 10.5,-1.8 15.85,-1.8 9.58,0 17.94,1.6 25.03,4.8 7.05,3.26 13.02,7.52 17.83,12.98 4.5,5.54 8.35,11.87 10.62,19.2 2.08,7.34 3.41,15.14 3.41,23.41 v 13.59 z m 13.63,21.99 v 4.78 c -0.33,32.22 -16.11,48.2 -48.31,48.2 -22.22,0.02 -41.19,-7.32 -57.57,-21.98 l -16.09,18.78 c 17.63,18.22 44.1,27.2 79.39,27.2 8.95,0.02 17.83,-1.33 26.25,-4 8.21,-2.65 15.71,-6.73 21.86,-12.2 5.98,-5.39 11.09,-12.34 14.83,-20.59 3.64,-7.98 5.62,-18.13 5.62,-29.6 v -83.58 c -0.32,-7.18 0.34,-14.71 1,-22.59 0.35,-7.66 1.4,-14.33 2.21,-19.39 h -25.19 c -1.13,4.52 -1.41,9.44 -1.81,14.75 -0.45,5.41 -0.6,10.51 -0.6,15.56 h -0.79 c -8.02,-12.34 -16.93,-21.6 -27.49,-27.09 -10.65,-5.22 -23.46,-8.22 -38.7,-8.22 -8.49,0 -16.32,1.14 -24.08,3.42 -7.92,2.46 -14.64,5.74 -20.66,10.42 -6.29,4.74 -10.82,10.44 -14.43,17.25 -3.75,7.13 -5.41,14.79 -5.41,23.88 0,15.26 3.94,27.22 11.83,35.91 7.61,8.73 17.77,15.18 29.67,19.46 11.74,4.5 24.61,6.96 38.11,8.02 13.3,1.28 25.88,1.61 37.12,1.61 h 13.24" /><path
             id="path54"
             style="fill:#ffffff;fill-opacity:1;fill-rule:nonzero;stroke:none"
             d="m 9502.33,3372.97 c -4.64,7 -10.87,12.9 -19.02,17.73 -8.25,4.93 -17.43,7.25 -27.84,7.25 -11.11,0.29 -20.76,-1.46 -29.44,-5.2 -8.68,-3.65 -16.07,-8.93 -22.22,-15.61 -6.42,-6.39 -10.82,-14.62 -14.03,-23.84 -3.46,-8.98 -4.8,-19.15 -4.8,-29.82 -0.32,-10.5 1.6,-20.62 4.8,-29.84 2.95,-9.09 7.88,-17.15 14.03,-23.83 5.88,-6.6 13.55,-11.87 22.22,-15.61 8.67,-3.47 18.49,-5.47 29.44,-5.2 10.26,0 19.69,2.41 27.84,7.25 8.04,5.08 14.49,10.74 19.02,17.73 l 21.62,-16.45 c -9.67,-10.82 -19.91,-19.08 -31.67,-24.3 -11.84,-4.96 -24.04,-7.96 -36.87,-8.23 -15.37,-0.27 -29,2.06 -41.3,7 -12.33,4.95 -22.78,11.82 -31.47,20.63 -8.9,8.92 -15.3,19.27 -19.84,31.42 -4.8,12.46 -6.8,25.29 -6.8,39.43 0,14.31 2.27,27.28 6.8,39.43 4.27,12.17 11.15,22.61 19.84,31.42 8.47,9.02 19.18,15.67 31.47,20.61 12.27,4.97 26.07,7.28 41.3,7.01 12.69,-0.25 25.12,-3.01 36.87,-8.23 11.67,-5.13 22.32,-13.31 31.67,-24.28 l -21.62,-16.47" /><path
             id="path56"
             style="fill:#ffffff;fill-opacity:1;fill-rule:nonzero;stroke:none"
             d="m 9654.97,3392.95 h -53.99 v -110.37 c -0.32,-6.79 0.68,-12.59 2.02,-16.99 1.34,-4.26 3.22,-7.79 5.64,-10.2 2.2,-2.19 5.3,-4.06 8.66,-5 3.26,-0.73 7.05,-1.39 11.06,-1.39 4.45,0 9.27,0.66 14.11,2 4.67,1.33 9.26,3.07 13.3,5.2 l 1.2,-24.4 c -10.19,-4.46 -21.73,-6.8 -35.58,-6.8 -5.2,0 -10.34,0.67 -15.81,2 -5.65,1.34 -10.46,3.86 -15,7.59 -4.73,3.88 -8.27,8.81 -11.2,15.21 -3.06,6.47 -4.4,14.8 -4.4,25.18 v 117.97 H 9535 v 24 h 39.98 v 52.99 h 26 v -52.99 h 53.99 v -24" /><path
             id="path58"
             style="fill:#ffffff;fill-opacity:1;fill-rule:nonzero;stroke:none"
             d="m 9849.94,3330.97 h 122.65 l -61.12,148.39 z M 9807.98,3230 H 9774 l 122.97,282.94 h 29 L 10048.9,3230 h -34 l -31.12,74.98 H 9839.16 L 9807.98,3230" /><path
             id="path60"
             style="fill:#ffffff;fill-opacity:1;fill-rule:nonzero;stroke:none"
             d="m 10248,3323.48 c -0.4,10.58 -1.7,20.15 -5.1,29.22 -3.6,9.18 -8.1,16.96 -14.2,23.64 -6.4,6.9 -13.6,11.95 -22.3,15.82 -8.8,4.14 -18.5,5.79 -29.5,5.79 -11.3,0.02 -21,-1.93 -30.1,-5.79 -9.4,-3.59 -17,-9.14 -23.7,-15.82 -6.7,-6.46 -11.9,-14.55 -15.7,-23.64 -3.9,-8.97 -5.6,-18.81 -5.6,-29.22 -0.3,-10.24 1.9,-20.16 5.6,-29.25 3.6,-8.82 9,-16.94 15.7,-23.62 6.6,-6.54 14.6,-11.94 23.7,-15.81 8.8,-3.8 19.1,-5.8 30.1,-5.8 10.7,0 20.8,1.93 29.5,5.8 8.6,3.94 16.1,9.14 22.3,15.81 5.9,6.8 10.9,14.55 14.2,23.62 3.1,9.34 5.1,18.84 5.1,29.25 z m -171,93.47 h 26 v -31.01 h 0.8 c 4,6.41 9.4,11.86 15.3,16.39 5.8,4.76 12,8.28 18.4,11.22 6.3,3.08 13.1,5.07 19.9,6.4 6.7,1.35 13.4,2 19.5,2 14.4,0.02 28.2,-2.47 40.4,-7.4 12.1,-4.79 22.7,-11.81 31.5,-20.61 8.6,-8.78 15.8,-19.22 20.7,-31.24 4.8,-11.91 7.4,-25.08 7.4,-39.22 -0.3,-13.97 -2.4,-27.23 -7.4,-39.25 -5.1,-11.75 -11.8,-22.41 -20.7,-31.21 -9.1,-8.48 -19.3,-15.68 -31.5,-20.61 -12.3,-4.74 -25.7,-7.41 -40.4,-7.41 -6.5,0 -12.6,0.67 -19.5,2 -7,1.34 -13.4,3.47 -19.9,6.41 -6.6,3.13 -12.5,6.67 -18.4,11.2 -6,4.67 -11,10.02 -15.3,16.42 h -0.8 v -146 h -26 v 301.92" /><path
             id="path62"
             style="fill:#ffffff;fill-opacity:1;fill-rule:nonzero;stroke:none"
             d="m 10493,3323.48 c -0.4,10.58 -1.7,20.15 -5.1,29.22 -3.6,9.18 -8.1,16.96 -14.2,23.64 -6.4,6.9 -13.6,11.95 -22.3,15.82 -8.8,4.14 -18.5,5.79 -29.5,5.79 -11.3,0.02 -21,-1.93 -30.1,-5.79 -9.4,-3.59 -17,-9.14 -23.7,-15.82 -6.7,-6.46 -11.9,-14.55 -15.7,-23.64 -3.9,-8.97 -5.6,-18.81 -5.6,-29.22 -0.3,-10.24 1.9,-20.16 5.6,-29.25 3.6,-8.82 9,-16.94 15.7,-23.62 6.6,-6.54 14.6,-11.94 23.7,-15.81 8.8,-3.8 19.1,-5.8 30.1,-5.8 10.7,0 20.8,1.93 29.5,5.8 8.6,3.94 16.1,9.14 22.3,15.81 5.9,6.8 10.9,14.55 14.2,23.62 3.1,9.34 5.1,18.84 5.1,29.25 z m -171,93.47 h 26 v -31.01 h 0.8 c 4,6.41 9.4,11.86 15.3,16.39 5.8,4.76 12,8.28 18.4,11.22 6.3,3.08 13.1,5.07 19.9,6.4 6.7,1.35 13.4,2 19.5,2 14.4,0.02 28.2,-2.47 40.4,-7.4 12.1,-4.79 22.7,-11.81 31.5,-20.61 8.6,-8.78 15.8,-19.22 20.7,-31.24 4.8,-11.91 7.4,-25.08 7.4,-39.22 -0.3,-13.97 -2.4,-27.23 -7.4,-39.25 -5.1,-11.75 -11.8,-22.41 -20.7,-31.21 -9.1,-8.48 -19.3,-15.68 -31.5,-20.61 -12.3,-4.74 -25.7,-7.41 -40.4,-7.41 -6.5,0 -12.6,0.67 -19.5,2 -7,1.34 -13.4,3.47 -19.9,6.41 -6.6,3.13 -12.5,6.67 -18.4,11.2 -6,4.67 -11,10.02 -15.3,16.42 h -0.8 v -146 h -26 v 301.92" /></g></g><g
         id="g64"><g
           clip-path="url(#clipPath70)"
           id="g66"><g
             id="g72" /><g
             id="g90"><g
               style="opacity:0.5"
               id="g88"
               clip-path="url(#clipPath76)"><g
                 id="g86"><g
                   id="g84"
                   clip-path="url(#clipPath80)"><path
                     id="path82"
                     style="fill:#b51700;fill-opacity:1;fill-rule:nonzero;stroke:none"
                     d="m 7060.68,4998.58 h -301.21 l 500,-625.88 500,625.88 h -301.2 v 2790.47 h -397.59" /></g></g></g></g></g></g><g
         id="g92"><g
           clip-path="url(#clipPath98)"
           id="g94"><g
             id="g100" /><g
             id="g144"><g
               style="opacity:0.5"
               id="g142"
               clip-path="url(#clipPath104)"><g
                 id="g118"><g
                   id="g116"
                   clip-path="url(#clipPath108)"><path
                     id="path114"
                     style="fill:#5e5e5e;fill-opacity:1;fill-rule:nonzero;stroke:none"
                     d="M 5968.64,5192.75 H 8550.29 V 6968.99 H 5968.64 Z" /></g></g><g
                 id="g140"><g
                   id="g138"
                   clip-path="url(#clipPath112)"><path
                     id="path120"
                     style="fill:#ffffff;fill-opacity:1;fill-rule:nonzero;stroke:none"
                     d="m 6257.98,6242.94 h 29 v -122.97 h 153.97 v 122.97 h 28.99 V 5960 h -28.99 v 133.97 H 6286.98 V 5960 h -29 v 282.94" /><path
                     id="path122"
                     style="fill:#ffffff;fill-opacity:1;fill-rule:nonzero;stroke:none"
                     d="m 6637.97,5960 h -29 v 256.94 H 6514 v 26 h 218.95 v -26 h -94.98 V 5960" /><path
                     id="path124"
                     style="fill:#ffffff;fill-opacity:1;fill-rule:nonzero;stroke:none"
                     d="m 6915.45,6012.75 95.49,230.19 h 43.98 V 5960 h -28.98 v 244.56 h -0.8 L 6922.95,5960 h -15 l -102.17,244.56 h -0.8 V 5960 h -29 v 282.94 h 44 l 95.47,-230.19" /><path
                     id="path126"
                     style="fill:#ffffff;fill-opacity:1;fill-rule:nonzero;stroke:none"
                     d="m 7160.98,5986 h 131.97 v -26 h -160.97 v 282.94 h 29 V 5986" /><path
                     id="path128"
                     style="fill:#ffffff;fill-opacity:1;fill-rule:nonzero;stroke:none"
                     d="m 7577.95,6195.94 c -12.82,18.69 -30.73,28 -54.68,28 -7.55,0.02 -14.79,-1 -21.97,-3 -7.28,-1.97 -13.64,-5.05 -19.36,-9.17 -6.03,-4.05 -10.31,-9.45 -13.77,-15.97 -3.51,-6.46 -5.19,-14.17 -5.19,-22.96 -0.32,-12.71 3.6,-22.68 10.79,-29.73 6.93,-6.76 16.1,-12.84 26.75,-17.36 10.48,-4.44 22.3,-8.59 34.95,-12.19 12.49,-3.45 24.29,-8.39 34.94,-14.39 10.52,-5.72 19.57,-13.94 26.76,-23.81 7.13,-9.65 10.78,-23.32 10.78,-40.38 -0.32,-12.79 -2.73,-24.33 -8.18,-34.59 -5.71,-10.06 -12.64,-18.86 -21.55,-25.8 -8.98,-6.79 -18.88,-12.25 -29.92,-15.98 -11.14,-3.61 -22.16,-5.61 -33.33,-5.61 -17.61,0 -33.71,3.28 -49.28,9.83 -15.8,6.62 -28.8,17.33 -39.69,32.3 l 25.98,18.85 c 5.8,-10.57 14.65,-19.06 25.57,-25.43 10.73,-6.22 23.82,-9.55 38.72,-9.55 7.09,0 14.37,1.13 21.56,3.39 6.91,2.47 13.64,5.6 19.36,10 5.66,4.6 10.45,9.79 14.17,16.19 3.61,6.55 5.59,13.74 5.59,22 -0.32,10.01 -2.06,18.07 -6.18,24.59 -4.39,6.81 -9.59,11.99 -16.38,16.39 -6.91,4.55 -14.5,8.07 -23.16,11 -8.73,3.08 -17.57,5.87 -26.76,8.8 -9.34,3.15 -18.09,6.27 -26.75,9.98 -8.9,3.95 -16.38,8.46 -23.17,14.18 -6.97,5.89 -12.24,12.92 -16.36,21.57 -4.19,8.96 -6.19,19.51 -6.19,32.57 0,13.68 2.6,25.41 7.81,35.53 4.94,10.39 12.16,18.51 20.85,25.17 8.47,6.87 18.5,11.58 29.45,14.77 10.92,3.48 22.18,4.79 33.67,4.79 15.78,0.03 30.6,-2.53 43.69,-7.59 12.94,-4.84 25.25,-14 36.48,-26.8 l -26,-19.59" /><path
                     id="path130"
                     style="fill:#ffffff;fill-opacity:1;fill-rule:nonzero;stroke:none"
                     d="m 7801.95,6067.97 c -0.32,17.87 -5.32,32.33 -15.95,43.39 -10.62,11.27 -25.51,16.59 -44.64,16.59 -8.62,0.02 -16.74,-1.66 -24.72,-5 -8.18,-3.31 -14.94,-7.79 -20.92,-13.39 -6.22,-5.45 -10.77,-11.99 -14.36,-19.2 -3.7,-6.98 -5.38,-14.66 -5.38,-22.39 z m -126.76,-21.99 c 0.74,-9.29 3.06,-18.07 6.79,-26.32 3.41,-8.13 8.68,-15.36 14.8,-21.33 5.88,-5.75 13.2,-10.69 21.19,-14.14 7.67,-3.19 16.66,-5.19 26,-5.19 13.81,0 26.33,3.22 36.59,9.67 10.07,6.56 18.06,13.88 23.39,22.31 l 20,-16.68 c -11.5,-13.79 -23.5,-24.08 -36.95,-30.17 -13.45,-5.79 -27.9,-9.13 -43.34,-9.13 -14.06,0 -26.68,2.47 -38.53,7.41 -11.9,5.13 -22.05,11.8 -30.58,20.61 -8.71,9.12 -15.25,19.2 -20.17,31.21 -5.05,12.28 -7.38,25.11 -7.38,39.25 0,14.31 2.39,27.21 7.19,39.22 4.74,12.12 11.47,22.43 20,31.24 8.47,8.82 18.53,15.67 30,20.61 11.4,5.08 23.86,7.4 37.19,7.4 14,0.02 26.78,-2.54 37.98,-7.62 11.08,-4.86 20.59,-11.84 28.19,-20.27 7.42,-8.11 13.4,-18.33 17.4,-29.72 3.68,-11.15 6,-23.48 6,-36.32 v -12.04 h -155.76" /><path
                     id="path132"
                     style="fill:#ffffff;fill-opacity:1;fill-rule:nonzero;stroke:none"
                     d="m 7916.98,6218.94 c -0.32,-5.53 -1.98,-10.1 -5.93,-13.66 -3.98,-3.32 -8.32,-5.34 -13.07,-5.34 -5.07,0.02 -9.1,1.78 -13.06,5.34 -4.26,3.8 -5.92,8.11 -5.92,13.66 0,5.56 1.97,10.09 5.92,13.65 3.65,3.7 8.31,5.35 13.06,5.35 4.43,0.02 9.11,-1.78 13.07,-5.35 3.94,-3.43 5.93,-8.11 5.93,-13.65 z m -6,-258.94 h -26 v 186.95 h 26 V 5960" /><path
                     id="path134"
                     style="fill:#ffffff;fill-opacity:1;fill-rule:nonzero;stroke:none"
                     d="m 8070.97,6122.95 h -53.99 v -110.37 c -0.32,-6.79 0.68,-12.59 2.02,-16.99 1.34,-4.26 3.22,-7.79 5.64,-10.2 2.2,-2.19 5.3,-4.06 8.66,-5 3.26,-0.73 7.05,-1.39 11.06,-1.39 4.45,0 9.27,0.66 14.11,2 4.67,1.33 9.26,3.07 13.3,5.2 l 1.2,-24.4 c -10.19,-4.46 -21.73,-6.8 -35.58,-6.8 -5.2,0 -10.34,0.67 -15.81,2 -5.65,1.34 -10.46,3.86 -15,7.59 -4.73,3.88 -8.27,8.81 -11.2,15.21 -3.06,6.47 -4.4,14.8 -4.4,25.18 v 117.97 H 7951 v 24 h 39.98 v 52.99 h 26 v -52.99 h 53.99 v -24" /><path
                     id="path136"
                     style="fill:#ffffff;fill-opacity:1;fill-rule:nonzero;stroke:none"
                     d="m 8252.95,6067.97 c -0.32,17.87 -5.32,32.33 -15.95,43.39 -10.62,11.27 -25.51,16.59 -44.64,16.59 -8.62,0.02 -16.74,-1.66 -24.72,-5 -8.18,-3.31 -14.94,-7.79 -20.92,-13.39 -6.22,-5.45 -10.77,-11.99 -14.36,-19.2 -3.7,-6.98 -5.38,-14.66 -5.38,-22.39 z m -126.76,-21.99 c 0.74,-9.29 3.06,-18.07 6.79,-26.32 3.41,-8.13 8.68,-15.36 14.8,-21.33 5.88,-5.75 13.2,-10.69 21.19,-14.14 7.67,-3.19 16.66,-5.19 26,-5.19 13.81,0 26.33,3.22 36.59,9.67 10.07,6.56 18.06,13.88 23.39,22.31 l 20,-16.68 c -11.5,-13.79 -23.5,-24.08 -36.95,-30.17 -13.45,-5.79 -27.9,-9.13 -43.34,-9.13 -14.06,0 -26.68,2.47 -38.53,7.41 -11.9,5.13 -22.05,11.8 -30.58,20.61 -8.71,9.12 -15.25,19.2 -20.17,31.21 -5.05,12.28 -7.38,25.11 -7.38,39.25 0,14.31 2.39,27.21 7.19,39.22 4.74,12.12 11.47,22.43 20,31.24 8.47,8.82 18.53,15.67 30,20.61 11.4,5.08 23.86,7.4 37.19,7.4 14,0.02 26.78,-2.54 37.98,-7.62 11.08,-4.86 20.59,-11.84 28.19,-20.27 7.42,-8.11 13.4,-18.33 17.4,-29.72 3.68,-11.15 6,-23.48 6,-36.32 v -12.04 h -155.76" /></g></g></g></g></g></g><path
         id="path146"
         style="fill:#b51700;fill-opacity:1;fill-rule:nonzero;stroke:none"
         d="m 11739.1,4998.58 h -301.2 l 500,-625.88 500,625.88 h -301.2 v 2790.47 h -397.6" /><path
         id="path148"
         style="fill:#5e5e5e;fill-opacity:1;fill-rule:nonzero;stroke:none"
         d="m 10647.1,5192.75 h 2581.65 V 6968.99 H 10647.1 Z" /><g
         id="g150"><g
           clip-path="url(#clipPath156)"
           id="g152"><path
             id="path158"
             style="fill:#ffffff;fill-opacity:1;fill-rule:nonzero;stroke:none"
             d="m 10845,6017.98 c 2.3,-12.05 7.6,-21.57 14.8,-28.54 7,-6.78 17.3,-10.44 30.1,-10.44 10.1,0 18.9,2.07 25.4,6.2 6.5,4.4 11.6,9.46 15.2,15.99 3.5,6.8 6.1,13.99 7.5,22.39 1,8.55 2,17.01 2,25.81 v 193.55 h 29 v -205.27 c -0.4,-9.48 -1.3,-19.38 -3.8,-29.37 -2.6,-9.75 -7,-19.03 -13.3,-27.14 -6.5,-7.84 -14.4,-14.84 -24.6,-20.18 -10.2,-5.31 -22.8,-7.98 -38,-7.98 -19.6,0 -35.8,4.98 -48.9,14.95 -13.2,9.99 -21.2,24.65 -24.4,44.05 l 29,5.98" /><path
             id="path160"
             style="fill:#ffffff;fill-opacity:1;fill-rule:nonzero;stroke:none"
             d="m 11175,6195.94 c -12.9,18.69 -30.8,28 -54.7,28 -7.6,0.02 -14.8,-1 -22,-3 -7.3,-1.97 -13.6,-5.05 -19.4,-9.17 -6,-4.05 -10.3,-9.45 -13.7,-15.97 -3.5,-6.46 -5.2,-14.17 -5.2,-22.96 -0.3,-12.71 3.6,-22.68 10.8,-29.73 6.9,-6.76 16.1,-12.84 26.7,-17.36 10.5,-4.44 22.3,-8.59 35,-12.19 12.5,-3.45 24.3,-8.39 34.9,-14.39 10.5,-5.72 19.6,-13.94 26.8,-23.81 7.1,-9.65 10.8,-23.32 10.8,-40.38 -0.4,-12.79 -2.8,-24.33 -8.2,-34.59 -5.7,-10.06 -12.7,-18.86 -21.6,-25.8 -9,-6.79 -18.9,-12.25 -29.9,-15.98 -11.1,-3.61 -22.2,-5.61 -33.3,-5.61 -17.6,0 -33.7,3.28 -49.3,9.83 -15.8,6.62 -28.8,17.33 -39.7,32.3 l 26,18.85 c 5.8,-10.57 14.6,-19.06 25.5,-25.43 10.8,-6.22 23.9,-9.55 38.8,-9.55 7.1,0 14.3,1.13 21.5,3.39 6.9,2.47 13.7,5.6 19.4,10 5.7,4.6 10.4,9.79 14.2,16.19 3.6,6.55 5.6,13.74 5.6,22 -0.4,10.01 -2.1,18.07 -6.2,24.59 -4.4,6.81 -9.6,11.99 -16.4,16.39 -6.9,4.55 -14.5,8.07 -23.2,11 -8.7,3.08 -17.5,5.87 -26.7,8.8 -9.4,3.15 -18.1,6.27 -26.8,9.98 -8.9,3.95 -16.4,8.46 -23.2,14.18 -6.9,5.89 -12.2,12.92 -16.3,21.57 -4.2,8.96 -6.2,19.51 -6.2,32.57 0,13.68 2.6,25.41 7.8,35.53 5,10.39 12.2,18.51 20.9,25.17 8.4,6.87 18.5,11.58 29.4,14.77 10.9,3.48 22.2,4.79 33.7,4.79 15.8,0.03 30.6,-2.53 43.7,-7.59 12.9,-4.84 25.2,-14 36.5,-26.8 l -26,-19.59" /><path
             id="path162"
             style="fill:#ffffff;fill-opacity:1;fill-rule:nonzero;stroke:none"
             d="m 11507.9,6101.47 c -0.3,16.44 -2.6,31.81 -8,46.62 -5.6,15.12 -13,27.82 -23,39.02 -10.3,11.5 -22.2,20.14 -36.6,26.81 -14.5,6.71 -30.7,10.02 -48.8,10.02 -18.3,0.02 -34.5,-3.34 -48.9,-10.02 -14.6,-6.64 -26.6,-15.6 -36.6,-26.81 -10,-10.9 -17.7,-24.2 -23,-39.02 -5.7,-14.51 -8,-30.35 -8,-46.62 -0.3,-16.11 2.6,-31.83 8,-46.64 5,-14.75 13,-27.81 23,-39.02 10,-11.15 22.2,-20.15 36.6,-26.81 14.2,-6.67 30.7,-10 48.9,-10 17.9,0 34.4,3.33 48.8,10 14.3,6.66 26.6,15.6 36.6,26.81 9.7,11.27 17.7,24.21 23,39.02 5.1,14.87 8,30.36 8,46.64 z m 31,0 c -0.3,-21.38 -3.7,-41.38 -11.2,-59.47 -7.7,-18.09 -17.8,-33.73 -30.9,-46.89 -13.5,-12.87 -28.8,-23.48 -46.8,-30.94 -18,-7.17 -37.5,-11.17 -58.5,-11.17 -21.2,0 -40.6,3.73 -58.6,11.17 -18.3,7.74 -33.6,17.77 -46.7,30.94 -13.3,13.46 -23.6,28.8 -31,46.89 -7.5,18.09 -11.2,37.91 -11.2,59.47 0,21.72 3.7,41.36 11.2,59.45 7.4,18.12 17.8,33.72 31,46.89 13.1,13.24 28.7,23.49 46.7,30.94 17.7,7.53 37.5,11.17 58.6,11.17 20.9,0.03 40.5,-3.72 58.5,-11.17 18,-7.37 33.6,-17.76 46.8,-30.94 12.9,-13.1 23.5,-28.79 30.9,-46.89 7.2,-18.07 11.2,-37.91 11.2,-59.45" /><path
             id="path164"
             style="fill:#ffffff;fill-opacity:1;fill-rule:nonzero;stroke:none"
             d="m 11802.1,6003.16 h 0.8 v 239.78 h 29 V 5960 h -36 l -168.1,242.17 h -0.8 V 5960 h -29 v 282.94 h 36 l 168.1,-239.78" /><path
             id="path166"
             style="fill:#ffffff;fill-opacity:1;fill-rule:nonzero;stroke:none"
             d="m 12044,5986 h 56 c 21.6,0 40.4,3.27 56.3,9.81 15.8,6.62 29.1,15.24 39.6,26.07 10.2,10.87 18.4,23.12 23.4,36.89 5,13.83 7.6,27.99 7.6,42.7 -0.3,14.87 -2.5,28.92 -7.6,42.69 -5.2,14.05 -12.9,26.06 -23.4,36.89 -10.8,11.14 -23.7,19.5 -39.6,26.06 -16,6.85 -34.6,9.83 -56.3,9.83 h -56 z m -29,256.94 h 94 c 17.6,0.02 35.3,-2.94 53.1,-8.8 17.7,-5.58 33.7,-14.73 48,-26.58 14.2,-11.71 25.8,-26.64 34.6,-44.36 8.6,-17.45 13.2,-38.29 13.2,-61.73 -0.3,-23.54 -4.4,-44.37 -13.2,-61.95 -9,-17.43 -20.3,-32.31 -34.6,-44.16 -14.3,-11.63 -30.3,-20.7 -48,-26.56 -17.8,-5.8 -35.4,-8.8 -53.1,-8.8 h -94 v 282.94" /><path
             id="path168"
             style="fill:#ffffff;fill-opacity:1;fill-rule:nonzero;stroke:none"
             d="m 12413.3,6052.98 c -6.7,0.01 -15,-0.33 -25,-1 -10.1,-0.66 -19.6,-2.26 -28.8,-4.79 -9.4,-2.26 -17.2,-6.47 -23.7,-11.8 -6.8,-5.13 -9.8,-12.67 -9.8,-22 -0.3,-5.93 1.3,-11.4 3.8,-15.8 2.3,-4.26 5.9,-7.99 10.2,-10.79 4.3,-2.74 9,-4.81 14.2,-6 5.2,-1.14 10.5,-1.8 15.9,-1.8 9.6,0 17.9,1.6 25,4.8 7.1,3.26 13,7.52 17.8,12.98 4.5,5.54 8.4,11.87 10.7,19.2 2,7.34 3.4,15.14 3.4,23.41 v 13.59 z m 13.7,21.99 v 4.78 c -0.4,32.22 -16.1,48.2 -48.3,48.2 -22.3,0.02 -41.2,-7.32 -57.6,-21.98 l -16.1,18.78 c 17.6,18.22 44.1,27.2 79.4,27.2 8.9,0.02 17.8,-1.33 26.2,-4 8.3,-2.65 15.8,-6.73 21.9,-12.2 6,-5.39 11.1,-12.34 14.8,-20.59 3.7,-7.98 5.7,-18.13 5.7,-29.6 v -83.58 c -0.4,-7.18 0.3,-14.71 1,-22.59 0.3,-7.66 1.4,-14.33 2.2,-19.39 h -25.2 c -1.2,4.52 -1.4,9.44 -1.8,14.75 -0.5,5.41 -0.6,10.51 -0.6,15.56 h -0.8 c -8,-12.34 -17,-21.6 -27.5,-27.09 -10.7,-5.22 -23.5,-8.22 -38.7,-8.22 -8.5,0 -16.3,1.14 -24.1,3.42 -7.9,2.46 -14.6,5.74 -20.7,10.42 -6.2,4.74 -10.8,10.44 -14.4,17.25 -3.7,7.13 -5.4,14.79 -5.4,23.88 0,15.26 3.9,27.22 11.8,35.91 7.6,8.73 17.8,15.18 29.7,19.46 11.7,4.5 24.6,6.96 38.1,8.02 13.3,1.28 25.9,1.61 37.1,1.61 h 13.3" /><path
             id="path170"
             style="fill:#ffffff;fill-opacity:1;fill-rule:nonzero;stroke:none"
             d="m 12610,6122.95 h -54 v -110.37 c -0.3,-6.79 0.7,-12.59 2,-16.99 1.3,-4.26 3.2,-7.79 5.6,-10.2 2.2,-2.19 5.3,-4.06 8.7,-5 3.3,-0.73 7,-1.39 11.1,-1.39 4.4,0 9.2,0.66 14.1,2 4.6,1.33 9.2,3.07 13.3,5.2 l 1.2,-24.4 c -10.2,-4.46 -21.8,-6.8 -35.6,-6.8 -5.2,0 -10.4,0.67 -15.8,2 -5.7,1.34 -10.5,3.86 -15,7.59 -4.7,3.88 -8.3,8.81 -11.2,15.21 -3.1,6.47 -4.4,14.8 -4.4,25.18 v 117.97 h -40 v 24 h 40 v 52.99 h 26 v -52.99 h 54 v -24" /><path
             id="path172"
             style="fill:#ffffff;fill-opacity:1;fill-rule:nonzero;stroke:none"
             d="m 12792,6067.97 c -0.4,17.87 -5.4,32.33 -16,43.39 -10.6,11.27 -25.5,16.59 -44.6,16.59 -8.7,0.02 -16.8,-1.66 -24.8,-5 -8.1,-3.31 -14.9,-7.79 -20.9,-13.39 -6.2,-5.45 -10.7,-11.99 -14.3,-19.2 -3.7,-6.98 -5.4,-14.66 -5.4,-22.39 z m -126.8,-21.99 c 0.7,-9.29 3.1,-18.07 6.8,-26.32 3.4,-8.13 8.7,-15.36 14.8,-21.33 5.9,-5.75 13.2,-10.69 21.2,-14.14 7.6,-3.19 16.6,-5.19 26,-5.19 13.8,0 26.3,3.22 36.6,9.67 10,6.56 18,13.88 23.4,22.31 l 20,-16.68 c -11.6,-13.79 -23.6,-24.08 -37,-30.17 -13.4,-5.79 -27.9,-9.13 -43.3,-9.13 -14.1,0 -26.7,2.47 -38.6,7.41 -11.9,5.13 -22,11.8 -30.6,20.61 -8.7,9.12 -15.2,19.2 -20.1,31.21 -5.1,12.28 -7.4,25.11 -7.4,39.25 0,14.31 2.4,27.21 7.2,39.22 4.7,12.12 11.5,22.43 20,31.24 8.5,8.82 18.5,15.67 30,20.61 11.4,5.08 23.9,7.4 37.2,7.4 14,0.02 26.8,-2.54 38,-7.62 11,-4.86 20.6,-11.84 28.1,-20.27 7.5,-8.11 13.5,-18.33 17.5,-29.72 3.6,-11.15 6,-23.48 6,-36.32 v -12.04 h -155.8" /><path
             id="path174"
             style="fill:#ffffff;fill-opacity:1;fill-rule:nonzero;stroke:none"
             d="m 12893.8,6146.95 c 0.3,-5.01 0.8,-10 1,-14.9 -0.1,-4.58 0.2,-9.86 0.2,-14.88 h 0.8 c 2.7,5.33 6.7,9.71 11.2,13.97 4.2,4.56 9.6,7.94 15.2,11 5.5,3.36 11.5,5.47 17.8,7.2 5.9,1.96 12.4,2.61 18.6,2.61 23.8,0.02 41.7,-6.33 53.2,-19 11.2,-12.64 17.2,-30.72 17.2,-54.18 V 5960 h -26 v 103.56 c -0.4,20.95 -3.7,36.74 -10.9,47.8 -7.2,11.27 -20.6,16.59 -40.1,16.59 -1.7,0.02 -5.1,-0.54 -11.3,-1.61 -6.4,-0.84 -12.6,-3.99 -19.4,-8.78 -6.9,-4.65 -12.9,-11.99 -18.3,-21.59 -5.3,-9.59 -8,-22.93 -8,-39.99 V 5960 h -26 v 145.81 c 0,5.13 -0.2,11.46 -0.6,19.17 -0.5,7.73 -0.9,15.04 -1.4,21.97 h 26.8" /></g></g><path
         id="path176"
         style="fill:#ff9300;fill-opacity:1;fill-rule:nonzero;stroke:none"
         d="m 9798.8,7163.18 h 301.2 l -500,625.87 -500,-625.87 h 301.21 V 4372.7 h 397.59" /></g></g></svg>