<?xml version="1.0" encoding="UTF-8" standalone="no"?>
<svg
   xmlns:dc="http://purl.org/dc/elements/1.1/"
   xmlns:cc="http://creativecommons.org/ns#"
   xmlns:rdf="http://www.w3.org/1999/02/22-rdf-syntax-ns#"
   xmlns:svg="http://www.w3.org/2000/svg"
   xmlns="http://www.w3.org/2000/svg"
   viewBox="0 0 2560 1440"
   height="1440"
   width="2560"
   xml:space="preserve"
   id="svg2"
   version="1.1"><metadata
     id="metadata8"><rdf:RDF><cc:Work
         rdf:about=""><dc:format>image/svg+xml</dc:format><dc:type
           rdf:resource="http://purl.org/dc/dcmitype/StillImage" /></cc:Work></rdf:RDF></metadata><defs
     id="defs6"><clipPath
       id="clipPath24"
       clipPathUnits="userSpaceOnUse"><path
         id="path22"
         d="m 5261.82,9125.41 h 9909.33 v 737.355 H 5261.82 Z" /></clipPath><clipPath
       id="clipPath86"
       clipPathUnits="userSpaceOnUse"><path
         id="path84"
         d="m 5261.82,8214.66 h 9909.33 v 737.355 H 5261.82 Z" /></clipPath><clipPath
       id="clipPath118"
       clipPathUnits="userSpaceOnUse"><path
         id="path116"
         d="m 8501.36,7303.91 h 6669.79 v 737.355 H 8501.36 Z" /></clipPath><clipPath
       id="clipPath190"
       clipPathUnits="userSpaceOnUse"><path
         id="path188"
         d="m 5261.82,5215.58 h 9909.33 v 737.355 H 5261.82 Z" /></clipPath><clipPath
       id="clipPath210"
       clipPathUnits="userSpaceOnUse"><path
         id="path208"
         d="m 8501.36,4231.32 h 6669.79 v 737.355 H 8501.36 Z" /></clipPath><clipPath
       id="clipPath260"
       clipPathUnits="userSpaceOnUse"><path
         id="path258"
         d="m 5261.82,2262.8 h 9909.33 v 737.355 H 5261.82 Z" /></clipPath><clipPath
       id="clipPath280"
       clipPathUnits="userSpaceOnUse"><path
         id="path278"
         d="m 8501.36,3247.06 h 6669.79 v 737.355 H 8501.36 Z" /></clipPath></defs><g
     transform="matrix(1.3333333,0,0,-1.3333333,0,1440)"
     id="g10"><g
       transform="scale(0.1)"
       id="g12"><path
         id="path14"
         style="fill:#ffffff;fill-opacity:1;fill-rule:nonzero;stroke:none"
         d="M 0,0 H 19200 V 10800 H 0 Z" /><path
         id="path16"
         style="fill:#ff9300;fill-opacity:1;fill-rule:nonzero;stroke:none"
         d="m 5377.93,9125.41 h 9677.11 v 737.355 H 5377.93 Z" /><g
         id="g18"><g
           clip-path="url(#clipPath24)"
           id="g20"><path
             id="path26"
             style="fill:#ffffff;fill-opacity:1;fill-rule:nonzero;stroke:none"
             d="m 8091.98,9390 h -22 v 256.92 h 22 V 9390" /><path
             id="path28"
             style="fill:#ffffff;fill-opacity:1;fill-rule:nonzero;stroke:none"
             d="m 8270.95,9480.97 c -0.32,15.5 -4.56,28.02 -13.67,37.61 -9.2,9.72 -21.86,14.37 -38.26,14.37 -7.3,0.02 -14.36,-1.44 -21.19,-4.32 -7.1,-2.77 -12.8,-6.76 -17.92,-11.61 -5.43,-4.53 -9.23,-10.41 -12.32,-16.64 -3.27,-6.04 -4.61,-12.72 -4.61,-19.41 z m -108.65,-17.99 c 0.58,-7.91 2.6,-15.38 5.78,-22.39 3.16,-6.87 7.39,-13.05 12.61,-18.14 5,-4.9 11.24,-9.1 18.04,-12.04 6.57,-2.75 14.2,-4.41 22.15,-4.41 11.73,0 22.41,2.82 31.15,8.45 8.73,5.83 15.38,12.16 19.92,19.53 l 17,-14.29 c -9.79,-11.92 -19.91,-20.64 -31.31,-25.86 -11.61,-5.16 -23.64,-7.83 -36.73,-7.83 -12.03,0 -22.62,2.09 -32.66,6.28 -10.12,4.43 -18.68,10.01 -25.91,17.47 -7.33,7.55 -12.91,16.29 -17.09,26.47 -4.25,10.44 -6.25,21.27 -6.25,33.26 0,12.15 2.03,23.06 6.09,33.24 4.04,10.28 9.71,19.01 16.94,26.47 7.23,7.74 15.72,13.29 25.44,17.48 9.57,4.3 20.24,6.28 31.53,6.28 11.99,0.02 22.73,-2.16 32.22,-6.48 9.41,-4.14 17.45,-10.05 23.89,-17.2 6.41,-6.92 11.36,-15.57 14.75,-25.22 3.11,-9.34 5.09,-19.94 5.09,-30.83 v -10.24 H 8162.3" /><path
             id="path30"
             style="fill:#ffffff;fill-opacity:1;fill-rule:nonzero;stroke:none"
             d="m 8417.97,9528.97 h -45.99 v -94.28 c -0.32,-5.83 0.57,-10.77 1.69,-14.52 0.9,-3.47 2.71,-6.65 4.74,-8.7 1.89,-1.88 4.45,-3.48 7.26,-4.28 2.6,-0.53 5.93,-1.19 9.31,-1.19 3.49,0 7.75,0.57 11.8,1.7 3.8,1.24 7.79,2.61 11.17,4.43 l 1.02,-20.46 c -8.63,-3.67 -18.28,-5.67 -29.94,-5.67 -4.27,0 -8.69,0.57 -13.3,1.7 -4.85,1.24 -8.81,3.29 -12.62,6.47 -3.85,3.46 -6.95,7.49 -9.42,12.94 -2.7,5.74 -3.71,12.59 -3.71,21.44 v 100.42 H 8316 v 19.98 h 33.98 v 44.99 h 22 v -44.99 h 45.99 v -19.98" /><path
             id="path32"
             style="fill:#ffffff;fill-opacity:1;fill-rule:nonzero;stroke:none"
             d="m 8658.61,9511.97 c -4.06,5.88 -9.24,10.83 -16.16,14.89 -7.07,4.11 -14.79,6.09 -23.64,6.09 -9.56,0.25 -17.62,-1.25 -24.98,-4.43 -7.64,-3.02 -13.66,-7.61 -18.88,-13.3 -5.52,-5.43 -9.17,-12.46 -11.89,-20.31 -2.74,-7.83 -4.08,-16.33 -4.08,-25.43 -0.32,-8.93 1.36,-17.58 4.08,-25.43 2.7,-7.54 6.68,-14.63 11.89,-20.32 4.9,-5.59 11.51,-10.1 18.88,-13.29 7.08,-2.99 15.69,-4.66 24.98,-4.44 8.57,0 16.73,2.03 23.64,6.09 6.77,4.37 12.3,9.03 16.16,14.89 l 18.34,-13.76 c -8.22,-8.93 -16.82,-15.97 -26.76,-20.33 -10,-4.33 -20.33,-6.66 -31.17,-6.89 -12.88,-0.23 -24.5,1.75 -34.89,5.94 -10.44,4.2 -19.27,10.01 -26.61,17.47 -7.52,7.66 -12.94,16.34 -16.77,26.64 -4.09,10.61 -5.75,21.44 -5.75,33.43 0,12.15 1.91,23.12 5.75,33.41 3.58,10.34 9.42,19.18 16.77,26.64 7.17,7.63 16.21,13.3 26.61,17.49 10.35,4.51 22.02,6.16 34.89,5.93 10.83,-0.21 21.23,-2.52 31.17,-6.89 9.87,-4.05 18.86,-11.13 26.76,-20.31 l -18.34,-13.78" /><path
             id="path34"
             style="fill:#ffffff;fill-opacity:1;fill-rule:nonzero;stroke:none"
             d="m 8842.95,9469.48 c -0.32,9.04 -1.43,17.17 -4.28,24.91 -3.08,7.94 -6.91,14.45 -12.17,20.14 -5.42,5.85 -11.59,10.18 -19.02,13.47 -7.59,3.3 -15.82,4.95 -25.18,4.95 -9.47,0.02 -17.76,-1.65 -25.19,-4.95 -7.45,-3.29 -13.7,-7.78 -18.84,-13.47 -5.24,-5.53 -9.15,-12.4 -12,-20.14 -2.95,-7.54 -4.29,-16.04 -4.29,-24.91 -0.32,-8.7 1.43,-17.18 4.29,-24.92 2.76,-7.59 6.85,-14.45 12,-20.14 5.05,-5.48 11.42,-10.17 18.84,-13.47 7.39,-3.29 15.82,-4.95 25.19,-4.95 9.26,0 17.75,1.65 25.18,4.95 7.27,3.32 13.77,7.79 19.02,13.47 5.09,5.88 9.32,12.4 12.17,20.14 2.63,7.89 4.28,16.05 4.28,24.92 z m 24,0 c -0.32,-11.82 -2.1,-23.07 -6.29,-33.26 -4.41,-9.92 -10.03,-19 -17.52,-26.47 -7.53,-7.37 -16.37,-13.28 -26.69,-17.47 -10.45,-3.94 -21.68,-6.28 -34.15,-6.28 -12.33,0 -23.5,2.09 -33.82,6.28 -10.47,4.43 -19.21,10.01 -26.7,17.47 -7.74,7.55 -13.31,16.29 -17.5,26.47 -4.28,10.44 -6.28,21.27 -6.28,33.26 0,12.15 2.09,23.06 6.28,33.24 4.1,10.28 10.02,19.01 17.5,26.47 7.23,7.74 16.39,13.29 26.7,17.48 10.15,4.3 21.59,6.28 33.82,6.28 12.36,0.02 23.85,-2.09 34.15,-6.28 10.16,-4.08 19.21,-10.01 26.69,-17.48 7.44,-7.19 13.33,-16.28 17.52,-26.47 3.97,-10.09 6.29,-21.26 6.29,-33.24" /><path
             id="path36"
             style="fill:#ffffff;fill-opacity:1;fill-rule:nonzero;stroke:none"
             d="m 8929.97,9548.95 c 0.13,-4.29 0.74,-8.57 0.84,-12.76 -0.15,-3.93 0.17,-8.46 0.17,-12.77 h 0.69 c 2.27,4.49 5.66,8.26 9.52,11.88 3.8,3.86 8.17,6.73 12.94,9.33 4.72,2.72 9.81,4.64 15.14,6.1 5.23,1.57 10.59,2.22 15.81,2.22 20.39,0.02 35.5,-5.37 45.25,-16.12 9.64,-10.7 14.62,-26.09 14.62,-46 V 9390 h -21.98 v 88.16 c -0.33,17.97 -3.08,31.25 -9.24,40.67 -6.4,9.47 -17.55,14.12 -34.2,14.12 -1.31,0.02 -4.32,-0.45 -9.56,-1.36 -5.56,-0.76 -10.77,-3.39 -16.58,-7.48 -5.94,-3.79 -11,-10.22 -15.56,-18.39 -4.84,-8.08 -6.85,-19.51 -6.85,-34.02 V 9390 H 8909 v 123.97 c 0,4.32 -0.17,9.75 -0.52,16.31 -0.5,6.8 -0.74,12.79 -1.18,18.67 h 22.67" /><path
             id="path38"
             style="fill:#ffffff;fill-opacity:1;fill-rule:nonzero;stroke:none"
             d="m 9109.98,9469.48 c -0.32,-8.7 1.43,-17.18 4.3,-24.92 2.77,-7.59 6.93,-14.45 12.19,-20.14 5.11,-5.48 11.62,-10.17 19.06,-13.47 7.26,-3.29 15.85,-4.95 25.24,-4.95 8.89,0 17.68,1.65 25.57,4.95 7.79,3.32 14.72,7.79 20.44,13.47 5.46,5.88 10.18,12.4 13.38,20.14 3.15,7.89 4.81,16.05 4.81,24.92 -0.33,9.04 -1.61,17.17 -4.81,24.91 -3.25,7.94 -7.66,14.45 -13.38,20.14 -5.98,5.85 -12.53,10.18 -20.44,13.47 -8.01,3.3 -16.42,4.95 -25.57,4.95 -9.64,0.02 -17.8,-1.65 -25.24,-4.95 -7.62,-3.29 -13.79,-7.78 -19.06,-13.47 -5.42,-5.53 -9.33,-12.4 -12.19,-20.14 -2.96,-7.54 -4.3,-16.04 -4.3,-24.91 z M 9255.95,9390 h -22 v 26.55 h -0.68 c -3.74,-5.28 -7.98,-10.07 -12.99,-13.92 -5.09,-3.72 -10.23,-7.02 -15.7,-9.5 -5.67,-2.2 -11.11,-4.3 -16.92,-5.43 -6.03,-1.03 -11.34,-1.7 -16.58,-1.7 -12.55,0 -23.97,2.09 -34.35,6.28 -10.6,4.43 -19.3,10.01 -26.82,17.47 -7.82,7.55 -13.38,16.29 -17.6,26.47 -4.31,10.44 -6.31,21.27 -6.31,33.26 0,12.15 2.1,23.06 6.31,33.24 4.12,10.28 10.08,19.01 17.6,26.47 7.22,7.74 16.46,13.29 26.82,17.48 10.13,4.3 21.82,6.28 34.35,6.28 5.21,0.02 10.76,-0.57 16.58,-1.7 5.59,-0.87 11.45,-2.93 16.92,-5.42 5.27,-2.44 10.7,-5.66 15.7,-9.5 4.92,-3.62 9.34,-8.48 12.99,-13.91 h 0.68 v 124.5 h 22 V 9390" /><path
             id="path40"
             style="fill:#ffffff;fill-opacity:1;fill-rule:nonzero;stroke:none"
             d="m 9337.98,9610.44 c -0.32,-4.63 -1.71,-8.77 -5.15,-11.86 -3.72,-2.95 -7.22,-4.64 -11.35,-4.64 -4.28,0.02 -7.9,1.54 -11.34,4.64 -3.48,3.23 -5.14,7.05 -5.14,11.86 0,5 1.71,8.76 5.14,11.86 3.39,3.33 7.22,4.64 11.34,4.64 3.97,0.02 7.91,-1.55 11.35,-4.64 3.16,-2.86 5.15,-7.05 5.15,-11.86 z m -6,-220.44 h -22 v 158.95 h 22 V 9390" /><path
             id="path42"
             style="fill:#ffffff;fill-opacity:1;fill-rule:nonzero;stroke:none"
             d="m 9468.97,9528.97 h -45.99 v -94.28 c -0.32,-5.83 0.57,-10.77 1.69,-14.52 0.9,-3.47 2.71,-6.65 4.74,-8.7 1.89,-1.88 4.45,-3.48 7.26,-4.28 2.6,-0.53 5.93,-1.19 9.31,-1.19 3.49,0 7.75,0.57 11.8,1.7 3.8,1.24 7.79,2.61 11.17,4.43 l 1.02,-20.46 c -8.63,-3.67 -18.28,-5.67 -29.94,-5.67 -4.27,0 -8.69,0.57 -13.3,1.7 -4.85,1.24 -8.81,3.29 -12.62,6.47 -3.85,3.46 -6.95,7.49 -9.42,12.94 -2.7,5.74 -3.71,12.59 -3.71,21.44 v 100.42 H 9367 v 19.98 h 33.98 v 44.99 h 22 v -44.99 h 45.99 v -19.98" /><path
             id="path44"
             style="fill:#ffffff;fill-opacity:1;fill-rule:nonzero;stroke:none"
             d="m 9532.98,9610.44 c -0.32,-4.63 -1.71,-8.77 -5.15,-11.86 -3.72,-2.95 -7.22,-4.64 -11.35,-4.64 -4.28,0.02 -7.9,1.54 -11.34,4.64 -3.48,3.23 -5.14,7.05 -5.14,11.86 0,5 1.71,8.76 5.14,11.86 3.39,3.33 7.22,4.64 11.34,4.64 3.97,0.02 7.91,-1.55 11.35,-4.64 3.16,-2.86 5.15,-7.05 5.15,-11.86 z m -6,-220.44 h -22 v 158.95 h 22 V 9390" /><path
             id="path46"
             style="fill:#ffffff;fill-opacity:1;fill-rule:nonzero;stroke:none"
             d="m 9716.95,9469.48 c -0.32,9.04 -1.43,17.17 -4.28,24.91 -3.08,7.94 -6.91,14.45 -12.17,20.14 -5.42,5.85 -11.59,10.18 -19.02,13.47 -7.59,3.3 -15.82,4.95 -25.18,4.95 -9.47,0.02 -17.76,-1.65 -25.19,-4.95 -7.45,-3.29 -13.7,-7.78 -18.84,-13.47 -5.24,-5.53 -9.15,-12.4 -12,-20.14 -2.95,-7.54 -4.29,-16.04 -4.29,-24.91 -0.32,-8.7 1.43,-17.18 4.29,-24.92 2.76,-7.59 6.85,-14.45 12,-20.14 5.05,-5.48 11.42,-10.17 18.84,-13.47 7.39,-3.29 15.82,-4.95 25.19,-4.95 9.26,0 17.75,1.65 25.18,4.95 7.27,3.32 13.77,7.79 19.02,13.47 5.09,5.88 9.32,12.4 12.17,20.14 2.63,7.89 4.28,16.05 4.28,24.92 z m 24,0 c -0.32,-11.82 -2.1,-23.07 -6.29,-33.26 -4.41,-9.92 -10.03,-19 -17.52,-26.47 -7.53,-7.37 -16.37,-13.28 -26.69,-17.47 -10.45,-3.94 -21.68,-6.28 -34.15,-6.28 -12.33,0 -23.5,2.09 -33.82,6.28 -10.47,4.43 -19.21,10.01 -26.7,17.47 -7.74,7.55 -13.31,16.29 -17.5,26.47 -4.28,10.44 -6.28,21.27 -6.28,33.26 0,12.15 2.09,23.06 6.28,33.24 4.1,10.28 10.02,19.01 17.5,26.47 7.23,7.74 16.39,13.29 26.7,17.48 10.15,4.3 21.59,6.28 33.82,6.28 12.36,0.02 23.85,-2.09 34.15,-6.28 10.16,-4.08 19.21,-10.01 26.69,-17.48 7.44,-7.19 13.33,-16.28 17.52,-26.47 3.97,-10.09 6.29,-21.26 6.29,-33.24" /><path
             id="path48"
             style="fill:#ffffff;fill-opacity:1;fill-rule:nonzero;stroke:none"
             d="m 9803.97,9548.95 c 0.13,-4.29 0.74,-8.57 0.84,-12.76 -0.15,-3.93 0.17,-8.46 0.17,-12.77 h 0.69 c 2.27,4.49 5.66,8.26 9.52,11.88 3.8,3.86 8.17,6.73 12.94,9.33 4.72,2.72 9.81,4.64 15.14,6.1 5.23,1.57 10.59,2.22 15.81,2.22 20.39,0.02 35.5,-5.37 45.25,-16.12 9.64,-10.7 14.62,-26.09 14.62,-46 V 9390 h -21.98 v 88.16 c -0.33,17.97 -3.08,31.25 -9.24,40.67 -6.4,9.47 -17.55,14.12 -34.2,14.12 -1.31,0.02 -4.32,-0.45 -9.56,-1.36 -5.56,-0.76 -10.77,-3.39 -16.58,-7.48 -5.94,-3.79 -11,-10.22 -15.56,-18.39 -4.84,-8.08 -6.85,-19.51 -6.85,-34.02 V 9390 H 9783 v 123.97 c 0,4.32 -0.17,9.75 -0.52,16.31 -0.5,6.8 -0.74,12.79 -1.18,18.67 h 22.67" /><path
             id="path50"
             style="fill:#ffffff;fill-opacity:1;fill-rule:nonzero;stroke:none"
             d="m 10062.2,9468.98 c -5.8,0.01 -12.9,-0.28 -21.5,-0.85 -8.9,-0.28 -16.9,-1.93 -24.9,-4.08 -8.2,-1.84 -14.7,-5.51 -20.36,-10.05 -5.78,-4.54 -8.46,-10.79 -8.46,-18.73 -0.32,-4.98 1.1,-9.7 3.29,-13.44 2.09,-3.69 5.11,-6.81 8.79,-9.19 3.64,-2.26 7.74,-4.09 12.24,-5.11 4.4,-0.87 9.1,-1.53 13.7,-1.53 7.9,0 15.4,1.36 21.5,4.08 5.9,3.03 11.2,6.41 15.4,11.06 3.8,4.94 7.2,10.1 9.1,16.34 2,6.41 3,12.88 3,19.93 v 11.57 z m 11.8,17.99 v 4.16 c -0.4,28.17 -13.8,41.82 -41.2,41.82 -19,0.02 -35.12,-6.32 -49.08,-18.98 l -13.72,15.94 c 15.01,15.39 37.5,23.04 67.6,23.04 7.5,0.02 15.2,-1.13 22.3,-3.4 6.9,-2.11 13.4,-5.72 18.6,-10.36 5.1,-4.37 9.5,-10.46 12.7,-17.47 3.1,-6.92 4.8,-15.39 4.8,-25.13 v -70.95 c -0.4,-5.98 0.2,-12.5 0.8,-19.17 0.3,-6.5 1.2,-12.17 1.9,-16.47 h -21.3 c -0.8,3.83 -1.2,8 -1.6,12.52 -0.6,4.68 -0.5,8.92 -0.5,13.2 h -0.7 c -6.8,-10.49 -14.4,-18.18 -23.4,-22.8 -9.1,-4.58 -20.1,-6.92 -33.1,-6.92 -7.1,0 -13.9,0.96 -20.52,2.88 -6.82,1.95 -12.51,4.84 -17.64,8.78 -5.44,4.05 -9.23,8.77 -12.31,14.51 -3.3,6.02 -4.63,12.44 -4.63,20.1 0,13.07 3.36,22.9 10.09,30.21 6.71,7.5 15.19,12.79 25.35,16.38 10.06,3.65 21.06,5.85 32.56,6.75 11.2,1.03 22.1,1.36 31.7,1.36 h 11.3" /><path
             id="path52"
             style="fill:#ffffff;fill-opacity:1;fill-rule:nonzero;stroke:none"
             d="m 10175,9390 h -22 v 256.92 h 22 V 9390" /><path
             id="path54"
             style="fill:#ffffff;fill-opacity:1;fill-rule:nonzero;stroke:none"
             d="m 10435.9,9427.83 c -4.4,-6.02 -9.1,-11.81 -15.1,-17.2 -6.3,-5.27 -12.9,-10.05 -20.6,-13.99 -7.8,-3.81 -16.1,-7.01 -25.1,-9.26 -9,-2.04 -18.4,-3.38 -28.4,-3.38 -18.2,0 -34.6,3.17 -49.9,9.52 -15.6,6.51 -28.6,15.13 -39.9,26.34 -11.5,11.27 -20,24.53 -26.4,39.94 -6.5,15.48 -9.5,32.3 -9.5,50.67 0,18.53 3.2,35.24 9.5,50.66 6.2,15.7 15.2,28.72 26.4,39.93 10.9,11.53 24.5,20 39.8,26.35 15.1,6.55 31.9,9.53 49.9,9.53 14.7,0.02 29.9,-2.95 44.9,-8.83 14.8,-5.59 27.8,-15.62 38.4,-29.2 l -21.4,-15.96 c -2.6,3.91 -5.8,7.79 -10.1,11.69 -4.5,4.02 -9.3,7.33 -14.8,10.31 -5.7,3.01 -11.5,5.4 -17.8,7.24 -6.6,2.1 -12.7,2.75 -19,2.75 -15.7,0.02 -29.2,-2.85 -41.4,-8.55 -12.4,-5.48 -22.6,-13.31 -31.1,-22.87 -8.6,-9.39 -15,-20.65 -19.5,-33.29 -4.8,-12.37 -6.8,-25.88 -6.8,-39.76 -0.3,-13.71 2.3,-27.15 6.8,-39.78 4.3,-12.53 11,-23.72 19.5,-33.28 8.4,-9.37 18.9,-17.19 31.1,-22.88 12.1,-5.53 26.1,-8.53 41.5,-8.53 6,0 12.6,0.56 18.9,1.69 5.9,1.24 12.3,3.06 18.3,5.78 6,2.89 11.7,6.39 17,11.03 5.3,4.8 10.2,10.46 14.8,17.48 l 20,-14.15" /><path
             id="path56"
             style="fill:#ffffff;fill-opacity:1;fill-rule:nonzero;stroke:none"
             d="m 10605,9469.48 c -0.4,9.04 -1.5,17.17 -4.3,24.91 -3.1,7.94 -6.9,14.45 -12.2,20.14 -5.4,5.85 -11.6,10.18 -19,13.47 -7.6,3.3 -15.8,4.95 -25.2,4.95 -9.5,0.02 -17.8,-1.65 -25.2,-4.95 -7.4,-3.29 -13.7,-7.78 -18.8,-13.47 -5.3,-5.53 -9.2,-12.4 -12,-20.14 -3,-7.54 -4.3,-16.04 -4.3,-24.91 -0.3,-8.7 1.4,-17.18 4.3,-24.92 2.7,-7.59 6.8,-14.45 12,-20.14 5,-5.48 11.4,-10.17 18.8,-13.47 7.4,-3.29 15.8,-4.95 25.2,-4.95 9.3,0 17.8,1.65 25.2,4.95 7.3,3.32 13.8,7.79 19,13.47 5.1,5.88 9.3,12.4 12.2,20.14 2.6,7.89 4.3,16.05 4.3,24.92 z m 24,0 c -0.4,-11.82 -2.1,-23.07 -6.3,-33.26 -4.4,-9.92 -10.1,-19 -17.6,-26.47 -7.5,-7.37 -16.3,-13.28 -26.6,-17.47 -10.5,-3.94 -21.7,-6.28 -34.2,-6.28 -12.3,0 -23.5,2.09 -33.8,6.28 -10.5,4.43 -19.2,10.01 -26.7,17.47 -7.8,7.55 -13.3,16.29 -17.5,26.47 -4.3,10.44 -6.3,21.27 -6.3,33.26 0,12.15 2.1,23.06 6.3,33.24 4.1,10.28 10,19.01 17.5,26.47 7.2,7.74 16.4,13.29 26.7,17.48 10.1,4.3 21.6,6.28 33.8,6.28 12.4,0.02 23.8,-2.09 34.2,-6.28 10.1,-4.08 19.2,-10.01 26.6,-17.48 7.5,-7.19 13.4,-16.28 17.6,-26.47 3.9,-10.09 6.3,-21.26 6.3,-33.24" /><path
             id="path58"
             style="fill:#ffffff;fill-opacity:1;fill-rule:nonzero;stroke:none"
             d="m 10692,9548.95 c 0.1,-4.29 0.7,-8.57 0.8,-12.76 -0.1,-3.93 0.2,-8.46 0.2,-12.77 h 0.7 c 2.2,4.49 5.6,8.26 9.5,11.88 3.8,3.86 8.2,6.73 12.9,9.33 4.8,2.72 9.8,4.64 15.2,6.1 5.2,1.57 10.6,2.22 15.8,2.22 20.4,0.02 35.5,-5.37 45.2,-16.12 9.7,-10.7 14.7,-26.09 14.7,-46 V 9390 h -22 v 88.16 c -0.4,17.97 -3.1,31.25 -9.3,40.67 -6.4,9.47 -17.5,14.12 -34.2,14.12 -1.3,0.02 -4.3,-0.45 -9.5,-1.36 -5.6,-0.76 -10.8,-3.39 -16.6,-7.48 -6,-3.79 -11,-10.22 -15.6,-18.39 -4.8,-8.08 -6.8,-19.51 -6.8,-34.02 V 9390 h -22 v 123.97 c 0,4.32 -0.2,9.75 -0.5,16.31 -0.5,6.8 -0.8,12.79 -1.2,18.67 h 22.7" /><path
             id="path60"
             style="fill:#ffffff;fill-opacity:1;fill-rule:nonzero;stroke:none"
             d="m 10942,9528.97 h -46 v -94.28 c -0.3,-5.83 0.5,-10.77 1.7,-14.52 0.9,-3.47 2.7,-6.65 4.7,-8.7 1.9,-1.88 4.5,-3.48 7.3,-4.28 2.6,-0.53 5.9,-1.19 9.3,-1.19 3.5,0 7.7,0.57 11.8,1.7 3.8,1.24 7.8,2.61 11.2,4.43 l 1,-20.46 c -8.7,-3.67 -18.3,-5.67 -30,-5.67 -4.2,0 -8.7,0.57 -13.3,1.7 -4.8,1.24 -8.8,3.29 -12.6,6.47 -3.8,3.46 -6.9,7.49 -9.4,12.94 -2.7,5.74 -3.7,12.59 -3.7,21.44 v 100.42 h -34 v 19.98 h 34 v 44.99 h 22 v -44.99 h 46 v -19.98" /><path
             id="path62"
             style="fill:#ffffff;fill-opacity:1;fill-rule:nonzero;stroke:none"
             d="m 11097,9480.97 c -0.4,15.5 -4.6,28.02 -13.7,37.61 -9.2,9.72 -21.9,14.37 -38.3,14.37 -7.3,0.02 -14.3,-1.44 -21.2,-4.32 -7.1,-2.77 -12.8,-6.76 -17.9,-11.61 -5.4,-4.53 -9.2,-10.41 -12.3,-16.64 -3.3,-6.04 -4.6,-12.72 -4.6,-19.41 z m -108.7,-17.99 c 0.6,-7.91 2.6,-15.38 5.8,-22.39 3.1,-6.87 7.4,-13.05 12.6,-18.14 5,-4.9 11.2,-9.1 18,-12.04 6.6,-2.75 14.2,-4.41 22.2,-4.41 11.7,0 22.4,2.82 31.1,8.45 8.8,5.83 15.4,12.16 20,19.53 l 17,-14.29 c -9.8,-11.92 -20,-20.64 -31.4,-25.86 -11.6,-5.16 -23.6,-7.83 -36.7,-7.83 -12,0 -22.6,2.09 -32.6,6.28 -10.2,4.43 -18.7,10.01 -26,17.47 -7.3,7.55 -12.9,16.29 -17,26.47 -4.3,10.44 -6.3,21.27 -6.3,33.26 0,12.15 2,23.06 6.1,33.24 4,10.28 9.7,19.01 16.9,26.47 7.3,7.74 15.8,13.29 25.5,17.48 9.5,4.3 20.2,6.28 31.5,6.28 12,0.02 22.7,-2.16 32.2,-6.48 9.4,-4.14 17.5,-10.05 23.9,-17.2 6.4,-6.92 11.4,-15.57 14.8,-25.22 3.1,-9.34 5.1,-19.94 5.1,-30.83 v -10.24 h -132.7" /><path
             id="path64"
             style="fill:#ffffff;fill-opacity:1;fill-rule:nonzero;stroke:none"
             d="m 11183,9548.95 c 0.1,-4.29 0.7,-8.57 0.8,-12.76 -0.1,-3.93 0.2,-8.46 0.2,-12.77 h 0.7 c 2.2,4.49 5.6,8.26 9.5,11.88 3.8,3.86 8.2,6.73 12.9,9.33 4.8,2.72 9.8,4.64 15.2,6.1 5.2,1.57 10.6,2.22 15.8,2.22 20.4,0.02 35.5,-5.37 45.2,-16.12 9.7,-10.7 14.7,-26.09 14.7,-46 V 9390 h -22 v 88.16 c -0.4,17.97 -3.1,31.25 -9.3,40.67 -6.4,9.47 -17.5,14.12 -34.2,14.12 -1.3,0.02 -4.3,-0.45 -9.5,-1.36 -5.6,-0.76 -10.8,-3.39 -16.6,-7.48 -6,-3.79 -11,-10.22 -15.6,-18.39 -4.8,-8.08 -6.8,-19.51 -6.8,-34.02 V 9390 h -22 v 123.97 c 0,4.32 -0.2,9.75 -0.5,16.31 -0.5,6.8 -0.8,12.79 -1.2,18.67 h 22.7" /><path
             id="path66"
             style="fill:#ffffff;fill-opacity:1;fill-rule:nonzero;stroke:none"
             d="m 11433,9528.97 h -46 v -94.28 c -0.3,-5.83 0.5,-10.77 1.7,-14.52 0.9,-3.47 2.7,-6.65 4.7,-8.7 1.9,-1.88 4.5,-3.48 7.3,-4.28 2.6,-0.53 5.9,-1.19 9.3,-1.19 3.5,0 7.7,0.57 11.8,1.7 3.8,1.24 7.8,2.61 11.2,4.43 l 1,-20.46 c -8.7,-3.67 -18.3,-5.67 -30,-5.67 -4.2,0 -8.7,0.57 -13.3,1.7 -4.8,1.24 -8.8,3.29 -12.6,6.47 -3.8,3.46 -6.9,7.49 -9.4,12.94 -2.7,5.74 -3.7,12.59 -3.7,21.44 v 100.42 h -34 v 19.98 h 34 v 44.99 h 22 v -44.99 h 46 v -19.98" /><path
             id="path68"
             style="fill:#ffffff;fill-opacity:1;fill-rule:nonzero;stroke:none"
             d="m 11732.9,9477.97 v -19.99 H 11560 v 19.99 z m 0,51 v -20 H 11560 v 20 h 172.9" /><path
             id="path70"
             style="fill:#ffffff;fill-opacity:1;fill-rule:nonzero;stroke:none"
             d="m 11900,9548.95 c 0.1,-4.29 0.7,-8.57 0.8,-12.76 -0.1,-3.93 0.2,-8.46 0.2,-12.77 h 0.7 c 2.2,4.49 5.6,8.26 9.5,11.88 3.8,3.86 8.2,6.73 12.9,9.33 4.8,2.72 9.8,4.64 15.2,6.1 5.2,1.57 10.6,2.22 15.8,2.22 20.4,0.02 35.5,-5.37 45.2,-16.12 9.7,-10.7 14.7,-26.09 14.7,-46 V 9390 h -22 v 88.16 c -0.4,17.97 -3.1,31.25 -9.3,40.67 -6.4,9.47 -17.5,14.12 -34.2,14.12 -1.3,0.02 -4.3,-0.45 -9.5,-1.36 -5.6,-0.76 -10.8,-3.39 -16.6,-7.48 -6,-3.79 -11,-10.22 -15.6,-18.39 -4.8,-8.08 -6.8,-19.51 -6.8,-34.02 V 9390 h -22 v 123.97 c 0,4.32 -0.2,9.75 -0.5,16.31 -0.5,6.8 -0.8,12.79 -1.2,18.67 h 22.7" /><path
             id="path72"
             style="fill:#ffffff;fill-opacity:1;fill-rule:nonzero;stroke:none"
             d="m 12183,9390 c -0.8,4.31 -0.8,8.57 -0.9,12.77 -0.1,4.28 -0.1,8.46 -0.1,12.78 h -0.7 c -2.6,-4.16 -5.7,-8.27 -9.5,-11.89 -4.2,-3.52 -8.2,-6.75 -13,-9.35 -5,-2.36 -9.8,-4.62 -15.1,-6.09 -5.6,-1.22 -10.6,-2.22 -15.8,-2.22 -20.7,0 -35.5,5.38 -45.3,16.13 -9.9,11.05 -14.6,26.09 -14.6,46 v 100.82 h 22 v -88.15 c -0.3,-8.79 0.7,-16.69 2,-23.5 1.4,-6.57 3.7,-12.53 7,-17.17 3.3,-4.36 7.8,-8.17 13.4,-10.55 5.4,-2.25 12.6,-3.58 21,-3.58 1,0 4.3,0.45 9.6,1.36 4.9,1.12 10.8,3.4 16.6,7.48 5.6,4.14 11,10.21 15.5,18.38 4.5,8.44 6.9,19.52 6.9,34.05 v 81.68 h 22 v -123.97 c -0.4,-4.3 0.1,-9.75 0.5,-16.31 0.2,-6.45 0.7,-12.79 1.2,-18.67 h -22.7" /><path
             id="path74"
             style="fill:#ffffff;fill-opacity:1;fill-rule:nonzero;stroke:none"
             d="m 12285,9390 h -22 v 256.92 h 22 V 9390" /><path
             id="path76"
             style="fill:#ffffff;fill-opacity:1;fill-rule:nonzero;stroke:none"
             d="m 12366,9390 h -22 v 256.92 h 22 V 9390" /></g></g><path
         id="path78"
         style="fill:#5e5e5e;fill-opacity:1;fill-rule:nonzero;stroke:none"
         d="m 5377.93,8214.66 h 9677.11 v 737.355 H 5377.93 Z" /><g
         id="g80"><g
           clip-path="url(#clipPath86)"
           id="g82"><path
             id="path88"
             style="fill:#ffffff;fill-opacity:1;fill-rule:nonzero;stroke:none"
             d="m 9027.98,8700.44 c -0.32,-4.63 -1.71,-8.77 -5.15,-11.86 -3.72,-2.95 -7.22,-4.64 -11.35,-4.64 -4.28,0.02 -7.9,1.54 -11.34,4.64 -3.48,3.23 -5.14,7.05 -5.14,11.86 0,5 1.71,8.76 5.14,11.86 3.39,3.33 7.22,4.64 11.34,4.64 3.97,0.02 7.91,-1.55 11.35,-4.64 3.16,-2.86 5.15,-7.05 5.15,-11.86 z m -6,-220.44 h -22 v 158.95 h 22 V 8480" /><path
             id="path90"
             style="fill:#ffffff;fill-opacity:1;fill-rule:nonzero;stroke:none"
             d="m 9150.97,8618.97 h -37.99 V 8480 h -22 v 138.97 H 9057 v 19.98 h 33.98 v 43.5 c -0.32,21.27 4.9,36.1 14.68,45.05 9.56,9.11 22.73,13.42 38.87,13.42 3,0.03 6.41,-0.22 9.7,-0.67 3.23,-0.19 6.55,-0.99 9.74,-1.66 l -4.14,-20.03 c -3.03,0.82 -5.62,1.24 -8.61,1.69 -3.06,0.71 -5.98,0.69 -8.95,0.69 -6.29,0.02 -11.25,-1.03 -15.16,-3.08 -3.95,-2.01 -6.9,-4.96 -8.97,-8.72 -2.11,-3.46 -3.44,-8.13 -4.12,-13.14 -0.7,-5.01 -1.04,-10.37 -1.04,-16.06 v -40.99 h 37.99 v -19.98" /><path
             id="path92"
             style="fill:#ffffff;fill-opacity:1;fill-rule:nonzero;stroke:none"
             d="m 9332.33,8718.41 c -7.44,-11.35 -13.79,-22.75 -19.41,-33.6 -5.91,-10.78 -10.35,-21.86 -14.25,-33.06 -4.12,-11.12 -6.82,-22.79 -8.76,-34.78 -2.25,-11.97 -2.93,-24.98 -2.93,-39 -0.32,-14 0.98,-26.9 2.93,-38.67 1.64,-11.53 4.75,-23.07 8.42,-33.92 3.55,-10.64 8.25,-21.58 13.75,-32.21 5.47,-10.36 11.8,-21.83 18.9,-33.58 l -18,-13.57 c -15.53,21.57 -27.01,44.99 -35.4,71.21 -8.58,26.5 -12.58,53.15 -12.58,80.74 0,26.25 4.13,52.58 12.41,79.03 8.14,26.46 20.59,50.77 36.93,72.94 l 17.99,-11.53" /><path
             id="path94"
             style="fill:#ffffff;fill-opacity:1;fill-rule:nonzero;stroke:none"
             d="M 9598.95,8480 H 9446 v 27.78 l 96.25,98.1 c 3.55,3.68 7.27,7.51 10.91,11.6 3.59,4.28 6.94,8.43 9.9,12.99 2.94,4.74 5.35,9.35 7.16,14.36 1.75,5.08 2.73,10.26 2.73,15.73 -0.32,6.75 -1.19,12.53 -3.57,17.77 -2.52,5.46 -5.75,9.68 -10.08,13.33 -4.42,3.75 -9.34,6.43 -15.03,8.37 -5.79,2.26 -11.74,2.91 -18.11,2.91 -12.35,0.02 -22.77,-3.43 -31.43,-10.28 -8.9,-6.73 -14.24,-16.08 -16.75,-27.71 l -25.98,2.72 c 3.41,17.94 11.63,31.83 24.67,42 12.82,10.29 28.86,15.27 47.46,15.27 9.71,0.02 19,-1.31 27.73,-3.92 8.45,-2.28 16.45,-6.52 23.14,-11.74 6.7,-4.98 12.03,-11.74 16,-19.56 3.97,-7.72 5.95,-16.94 5.95,-27.38 -0.32,-9.08 -1.41,-17.81 -4.23,-25.53 -3.06,-7.65 -6.5,-14.96 -11.02,-21.76 -4.74,-6.49 -9.65,-13.27 -15.4,-19.39 -5.85,-6.02 -11.68,-12.14 -17.78,-18.03 L 9472.98,8502 h 125.97 v -22" /><path
             id="path96"
             style="fill:#ffffff;fill-opacity:1;fill-rule:nonzero;stroke:none"
             d="m 9835.97,8592.97 h 76.97 v -20 h -76.97 V 8496 h -20 v 76.97 H 9739 v 20 h 76.97 v 76.98 h 20 v -76.98" /><path
             id="path98"
             style="fill:#ffffff;fill-opacity:1;fill-rule:nonzero;stroke:none"
             d="m 10203,8480 h -153 v 27.78 l 96.3,98.1 c 3.5,3.68 7.2,7.51 10.9,11.6 3.6,4.28 6.9,8.43 9.9,12.99 2.9,4.74 5.3,9.35 7.1,14.36 1.8,5.08 2.8,10.26 2.8,15.73 -0.4,6.75 -1.2,12.53 -3.6,17.77 -2.5,5.46 -5.8,9.68 -10.1,13.33 -4.4,3.75 -9.3,6.43 -15,8.37 -5.8,2.26 -11.8,2.91 -18.1,2.91 -12.4,0.02 -22.8,-3.43 -31.5,-10.28 -8.9,-6.73 -14.2,-16.08 -16.7,-27.71 l -26,2.72 c 3.4,17.94 11.6,31.83 24.7,42 12.8,10.29 28.8,15.27 47.4,15.27 9.7,0.02 19,-1.31 27.8,-3.92 8.4,-2.28 16.4,-6.52 23.1,-11.74 6.7,-4.98 12,-11.74 16,-19.56 4,-7.72 6,-16.94 6,-27.38 -0.4,-9.08 -1.5,-17.81 -4.3,-25.53 -3,-7.65 -6.5,-14.96 -11,-21.76 -4.7,-6.49 -9.6,-13.27 -15.4,-19.39 -5.9,-6.02 -11.7,-12.14 -17.8,-18.03 L 10077,8502 h 126 v -22" /><path
             id="path100"
             style="fill:#ffffff;fill-opacity:1;fill-rule:nonzero;stroke:none"
             d="m 10517.9,8567.97 v -19.99 H 10345 v 19.99 z m 0,51 v -20 H 10345 v 20 h 172.9" /><path
             id="path102"
             style="fill:#ffffff;fill-opacity:1;fill-rule:nonzero;stroke:none"
             d="m 10743.9,8567.97 v -19.99 H 10571 v 19.99 z m 0,51 v -20 H 10571 v 20 h 172.9" /><path
             id="path104"
             style="fill:#ffffff;fill-opacity:1;fill-rule:nonzero;stroke:none"
             d="m 10970.9,8567.97 v -19.99 H 10798 v 19.99 z m 0,51 v -20 H 10798 v 20 h 172.9" /><path
             id="path106"
             style="fill:#ffffff;fill-opacity:1;fill-rule:nonzero;stroke:none"
             d="m 11209,8696.41 h -0.7 l -83.3,-137.43 h 84 z m 24,-137.43 h 35 v -22 h -35 V 8480 h -24 v 56.98 h -104 v 27.44 l 97,156.52 h 31 v -161.96" /><path
             id="path108"
             style="fill:#ffffff;fill-opacity:1;fill-rule:nonzero;stroke:none"
             d="m 11378,8437.55 c 7.3,11.68 13.7,22.72 19.3,33.58 5.4,11.14 10.2,21.87 14.1,33.06 3.7,11.47 6.7,22.79 8.7,34.78 1.9,12 2.9,24.99 2.9,39 -0.3,14.03 -1,26.91 -2.9,38.67 -2,11.88 -4.7,23.07 -8.4,33.92 -3.8,11 -8.1,21.6 -13.6,32.22 -5.5,10.7 -11.7,21.82 -18.7,33.58 l 18,13.58 c 14.9,-21.24 26.7,-45.01 35.1,-71.24 8.2,-26.13 12.5,-53.14 12.5,-80.73 -0.3,-26.22 -4.1,-52.58 -12.4,-79.03 -8.4,-26.44 -20.4,-50.77 -36.6,-72.92 l -18,11.53" /></g></g><path
         id="path110"
         style="fill:#ff9300;fill-opacity:1;fill-rule:nonzero;stroke:none"
         d="m 8617.46,7303.91 h 6437.57 v 737.355 H 8617.46 Z" /><g
         id="g112"><g
           clip-path="url(#clipPath118)"
           id="g114"><path
             id="path120"
             style="fill:#ffffff;fill-opacity:1;fill-rule:nonzero;stroke:none"
             d="m 9180.61,7691.97 c -4.06,5.88 -9.24,10.83 -16.16,14.89 -7.07,4.11 -14.79,6.09 -23.64,6.09 -9.56,0.25 -17.62,-1.25 -24.98,-4.43 -7.64,-3.02 -13.66,-7.61 -18.88,-13.3 -5.52,-5.43 -9.17,-12.46 -11.89,-20.31 -2.74,-7.83 -4.08,-16.33 -4.08,-25.43 -0.32,-8.93 1.36,-17.58 4.08,-25.43 2.7,-7.54 6.68,-14.63 11.89,-20.32 4.9,-5.59 11.51,-10.1 18.88,-13.29 7.08,-2.99 15.69,-4.66 24.98,-4.44 8.57,0 16.73,2.03 23.64,6.09 6.77,4.37 12.3,9.03 16.16,14.89 l 18.34,-13.76 c -8.22,-8.93 -16.82,-15.97 -26.76,-20.33 -10,-4.33 -20.33,-6.66 -31.17,-6.89 -12.88,-0.23 -24.5,1.75 -34.89,5.94 -10.44,4.2 -19.27,10.01 -26.61,17.47 -7.52,7.66 -12.94,16.34 -16.77,26.64 -4.09,10.61 -5.75,21.44 -5.75,33.43 0,12.15 1.91,23.12 5.75,33.41 3.58,10.34 9.42,19.18 16.77,26.64 7.17,7.63 16.21,13.3 26.61,17.49 10.35,4.51 22.02,6.16 34.89,5.93 10.83,-0.21 21.23,-2.52 31.17,-6.89 9.87,-4.05 18.86,-11.13 26.76,-20.31 l -18.34,-13.78" /><path
             id="path122"
             style="fill:#ffffff;fill-opacity:1;fill-rule:nonzero;stroke:none"
             d="m 9364.95,7649.48 c -0.32,9.04 -1.43,17.17 -4.28,24.91 -3.08,7.94 -6.91,14.45 -12.17,20.14 -5.42,5.85 -11.59,10.18 -19.02,13.47 -7.59,3.3 -15.82,4.95 -25.18,4.95 -9.47,0.02 -17.76,-1.65 -25.19,-4.95 -7.45,-3.29 -13.7,-7.78 -18.84,-13.47 -5.24,-5.53 -9.15,-12.4 -12,-20.14 -2.95,-7.54 -4.29,-16.04 -4.29,-24.91 -0.32,-8.7 1.43,-17.18 4.29,-24.92 2.76,-7.59 6.85,-14.45 12,-20.14 5.05,-5.48 11.42,-10.17 18.84,-13.47 7.39,-3.29 15.82,-4.95 25.19,-4.95 9.26,0 17.75,1.65 25.18,4.95 7.27,3.32 13.77,7.79 19.02,13.47 5.09,5.88 9.32,12.4 12.17,20.14 2.63,7.89 4.28,16.05 4.28,24.92 z m 24,0 c -0.32,-11.82 -2.1,-23.07 -6.29,-33.26 -4.41,-9.92 -10.03,-19 -17.52,-26.47 -7.53,-7.37 -16.37,-13.28 -26.69,-17.47 -10.45,-3.94 -21.68,-6.28 -34.15,-6.28 -12.33,0 -23.5,2.09 -33.82,6.28 -10.47,4.43 -19.21,10.01 -26.7,17.47 -7.74,7.55 -13.31,16.29 -17.5,26.47 -4.28,10.44 -6.28,21.27 -6.28,33.26 0,12.15 2.09,23.06 6.28,33.24 4.1,10.28 10.02,19.01 17.5,26.47 7.23,7.74 16.39,13.29 26.7,17.48 10.15,4.3 21.59,6.28 33.82,6.28 12.36,0.02 23.85,-2.09 34.15,-6.28 10.16,-4.08 19.21,-10.01 26.69,-17.48 7.44,-7.19 13.33,-16.28 17.52,-26.47 3.97,-10.09 6.29,-21.26 6.29,-33.24" /><path
             id="path124"
             style="fill:#ffffff;fill-opacity:1;fill-rule:nonzero;stroke:none"
             d="m 9450.97,7728.95 c 0.13,-4.29 0.74,-8.57 0.84,-12.76 -0.15,-3.93 0.17,-8.46 0.17,-12.77 h 0.69 c 2.27,4.49 5.66,8.26 9.52,11.88 3.8,3.86 8.17,6.73 12.94,9.33 4.72,2.72 9.81,4.64 15.14,6.1 5.23,1.57 10.59,2.22 15.81,2.22 20.39,0.02 35.5,-5.37 45.25,-16.12 9.64,-10.7 14.62,-26.09 14.62,-46 V 7570 h -21.98 v 88.16 c -0.33,17.97 -3.08,31.25 -9.24,40.67 -6.4,9.47 -17.55,14.12 -34.2,14.12 -1.31,0.02 -4.32,-0.45 -9.56,-1.36 -5.56,-0.76 -10.77,-3.39 -16.58,-7.48 -5.94,-3.79 -11,-10.22 -15.56,-18.39 -4.84,-8.08 -6.85,-19.51 -6.85,-34.02 V 7570 H 9430 v 123.97 c 0,4.32 -0.17,9.75 -0.52,16.31 -0.5,6.8 -0.74,12.79 -1.18,18.67 h 22.67" /><path
             id="path126"
             style="fill:#ffffff;fill-opacity:1;fill-rule:nonzero;stroke:none"
             d="m 9631.98,7649.48 c -0.32,-8.7 1.43,-17.18 4.3,-24.92 2.77,-7.59 6.93,-14.45 12.19,-20.14 5.11,-5.48 11.62,-10.17 19.06,-13.47 7.26,-3.29 15.85,-4.95 25.24,-4.95 8.89,0 17.68,1.65 25.57,4.95 7.79,3.32 14.72,7.79 20.44,13.47 5.46,5.88 10.18,12.4 13.38,20.14 3.15,7.89 4.81,16.05 4.81,24.92 -0.33,9.04 -1.61,17.17 -4.81,24.91 -3.25,7.94 -7.66,14.45 -13.38,20.14 -5.98,5.85 -12.53,10.18 -20.44,13.47 -8.01,3.3 -16.42,4.95 -25.57,4.95 -9.64,0.02 -17.8,-1.65 -25.24,-4.95 -7.62,-3.29 -13.79,-7.78 -19.06,-13.47 -5.42,-5.53 -9.33,-12.4 -12.19,-20.14 -2.96,-7.54 -4.3,-16.04 -4.3,-24.91 z M 9777.95,7570 h -22 v 26.55 h -0.68 c -3.74,-5.28 -7.98,-10.07 -12.99,-13.92 -5.09,-3.72 -10.23,-7.02 -15.7,-9.5 -5.67,-2.2 -11.11,-4.3 -16.92,-5.43 -6.03,-1.03 -11.34,-1.7 -16.58,-1.7 -12.55,0 -23.97,2.09 -34.35,6.28 -10.6,4.43 -19.3,10.01 -26.82,17.47 -7.82,7.55 -13.38,16.29 -17.6,26.47 -4.31,10.44 -6.31,21.27 -6.31,33.26 0,12.15 2.1,23.06 6.31,33.24 4.12,10.28 10.08,19.01 17.6,26.47 7.22,7.74 16.46,13.29 26.82,17.48 10.13,4.3 21.82,6.28 34.35,6.28 5.21,0.02 10.76,-0.57 16.58,-1.7 5.59,-0.87 11.45,-2.93 16.92,-5.42 5.27,-2.44 10.7,-5.66 15.7,-9.5 4.92,-3.62 9.34,-8.48 12.99,-13.91 h 0.68 v 124.5 h 22 V 7570" /><path
             id="path128"
             style="fill:#ffffff;fill-opacity:1;fill-rule:nonzero;stroke:none"
             d="m 9859.98,7790.44 c -0.32,-4.63 -1.71,-8.77 -5.15,-11.86 -3.72,-2.95 -7.22,-4.64 -11.35,-4.64 -4.28,0.02 -7.9,1.54 -11.34,4.64 -3.48,3.23 -5.14,7.05 -5.14,11.86 0,5 1.71,8.76 5.14,11.86 3.39,3.33 7.22,4.64 11.34,4.64 3.97,0.02 7.91,-1.55 11.35,-4.64 3.16,-2.86 5.15,-7.05 5.15,-11.86 z m -6,-220.44 h -22 v 158.95 h 22 V 7570" /><path
             id="path130"
             style="fill:#ffffff;fill-opacity:1;fill-rule:nonzero;stroke:none"
             d="m 9990.97,7708.97 h -45.99 v -94.28 c -0.32,-5.83 0.57,-10.77 1.69,-14.52 0.9,-3.47 2.71,-6.65 4.74,-8.7 1.89,-1.88 4.45,-3.48 7.26,-4.28 2.6,-0.53 5.93,-1.19 9.31,-1.19 3.49,0 7.75,0.57 11.8,1.7 3.8,1.24 7.79,2.61 11.17,4.43 l 1.02,-20.46 c -8.63,-3.67 -18.28,-5.67 -29.94,-5.67 -4.27,0 -8.69,0.57 -13.3,1.7 -4.85,1.24 -8.81,3.29 -12.62,6.47 -3.85,3.46 -6.95,7.49 -9.42,12.94 -2.7,5.74 -3.71,12.59 -3.71,21.44 v 100.42 H 9889 v 19.98 h 33.98 v 44.99 h 22 v -44.99 h 45.99 v -19.98" /><path
             id="path132"
             style="fill:#ffffff;fill-opacity:1;fill-rule:nonzero;stroke:none"
             d="m 10055,7790.44 c -0.3,-4.63 -1.7,-8.77 -5.2,-11.86 -3.7,-2.95 -7.2,-4.64 -11.3,-4.64 -4.3,0.02 -7.9,1.54 -11.4,4.64 -3.4,3.23 -5.1,7.05 -5.1,11.86 0,5 1.7,8.76 5.1,11.86 3.4,3.33 7.3,4.64 11.4,4.64 3.9,0.02 7.9,-1.55 11.3,-4.64 3.2,-2.86 5.2,-7.05 5.2,-11.86 z m -6,-220.44 h -22 v 158.95 h 22 V 7570" /><path
             id="path134"
             style="fill:#ffffff;fill-opacity:1;fill-rule:nonzero;stroke:none"
             d="m 10239,7649.48 c -0.4,9.04 -1.5,17.17 -4.3,24.91 -3.1,7.94 -6.9,14.45 -12.2,20.14 -5.4,5.85 -11.6,10.18 -19,13.47 -7.6,3.3 -15.8,4.95 -25.2,4.95 -9.5,0.02 -17.8,-1.65 -25.2,-4.95 -7.4,-3.29 -13.7,-7.78 -18.8,-13.47 -5.3,-5.53 -9.2,-12.4 -12,-20.14 -3,-7.54 -4.3,-16.04 -4.3,-24.91 -0.3,-8.7 1.4,-17.18 4.3,-24.92 2.7,-7.59 6.8,-14.45 12,-20.14 5,-5.48 11.4,-10.17 18.8,-13.47 7.4,-3.29 15.8,-4.95 25.2,-4.95 9.3,0 17.8,1.65 25.2,4.95 7.3,3.32 13.8,7.79 19,13.47 5.1,5.88 9.3,12.4 12.2,20.14 2.6,7.89 4.3,16.05 4.3,24.92 z m 24,0 c -0.4,-11.82 -2.1,-23.07 -6.3,-33.26 -4.4,-9.92 -10.1,-19 -17.6,-26.47 -7.5,-7.37 -16.3,-13.28 -26.6,-17.47 -10.5,-3.94 -21.7,-6.28 -34.2,-6.28 -12.3,0 -23.5,2.09 -33.8,6.28 -10.5,4.43 -19.2,10.01 -26.7,17.47 -7.8,7.55 -13.3,16.29 -17.5,26.47 -4.3,10.44 -6.3,21.27 -6.3,33.26 0,12.15 2.1,23.06 6.3,33.24 4.1,10.28 10,19.01 17.5,26.47 7.2,7.74 16.4,13.29 26.7,17.48 10.1,4.3 21.6,6.28 33.8,6.28 12.4,0.02 23.8,-2.09 34.2,-6.28 10.1,-4.08 19.2,-10.01 26.6,-17.48 7.5,-7.19 13.4,-16.28 17.6,-26.47 3.9,-10.09 6.3,-21.26 6.3,-33.24" /><path
             id="path136"
             style="fill:#ffffff;fill-opacity:1;fill-rule:nonzero;stroke:none"
             d="m 10326,7728.95 c 0.1,-4.29 0.7,-8.57 0.8,-12.76 -0.1,-3.93 0.2,-8.46 0.2,-12.77 h 0.7 c 2.2,4.49 5.6,8.26 9.5,11.88 3.8,3.86 8.2,6.73 12.9,9.33 4.8,2.72 9.8,4.64 15.2,6.1 5.2,1.57 10.6,2.22 15.8,2.22 20.4,0.02 35.5,-5.37 45.2,-16.12 9.7,-10.7 14.7,-26.09 14.7,-46 V 7570 h -22 v 88.16 c -0.4,17.97 -3.1,31.25 -9.3,40.67 -6.4,9.47 -17.5,14.12 -34.2,14.12 -1.3,0.02 -4.3,-0.45 -9.5,-1.36 -5.6,-0.76 -10.8,-3.39 -16.6,-7.48 -6,-3.79 -11,-10.22 -15.6,-18.39 -4.8,-8.08 -6.8,-19.51 -6.8,-34.02 V 7570 h -22 v 123.97 c 0,4.32 -0.2,9.75 -0.5,16.31 -0.5,6.8 -0.8,12.79 -1.2,18.67 h 22.7" /><path
             id="path138"
             style="fill:#ffffff;fill-opacity:1;fill-rule:nonzero;stroke:none"
             d="m 10584.2,7648.98 c -5.8,0.01 -12.9,-0.28 -21.5,-0.85 -8.9,-0.28 -16.9,-1.93 -24.9,-4.08 -8.2,-1.84 -14.7,-5.51 -20.4,-10.05 -5.7,-4.54 -8.4,-10.79 -8.4,-18.73 -0.3,-4.98 1.1,-9.7 3.3,-13.44 2.1,-3.69 5.1,-6.81 8.8,-9.19 3.6,-2.26 7.7,-4.09 12.2,-5.11 4.4,-0.87 9.1,-1.53 13.7,-1.53 7.9,0 15.4,1.36 21.5,4.08 5.9,3.03 11.2,6.41 15.4,11.06 3.8,4.94 7.2,10.1 9.1,16.34 2,6.41 3,12.88 3,19.93 v 11.57 z m 11.8,17.99 v 4.16 c -0.4,28.17 -13.8,41.82 -41.2,41.82 -19,0.02 -35.1,-6.32 -49.1,-18.98 l -13.7,15.94 c 15,15.39 37.5,23.04 67.6,23.04 7.5,0.02 15.2,-1.13 22.3,-3.4 6.9,-2.11 13.4,-5.72 18.6,-10.36 5.1,-4.37 9.5,-10.46 12.7,-17.47 3.1,-6.92 4.8,-15.39 4.8,-25.13 v -70.95 c -0.4,-5.98 0.2,-12.5 0.8,-19.17 0.3,-6.5 1.2,-12.17 1.9,-16.47 h -21.3 c -0.8,3.83 -1.2,8 -1.6,12.52 -0.6,4.68 -0.5,8.92 -0.5,13.2 h -0.7 c -6.8,-10.49 -14.4,-18.18 -23.4,-22.8 -9.1,-4.58 -20.1,-6.92 -33.1,-6.92 -7.1,0 -13.9,0.96 -20.5,2.88 -6.8,1.95 -12.5,4.84 -17.7,8.78 -5.4,4.05 -9.2,8.77 -12.3,14.51 -3.3,6.02 -4.6,12.44 -4.6,20.1 0,13.07 3.4,22.9 10.1,30.21 6.7,7.5 15.2,12.79 25.3,16.38 10.1,3.65 21.1,5.85 32.6,6.75 11.2,1.03 22.1,1.36 31.7,1.36 h 11.3" /><path
             id="path140"
             style="fill:#ffffff;fill-opacity:1;fill-rule:nonzero;stroke:none"
             d="m 10697,7570 h -22 v 256.92 h 22 V 7570" /><path
             id="path142"
             style="fill:#ffffff;fill-opacity:1;fill-rule:nonzero;stroke:none"
             d="m 10957.9,7607.83 c -4.4,-6.02 -9.1,-11.81 -15.1,-17.2 -6.3,-5.27 -12.9,-10.05 -20.6,-13.99 -7.8,-3.81 -16.1,-7.01 -25.1,-9.26 -9,-2.04 -18.4,-3.38 -28.4,-3.38 -18.2,0 -34.6,3.17 -49.9,9.52 -15.6,6.51 -28.6,15.13 -39.9,26.34 -11.5,11.27 -20,24.53 -26.4,39.94 -6.5,15.48 -9.5,32.3 -9.5,50.67 0,18.53 3.2,35.24 9.5,50.66 6.2,15.7 15.2,28.72 26.4,39.93 10.9,11.53 24.5,20 39.8,26.35 15.1,6.55 31.9,9.53 49.9,9.53 14.7,0.02 29.9,-2.95 44.9,-8.83 14.8,-5.59 27.8,-15.62 38.4,-29.2 l -21.4,-15.96 c -2.6,3.91 -5.8,7.79 -10.1,11.69 -4.5,4.02 -9.3,7.33 -14.8,10.31 -5.7,3.01 -11.5,5.4 -17.8,7.24 -6.6,2.1 -12.7,2.75 -19,2.75 -15.7,0.02 -29.2,-2.85 -41.4,-8.55 -12.4,-5.48 -22.6,-13.31 -31.1,-22.87 -8.6,-9.39 -15,-20.65 -19.5,-33.29 -4.8,-12.37 -6.8,-25.88 -6.8,-39.76 -0.3,-13.71 2.3,-27.15 6.8,-39.78 4.3,-12.53 11,-23.72 19.5,-33.28 8.4,-9.37 18.9,-17.19 31.1,-22.88 12.1,-5.53 26.1,-8.53 41.5,-8.53 6,0 12.6,0.56 18.9,1.69 5.9,1.24 12.3,3.06 18.3,5.78 6,2.89 11.7,6.39 17,11.03 5.3,4.8 10.2,10.46 14.8,17.48 l 20,-14.15" /><path
             id="path144"
             style="fill:#ffffff;fill-opacity:1;fill-rule:nonzero;stroke:none"
             d="m 11127,7649.48 c -0.4,9.04 -1.5,17.17 -4.3,24.91 -3.1,7.94 -6.9,14.45 -12.2,20.14 -5.4,5.85 -11.6,10.18 -19,13.47 -7.6,3.3 -15.8,4.95 -25.2,4.95 -9.5,0.02 -17.8,-1.65 -25.2,-4.95 -7.4,-3.29 -13.7,-7.78 -18.8,-13.47 -5.3,-5.53 -9.2,-12.4 -12,-20.14 -3,-7.54 -4.3,-16.04 -4.3,-24.91 -0.3,-8.7 1.4,-17.18 4.3,-24.92 2.7,-7.59 6.8,-14.45 12,-20.14 5,-5.48 11.4,-10.17 18.8,-13.47 7.4,-3.29 15.8,-4.95 25.2,-4.95 9.3,0 17.8,1.65 25.2,4.95 7.3,3.32 13.8,7.79 19,13.47 5.1,5.88 9.3,12.4 12.2,20.14 2.6,7.89 4.3,16.05 4.3,24.92 z m 24,0 c -0.4,-11.82 -2.1,-23.07 -6.3,-33.26 -4.4,-9.92 -10.1,-19 -17.6,-26.47 -7.5,-7.37 -16.3,-13.28 -26.6,-17.47 -10.5,-3.94 -21.7,-6.28 -34.2,-6.28 -12.3,0 -23.5,2.09 -33.8,6.28 -10.5,4.43 -19.2,10.01 -26.7,17.47 -7.8,7.55 -13.3,16.29 -17.5,26.47 -4.3,10.44 -6.3,21.27 -6.3,33.26 0,12.15 2.1,23.06 6.3,33.24 4.1,10.28 10,19.01 17.5,26.47 7.2,7.74 16.4,13.29 26.7,17.48 10.1,4.3 21.6,6.28 33.8,6.28 12.4,0.02 23.8,-2.09 34.2,-6.28 10.1,-4.08 19.2,-10.01 26.6,-17.48 7.5,-7.19 13.4,-16.28 17.6,-26.47 3.9,-10.09 6.3,-21.26 6.3,-33.24" /><path
             id="path146"
             style="fill:#ffffff;fill-opacity:1;fill-rule:nonzero;stroke:none"
             d="m 11214,7728.95 c 0.1,-4.29 0.7,-8.57 0.8,-12.76 -0.1,-3.93 0.2,-8.46 0.2,-12.77 h 0.7 c 2.2,4.49 5.6,8.26 9.5,11.88 3.8,3.86 8.2,6.73 12.9,9.33 4.8,2.72 9.8,4.64 15.2,6.1 5.2,1.57 10.6,2.22 15.8,2.22 20.4,0.02 35.5,-5.37 45.2,-16.12 9.7,-10.7 14.7,-26.09 14.7,-46 V 7570 h -22 v 88.16 c -0.4,17.97 -3.1,31.25 -9.3,40.67 -6.4,9.47 -17.5,14.12 -34.2,14.12 -1.3,0.02 -4.3,-0.45 -9.5,-1.36 -5.6,-0.76 -10.8,-3.39 -16.6,-7.48 -6,-3.79 -11,-10.22 -15.6,-18.39 -4.8,-8.08 -6.8,-19.51 -6.8,-34.02 V 7570 h -22 v 123.97 c 0,4.32 -0.2,9.75 -0.5,16.31 -0.5,6.8 -0.8,12.79 -1.2,18.67 h 22.7" /><path
             id="path148"
             style="fill:#ffffff;fill-opacity:1;fill-rule:nonzero;stroke:none"
             d="m 11464,7708.97 h -46 v -94.28 c -0.3,-5.83 0.5,-10.77 1.7,-14.52 0.9,-3.47 2.7,-6.65 4.7,-8.7 1.9,-1.88 4.5,-3.48 7.3,-4.28 2.6,-0.53 5.9,-1.19 9.3,-1.19 3.5,0 7.7,0.57 11.8,1.7 3.8,1.24 7.8,2.61 11.2,4.43 l 1,-20.46 c -8.7,-3.67 -18.3,-5.67 -30,-5.67 -4.2,0 -8.7,0.57 -13.3,1.7 -4.8,1.24 -8.8,3.29 -12.6,6.47 -3.8,3.46 -6.9,7.49 -9.4,12.94 -2.7,5.74 -3.7,12.59 -3.7,21.44 v 100.42 h -34 v 19.98 h 34 v 44.99 h 22 v -44.99 h 46 v -19.98" /><path
             id="path150"
             style="fill:#ffffff;fill-opacity:1;fill-rule:nonzero;stroke:none"
             d="m 11619,7660.97 c -0.4,15.5 -4.6,28.02 -13.7,37.61 -9.2,9.72 -21.9,14.37 -38.3,14.37 -7.3,0.02 -14.3,-1.44 -21.2,-4.32 -7.1,-2.77 -12.8,-6.76 -17.9,-11.61 -5.4,-4.53 -9.2,-10.41 -12.3,-16.64 -3.3,-6.04 -4.6,-12.72 -4.6,-19.41 z m -108.7,-17.99 c 0.6,-7.91 2.6,-15.38 5.8,-22.39 3.1,-6.87 7.4,-13.05 12.6,-18.14 5,-4.9 11.2,-9.1 18,-12.04 6.6,-2.75 14.2,-4.41 22.2,-4.41 11.7,0 22.4,2.82 31.1,8.45 8.8,5.83 15.4,12.16 20,19.53 l 17,-14.29 c -9.8,-11.92 -20,-20.64 -31.4,-25.86 -11.6,-5.16 -23.6,-7.83 -36.7,-7.83 -12,0 -22.6,2.09 -32.6,6.28 -10.2,4.43 -18.7,10.01 -26,17.47 -7.3,7.55 -12.9,16.29 -17,26.47 -4.3,10.44 -6.3,21.27 -6.3,33.26 0,12.15 2,23.06 6.1,33.24 4,10.28 9.7,19.01 16.9,26.47 7.3,7.74 15.8,13.29 25.5,17.48 9.5,4.3 20.2,6.28 31.5,6.28 12,0.02 22.7,-2.16 32.2,-6.48 9.4,-4.14 17.5,-10.05 23.9,-17.2 6.4,-6.92 11.4,-15.57 14.8,-25.22 3.1,-9.34 5.1,-19.94 5.1,-30.83 v -10.24 h -132.7" /><path
             id="path152"
             style="fill:#ffffff;fill-opacity:1;fill-rule:nonzero;stroke:none"
             d="m 11705,7728.95 c 0.1,-4.29 0.7,-8.57 0.8,-12.76 -0.1,-3.93 0.2,-8.46 0.2,-12.77 h 0.7 c 2.2,4.49 5.6,8.26 9.5,11.88 3.8,3.86 8.2,6.73 12.9,9.33 4.8,2.72 9.8,4.64 15.2,6.1 5.2,1.57 10.6,2.22 15.8,2.22 20.4,0.02 35.5,-5.37 45.2,-16.12 9.7,-10.7 14.7,-26.09 14.7,-46 V 7570 h -22 v 88.16 c -0.4,17.97 -3.1,31.25 -9.3,40.67 -6.4,9.47 -17.5,14.12 -34.2,14.12 -1.3,0.02 -4.3,-0.45 -9.5,-1.36 -5.6,-0.76 -10.8,-3.39 -16.6,-7.48 -6,-3.79 -11,-10.22 -15.6,-18.39 -4.8,-8.08 -6.8,-19.51 -6.8,-34.02 V 7570 h -22 v 123.97 c 0,4.32 -0.2,9.75 -0.5,16.31 -0.5,6.8 -0.8,12.79 -1.2,18.67 h 22.7" /><path
             id="path154"
             style="fill:#ffffff;fill-opacity:1;fill-rule:nonzero;stroke:none"
             d="m 11955,7708.97 h -46 v -94.28 c -0.3,-5.83 0.5,-10.77 1.7,-14.52 0.9,-3.47 2.7,-6.65 4.7,-8.7 1.9,-1.88 4.5,-3.48 7.3,-4.28 2.6,-0.53 5.9,-1.19 9.3,-1.19 3.5,0 7.7,0.57 11.8,1.7 3.8,1.24 7.8,2.61 11.2,4.43 l 1,-20.46 c -8.7,-3.67 -18.3,-5.67 -30,-5.67 -4.2,0 -8.7,0.57 -13.3,1.7 -4.8,1.24 -8.8,3.29 -12.6,6.47 -3.8,3.46 -6.9,7.49 -9.4,12.94 -2.7,5.74 -3.7,12.59 -3.7,21.44 v 100.42 h -34 v 19.98 h 34 v 44.99 h 22 v -44.99 h 46 v -19.98" /><path
             id="path156"
             style="fill:#ffffff;fill-opacity:1;fill-rule:nonzero;stroke:none"
             d="m 12254.9,7657.97 v -19.99 H 12082 v 19.99 z m 0,51 v -20 H 12082 v 20 h 172.9" /><path
             id="path158"
             style="fill:#ffffff;fill-opacity:1;fill-rule:nonzero;stroke:none"
             d="m 12575.9,7741.95 -145.4,-68.98 145.4,-68.99 V 7584 l -172.9,80.97 v 16 l 172.9,80.98 v -20" /><path
             id="path160"
             style="fill:#ffffff;fill-opacity:1;fill-rule:nonzero;stroke:none"
             d="m 12773,7649.48 c -0.4,9.04 -1.5,17.17 -4.3,24.91 -3.1,7.94 -7,14.45 -12.2,20.14 -5.5,5.85 -11.7,10.18 -19.1,13.47 -7.6,3.3 -15.8,4.95 -25.2,4.95 -9.5,0.02 -18,-1.65 -25.8,-4.95 -7.9,-3.29 -14.5,-7.78 -20.2,-13.47 -5.8,-5.53 -10.2,-12.4 -13.4,-20.14 -3.5,-7.54 -4.8,-16.04 -4.8,-24.91 -0.4,-8.7 1.6,-17.18 4.8,-24.92 2.9,-7.59 7.6,-14.45 13.4,-20.14 5.6,-5.48 12.4,-10.17 20.2,-13.47 7.7,-3.29 16.4,-4.95 25.8,-4.95 9.3,0 17.8,1.65 25.2,4.95 7.3,3.32 13.8,7.79 19.1,13.47 5.1,5.88 9.3,12.4 12.2,20.14 2.6,7.89 4.3,16.05 4.3,24.92 z m -146,79.47 h 22 v -26.53 h 0.7 c 3.4,5.62 7.9,10.06 13,13.91 4.7,4.06 10.2,7.01 15.7,9.5 5.3,2.55 11.1,4.3 16.9,5.42 5.7,1.38 11.3,1.7 16.6,1.7 12.2,0.02 23.9,-2.09 34.3,-6.28 10.3,-4.08 19.3,-10.01 26.8,-17.48 7.5,-7.19 13.4,-16.28 17.6,-26.47 4,-10.09 6.4,-21.26 6.4,-33.24 -0.4,-11.82 -2.2,-23.07 -6.4,-33.26 -4.4,-9.92 -10,-19 -17.6,-26.47 -7.5,-7.37 -16.4,-13.28 -26.8,-17.47 -10.4,-3.94 -21.8,-6.28 -34.3,-6.28 -5.6,0 -10.8,0.57 -16.6,1.7 -5.9,1.23 -11.5,2.93 -16.9,5.43 -5.6,2.78 -10.7,5.65 -15.7,9.5 -5.3,3.97 -9.4,8.49 -13,13.92 h -0.7 v -124.52 h -22 v 256.92" /><path
             id="path162"
             style="fill:#ffffff;fill-opacity:1;fill-rule:nonzero;stroke:none"
             d="m 12838,7761.95 172.9,-80.98 v -16 L 12838,7584 v 19.98 l 145.5,68.99 -145.5,68.98 v 20" /><path
             id="path164"
             style="fill:#ffffff;fill-opacity:1;fill-rule:nonzero;stroke:none"
             d="m 13070,7810.94 h 24 v -103.97 h 132 v 103.97 h 23.9 V 7570 h -23.9 v 114.97 h -132 V 7570 h -24 v 240.94" /><path
             id="path166"
             style="fill:#ffffff;fill-opacity:1;fill-rule:nonzero;stroke:none"
             d="m 13431,7660.97 c -0.4,15.5 -4.6,28.02 -13.7,37.61 -9.2,9.72 -21.9,14.37 -38.3,14.37 -7.3,0.02 -14.3,-1.44 -21.2,-4.32 -7.1,-2.77 -12.8,-6.76 -17.9,-11.61 -5.4,-4.53 -9.2,-10.41 -12.3,-16.64 -3.3,-6.04 -4.6,-12.72 -4.6,-19.41 z m -108.7,-17.99 c 0.6,-7.91 2.6,-15.38 5.8,-22.39 3.1,-6.87 7.4,-13.05 12.6,-18.14 5,-4.9 11.2,-9.1 18,-12.04 6.6,-2.75 14.2,-4.41 22.2,-4.41 11.7,0 22.4,2.82 31.1,8.45 8.8,5.83 15.4,12.16 20,19.53 l 17,-14.29 c -9.8,-11.92 -20,-20.64 -31.4,-25.86 -11.6,-5.16 -23.6,-7.83 -36.7,-7.83 -12,0 -22.6,2.09 -32.6,6.28 -10.2,4.43 -18.7,10.01 -26,17.47 -7.3,7.55 -12.9,16.29 -17,26.47 -4.3,10.44 -6.3,21.27 -6.3,33.26 0,12.15 2,23.06 6.1,33.24 4,10.28 9.7,19.01 16.9,26.47 7.3,7.74 15.8,13.29 25.5,17.48 9.5,4.3 20.2,6.28 31.5,6.28 12,0.02 22.7,-2.16 32.2,-6.48 9.4,-4.14 17.5,-10.05 23.9,-17.2 6.4,-6.92 11.4,-15.57 14.8,-25.22 3.1,-9.34 5.1,-19.94 5.1,-30.83 v -10.24 h -132.7" /><path
             id="path168"
             style="fill:#ffffff;fill-opacity:1;fill-rule:nonzero;stroke:none"
             d="m 13524,7570 h -22 v 256.92 h 22 V 7570" /><path
             id="path170"
             style="fill:#ffffff;fill-opacity:1;fill-rule:nonzero;stroke:none"
             d="m 13605,7570 h -22 v 256.92 h 22 V 7570" /><path
             id="path172"
             style="fill:#ffffff;fill-opacity:1;fill-rule:nonzero;stroke:none"
             d="m 13796,7649.48 c -0.4,9.04 -1.5,17.17 -4.3,24.91 -3.1,7.94 -6.9,14.45 -12.2,20.14 -5.4,5.85 -11.6,10.18 -19,13.47 -7.6,3.3 -15.8,4.95 -25.2,4.95 -9.5,0.02 -17.8,-1.65 -25.2,-4.95 -7.4,-3.29 -13.7,-7.78 -18.8,-13.47 -5.3,-5.53 -9.2,-12.4 -12,-20.14 -3,-7.54 -4.3,-16.04 -4.3,-24.91 -0.3,-8.7 1.4,-17.18 4.3,-24.92 2.7,-7.59 6.8,-14.45 12,-20.14 5,-5.48 11.4,-10.17 18.8,-13.47 7.4,-3.29 15.8,-4.95 25.2,-4.95 9.3,0 17.8,1.65 25.2,4.95 7.3,3.32 13.8,7.79 19,13.47 5.1,5.88 9.3,12.4 12.2,20.14 2.6,7.89 4.3,16.05 4.3,24.92 z m 24,0 c -0.4,-11.82 -2.1,-23.07 -6.3,-33.26 -4.4,-9.92 -10.1,-19 -17.6,-26.47 -7.5,-7.37 -16.3,-13.28 -26.6,-17.47 -10.5,-3.94 -21.7,-6.28 -34.2,-6.28 -12.3,0 -23.5,2.09 -33.8,6.28 -10.5,4.43 -19.2,10.01 -26.7,17.47 -7.8,7.55 -13.3,16.29 -17.5,26.47 -4.3,10.44 -6.3,21.27 -6.3,33.26 0,12.15 2.1,23.06 6.3,33.24 4.1,10.28 10,19.01 17.5,26.47 7.2,7.74 16.4,13.29 26.7,17.48 10.1,4.3 21.6,6.28 33.8,6.28 12.4,0.02 23.8,-2.09 34.2,-6.28 10.1,-4.08 19.2,-10.01 26.6,-17.48 7.5,-7.19 13.4,-16.28 17.6,-26.47 3.9,-10.09 6.3,-21.26 6.3,-33.24" /><path
             id="path174"
             style="fill:#ffffff;fill-opacity:1;fill-rule:nonzero;stroke:none"
             d="m 14035.9,7741.95 -145.4,-68.98 145.4,-68.99 V 7584 l -172.9,80.97 v 16 l 172.9,80.98 v -20" /><path
             id="path176"
             style="fill:#ffffff;fill-opacity:1;fill-rule:nonzero;stroke:none"
             d="m 14085,7564 -20,6.47 103,246.47 19,-6.8 -102,-246.14" /><path
             id="path178"
             style="fill:#ffffff;fill-opacity:1;fill-rule:nonzero;stroke:none"
             d="m 14359,7649.48 c -0.4,9.04 -1.5,17.17 -4.3,24.91 -3.1,7.94 -7,14.45 -12.2,20.14 -5.5,5.85 -11.7,10.18 -19.1,13.47 -7.6,3.3 -15.8,4.95 -25.2,4.95 -9.5,0.02 -18,-1.65 -25.8,-4.95 -7.9,-3.29 -14.5,-7.78 -20.2,-13.47 -5.8,-5.53 -10.2,-12.4 -13.4,-20.14 -3.5,-7.54 -4.8,-16.04 -4.8,-24.91 -0.4,-8.7 1.6,-17.18 4.8,-24.92 2.9,-7.59 7.6,-14.45 13.4,-20.14 5.6,-5.48 12.4,-10.17 20.2,-13.47 7.7,-3.29 16.4,-4.95 25.8,-4.95 9.3,0 17.8,1.65 25.2,4.95 7.3,3.32 13.8,7.79 19.1,13.47 5.1,5.88 9.3,12.4 12.2,20.14 2.6,7.89 4.3,16.05 4.3,24.92 z m -146,79.47 h 22 v -26.53 h 0.7 c 3.4,5.62 7.9,10.06 13,13.91 4.7,4.06 10.2,7.01 15.7,9.5 5.3,2.55 11.1,4.3 16.9,5.42 5.7,1.38 11.3,1.7 16.6,1.7 12.2,0.02 23.9,-2.09 34.3,-6.28 10.3,-4.08 19.3,-10.01 26.8,-17.48 7.5,-7.19 13.4,-16.28 17.6,-26.47 4,-10.09 6.4,-21.26 6.4,-33.24 -0.4,-11.82 -2.2,-23.07 -6.4,-33.26 -4.4,-9.92 -10,-19 -17.6,-26.47 -7.5,-7.37 -16.4,-13.28 -26.8,-17.47 -10.4,-3.94 -21.8,-6.28 -34.3,-6.28 -5.6,0 -10.8,0.57 -16.6,1.7 -5.9,1.23 -11.5,2.93 -16.9,5.43 -5.6,2.78 -10.7,5.65 -15.7,9.5 -5.3,3.97 -9.4,8.49 -13,13.92 h -0.7 v -124.52 h -22 v 256.92" /><path
             id="path180"
             style="fill:#ffffff;fill-opacity:1;fill-rule:nonzero;stroke:none"
             d="m 14423,7761.95 172.9,-80.98 v -16 L 14423,7584 v 19.98 l 145.5,68.99 -145.5,68.98 v 20" /></g></g><path
         id="path182"
         style="fill:#b51700;fill-opacity:1;fill-rule:nonzero;stroke:none"
         d="m 5377.93,5215.58 h 9677.11 v 737.355 H 5377.93 Z" /><g
         id="g184"><g
           clip-path="url(#clipPath190)"
           id="g186"><path
             id="path192"
             style="fill:#ffffff;fill-opacity:1;fill-rule:nonzero;stroke:none"
             d="m 9959.94,5651.95 -145.49,-68.98 145.49,-68.99 V 5494 L 9787,5574.97 v 16 l 172.94,80.98 v -20" /><path
             id="path194"
             style="fill:#ffffff;fill-opacity:1;fill-rule:nonzero;stroke:none"
             d="m 10023,5559.48 c -0.3,-8.7 1.4,-17.18 4.3,-24.92 2.8,-7.59 6.9,-14.45 12.2,-20.14 5.1,-5.48 11.6,-10.17 19,-13.47 7.3,-3.29 15.9,-4.95 25.3,-4.95 8.9,0 17.6,1.65 25.5,4.95 7.8,3.32 14.8,7.79 20.5,13.47 5.4,5.88 10.2,12.4 13.4,20.14 3.1,7.89 4.8,16.05 4.8,24.92 -0.4,9.04 -1.6,17.17 -4.8,24.91 -3.3,7.94 -7.7,14.45 -13.4,20.14 -6,5.85 -12.5,10.18 -20.5,13.47 -8,3.3 -16.4,4.95 -25.5,4.95 -9.7,0.02 -17.8,-1.65 -25.3,-4.95 -7.6,-3.29 -13.8,-7.78 -19,-13.47 -5.4,-5.53 -9.4,-12.4 -12.2,-20.14 -3,-7.54 -4.3,-16.04 -4.3,-24.91 z m 146,-79.48 h -22 v 26.55 h -0.7 c -3.8,-5.28 -8,-10.07 -13,-13.92 -5.1,-3.72 -10.3,-7.02 -15.7,-9.5 -5.7,-2.2 -11.1,-4.3 -16.9,-5.43 -6.1,-1.03 -11.4,-1.7 -16.6,-1.7 -12.6,0 -24,2.09 -34.4,6.28 -10.6,4.43 -19.3,10.01 -26.8,17.47 -7.8,7.55 -13.4,16.29 -17.6,26.47 -4.3,10.44 -6.3,21.27 -6.3,33.26 0,12.15 2.1,23.06 6.3,33.24 4.1,10.28 10.1,19.01 17.6,26.47 7.2,7.74 16.5,13.29 26.8,17.48 10.2,4.3 21.9,6.28 34.4,6.28 5.2,0.02 10.7,-0.57 16.6,-1.7 5.6,-0.87 11.4,-2.93 16.9,-5.42 5.3,-2.44 10.7,-5.66 15.7,-9.5 4.9,-3.62 9.3,-8.48 13,-13.91 h 0.7 v 124.5 h 22 V 5480" /><path
             id="path196"
             style="fill:#ffffff;fill-opacity:1;fill-rule:nonzero;stroke:none"
             d="m 10252,5700.44 c -0.3,-4.63 -1.7,-8.77 -5.2,-11.86 -3.7,-2.95 -7.2,-4.64 -11.3,-4.64 -4.3,0.02 -7.9,1.54 -11.4,4.64 -3.4,3.23 -5.1,7.05 -5.1,11.86 0,5 1.7,8.76 5.1,11.86 3.4,3.33 7.3,4.64 11.4,4.64 3.9,0.02 7.9,-1.55 11.3,-4.64 3.2,-2.86 5.2,-7.05 5.2,-11.86 z m -6,-220.44 h -22 v 158.95 h 22 V 5480" /><path
             id="path198"
             style="fill:#ffffff;fill-opacity:1;fill-rule:nonzero;stroke:none"
             d="m 10370,5480 h -25 l -65,158.95 h 27 l 50.8,-133.81 h 0.7 l 50.5,133.81 h 26 L 10370,5480" /><path
             id="path200"
             style="fill:#ffffff;fill-opacity:1;fill-rule:nonzero;stroke:none"
             d="m 10467,5671.95 172.9,-80.98 v -16 L 10467,5494 v 19.98 l 145.5,68.99 -145.5,68.98 v 20" /></g></g><path
         id="path202"
         style="fill:#ff9300;fill-opacity:1;fill-rule:nonzero;stroke:none"
         d="m 8617.46,4231.32 h 6437.57 v 737.355 H 8617.46 Z" /><g
         id="g204"><g
           clip-path="url(#clipPath210)"
           id="g206"><path
             id="path212"
             style="fill:#ffffff;fill-opacity:1;fill-rule:nonzero;stroke:none"
             d="m 10194,4597.97 c 7.6,0.01 14.5,3.29 20.7,9.87 6,6.64 9.3,15.89 9.3,27.91 v 60.61 c -0.3,8.16 1,14.64 3,20.09 2,5.64 4.7,9.84 8.1,13.13 3.3,3.43 7.3,5.67 11.7,7.14 4.1,1.57 8.9,2.22 13.6,2.22 h 21.6 v -20 h -19 c -4.4,0.02 -7.3,-0.86 -9.7,-2.56 -2.5,-1.5 -4.1,-3.92 -5.1,-6.65 -1.1,-2.64 -1.7,-5.8 -1.9,-9.21 -0.3,-3.25 -0.3,-6.71 -0.3,-9.89 v -58.65 c -0.3,-8.18 -1.2,-15.07 -3.5,-20.64 -2.5,-5.35 -5.2,-10.01 -8.4,-13.31 -3.3,-2.97 -6.6,-5.68 -9.9,-7.15 -3.4,-1.44 -6.1,-2.33 -8.1,-2.55 v -0.69 c 2,-0.11 4.7,-1.09 8.1,-2.56 3.3,-1.17 6.6,-3.87 9.9,-7.16 3.2,-3.26 6,-7.72 8.4,-13.29 2.2,-5.45 3.5,-12.46 3.5,-20.65 v -58.67 c -0.3,-2.94 0.1,-6.47 0.3,-9.87 0.1,-3.23 0.9,-6.49 1.9,-9.22 0.9,-2.47 2.7,-4.94 5.1,-6.64 2.3,-1.57 5.6,-2.56 9.7,-2.56 h 19 v -20 h -21.6 c -4.8,0.32 -9.3,0.74 -13.6,2.21 -4.7,1.73 -8.3,3.86 -11.7,7.15 -3.4,3.5 -6.1,7.66 -8.1,13.1 -2,5.63 -3,12.15 -3,20.1 v 60.61 c -0.3,12.3 -3.1,21.33 -9.3,27.9 -6.4,6.89 -13.1,9.88 -20.7,9.88 v 20" /><path
             id="path214"
             style="fill:#ffffff;fill-opacity:1;fill-rule:nonzero;stroke:none"
             d="m 10513.6,4611.97 c -4,5.88 -9.2,10.83 -16.1,14.89 -7.1,4.11 -14.8,6.09 -23.7,6.09 -9.5,0.25 -17.6,-1.25 -25,-4.43 -7.6,-3.02 -13.6,-7.61 -18.8,-13.3 -5.6,-5.43 -9.2,-12.46 -11.9,-20.31 -2.8,-7.83 -4.1,-16.33 -4.1,-25.43 -0.3,-8.93 1.3,-17.58 4.1,-25.43 2.7,-7.54 6.6,-14.63 11.9,-20.32 4.9,-5.59 11.5,-10.1 18.8,-13.29 7.1,-2.99 15.7,-4.66 25,-4.44 8.6,0 16.7,2.03 23.7,6.09 6.7,4.37 12.3,9.03 16.1,14.89 l 18.4,-13.76 c -8.3,-8.93 -16.9,-15.97 -26.8,-20.33 -10,-4.33 -20.3,-6.66 -31.2,-6.89 -12.9,-0.23 -24.5,1.75 -34.9,5.94 -10.4,4.2 -19.2,10.01 -26.6,17.47 -7.5,7.66 -12.9,16.34 -16.7,26.64 -4.1,10.61 -5.8,21.44 -5.8,33.43 0,12.15 1.9,23.12 5.8,33.41 3.5,10.34 9.4,19.18 16.7,26.64 7.2,7.63 16.2,13.3 26.6,17.49 10.4,4.51 22,6.16 34.9,5.93 10.9,-0.21 21.3,-2.52 31.2,-6.89 9.9,-4.05 18.8,-11.13 26.8,-20.31 l -18.4,-13.78" /><path
             id="path216"
             style="fill:#ffffff;fill-opacity:1;fill-rule:nonzero;stroke:none"
             d="m 10698,4569.48 c -0.4,9.04 -1.5,17.17 -4.3,24.91 -3.1,7.94 -6.9,14.45 -12.2,20.14 -5.4,5.85 -11.6,10.18 -19,13.47 -7.6,3.3 -15.8,4.95 -25.2,4.95 -9.5,0.02 -17.8,-1.65 -25.2,-4.95 -7.4,-3.29 -13.7,-7.78 -18.8,-13.47 -5.3,-5.53 -9.2,-12.4 -12,-20.14 -3,-7.54 -4.3,-16.04 -4.3,-24.91 -0.3,-8.7 1.4,-17.18 4.3,-24.92 2.7,-7.59 6.8,-14.45 12,-20.14 5,-5.48 11.4,-10.17 18.8,-13.47 7.4,-3.29 15.8,-4.95 25.2,-4.95 9.3,0 17.8,1.65 25.2,4.95 7.3,3.32 13.8,7.79 19,13.47 5.1,5.88 9.3,12.4 12.2,20.14 2.6,7.89 4.3,16.05 4.3,24.92 z m 24,0 c -0.4,-11.82 -2.1,-23.07 -6.3,-33.26 -4.4,-9.92 -10.1,-19 -17.6,-26.47 -7.5,-7.37 -16.3,-13.28 -26.6,-17.47 -10.5,-3.94 -21.7,-6.28 -34.2,-6.28 -12.3,0 -23.5,2.09 -33.8,6.28 -10.5,4.43 -19.2,10.01 -26.7,17.47 -7.8,7.55 -13.3,16.29 -17.5,26.47 -4.3,10.44 -6.3,21.27 -6.3,33.26 0,12.15 2.1,23.06 6.3,33.24 4.1,10.28 10,19.01 17.5,26.47 7.2,7.74 16.4,13.29 26.7,17.48 10.1,4.3 21.6,6.28 33.8,6.28 12.4,0.02 23.8,-2.09 34.2,-6.28 10.1,-4.08 19.2,-10.01 26.6,-17.48 7.5,-7.19 13.4,-16.28 17.6,-26.47 3.9,-10.09 6.3,-21.26 6.3,-33.24" /><path
             id="path218"
             style="fill:#ffffff;fill-opacity:1;fill-rule:nonzero;stroke:none"
             d="m 10784,4648.95 c 0.1,-4.29 0.7,-8.57 0.8,-12.76 -0.1,-3.93 0.2,-8.46 0.2,-12.77 h 0.7 c 2.2,4.49 5.6,8.26 9.5,11.88 3.8,3.86 8.2,6.73 12.9,9.33 4.8,2.72 9.8,4.64 15.2,6.1 5.2,1.57 10.6,2.22 15.8,2.22 20.4,0.02 35.5,-5.37 45.2,-16.12 9.7,-10.7 14.7,-26.09 14.7,-46 V 4490 h -22 v 88.16 c -0.4,17.97 -3.1,31.25 -9.3,40.67 -6.4,9.47 -17.5,14.12 -34.2,14.12 -1.3,0.02 -4.3,-0.45 -9.5,-1.36 -5.6,-0.76 -10.8,-3.39 -16.6,-7.48 -6,-3.79 -11,-10.22 -15.6,-18.39 -4.8,-8.08 -6.8,-19.51 -6.8,-34.02 V 4490 h -22 v 123.97 c 0,4.32 -0.2,9.75 -0.5,16.31 -0.5,6.8 -0.8,12.79 -1.2,18.67 h 22.7" /><path
             id="path220"
             style="fill:#ffffff;fill-opacity:1;fill-rule:nonzero;stroke:none"
             d="m 10964,4569.48 c -0.3,-8.7 1.4,-17.18 4.3,-24.92 2.8,-7.59 6.9,-14.45 12.2,-20.14 5.1,-5.48 11.6,-10.17 19,-13.47 7.3,-3.29 15.9,-4.95 25.3,-4.95 8.9,0 17.6,1.65 25.5,4.95 7.8,3.32 14.8,7.79 20.5,13.47 5.4,5.88 10.2,12.4 13.4,20.14 3.1,7.89 4.8,16.05 4.8,24.92 -0.4,9.04 -1.6,17.17 -4.8,24.91 -3.3,7.94 -7.7,14.45 -13.4,20.14 -6,5.85 -12.5,10.18 -20.5,13.47 -8,3.3 -16.4,4.95 -25.5,4.95 -9.7,0.02 -17.8,-1.65 -25.3,-4.95 -7.6,-3.29 -13.8,-7.78 -19,-13.47 -5.4,-5.53 -9.4,-12.4 -12.2,-20.14 -3,-7.54 -4.3,-16.04 -4.3,-24.91 z m 146,-79.48 h -22 v 26.55 h -0.7 c -3.8,-5.28 -8,-10.07 -13,-13.92 -5.1,-3.72 -10.3,-7.02 -15.7,-9.5 -5.7,-2.2 -11.1,-4.3 -16.9,-5.43 -6.1,-1.03 -11.4,-1.7 -16.6,-1.7 -12.6,0 -24,2.09 -34.4,6.28 -10.6,4.43 -19.3,10.01 -26.8,17.47 -7.8,7.55 -13.4,16.29 -17.6,26.47 -4.3,10.44 -6.3,21.27 -6.3,33.26 0,12.15 2.1,23.06 6.3,33.24 4.1,10.28 10.1,19.01 17.6,26.47 7.2,7.74 16.5,13.29 26.8,17.48 10.2,4.3 21.9,6.28 34.4,6.28 5.2,0.02 10.7,-0.57 16.6,-1.7 5.6,-0.87 11.4,-2.93 16.9,-5.42 5.3,-2.44 10.7,-5.66 15.7,-9.5 4.9,-3.62 9.3,-8.48 13,-13.91 h 0.7 v 124.5 h 22 V 4490" /><path
             id="path222"
             style="fill:#ffffff;fill-opacity:1;fill-rule:nonzero;stroke:none"
             d="m 11193,4710.44 c -0.3,-4.63 -1.7,-8.77 -5.2,-11.86 -3.7,-2.95 -7.2,-4.64 -11.3,-4.64 -4.3,0.02 -7.9,1.54 -11.4,4.64 -3.4,3.23 -5.1,7.05 -5.1,11.86 0,5 1.7,8.76 5.1,11.86 3.4,3.33 7.3,4.64 11.4,4.64 3.9,0.02 7.9,-1.55 11.3,-4.64 3.2,-2.86 5.2,-7.05 5.2,-11.86 z m -6,-220.44 h -22 v 158.95 h 22 V 4490" /><path
             id="path224"
             style="fill:#ffffff;fill-opacity:1;fill-rule:nonzero;stroke:none"
             d="m 11324,4628.97 h -46 v -94.28 c -0.3,-5.83 0.5,-10.77 1.7,-14.52 0.9,-3.47 2.7,-6.65 4.7,-8.7 1.9,-1.88 4.5,-3.48 7.3,-4.28 2.6,-0.53 5.9,-1.19 9.3,-1.19 3.5,0 7.7,0.57 11.8,1.7 3.8,1.24 7.8,2.61 11.2,4.43 l 1,-20.46 c -8.7,-3.67 -18.3,-5.67 -30,-5.67 -4.2,0 -8.7,0.57 -13.3,1.7 -4.8,1.24 -8.8,3.29 -12.6,6.47 -3.8,3.46 -6.9,7.49 -9.4,12.94 -2.7,5.74 -3.7,12.59 -3.7,21.44 v 100.42 h -34 v 19.98 h 34 v 44.99 h 22 v -44.99 h 46 v -19.98" /><path
             id="path226"
             style="fill:#ffffff;fill-opacity:1;fill-rule:nonzero;stroke:none"
             d="m 11388,4710.44 c -0.3,-4.63 -1.7,-8.77 -5.2,-11.86 -3.7,-2.95 -7.2,-4.64 -11.3,-4.64 -4.3,0.02 -7.9,1.54 -11.4,4.64 -3.4,3.23 -5.1,7.05 -5.1,11.86 0,5 1.7,8.76 5.1,11.86 3.4,3.33 7.3,4.64 11.4,4.64 3.9,0.02 7.9,-1.55 11.3,-4.64 3.2,-2.86 5.2,-7.05 5.2,-11.86 z m -6,-220.44 h -22 v 158.95 h 22 V 4490" /><path
             id="path228"
             style="fill:#ffffff;fill-opacity:1;fill-rule:nonzero;stroke:none"
             d="m 11572,4569.48 c -0.4,9.04 -1.5,17.17 -4.3,24.91 -3.1,7.94 -6.9,14.45 -12.2,20.14 -5.4,5.85 -11.6,10.18 -19,13.47 -7.6,3.3 -15.8,4.95 -25.2,4.95 -9.5,0.02 -17.8,-1.65 -25.2,-4.95 -7.4,-3.29 -13.7,-7.78 -18.8,-13.47 -5.3,-5.53 -9.2,-12.4 -12,-20.14 -3,-7.54 -4.3,-16.04 -4.3,-24.91 -0.3,-8.7 1.4,-17.18 4.3,-24.92 2.7,-7.59 6.8,-14.45 12,-20.14 5,-5.48 11.4,-10.17 18.8,-13.47 7.4,-3.29 15.8,-4.95 25.2,-4.95 9.3,0 17.8,1.65 25.2,4.95 7.3,3.32 13.8,7.79 19,13.47 5.1,5.88 9.3,12.4 12.2,20.14 2.6,7.89 4.3,16.05 4.3,24.92 z m 24,0 c -0.4,-11.82 -2.1,-23.07 -6.3,-33.26 -4.4,-9.92 -10.1,-19 -17.6,-26.47 -7.5,-7.37 -16.3,-13.28 -26.6,-17.47 -10.5,-3.94 -21.7,-6.28 -34.2,-6.28 -12.3,0 -23.5,2.09 -33.8,6.28 -10.5,4.43 -19.2,10.01 -26.7,17.47 -7.8,7.55 -13.3,16.29 -17.5,26.47 -4.3,10.44 -6.3,21.27 -6.3,33.26 0,12.15 2.1,23.06 6.3,33.24 4.1,10.28 10,19.01 17.5,26.47 7.2,7.74 16.4,13.29 26.7,17.48 10.1,4.3 21.6,6.28 33.8,6.28 12.4,0.02 23.8,-2.09 34.2,-6.28 10.1,-4.08 19.2,-10.01 26.6,-17.48 7.5,-7.19 13.4,-16.28 17.6,-26.47 3.9,-10.09 6.3,-21.26 6.3,-33.24" /><path
             id="path230"
             style="fill:#ffffff;fill-opacity:1;fill-rule:nonzero;stroke:none"
             d="m 11659,4648.95 c 0.1,-4.29 0.7,-8.57 0.8,-12.76 -0.1,-3.93 0.2,-8.46 0.2,-12.77 h 0.7 c 2.2,4.49 5.6,8.26 9.5,11.88 3.8,3.86 8.2,6.73 12.9,9.33 4.8,2.72 9.8,4.64 15.2,6.1 5.2,1.57 10.6,2.22 15.8,2.22 20.4,0.02 35.5,-5.37 45.2,-16.12 9.7,-10.7 14.7,-26.09 14.7,-46 V 4490 h -22 v 88.16 c -0.4,17.97 -3.1,31.25 -9.3,40.67 -6.4,9.47 -17.5,14.12 -34.2,14.12 -1.3,0.02 -4.3,-0.45 -9.5,-1.36 -5.6,-0.76 -10.8,-3.39 -16.6,-7.48 -6,-3.79 -11,-10.22 -15.6,-18.39 -4.8,-8.08 -6.8,-19.51 -6.8,-34.02 V 4490 h -22 v 123.97 c 0,4.32 -0.2,9.75 -0.5,16.31 -0.5,6.8 -0.8,12.79 -1.2,18.67 h 22.7" /><path
             id="path232"
             style="fill:#ffffff;fill-opacity:1;fill-rule:nonzero;stroke:none"
             d="m 11917.2,4568.98 c -5.8,0.01 -12.9,-0.28 -21.5,-0.85 -8.9,-0.28 -16.9,-1.93 -24.9,-4.08 -8.2,-1.84 -14.7,-5.51 -20.4,-10.05 -5.7,-4.54 -8.4,-10.79 -8.4,-18.73 -0.3,-4.98 1.1,-9.7 3.3,-13.44 2.1,-3.69 5.1,-6.81 8.8,-9.19 3.6,-2.26 7.7,-4.09 12.2,-5.11 4.4,-0.87 9.1,-1.53 13.7,-1.53 7.9,0 15.4,1.36 21.5,4.08 5.9,3.03 11.2,6.41 15.4,11.06 3.8,4.94 7.2,10.1 9.1,16.34 2,6.41 3,12.88 3,19.93 v 11.57 z m 11.8,17.99 v 4.16 c -0.4,28.17 -13.8,41.82 -41.2,41.82 -19,0.02 -35.1,-6.32 -49.1,-18.98 l -13.7,15.94 c 15,15.39 37.5,23.04 67.6,23.04 7.5,0.02 15.2,-1.13 22.3,-3.4 6.9,-2.11 13.4,-5.72 18.6,-10.36 5.1,-4.37 9.5,-10.46 12.7,-17.47 3.1,-6.92 4.8,-15.39 4.8,-25.13 v -70.95 c -0.4,-5.98 0.2,-12.5 0.8,-19.17 0.3,-6.5 1.2,-12.17 1.9,-16.47 h -21.3 c -0.8,3.83 -1.2,8 -1.6,12.52 -0.6,4.68 -0.5,8.92 -0.5,13.2 h -0.7 c -6.8,-10.49 -14.4,-18.18 -23.4,-22.8 -9.1,-4.58 -20.1,-6.92 -33.1,-6.92 -7.1,0 -13.9,0.96 -20.5,2.88 -6.8,1.95 -12.5,4.84 -17.7,8.78 -5.4,4.05 -9.2,8.77 -12.3,14.51 -3.3,6.02 -4.6,12.44 -4.6,20.1 0,13.07 3.4,22.9 10.1,30.21 6.7,7.5 15.2,12.79 25.3,16.38 10.1,3.65 21.1,5.85 32.6,6.75 11.2,1.03 22.1,1.36 31.7,1.36 h 11.3" /><path
             id="path234"
             style="fill:#ffffff;fill-opacity:1;fill-rule:nonzero;stroke:none"
             d="m 12030,4490 h -22 v 256.92 h 22 V 4490" /><path
             id="path236"
             style="fill:#ffffff;fill-opacity:1;fill-rule:nonzero;stroke:none"
             d="m 12290.9,4527.83 c -4.4,-6.02 -9.1,-11.81 -15.1,-17.2 -6.3,-5.27 -12.9,-10.05 -20.6,-13.99 -7.8,-3.81 -16.1,-7.01 -25.1,-9.26 -9,-2.04 -18.4,-3.38 -28.4,-3.38 -18.2,0 -34.6,3.17 -49.9,9.52 -15.6,6.51 -28.6,15.13 -39.9,26.34 -11.5,11.27 -20,24.53 -26.4,39.94 -6.5,15.48 -9.5,32.3 -9.5,50.67 0,18.53 3.2,35.24 9.5,50.66 6.2,15.7 15.2,28.72 26.4,39.93 10.9,11.53 24.5,20 39.8,26.35 15.1,6.55 31.9,9.53 49.9,9.53 14.7,0.02 29.9,-2.95 44.9,-8.83 14.8,-5.59 27.8,-15.62 38.4,-29.2 l -21.4,-15.96 c -2.6,3.91 -5.8,7.79 -10.1,11.69 -4.5,4.02 -9.3,7.33 -14.8,10.31 -5.7,3.01 -11.5,5.4 -17.8,7.24 -6.6,2.1 -12.7,2.75 -19,2.75 -15.7,0.02 -29.2,-2.85 -41.4,-8.55 -12.4,-5.48 -22.6,-13.31 -31.1,-22.87 -8.6,-9.39 -15,-20.65 -19.5,-33.29 -4.8,-12.37 -6.8,-25.88 -6.8,-39.76 -0.3,-13.71 2.3,-27.15 6.8,-39.78 4.3,-12.53 11,-23.72 19.5,-33.28 8.4,-9.37 18.9,-17.19 31.1,-22.88 12.1,-5.53 26.1,-8.53 41.5,-8.53 6,0 12.6,0.56 18.9,1.69 5.9,1.24 12.3,3.06 18.3,5.78 6,2.89 11.7,6.39 17,11.03 5.3,4.8 10.2,10.46 14.8,17.48 l 20,-14.15" /><path
             id="path238"
             style="fill:#ffffff;fill-opacity:1;fill-rule:nonzero;stroke:none"
             d="m 12460,4569.48 c -0.4,9.04 -1.5,17.17 -4.3,24.91 -3.1,7.94 -6.9,14.45 -12.2,20.14 -5.4,5.85 -11.6,10.18 -19,13.47 -7.6,3.3 -15.8,4.95 -25.2,4.95 -9.5,0.02 -17.8,-1.65 -25.2,-4.95 -7.4,-3.29 -13.7,-7.78 -18.8,-13.47 -5.3,-5.53 -9.2,-12.4 -12,-20.14 -3,-7.54 -4.3,-16.04 -4.3,-24.91 -0.3,-8.7 1.4,-17.18 4.3,-24.92 2.7,-7.59 6.8,-14.45 12,-20.14 5,-5.48 11.4,-10.17 18.8,-13.47 7.4,-3.29 15.8,-4.95 25.2,-4.95 9.3,0 17.8,1.65 25.2,4.95 7.3,3.32 13.8,7.79 19,13.47 5.1,5.88 9.3,12.4 12.2,20.14 2.6,7.89 4.3,16.05 4.3,24.92 z m 24,0 c -0.4,-11.82 -2.1,-23.07 -6.3,-33.26 -4.4,-9.92 -10.1,-19 -17.6,-26.47 -7.5,-7.37 -16.3,-13.28 -26.6,-17.47 -10.5,-3.94 -21.7,-6.28 -34.2,-6.28 -12.3,0 -23.5,2.09 -33.8,6.28 -10.5,4.43 -19.2,10.01 -26.7,17.47 -7.8,7.55 -13.3,16.29 -17.5,26.47 -4.3,10.44 -6.3,21.27 -6.3,33.26 0,12.15 2.1,23.06 6.3,33.24 4.1,10.28 10,19.01 17.5,26.47 7.2,7.74 16.4,13.29 26.7,17.48 10.1,4.3 21.6,6.28 33.8,6.28 12.4,0.02 23.8,-2.09 34.2,-6.28 10.1,-4.08 19.2,-10.01 26.6,-17.48 7.5,-7.19 13.4,-16.28 17.6,-26.47 3.9,-10.09 6.3,-21.26 6.3,-33.24" /><path
             id="path240"
             style="fill:#ffffff;fill-opacity:1;fill-rule:nonzero;stroke:none"
             d="m 12547,4648.95 c 0.1,-4.29 0.7,-8.57 0.8,-12.76 -0.1,-3.93 0.2,-8.46 0.2,-12.77 h 0.7 c 2.2,4.49 5.6,8.26 9.5,11.88 3.8,3.86 8.2,6.73 12.9,9.33 4.8,2.72 9.8,4.64 15.2,6.1 5.2,1.57 10.6,2.22 15.8,2.22 20.4,0.02 35.5,-5.37 45.2,-16.12 9.7,-10.7 14.7,-26.09 14.7,-46 V 4490 h -22 v 88.16 c -0.4,17.97 -3.1,31.25 -9.3,40.67 -6.4,9.47 -17.5,14.12 -34.2,14.12 -1.3,0.02 -4.3,-0.45 -9.5,-1.36 -5.6,-0.76 -10.8,-3.39 -16.6,-7.48 -6,-3.79 -11,-10.22 -15.6,-18.39 -4.8,-8.08 -6.8,-19.51 -6.8,-34.02 V 4490 h -22 v 123.97 c 0,4.32 -0.2,9.75 -0.5,16.31 -0.5,6.8 -0.8,12.79 -1.2,18.67 h 22.7" /><path
             id="path242"
             style="fill:#ffffff;fill-opacity:1;fill-rule:nonzero;stroke:none"
             d="m 12797,4628.97 h -46 v -94.28 c -0.3,-5.83 0.5,-10.77 1.7,-14.52 0.9,-3.47 2.7,-6.65 4.7,-8.7 1.9,-1.88 4.5,-3.48 7.3,-4.28 2.6,-0.53 5.9,-1.19 9.3,-1.19 3.5,0 7.7,0.57 11.8,1.7 3.8,1.24 7.8,2.61 11.2,4.43 l 1,-20.46 c -8.7,-3.67 -18.3,-5.67 -30,-5.67 -4.2,0 -8.7,0.57 -13.3,1.7 -4.8,1.24 -8.8,3.29 -12.6,6.47 -3.8,3.46 -6.9,7.49 -9.4,12.94 -2.7,5.74 -3.7,12.59 -3.7,21.44 v 100.42 h -34 v 19.98 h 34 v 44.99 h 22 v -44.99 h 46 v -19.98" /><path
             id="path244"
             style="fill:#ffffff;fill-opacity:1;fill-rule:nonzero;stroke:none"
             d="m 12952,4580.97 c -0.4,15.5 -4.6,28.02 -13.7,37.61 -9.2,9.72 -21.9,14.37 -38.3,14.37 -7.3,0.02 -14.3,-1.44 -21.2,-4.32 -7.1,-2.77 -12.8,-6.76 -17.9,-11.61 -5.4,-4.53 -9.2,-10.41 -12.3,-16.64 -3.3,-6.04 -4.6,-12.72 -4.6,-19.41 z m -108.7,-17.99 c 0.6,-7.91 2.6,-15.38 5.8,-22.39 3.1,-6.87 7.4,-13.05 12.6,-18.14 5,-4.9 11.2,-9.1 18,-12.04 6.6,-2.75 14.2,-4.41 22.2,-4.41 11.7,0 22.4,2.82 31.1,8.45 8.8,5.83 15.4,12.16 20,19.53 l 17,-14.29 c -9.8,-11.92 -20,-20.64 -31.4,-25.86 -11.6,-5.16 -23.6,-7.83 -36.7,-7.83 -12,0 -22.6,2.09 -32.6,6.28 -10.2,4.43 -18.7,10.01 -26,17.47 -7.3,7.55 -12.9,16.29 -17,26.47 -4.3,10.44 -6.3,21.27 -6.3,33.26 0,12.15 2,23.06 6.1,33.24 4,10.28 9.7,19.01 16.9,26.47 7.3,7.74 15.8,13.29 25.5,17.48 9.5,4.3 20.2,6.28 31.5,6.28 12,0.02 22.7,-2.16 32.2,-6.48 9.4,-4.14 17.5,-10.05 23.9,-17.2 6.4,-6.92 11.4,-15.57 14.8,-25.22 3.1,-9.34 5.1,-19.94 5.1,-30.83 v -10.24 h -132.7" /><path
             id="path246"
             style="fill:#ffffff;fill-opacity:1;fill-rule:nonzero;stroke:none"
             d="m 13038,4648.95 c 0.1,-4.29 0.7,-8.57 0.8,-12.76 -0.1,-3.93 0.2,-8.46 0.2,-12.77 h 0.7 c 2.2,4.49 5.6,8.26 9.5,11.88 3.8,3.86 8.2,6.73 12.9,9.33 4.8,2.72 9.8,4.64 15.2,6.1 5.2,1.57 10.6,2.22 15.8,2.22 20.4,0.02 35.5,-5.37 45.2,-16.12 9.7,-10.7 14.7,-26.09 14.7,-46 V 4490 h -22 v 88.16 c -0.4,17.97 -3.1,31.25 -9.3,40.67 -6.4,9.47 -17.5,14.12 -34.2,14.12 -1.3,0.02 -4.3,-0.45 -9.5,-1.36 -5.6,-0.76 -10.8,-3.39 -16.6,-7.48 -6,-3.79 -11,-10.22 -15.6,-18.39 -4.8,-8.08 -6.8,-19.51 -6.8,-34.02 V 4490 h -22 v 123.97 c 0,4.32 -0.2,9.75 -0.5,16.31 -0.5,6.8 -0.8,12.79 -1.2,18.67 h 22.7" /><path
             id="path248"
             style="fill:#ffffff;fill-opacity:1;fill-rule:nonzero;stroke:none"
             d="m 13288,4628.97 h -46 v -94.28 c -0.3,-5.83 0.5,-10.77 1.7,-14.52 0.9,-3.47 2.7,-6.65 4.7,-8.7 1.9,-1.88 4.5,-3.48 7.3,-4.28 2.6,-0.53 5.9,-1.19 9.3,-1.19 3.5,0 7.7,0.57 11.8,1.7 3.8,1.24 7.8,2.61 11.2,4.43 l 1,-20.46 c -8.7,-3.67 -18.3,-5.67 -30,-5.67 -4.2,0 -8.7,0.57 -13.3,1.7 -4.8,1.24 -8.8,3.29 -12.6,6.47 -3.8,3.46 -6.9,7.49 -9.4,12.94 -2.7,5.74 -3.7,12.59 -3.7,21.44 v 100.42 h -34 v 19.98 h 34 v 44.99 h 22 v -44.99 h 46 v -19.98" /><path
             id="path250"
             style="fill:#ffffff;fill-opacity:1;fill-rule:nonzero;stroke:none"
             d="m 13472,4577.97 c -8,0.01 -14.6,-3.29 -20.7,-9.88 -6.3,-6.27 -9.3,-15.87 -9.3,-27.9 v -60.61 c -0.3,-7.81 -1,-14.65 -3,-20.1 -2.4,-5.27 -4.8,-9.81 -8.1,-13.1 -3.7,-3.09 -7.3,-5.68 -11.7,-7.15 -4.4,-1.22 -8.9,-2.21 -13.6,-2.21 h -21.6 v 20 h 19 c 4.1,0.32 7.3,0.85 9.7,2.54 2.1,1.85 4.1,3.92 5.1,6.64 0.7,3 1.6,5.81 1.8,9.22 0.1,3.6 0.4,6.71 0.4,9.89 v 58.66 c -0.3,8.19 1.2,15.07 3.5,20.64 2.2,5.7 5.1,10 8.4,13.3 2.9,3.32 6.5,5.67 9.9,7.15 3.1,1.79 6,2.33 8,2.55 v 0.69 c -2.2,0.46 -4.7,1.08 -8,2.56 -3.6,1.52 -6.7,3.86 -9.9,7.16 -3.5,3.62 -6,7.73 -8.4,13.31 -2.5,5.8 -3.5,12.45 -3.5,20.64 v 58.66 c -0.3,3.3 -0.1,6.46 -0.4,9.87 -0.4,3.58 -0.8,6.49 -1.8,9.22 -1.3,2.82 -2.7,4.94 -5.1,6.66 -2.6,1.91 -5.6,2.56 -9.7,2.56 h -19 v 20 h 21.6 c 4.5,0.02 9.2,-0.74 13.6,-2.22 4.3,-1.38 8.3,-3.85 11.7,-7.14 3,-3.15 6,-7.67 8.1,-13.13 1.7,-5.26 3,-12.15 3,-20.09 v -60.61 c -0.3,-11.94 3.1,-21.32 9.3,-27.91 6.1,-6.53 13,-9.87 20.7,-9.87 v -20" /></g></g><path
         id="path252"
         style="fill:#b51700;fill-opacity:1;fill-rule:nonzero;stroke:none"
         d="m 5377.93,2262.8 h 9677.11 v 737.355 H 5377.93 Z" /><g
         id="g254"><g
           clip-path="url(#clipPath260)"
           id="g256"><path
             id="path262"
             style="fill:#ffffff;fill-opacity:1;fill-rule:nonzero;stroke:none"
             d="m 9959.94,2691.95 -145.49,-68.98 145.49,-68.99 V 2534 L 9787,2614.97 v 16 l 172.94,80.98 v -20" /><path
             id="path264"
             style="fill:#ffffff;fill-opacity:1;fill-rule:nonzero;stroke:none"
             d="m 10023,2599.48 c -0.3,-8.7 1.4,-17.18 4.3,-24.92 2.8,-7.59 6.9,-14.45 12.2,-20.14 5.1,-5.48 11.6,-10.17 19,-13.47 7.3,-3.29 15.9,-4.95 25.3,-4.95 8.9,0 17.6,1.65 25.5,4.95 7.8,3.32 14.8,7.79 20.5,13.47 5.4,5.88 10.2,12.4 13.4,20.14 3.1,7.89 4.8,16.05 4.8,24.92 -0.4,9.04 -1.6,17.17 -4.8,24.91 -3.3,7.94 -7.7,14.45 -13.4,20.14 -6,5.85 -12.5,10.18 -20.5,13.47 -8,3.3 -16.4,4.95 -25.5,4.95 -9.7,0.02 -17.8,-1.65 -25.3,-4.95 -7.6,-3.29 -13.8,-7.78 -19,-13.47 -5.4,-5.53 -9.4,-12.4 -12.2,-20.14 -3,-7.54 -4.3,-16.04 -4.3,-24.91 z m 146,-79.48 h -22 v 26.55 h -0.7 c -3.8,-5.28 -8,-10.07 -13,-13.92 -5.1,-3.72 -10.3,-7.02 -15.7,-9.5 -5.7,-2.2 -11.1,-4.3 -16.9,-5.43 -6.1,-1.03 -11.4,-1.7 -16.6,-1.7 -12.6,0 -24,2.09 -34.4,6.28 -10.6,4.43 -19.3,10.01 -26.8,17.47 -7.8,7.55 -13.4,16.29 -17.6,26.47 -4.3,10.44 -6.3,21.27 -6.3,33.26 0,12.15 2.1,23.06 6.3,33.24 4.1,10.28 10.1,19.01 17.6,26.47 7.2,7.74 16.5,13.29 26.8,17.48 10.2,4.3 21.9,6.28 34.4,6.28 5.2,0.02 10.7,-0.57 16.6,-1.7 5.6,-0.87 11.4,-2.93 16.9,-5.42 5.3,-2.44 10.7,-5.66 15.7,-9.5 4.9,-3.62 9.3,-8.48 13,-13.91 h 0.7 v 124.5 h 22 V 2520" /><path
             id="path266"
             style="fill:#ffffff;fill-opacity:1;fill-rule:nonzero;stroke:none"
             d="m 10252,2740.44 c -0.3,-4.63 -1.7,-8.77 -5.2,-11.86 -3.7,-2.95 -7.2,-4.64 -11.3,-4.64 -4.3,0.02 -7.9,1.54 -11.4,4.64 -3.4,3.23 -5.1,7.05 -5.1,11.86 0,5 1.7,8.76 5.1,11.86 3.4,3.33 7.3,4.64 11.4,4.64 3.9,0.02 7.9,-1.55 11.3,-4.64 3.2,-2.86 5.2,-7.05 5.2,-11.86 z m -6,-220.44 h -22 v 158.95 h 22 V 2520" /><path
             id="path268"
             style="fill:#ffffff;fill-opacity:1;fill-rule:nonzero;stroke:none"
             d="m 10370,2520 h -25 l -65,158.95 h 27 l 50.8,-133.81 h 0.7 l 50.5,133.81 h 26 L 10370,2520" /><path
             id="path270"
             style="fill:#ffffff;fill-opacity:1;fill-rule:nonzero;stroke:none"
             d="m 10467,2711.95 172.9,-80.98 v -16 L 10467,2534 v 19.98 l 145.5,68.99 -145.5,68.98 v 20" /></g></g><path
         id="path272"
         style="fill:#b51700;fill-opacity:1;fill-rule:nonzero;stroke:none"
         d="m 8617.46,3247.06 h 6437.57 v 737.355 H 8617.46 Z" /><g
         id="g274"><g
           clip-path="url(#clipPath280)"
           id="g276"><path
             id="path282"
             style="fill:#ffffff;fill-opacity:1;fill-rule:nonzero;stroke:none"
             d="m 10849.9,3681.95 -145.4,-68.98 145.4,-68.99 V 3524 l -172.9,80.97 v 16 l 172.9,80.98 v -20" /><path
             id="path284"
             style="fill:#ffffff;fill-opacity:1;fill-rule:nonzero;stroke:none"
             d="m 11046,3589.48 c -0.4,9.04 -1.5,17.17 -4.3,24.91 -3.1,7.94 -7,14.45 -12.2,20.14 -5.5,5.85 -11.7,10.18 -19.1,13.47 -7.6,3.3 -15.8,4.95 -25.2,4.95 -9.5,0.02 -18,-1.65 -25.8,-4.95 -7.9,-3.29 -14.5,-7.78 -20.2,-13.47 -5.8,-5.53 -10.2,-12.4 -13.4,-20.14 -3.5,-7.54 -4.8,-16.04 -4.8,-24.91 -0.4,-8.7 1.6,-17.18 4.8,-24.92 2.9,-7.59 7.6,-14.45 13.4,-20.14 5.6,-5.48 12.4,-10.17 20.2,-13.47 7.7,-3.29 16.4,-4.95 25.8,-4.95 9.3,0 17.8,1.65 25.2,4.95 7.3,3.32 13.8,7.79 19.1,13.47 5.1,5.88 9.3,12.4 12.2,20.14 2.6,7.89 4.3,16.05 4.3,24.92 z m -146,79.47 h 22 v -26.53 h 0.7 c 3.4,5.62 7.9,10.06 13,13.91 4.7,4.06 10.2,7.01 15.7,9.5 5.3,2.55 11.1,4.3 16.9,5.42 5.7,1.38 11.3,1.7 16.6,1.7 12.2,0.02 23.9,-2.09 34.3,-6.28 10.3,-4.08 19.3,-10.01 26.8,-17.48 7.5,-7.19 13.4,-16.28 17.6,-26.47 4,-10.09 6.4,-21.26 6.4,-33.24 -0.4,-11.82 -2.2,-23.07 -6.4,-33.26 -4.4,-9.92 -10,-19 -17.6,-26.47 -7.5,-7.37 -16.4,-13.28 -26.8,-17.47 -10.4,-3.94 -21.8,-6.28 -34.3,-6.28 -5.6,0 -10.8,0.57 -16.6,1.7 -5.9,1.23 -11.5,2.93 -16.9,5.43 -5.6,2.78 -10.7,5.65 -15.7,9.5 -5.3,3.97 -9.4,8.49 -13,13.92 h -0.7 v -124.52 h -22 v 256.92" /><path
             id="path286"
             style="fill:#ffffff;fill-opacity:1;fill-rule:nonzero;stroke:none"
             d="m 11111,3701.95 172.9,-80.98 v -16 L 11111,3524 v 19.98 l 145.5,68.99 -145.5,68.98 v 20" /><path
             id="path288"
             style="fill:#ffffff;fill-opacity:1;fill-rule:nonzero;stroke:none"
             d="m 11396.1,3544.7 h 0.7 l 60.2,206.24 h 29 l 59.8,-206.24 h 0.7 l 57.4,206.24 h 27 l -71,-240.94 h -29 l -59.4,206.22 h -0.7 L 11411,3510 h -29 l -71,240.94 h 27 l 58.1,-206.24" /><path
             id="path290"
             style="fill:#ffffff;fill-opacity:1;fill-rule:nonzero;stroke:none"
             d="m 11786,3589.48 c -0.4,9.04 -1.5,17.17 -4.3,24.91 -3.1,7.94 -6.9,14.45 -12.2,20.14 -5.4,5.85 -11.6,10.18 -19,13.47 -7.6,3.3 -15.8,4.95 -25.2,4.95 -9.5,0.02 -17.8,-1.65 -25.2,-4.95 -7.4,-3.29 -13.7,-7.78 -18.8,-13.47 -5.3,-5.53 -9.2,-12.4 -12,-20.14 -3,-7.54 -4.3,-16.04 -4.3,-24.91 -0.3,-8.7 1.4,-17.18 4.3,-24.92 2.7,-7.59 6.8,-14.45 12,-20.14 5,-5.48 11.4,-10.17 18.8,-13.47 7.4,-3.29 15.8,-4.95 25.2,-4.95 9.3,0 17.8,1.65 25.2,4.95 7.3,3.32 13.8,7.79 19,13.47 5.1,5.88 9.3,12.4 12.2,20.14 2.6,7.89 4.3,16.05 4.3,24.92 z m 24,0 c -0.4,-11.82 -2.1,-23.07 -6.3,-33.26 -4.4,-9.92 -10.1,-19 -17.6,-26.47 -7.5,-7.37 -16.3,-13.28 -26.6,-17.47 -10.5,-3.94 -21.7,-6.28 -34.2,-6.28 -12.3,0 -23.5,2.09 -33.8,6.28 -10.5,4.43 -19.2,10.01 -26.7,17.47 -7.8,7.55 -13.3,16.29 -17.5,26.47 -4.3,10.44 -6.3,21.27 -6.3,33.26 0,12.15 2.1,23.06 6.3,33.24 4.1,10.28 10,19.01 17.5,26.47 7.2,7.74 16.4,13.29 26.7,17.48 10.1,4.3 21.6,6.28 33.8,6.28 12.4,0.02 23.8,-2.09 34.2,-6.28 10.1,-4.08 19.2,-10.01 26.6,-17.48 7.5,-7.19 13.4,-16.28 17.6,-26.47 3.9,-10.09 6.3,-21.26 6.3,-33.24" /><path
             id="path292"
             style="fill:#ffffff;fill-opacity:1;fill-rule:nonzero;stroke:none"
             d="m 11854,3619.36 c 0,7.23 -0.2,14.16 -0.5,21.41 -0.5,7.32 -0.6,16.64 -0.9,28.18 h 21.7 v -29.61 h 0.7 c 1.2,4.52 3.8,8.43 6.8,12.39 2.7,4.05 6.6,7.52 10.8,10.69 4,3.36 9.1,5.71 14.7,7.64 5.5,2.24 11.9,2.89 18.9,2.89 6.3,0.02 12,-0.66 16.8,-2 l -4.5,-21.68 c -3.1,1.37 -7.3,1.7 -13,1.7 -8.8,0.01 -16,-1.65 -22.2,-4.94 -6.2,-2.97 -11.2,-7.49 -15.3,-12.61 -4.5,-4.91 -7.2,-10.61 -9.1,-16.51 -2.2,-5.87 -2.9,-11.58 -2.9,-17.03 V 3510 h -22 v 109.36" /><path
             id="path294"
             style="fill:#ffffff;fill-opacity:1;fill-rule:nonzero;stroke:none"
             d="m 11992,3510 h -22 v 256.92 h 22 V 3510" /><path
             id="path296"
             style="fill:#ffffff;fill-opacity:1;fill-rule:nonzero;stroke:none"
             d="m 12059,3589.48 c -0.3,-8.7 1.4,-17.18 4.3,-24.92 2.8,-7.59 6.9,-14.45 12.2,-20.14 5.1,-5.48 11.6,-10.17 19,-13.47 7.3,-3.29 15.9,-4.95 25.3,-4.95 8.9,0 17.6,1.65 25.5,4.95 7.8,3.32 14.8,7.79 20.5,13.47 5.4,5.88 10.2,12.4 13.4,20.14 3.1,7.89 4.8,16.05 4.8,24.92 -0.4,9.04 -1.6,17.17 -4.8,24.91 -3.3,7.94 -7.7,14.45 -13.4,20.14 -6,5.85 -12.5,10.18 -20.5,13.47 -8,3.3 -16.4,4.95 -25.5,4.95 -9.7,0.02 -17.8,-1.65 -25.3,-4.95 -7.6,-3.29 -13.8,-7.78 -19,-13.47 -5.4,-5.53 -9.4,-12.4 -12.2,-20.14 -3,-7.54 -4.3,-16.04 -4.3,-24.91 z m 146,-79.48 h -22 v 26.55 h -0.7 c -3.8,-5.28 -8,-10.07 -13,-13.92 -5.1,-3.72 -10.3,-7.02 -15.7,-9.5 -5.7,-2.2 -11.1,-4.3 -16.9,-5.43 -6.1,-1.03 -11.4,-1.7 -16.6,-1.7 -12.6,0 -24,2.09 -34.4,6.28 -10.6,4.43 -19.3,10.01 -26.8,17.47 -7.8,7.55 -13.4,16.29 -17.6,26.47 -4.3,10.44 -6.3,21.27 -6.3,33.26 0,12.15 2.1,23.06 6.3,33.24 4.1,10.28 10.1,19.01 17.6,26.47 7.2,7.74 16.5,13.29 26.8,17.48 10.2,4.3 21.9,6.28 34.4,6.28 5.2,0.02 10.7,-0.57 16.6,-1.7 5.6,-0.87 11.4,-2.93 16.9,-5.42 5.3,-2.44 10.7,-5.66 15.7,-9.5 4.9,-3.62 9.3,-8.48 13,-13.91 h 0.7 v 124.5 h 22 V 3510" /><path
             id="path298"
             style="fill:#ffffff;fill-opacity:1;fill-rule:nonzero;stroke:none"
             d="m 12428.9,3681.95 -145.4,-68.98 145.4,-68.99 V 3524 l -172.9,80.97 v 16 l 172.9,80.98 v -20" /><path
             id="path300"
             style="fill:#ffffff;fill-opacity:1;fill-rule:nonzero;stroke:none"
             d="m 12478,3504 -20,6.47 103,246.47 19,-6.8 -102,-246.14" /><path
             id="path302"
             style="fill:#ffffff;fill-opacity:1;fill-rule:nonzero;stroke:none"
             d="m 12752,3589.48 c -0.4,9.04 -1.5,17.17 -4.3,24.91 -3.1,7.94 -7,14.45 -12.2,20.14 -5.5,5.85 -11.7,10.18 -19.1,13.47 -7.6,3.3 -15.8,4.95 -25.2,4.95 -9.5,0.02 -18,-1.65 -25.8,-4.95 -7.9,-3.29 -14.5,-7.78 -20.2,-13.47 -5.8,-5.53 -10.2,-12.4 -13.4,-20.14 -3.5,-7.54 -4.8,-16.04 -4.8,-24.91 -0.4,-8.7 1.6,-17.18 4.8,-24.92 2.9,-7.59 7.6,-14.45 13.4,-20.14 5.6,-5.48 12.4,-10.17 20.2,-13.47 7.7,-3.29 16.4,-4.95 25.8,-4.95 9.3,0 17.8,1.65 25.2,4.95 7.3,3.32 13.8,7.79 19.1,13.47 5.1,5.88 9.3,12.4 12.2,20.14 2.6,7.89 4.3,16.05 4.3,24.92 z m -146,79.47 h 22 v -26.53 h 0.7 c 3.4,5.62 7.9,10.06 13,13.91 4.7,4.06 10.2,7.01 15.7,9.5 5.3,2.55 11.1,4.3 16.9,5.42 5.7,1.38 11.3,1.7 16.6,1.7 12.2,0.02 23.9,-2.09 34.3,-6.28 10.3,-4.08 19.3,-10.01 26.8,-17.48 7.5,-7.19 13.4,-16.28 17.6,-26.47 4,-10.09 6.4,-21.26 6.4,-33.24 -0.4,-11.82 -2.2,-23.07 -6.4,-33.26 -4.4,-9.92 -10,-19 -17.6,-26.47 -7.5,-7.37 -16.4,-13.28 -26.8,-17.47 -10.4,-3.94 -21.8,-6.28 -34.3,-6.28 -5.6,0 -10.8,0.57 -16.6,1.7 -5.9,1.23 -11.5,2.93 -16.9,5.43 -5.6,2.78 -10.7,5.65 -15.7,9.5 -5.3,3.97 -9.4,8.49 -13,13.92 h -0.7 v -124.52 h -22 v 256.92" /><path
             id="path304"
             style="fill:#ffffff;fill-opacity:1;fill-rule:nonzero;stroke:none"
             d="m 12816,3701.95 172.9,-80.98 v -16 L 12816,3524 v 19.98 l 145.5,68.99 -145.5,68.98 v 20" /></g></g><path
         id="path306"
         style="fill:none;stroke:#ff9300;stroke-width:30;stroke-linecap:butt;stroke-linejoin:miter;stroke-miterlimit:4;stroke-dasharray:none;stroke-opacity:1"
         d="m 15518.7,7488.84 14.2,-4.92 C 17531.8,6770.63 17494,5840.6 15419.6,4693.8 l -13.2,-7.19" /><path
         id="path308"
         style="fill:#ff9300;fill-opacity:1;fill-rule:nonzero;stroke:none"
         d="m 15388,4751.74 -84.4,-121.12 147.5,5.21" /><path
         id="path310"
         style="fill:#ff9300;fill-opacity:1;fill-rule:nonzero;stroke:none"
         d="m 15554.6,7546.27 -146.4,-19.03 103,-105.66" /><path
         id="path312"
         style="fill:none;stroke:#ff9300;stroke-width:30;stroke-linecap:butt;stroke-linejoin:miter;stroke-miterlimit:4;stroke-dasharray:none;stroke-opacity:1"
         d="m 15416,9375.69 15,-0.38 c 2303.8,-67.61 2342,-591.28 114.5,-1571.02 l -13.8,-6.02" /><path
         id="path314"
         style="fill:#ff9300;fill-opacity:1;fill-rule:nonzero;stroke:none"
         d="m 15519.1,7864.77 -94.7,-113.23 147.4,-7.79" /><path
         id="path316"
         style="fill:#ff9300;fill-opacity:1;fill-rule:nonzero;stroke:none"
         d="m 15432.6,9441.29 -133.6,-62.66 130.3,-69.3" /></g></g></svg>