<?xml version="1.0" encoding="UTF-8" standalone="no"?>
<svg
   xmlns:dc="http://purl.org/dc/elements/1.1/"
   xmlns:cc="http://creativecommons.org/ns#"
   xmlns:rdf="http://www.w3.org/1999/02/22-rdf-syntax-ns#"
   xmlns:svg="http://www.w3.org/2000/svg"
   xmlns="http://www.w3.org/2000/svg"
   viewBox="0 0 2560 1440"
   height="1440"
   width="2560"
   xml:space="preserve"
   id="svg2"
   version="1.1"><metadata
     id="metadata8"><rdf:RDF><cc:Work
         rdf:about=""><dc:format>image/svg+xml</dc:format><dc:type
           rdf:resource="http://purl.org/dc/dcmitype/StillImage" /></cc:Work></rdf:RDF></metadata><defs
     id="defs6"><clipPath
       id="clipPath26"
       clipPathUnits="userSpaceOnUse"><path
         id="path24"
         d="m 6669.34,6313.99 h 8772.63 V 8881.98 H 6669.34 Z" /></clipPath><clipPath
       id="clipPath78"
       clipPathUnits="userSpaceOnUse"><path
         id="path76"
         d="m 6901.77,6963.56 h 8307.76 V 8123.13 H 6901.77 Z" /></clipPath><clipPath
       id="clipPath136"
       clipPathUnits="userSpaceOnUse"><path
         id="path134"
         d="m 6669.34,2027.3 h 8772.63 V 4595.29 H 6669.34 Z" /></clipPath><clipPath
       id="clipPath180"
       clipPathUnits="userSpaceOnUse"><path
         id="path178"
         d="m 6901.77,2676.87 h 8307.76 V 3836.44 H 6901.77 Z" /></clipPath></defs><g
     transform="matrix(1.3333333,0,0,-1.3333333,0,1440)"
     id="g10"><g
       transform="scale(0.1)"
       id="g12"><path
         id="path14"
         style="fill:#ffffff;fill-opacity:1;fill-rule:nonzero;stroke:none"
         d="M 0,0 H 19200 V 10800 H 0 Z" /><path
         id="path16"
         style="fill:#d5d5d5;fill-opacity:1;fill-rule:nonzero;stroke:none"
         d="m 6768.62,6303.99 h 8574.07 V 8782.7 H 6768.62 Z" /><path
         id="path18"
         style="fill:none;stroke:#000000;stroke-width:10;stroke-linecap:butt;stroke-linejoin:miter;stroke-miterlimit:4;stroke-dasharray:none;stroke-opacity:1"
         d="m 6768.62,6303.99 h 8574.07 V 8782.7 H 6768.62 Z" /><g
         id="g20"><g
           clip-path="url(#clipPath26)"
           id="g22"><path
             id="path28"
             style="fill:#000000;fill-opacity:1;fill-rule:nonzero;stroke:none"
             d="M 9388,8611 9250.89,8546.5 9388,8482 v -19 l -163,76 v 15 l 163,76 v -19" /><path
             id="path30"
             style="fill:#000000;fill-opacity:1;fill-rule:nonzero;stroke:none"
             d="m 9472.84,8531 h 98.99 l -49.33,119.06 z M 9439,8450 h -27 l 99,227 h 23 l 99,-227 h -27 l -25.14,60 H 9464.14 L 9439,8450" /><path
             id="path32"
             style="fill:#000000;fill-opacity:1;fill-rule:nonzero;stroke:none"
             d="m 9682,8450 h -21 v 242 h 21 v -242" /><path
             id="path34"
             style="fill:#000000;fill-opacity:1;fill-rule:nonzero;stroke:none"
             d="m 9758,8450 h -21 v 242 h 21 v -242" /><path
             id="path36"
             style="fill:#000000;fill-opacity:1;fill-rule:nonzero;stroke:none"
             d="m 9840,8576 h 36.92 c 9.88,0 18.83,1.08 25.94,3.23 6.83,2.43 12.79,5.04 17.03,8.6 3.95,3.62 7.33,7.77 9.24,12.62 1.87,5.04 2.87,10.09 2.87,15.71 0,5.68 -0.96,10.53 -2.87,15.39 -1.95,5 -4.99,9.11 -9.24,12.78 -4.54,3.9 -9.92,6.54 -17.03,8.59 -7.39,2.08 -15.75,3.08 -25.94,3.08 H 9840 Z m -23,101 h 65.69 c 22.74,0 41.09,-5.05 54.37,-15.14 13.27,-10.04 19.94,-25.32 19.94,-45.7 0,-20.11 -6.64,-35.68 -19.92,-45.88 -13.31,-9.95 -31.4,-15.28 -54.36,-15.28 H 9840 v -105 h -23 v 227" /><path
             id="path38"
             style="fill:#000000;fill-opacity:1;fill-rule:nonzero;stroke:none"
             d="m 10109,8536 c 0,14.59 -4.3,26.41 -12.8,35.44 -8.6,9.22 -20.4,13.56 -35.8,13.56 -6.9,0 -13.4,-1.37 -19.8,-4.09 -6.6,-2.69 -12,-6.37 -16.8,-10.94 -5,-4.56 -8.6,-9.81 -11.5,-15.69 -3,-5.64 -4.3,-11.97 -4.3,-18.28 z m -101.6,-17 c 0.5,-7.5 2.4,-14.57 5.4,-21.22 2.8,-6.56 7,-12.37 11.9,-17.19 4.7,-4.68 10.7,-8.63 17.1,-11.42 6.2,-2.51 13.4,-4.17 20.9,-4.17 11.2,0 21.2,2.62 29.5,7.86 8.2,5.3 14.5,11.3 18.8,18.14 l 16,-13.41 c -9,-11.13 -18.9,-19.35 -29.7,-24.25 -10.9,-4.67 -22.3,-7.34 -34.7,-7.34 -11.3,0 -21.5,1.98 -31,5.94 -9.7,3.97 -17.6,9.47 -24.5,16.53 -6.9,7.25 -12.22,15.42 -16.18,25.06 -4.26,9.79 -5.92,20.13 -5.92,31.47 0,11.34 1.91,21.83 5.75,31.47 3.58,9.81 9.16,17.98 15.95,25.05 6.6,7.23 14.8,12.58 24,16.54 8.9,4.27 19.1,5.94 29.7,5.94 11.2,0 21.4,-2.04 30.4,-6.12 8.7,-4.04 16.4,-9.5 22.5,-16.25 6,-6.64 10.7,-14.71 13.9,-23.83 3.1,-9.06 4.8,-18.84 4.8,-29.14 V 8519 h -124.6" /><path
             id="path40"
             style="fill:#000000;fill-opacity:1;fill-rule:nonzero;stroke:none"
             d="m 10173,8553.2 c 0,6.89 -0.2,13.35 -0.5,20.19 -0.5,7.05 -0.6,15.71 -0.8,26.61 h 20.7 v -27.77 h 0.6 c 1.5,4.32 3.7,7.97 6.5,11.71 2.6,3.77 6.1,7.11 10.1,10.11 3.8,3.31 8.6,5.4 13.8,7.22 5.1,2.06 11.2,2.73 17.9,2.73 5.9,0 11.2,-0.64 15.7,-1.91 l -4.2,-20.7 c -3,1.27 -6.8,1.61 -12.2,1.61 -8.3,0 -15.1,-1.55 -20.9,-4.66 -6,-2.88 -10.6,-7.07 -14.4,-11.89 -4,-4.63 -6.7,-10 -8.6,-15.57 -2,-5.54 -2.7,-10.93 -2.7,-16.07 V 8450 h -21 v 103.2" /><path
             id="path42"
             style="fill:#000000;fill-opacity:1;fill-rule:nonzero;stroke:none"
             d="m 10356.2,8565 c -3.3,6.13 -7.5,11 -12.8,14.59 -5.4,3.74 -11.8,5.41 -19.4,5.41 -4,0 -7.3,-0.44 -11.1,-1.31 -4,-0.76 -7,-2.23 -10,-4.08 -3.3,-1.72 -5.4,-4.18 -7.2,-7.02 -2,-2.68 -2.7,-6.3 -2.7,-10.43 0,-6.91 2.4,-12.42 7.3,-15.68 4.8,-3.09 12.2,-6.09 22,-8.48 l 21.4,-5.11 c 10.2,-2.31 19,-7.09 25.9,-14.22 6.7,-7.03 10.4,-16.03 10.4,-26.67 0,-8.09 -1.6,-15.07 -4.9,-20.92 -3.3,-5.55 -7.6,-10.65 -13.1,-14.38 -5.4,-3.63 -11.5,-6.44 -18.5,-8.14 -7.2,-1.56 -14.1,-2.56 -21.3,-2.56 -11.5,0 -22.1,2.21 -31.9,6.63 -10,4.53 -18.3,12 -25.3,22.78 l 18.1,12.59 c 4.2,-7.01 9.5,-12.6 16,-16.77 6.4,-3.9 14.1,-6.23 23,-6.23 4.2,0 8.5,0.48 12.7,1.44 4,1.15 8,2.47 11.2,4.5 3.3,2.06 6,4.66 8,7.87 1.7,3.28 3,6.98 3,11.27 0,7.8 -2.8,12.9 -8.3,16.22 -5.8,3.55 -12.2,5.94 -20.1,7.87 l -20.4,4.83 c -2.6,0.64 -6,1.72 -10.3,3.22 -4.7,1.76 -8.6,3.75 -12.8,6.75 -4.2,3.02 -7.7,6.93 -10.6,11.76 -3.2,4.93 -4.5,10.79 -4.5,17.88 0,7.85 1.5,14.47 4.6,20.27 2.9,5.84 7.3,10.52 12.5,14.17 5.2,3.97 11.1,6.39 17.7,8.22 6.3,2.06 13.4,2.73 20.4,2.73 10.4,0 20.1,-2.01 29.1,-6.03 8.8,-4 15.8,-10.88 20.7,-20.61 l -18.8,-12.36" /><path
             id="path44"
             style="fill:#000000;fill-opacity:1;fill-rule:nonzero;stroke:none"
             d="m 10541,8525 c 0,8.38 -1.3,16.23 -4,23.55 -2.7,7.46 -6.5,13.65 -11.4,19.03 -5.1,5.51 -10.8,9.62 -17.7,12.73 -7.3,3.35 -14.8,4.69 -23.6,4.69 -8.8,0 -16.5,-1.56 -23.5,-4.69 -7.2,-2.88 -12.8,-7.36 -17.6,-12.73 -4.9,-5.24 -8.5,-11.72 -11.2,-19.03 -2.7,-7.17 -4,-15.17 -4,-23.55 0,-8.39 1.3,-16.23 4,-23.55 2.7,-7.13 6.4,-13.65 11.2,-19.03 4.7,-5.18 10.7,-9.62 17.6,-12.75 6.7,-3.01 14.8,-4.67 23.5,-4.67 8.7,0 16.6,1.55 23.6,4.67 6.6,3.24 12.8,7.38 17.7,12.75 4.7,5.57 8.7,11.72 11.4,19.03 2.7,7.5 4,15.16 4,23.55 z m 23,0 c 0,-11.34 -2,-21.84 -5.9,-31.47 -4,-9.48 -9.5,-17.99 -16.5,-25.06 -7.2,-6.89 -15.4,-12.58 -25.1,-16.53 -9.9,-3.94 -20.4,-5.94 -32.2,-5.94 -11.6,0 -22.1,1.98 -31.8,5.94 -9.9,3.97 -18.1,9.47 -25.1,16.53 -7.2,7.25 -12.5,15.42 -16.5,25.06 -4.2,9.79 -5.9,20.13 -5.9,31.47 0,11.34 2,21.83 5.9,31.47 3.7,9.81 9.5,17.98 16.5,25.05 6.9,7.23 15.4,12.58 25.1,16.54 9.5,4.27 20.3,5.94 31.8,5.94 11.7,0 22.5,-1.98 32.2,-5.94 9.5,-3.65 18.1,-9.47 25.1,-16.54 6.8,-6.91 12.5,-15.42 16.5,-25.05 3.9,-9.46 5.9,-20.13 5.9,-31.47" /><path
             id="path46"
             style="fill:#000000;fill-opacity:1;fill-rule:nonzero;stroke:none"
             d="m 10623,8600 c 0.5,-4.04 0.7,-8.03 0.8,-11.95 -0.1,-3.61 0.2,-7.92 0.2,-11.96 h 0.6 c 2.2,4.37 5.4,7.8 9,11.22 3.4,3.66 7.7,6.37 12.1,8.83 4.3,2.74 9.2,4.38 14.2,5.77 4.7,1.42 10,2.09 14.9,2.09 18.9,0 33.3,-5.09 42.5,-15.25 9,-10.07 13.7,-24.65 13.7,-43.47 V 8450 h -21 v 83.25 c 0,16.97 -2.9,29.52 -8.6,38.41 -5.9,9 -16.4,13.34 -32,13.34 -1.2,0 -4.1,-0.43 -9,-1.3 -5,-0.75 -10,-3.21 -15.5,-7.06 -5.7,-3.73 -10.3,-9.64 -14.5,-17.36 -4.4,-7.47 -6.4,-18.42 -6.4,-32.14 V 8450 h -21 v 116.98 c 0,4.07 -0.2,9.2 -0.5,15.4 -0.5,6.4 -0.7,12.07 -1.1,17.62 h 21.6" /><path
             id="path48"
             style="fill:#000000;fill-opacity:1;fill-rule:nonzero;stroke:none"
             d="m 10860.2,8565 c -3.3,6.13 -7.5,11 -12.8,14.59 -5.4,3.74 -11.8,5.41 -19.4,5.41 -4,0 -7.3,-0.44 -11.1,-1.31 -4,-0.76 -7,-2.23 -10,-4.08 -3.3,-1.72 -5.4,-4.18 -7.2,-7.02 -2,-2.68 -2.7,-6.3 -2.7,-10.43 0,-6.91 2.4,-12.42 7.3,-15.68 4.8,-3.09 12.2,-6.09 22,-8.48 l 21.4,-5.11 c 10.2,-2.31 19,-7.09 25.9,-14.22 6.7,-7.03 10.4,-16.03 10.4,-26.67 0,-8.09 -1.6,-15.07 -4.9,-20.92 -3.3,-5.55 -7.6,-10.65 -13.1,-14.38 -5.4,-3.63 -11.5,-6.44 -18.5,-8.14 -7.2,-1.56 -14.1,-2.56 -21.3,-2.56 -11.5,0 -22.1,2.21 -31.9,6.63 -10,4.53 -18.3,12 -25.3,22.78 l 18.1,12.59 c 4.2,-7.01 9.5,-12.6 16,-16.77 6.4,-3.9 14.1,-6.23 23,-6.23 4.2,0 8.5,0.48 12.7,1.44 4,1.15 8,2.47 11.2,4.5 3.3,2.06 6,4.66 8,7.87 1.7,3.28 3,6.98 3,11.27 0,7.8 -2.8,12.9 -8.3,16.22 -5.8,3.55 -12.2,5.94 -20.1,7.87 l -20.4,4.83 c -2.6,0.64 -6,1.72 -10.3,3.22 -4.7,1.76 -8.6,3.75 -12.8,6.75 -4.2,3.02 -7.7,6.93 -10.6,11.76 -3.2,4.93 -4.5,10.79 -4.5,17.88 0,7.85 1.5,14.47 4.6,20.27 2.9,5.84 7.3,10.52 12.5,14.17 5.2,3.97 11.1,6.39 17.7,8.22 6.3,2.06 13.4,2.73 20.4,2.73 10.4,0 20.1,-2.01 29.1,-6.03 8.8,-4 15.8,-10.88 20.7,-20.61 l -18.8,-12.36" /><path
             id="path50"
             style="fill:#000000;fill-opacity:1;fill-rule:nonzero;stroke:none"
             d="m 10919,8630 163,-76 v -15 l -163,-76 v 19 l 137.1,64.5 -137.1,64.5 v 19" /><path
             id="path52"
             style="fill:#000000;fill-opacity:1;fill-rule:nonzero;stroke:none"
             d="m 11413,8485.56 c -3.8,-5.6 -8.5,-11.18 -14.2,-16.29 -5.9,-4.88 -12,-9.55 -19.3,-13.29 -7.4,-3.72 -15,-6.65 -23.4,-8.78 -8.4,-1.86 -17.2,-3.2 -26.6,-3.2 -16.9,0 -32.3,2.98 -46.6,8.95 -14.6,5.99 -26.8,14.23 -37.3,24.78 -10.7,10.65 -18.7,23.1 -24.7,37.6 -6.2,14.73 -8.9,30.4 -8.9,47.67 0,17.27 3,33.16 8.9,47.66 5.7,14.62 14.2,27.04 24.8,37.59 10.3,10.81 23,18.83 37.3,24.8 14.4,6.28 30,8.95 46.8,8.95 13.8,0 28.1,-2.78 42.1,-8.34 13.8,-5.44 26.1,-14.75 36.1,-27.58 l -20.1,-15.08 c -2.6,3.66 -5.5,7.31 -9.6,10.97 -4.1,3.66 -8.6,6.88 -13.8,9.67 -5.4,2.92 -10.8,5.06 -16.8,6.78 -6.2,1.91 -11.9,2.58 -17.9,2.58 -14.7,0 -27.4,-2.67 -38.9,-8.02 -11.8,-5.32 -21.2,-12.48 -29.2,-21.45 -8.2,-8.81 -14.1,-19.38 -18.3,-31.23 -4.4,-11.61 -6.4,-24.28 -6.4,-37.3 0,-13.02 2.1,-25.46 6.4,-37.31 4.1,-11.74 10.3,-22.25 18.3,-31.22 7.7,-8.79 17.6,-16.13 29.1,-21.47 11.2,-5.34 24.4,-8 38.8,-8 5.8,0 11.8,0.53 17.7,1.59 5.7,1.21 11.5,2.89 17.2,5.46 5.4,2.89 10.9,6.05 15.9,10.43 4.8,4.56 9.6,9.9 13.8,16.52 l 18.8,-13.44" /><path
             id="path54"
             style="fill:#000000;fill-opacity:1;fill-rule:nonzero;stroke:none"
             d="m 11573,8525 c 0,8.38 -1.3,16.23 -4,23.55 -2.7,7.46 -6.5,13.65 -11.4,19.03 -5.1,5.51 -10.8,9.62 -17.7,12.73 -7.3,3.35 -14.8,4.69 -23.6,4.69 -8.8,0 -16.5,-1.56 -23.5,-4.69 -7.2,-2.88 -12.8,-7.36 -17.6,-12.73 -4.9,-5.24 -8.5,-11.72 -11.2,-19.03 -2.7,-7.17 -4,-15.17 -4,-23.55 0,-8.39 1.3,-16.23 4,-23.55 2.7,-7.13 6.4,-13.65 11.2,-19.03 4.7,-5.18 10.7,-9.62 17.6,-12.75 6.7,-3.01 14.8,-4.67 23.5,-4.67 8.7,0 16.6,1.55 23.6,4.67 6.6,3.24 12.8,7.38 17.7,12.75 4.7,5.57 8.7,11.72 11.4,19.03 2.7,7.5 4,15.16 4,23.55 z m 23,0 c 0,-11.34 -2,-21.84 -5.9,-31.47 -4,-9.48 -9.5,-17.99 -16.5,-25.06 -7.2,-6.89 -15.4,-12.58 -25.1,-16.53 -9.9,-3.94 -20.4,-5.94 -32.2,-5.94 -11.6,0 -22.1,1.98 -31.8,5.94 -9.9,3.97 -18.1,9.47 -25.1,16.53 -7.2,7.25 -12.5,15.42 -16.5,25.06 -4.2,9.79 -5.9,20.13 -5.9,31.47 0,11.34 2,21.83 5.9,31.47 3.7,9.81 9.5,17.98 16.5,25.05 6.9,7.23 15.4,12.58 25.1,16.54 9.5,4.27 20.3,5.94 31.8,5.94 11.7,0 22.5,-1.98 32.2,-5.94 9.5,-3.65 18.1,-9.47 25.1,-16.54 6.8,-6.91 12.5,-15.42 16.5,-25.05 3.9,-9.46 5.9,-20.13 5.9,-31.47" /><path
             id="path56"
             style="fill:#000000;fill-opacity:1;fill-rule:nonzero;stroke:none"
             d="m 11634,8566.67 c 0,5.66 -0.2,11.1 -0.5,16.66 -0.5,5.78 -0.7,11.12 -1.1,16.67 h 22.6 v -22.62 h 0.6 c 4.9,8.97 12.2,15.39 21.3,19.89 8.7,4.73 18,6.73 27,6.73 3.7,0 8.4,-0.43 12.9,-1.28 4.3,-0.76 9,-2.41 13.3,-4.66 4.2,-1.93 8.3,-5.4 12,-9.47 3.7,-3.93 6.9,-9.3 9.4,-15.71 4.1,9.66 11,17.21 20.3,22.78 9,5.67 18.9,8.34 28.9,8.34 19,0 33.4,-5.09 42.6,-15.25 9,-10.07 13.7,-24.65 13.7,-43.47 V 8450 h -21 v 87.75 c 0,15.3 -2.7,26.89 -8,35.03 -5.3,8.22 -15.3,12.22 -29.8,12.22 -7.9,0 -14.5,-1.56 -19.8,-4.67 -5.5,-2.88 -9.6,-7.23 -13,-12.38 -3.4,-5.12 -5.7,-10.97 -7.2,-17.51 -1.5,-6.35 -2.2,-13.34 -2.2,-20.41 V 8450 h -21 v 87.75 c 0,15.3 -2.7,26.89 -8,35.03 -5.3,8.22 -15.3,12.22 -29.8,12.22 -1.3,0 -4.2,-0.43 -8.8,-1.3 -4.7,-0.75 -9.3,-3.21 -14.2,-7.06 -5,-3.73 -9.3,-9.64 -13.3,-17.36 -4.2,-7.47 -5.9,-18.42 -5.9,-32.14 V 8450 h -21 v 116.67" /><path
             id="path58"
             style="fill:#000000;fill-opacity:1;fill-rule:nonzero;stroke:none"
             d="m 12044,8525 c 0,8.38 -1.3,16.23 -4,23.55 -3,7.46 -6.5,13.65 -11.4,19.03 -5.1,5.51 -10.9,9.62 -17.9,12.73 -7.2,3.35 -14.8,4.69 -23.6,4.69 -8.8,0 -16.8,-1.56 -24.1,-4.69 -7.3,-2.88 -13.6,-7.36 -18.9,-12.73 -5.4,-5.24 -9.6,-11.72 -12.6,-19.03 -3.1,-7.17 -4.5,-15.17 -4.5,-23.55 0,-8.39 1.5,-16.23 4.5,-23.55 2.9,-7.13 7.2,-13.65 12.6,-19.03 5.3,-5.18 11.7,-9.62 18.9,-12.75 7.3,-3.01 15.3,-4.67 24.1,-4.67 8.8,0 16.7,1.55 23.6,4.67 6.8,3.24 12.9,7.38 17.9,12.75 4.7,5.57 8.7,11.72 11.4,19.03 2.3,7.5 4,15.16 4,23.55 z m -137,75 h 21 v -24.91 h 0.6 c 3.3,5.44 7.5,9.52 12.2,13.16 4.5,3.89 9.7,6.64 14.8,9 4.9,2.6 10.4,4.07 15.9,5.14 5.3,1.27 10.6,1.61 15.6,1.61 11.7,0 22.5,-1.98 32.2,-5.94 9.7,-3.65 18.2,-9.47 25.2,-16.54 6.9,-6.91 12.6,-15.42 16.6,-25.05 3.9,-9.46 5.9,-20.13 5.9,-31.47 0,-11.34 -2,-21.84 -5.9,-31.47 -4,-9.48 -9.5,-17.99 -16.6,-25.06 -7.2,-6.89 -15.4,-12.58 -25.2,-16.53 -9.8,-3.94 -20.5,-5.94 -32.2,-5.94 -5,0 -10.1,0.54 -15.6,1.61 -5.6,1.2 -10.8,2.78 -15.9,5.14 -5.3,2.44 -10,5.35 -14.8,8.98 -4.9,3.74 -8.7,8.04 -12.2,13.18 h -0.6 V 8358 h -21 v 242" /><path
             id="path60"
             style="fill:#000000;fill-opacity:1;fill-rule:nonzero;stroke:none"
             d="m 12231,8525 c 0,8.38 -1.3,16.23 -4,23.55 -2.7,7.46 -6.5,13.65 -11.4,19.03 -5.1,5.51 -10.8,9.62 -17.7,12.73 -7.3,3.35 -14.8,4.69 -23.6,4.69 -8.8,0 -16.5,-1.56 -23.5,-4.69 -7.2,-2.88 -12.8,-7.36 -17.6,-12.73 -4.9,-5.24 -8.5,-11.72 -11.2,-19.03 -2.7,-7.17 -4,-15.17 -4,-23.55 0,-8.39 1.3,-16.23 4,-23.55 2.7,-7.13 6.4,-13.65 11.2,-19.03 4.7,-5.18 10.7,-9.62 17.6,-12.75 6.7,-3.01 14.8,-4.67 23.5,-4.67 8.7,0 16.6,1.55 23.6,4.67 6.6,3.24 12.8,7.38 17.7,12.75 4.7,5.57 8.7,11.72 11.4,19.03 2.7,7.5 4,15.16 4,23.55 z m 23,0 c 0,-11.34 -2,-21.84 -5.9,-31.47 -4,-9.48 -9.5,-17.99 -16.5,-25.06 -7.2,-6.89 -15.4,-12.58 -25.1,-16.53 -9.9,-3.94 -20.4,-5.94 -32.2,-5.94 -11.6,0 -22.1,1.98 -31.8,5.94 -9.9,3.97 -18.1,9.47 -25.1,16.53 -7.2,7.25 -12.5,15.42 -16.5,25.06 -4.2,9.79 -5.9,20.13 -5.9,31.47 0,11.34 2,21.83 5.9,31.47 3.7,9.81 9.5,17.98 16.5,25.05 6.9,7.23 15.4,12.58 25.1,16.54 9.5,4.27 20.3,5.94 31.8,5.94 11.7,0 22.5,-1.98 32.2,-5.94 9.5,-3.65 18.1,-9.47 25.1,-16.54 6.8,-6.91 12.5,-15.42 16.5,-25.05 3.9,-9.46 5.9,-20.13 5.9,-31.47" /><path
             id="path62"
             style="fill:#000000;fill-opacity:1;fill-rule:nonzero;stroke:none"
             d="m 12312,8600 c 0.5,-4.04 0.7,-8.03 0.8,-11.95 -0.1,-3.61 0.2,-7.92 0.2,-11.96 h 0.6 c 2.2,4.37 5.4,7.8 9,11.22 3.4,3.66 7.7,6.37 12.1,8.83 4.3,2.74 9.2,4.38 14.2,5.77 4.7,1.42 10,2.09 14.9,2.09 18.9,0 33.3,-5.09 42.5,-15.25 9,-10.07 13.7,-24.65 13.7,-43.47 V 8450 h -21 v 83.25 c 0,16.97 -2.9,29.52 -8.6,38.41 -5.9,9 -16.4,13.34 -32,13.34 -1.2,0 -4.1,-0.43 -9,-1.3 -5,-0.75 -10,-3.21 -15.5,-7.06 -5.7,-3.73 -10.3,-9.64 -14.5,-17.36 -4.4,-7.47 -6.4,-18.42 -6.4,-32.14 V 8450 h -21 v 116.98 c 0,4.07 -0.2,9.2 -0.5,15.4 -0.5,6.4 -0.7,12.07 -1.1,17.62 h 21.6" /><path
             id="path64"
             style="fill:#000000;fill-opacity:1;fill-rule:nonzero;stroke:none"
             d="m 12586,8536 c 0,14.59 -4.3,26.41 -12.8,35.44 -8.6,9.22 -20.4,13.56 -35.8,13.56 -6.9,0 -13.4,-1.37 -19.8,-4.09 -6.6,-2.69 -12,-6.37 -16.8,-10.94 -5,-4.56 -8.6,-9.81 -11.5,-15.69 -3,-5.64 -4.3,-11.97 -4.3,-18.28 z m -101.6,-17 c 0.5,-7.5 2.4,-14.57 5.4,-21.22 2.8,-6.56 7,-12.37 11.9,-17.19 4.7,-4.68 10.7,-8.63 17.1,-11.42 6.2,-2.51 13.4,-4.17 20.9,-4.17 11.2,0 21.2,2.62 29.5,7.86 8.2,5.3 14.5,11.3 18.8,18.14 l 16,-13.41 c -9,-11.13 -18.9,-19.35 -29.7,-24.25 -10.9,-4.67 -22.3,-7.34 -34.7,-7.34 -11.3,0 -21.5,1.98 -31,5.94 -9.7,3.97 -17.6,9.47 -24.5,16.53 -6.9,7.25 -12.2,15.42 -16.2,25.06 -4.2,9.79 -5.9,20.13 -5.9,31.47 0,11.34 1.9,21.83 5.8,31.47 3.5,9.81 9.1,17.98 15.9,25.05 6.6,7.23 14.8,12.58 24,16.54 8.9,4.27 19.1,5.94 29.7,5.94 11.2,0 21.4,-2.04 30.4,-6.12 8.7,-4.04 16.4,-9.5 22.5,-16.25 6,-6.64 10.7,-14.71 13.9,-23.83 3.1,-9.06 4.8,-18.84 4.8,-29.14 V 8519 h -124.6" /><path
             id="path66"
             style="fill:#000000;fill-opacity:1;fill-rule:nonzero;stroke:none"
             d="m 12668,8600 c 0.5,-4.04 0.7,-8.03 0.8,-11.95 -0.1,-3.61 0.2,-7.92 0.2,-11.96 h 0.6 c 2.2,4.37 5.4,7.8 9,11.22 3.4,3.66 7.7,6.37 12.1,8.83 4.3,2.74 9.2,4.38 14.2,5.77 4.7,1.42 10,2.09 14.9,2.09 18.9,0 33.3,-5.09 42.5,-15.25 9,-10.07 13.7,-24.65 13.7,-43.47 V 8450 h -21 v 83.25 c 0,16.97 -2.9,29.52 -8.6,38.41 -5.9,9 -16.4,13.34 -32,13.34 -1.2,0 -4.1,-0.43 -9,-1.3 -5,-0.75 -10,-3.21 -15.5,-7.06 -5.7,-3.73 -10.3,-9.64 -14.5,-17.36 -4.4,-7.47 -6.4,-18.42 -6.4,-32.14 V 8450 h -21 v 116.98 c 0,4.07 -0.2,9.2 -0.5,15.4 -0.5,6.4 -0.7,12.07 -1.1,17.62 h 21.6" /><path
             id="path68"
             style="fill:#000000;fill-opacity:1;fill-rule:nonzero;stroke:none"
             d="m 12903,8581 h -43 v -88.94 c 0,-5.27 0.5,-10.15 1.6,-13.68 0.8,-3.34 2.5,-6.29 4.4,-8.22 1.9,-1.66 4.2,-3.28 6.8,-4.03 2.4,-0.47 5.6,-1.13 8.7,-1.13 3.4,0 7.3,0.53 11.1,1.59 3.6,1.21 7.3,2.46 10.4,4.18 l 1,-19.38 c -7.8,-3.39 -17.2,-5.39 -28.2,-5.39 -4.3,0 -8.2,0.54 -12.5,1.61 -4.5,1.2 -8.3,3.11 -11.9,6.11 -3.8,3.09 -6.6,7.07 -8.9,12.2 -2.5,5.17 -3.5,11.9 -3.5,20.25 V 8581 h -32 v 19 h 32 v 42 h 21 v -42 h 43 v -19" /></g></g><path
         id="path70"
         style="fill:#5e5e5e;fill-opacity:1;fill-rule:nonzero;stroke:none"
         d="m 7011.05,6963.56 h 8089.21 V 8123.13 H 7011.05 Z" /><g
         id="g72"><g
           clip-path="url(#clipPath78)"
           id="g74"><path
             id="path80"
             style="fill:#ffffff;fill-opacity:1;fill-rule:nonzero;stroke:none"
             d="M 9298,7601 9160.89,7536.5 9298,7472 v -19 l -163,76 v 15 l 163,76 v -19" /><path
             id="path82"
             style="fill:#ffffff;fill-opacity:1;fill-rule:nonzero;stroke:none"
             d="m 9377,7566 h 36.92 c 9.88,0 18.83,1.08 25.94,3.23 6.83,2.43 12.79,5.04 17.03,8.6 3.95,3.62 7.33,7.77 9.24,12.62 1.87,5.04 2.87,10.09 2.87,15.71 0,5.68 -0.96,10.53 -2.87,15.39 -1.95,5 -4.99,9.11 -9.24,12.78 -4.54,3.9 -9.92,6.54 -17.03,8.59 -7.39,2.08 -15.75,3.08 -25.94,3.08 H 9377 Z m -23,101 h 65.69 c 22.74,0 41.09,-5.05 54.37,-15.14 13.27,-10.04 19.94,-25.32 19.94,-45.7 0,-20.11 -6.64,-35.68 -19.92,-45.88 -13.31,-9.95 -31.4,-15.28 -54.36,-15.28 H 9377 v -105 h -23 v 227" /><path
             id="path84"
             style="fill:#ffffff;fill-opacity:1;fill-rule:nonzero;stroke:none"
             d="m 9646,7526 c 0,14.59 -4.26,26.41 -12.78,35.44 -8.59,9.22 -20.45,13.56 -35.8,13.56 -6.96,0 -13.43,-1.37 -19.83,-4.09 -6.58,-2.69 -11.98,-6.37 -16.78,-10.94 -5.06,-4.56 -8.62,-9.81 -11.5,-15.69 -2.98,-5.64 -4.31,-11.97 -4.31,-18.28 z m -101.64,-17 c 0.52,-7.5 2.47,-14.57 5.47,-21.22 2.73,-6.56 6.97,-12.37 11.9,-17.19 4.7,-4.68 10.63,-8.63 17.07,-11.42 6.17,-2.51 13.41,-4.17 20.92,-4.17 11.13,0 21.19,2.62 29.45,7.86 8.21,5.3 14.54,11.3 18.83,18.14 l 16,-13.41 c -8.98,-11.13 -18.87,-19.35 -29.66,-24.25 -10.9,-4.67 -22.38,-7.34 -34.76,-7.34 -11.31,0 -21.43,1.98 -30.94,5.94 -9.73,3.97 -17.69,9.47 -24.53,16.53 -6.87,7.25 -12.23,15.42 -16.19,25.06 -4.26,9.79 -5.92,20.13 -5.92,31.47 0,11.34 1.91,21.83 5.75,31.47 3.58,9.81 9.16,17.98 15.97,25.05 6.58,7.23 14.81,12.58 23.97,16.54 8.94,4.27 19.08,5.94 29.73,5.94 11.15,0 21.41,-2.04 30.36,-6.12 8.69,-4.04 16.45,-9.5 22.52,-16.25 5.97,-6.64 10.7,-14.71 13.9,-23.83 3.13,-9.06 4.8,-18.84 4.8,-29.14 V 7509 h -124.64" /><path
             id="path86"
             style="fill:#ffffff;fill-opacity:1;fill-rule:nonzero;stroke:none"
             d="m 9710,7543.2 c 0,6.89 -0.16,13.35 -0.48,20.19 -0.5,7.05 -0.59,15.71 -0.8,26.61 h 20.69 v -27.77 h 0.64 c 1.48,4.32 3.64,7.97 6.42,11.71 2.63,3.77 6.16,7.11 10.12,10.11 3.77,3.31 8.58,5.4 13.83,7.22 5.11,2.06 11.19,2.73 17.83,2.73 5.91,0 11.25,-0.64 15.75,-1.91 l -4.17,-20.7 c -3.07,1.27 -6.87,1.61 -12.22,1.61 -8.35,0 -15.12,-1.55 -20.91,-4.66 -6.01,-2.88 -10.6,-7.07 -14.45,-11.89 -3.94,-4.63 -6.7,-10 -8.52,-15.57 -2.07,-5.54 -2.73,-10.93 -2.73,-16.07 V 7440 h -21 v 103.2" /><path
             id="path88"
             style="fill:#ffffff;fill-opacity:1;fill-rule:nonzero;stroke:none"
             d="m 9893.17,7555 c -3.24,6.13 -7.44,11 -12.76,14.59 -5.45,3.74 -11.8,5.41 -19.46,5.41 -3.93,0 -7.29,-0.44 -11.01,-1.31 -4.03,-0.76 -7.07,-2.23 -10.05,-4.08 -3.28,-1.72 -5.37,-4.18 -7.19,-7.02 -2.04,-2.68 -2.7,-6.3 -2.7,-10.43 0,-6.91 2.44,-12.42 7.33,-15.68 4.77,-3.09 12.21,-6.09 21.98,-8.48 l 21.36,-5.11 c 10.18,-2.31 19.06,-7.09 25.97,-14.22 6.69,-7.03 10.36,-16.03 10.36,-26.67 0,-8.09 -1.64,-15.07 -4.92,-20.92 -3.31,-5.55 -7.63,-10.65 -13.03,-14.38 -5.42,-3.63 -11.59,-6.44 -18.58,-8.14 -7.15,-1.56 -14.09,-2.56 -21.28,-2.56 -11.5,0 -22.09,2.21 -31.94,6.63 -9.93,4.53 -18.26,12 -25.25,22.78 l 18.08,12.59 c 4.2,-7.01 9.56,-12.6 16.01,-16.77 6.43,-3.9 14.13,-6.23 23.02,-6.23 4.19,0 8.46,0.48 12.69,1.44 3.96,1.15 7.97,2.47 11.25,4.5 3.26,2.06 5.92,4.66 7.93,7.87 1.68,3.28 3.02,6.98 3.02,11.27 0,7.8 -2.77,12.9 -8.3,16.22 -5.75,3.55 -12.21,5.94 -20.06,7.87 l -20.41,4.83 c -2.62,0.64 -5.99,1.72 -10.34,3.22 -4.65,1.76 -8.6,3.75 -12.75,6.75 -4.19,3.02 -7.71,6.93 -10.69,11.76 -3.12,4.93 -4.45,10.79 -4.45,17.88 0,7.85 1.54,14.47 4.63,20.27 2.87,5.84 7.22,10.52 12.43,14.17 5.2,3.97 11.13,6.39 17.72,8.22 6.35,2.06 13.42,2.73 20.44,2.73 10.34,0 20.09,-2.01 29.03,-6.03 8.85,-4 15.85,-10.88 20.75,-20.61 L 9893.17,7555" /><path
             id="path90"
             style="fill:#ffffff;fill-opacity:1;fill-rule:nonzero;stroke:none"
             d="m 10078,7515 c 0,8.38 -1.3,16.23 -4,23.55 -2.7,7.46 -6.5,13.65 -11.4,19.03 -5.1,5.51 -10.8,9.62 -17.7,12.73 -7.3,3.35 -14.8,4.69 -23.6,4.69 -8.8,0 -16.5,-1.56 -23.49,-4.69 -7.21,-2.88 -12.81,-7.36 -17.61,-12.73 -4.87,-5.24 -8.54,-11.72 -11.2,-19.03 -2.67,-7.17 -4,-15.17 -4,-23.55 0,-8.39 1.33,-16.23 4,-23.55 2.66,-7.13 6.4,-13.65 11.2,-19.03 4.74,-5.18 10.68,-9.62 17.61,-12.75 6.69,-3.01 14.79,-4.67 23.49,-4.67 8.7,0 16.6,1.55 23.6,4.67 6.6,3.24 12.8,7.38 17.7,12.75 4.7,5.57 8.7,11.72 11.4,19.03 2.7,7.5 4,15.16 4,23.55 z m 23,0 c 0,-11.34 -2,-21.84 -5.9,-31.47 -4,-9.48 -9.5,-17.99 -16.5,-25.06 -7.2,-6.89 -15.4,-12.58 -25.1,-16.53 -9.9,-3.94 -20.4,-5.94 -32.2,-5.94 -11.6,0 -22.09,1.98 -31.8,5.94 -9.87,3.97 -18.07,9.47 -25.11,16.53 -7.16,7.25 -12.52,15.42 -16.47,25.06 -4.26,9.79 -5.92,20.13 -5.92,31.47 0,11.34 1.97,21.83 5.92,31.47 3.64,9.81 9.44,17.98 16.47,25.05 6.91,7.23 15.41,12.58 25.11,16.54 9.54,4.27 20.3,5.94 31.8,5.94 11.7,0 22.5,-1.98 32.2,-5.94 9.5,-3.65 18.1,-9.47 25.1,-16.54 6.8,-6.91 12.5,-15.42 16.5,-25.05 3.9,-9.46 5.9,-20.13 5.9,-31.47" /><path
             id="path92"
             style="fill:#ffffff;fill-opacity:1;fill-rule:nonzero;stroke:none"
             d="m 10160,7590 c 0.5,-4.04 0.7,-8.03 0.8,-11.95 -0.1,-3.61 0.2,-7.92 0.2,-11.96 h 0.6 c 2.2,4.37 5.4,7.8 9,11.22 3.4,3.66 7.7,6.37 12.1,8.83 4.3,2.74 9.2,4.38 14.2,5.77 4.7,1.42 10,2.09 14.9,2.09 18.9,0 33.3,-5.09 42.5,-15.25 9,-10.07 13.7,-24.65 13.7,-43.47 V 7440 h -21 v 83.25 c 0,16.97 -2.9,29.52 -8.6,38.41 -5.9,9 -16.4,13.34 -32,13.34 -1.2,0 -4.1,-0.43 -9,-1.3 -5,-0.75 -10,-3.21 -15.5,-7.06 -5.7,-3.73 -10.3,-9.64 -14.5,-17.36 -4.4,-7.47 -6.4,-18.42 -6.4,-32.14 V 7440 h -21 v 116.98 c 0,4.07 -0.2,9.2 -0.5,15.4 -0.5,6.4 -0.7,12.07 -1.1,17.62 h 21.6" /><path
             id="path94"
             style="fill:#ff9300;fill-opacity:1;fill-rule:nonzero;stroke:none"
             d="m 10427,7590 c 0.5,-4.04 0.7,-8.03 0.8,-11.95 -0.1,-3.61 0.2,-7.92 0.2,-11.96 h 0.6 c 2.2,4.37 5.4,7.8 9,11.22 3.4,3.66 7.7,6.37 12.1,8.83 4.3,2.74 9.2,4.38 14.2,5.77 4.7,1.42 10,2.09 14.9,2.09 18.9,0 33.3,-5.09 42.5,-15.25 9,-10.07 13.7,-24.65 13.7,-43.47 V 7440 h -21 v 83.25 c 0,16.97 -2.9,29.52 -8.6,38.41 -5.9,9 -16.4,13.34 -32,13.34 -1.2,0 -4.1,-0.43 -9,-1.3 -5,-0.75 -10,-3.21 -15.5,-7.06 -5.7,-3.73 -10.3,-9.64 -14.5,-17.36 -4.4,-7.47 -6.4,-18.42 -6.4,-32.14 V 7440 h -21 v 116.98 c 0,4.07 -0.2,9.2 -0.5,15.4 -0.5,6.4 -0.7,12.07 -1.1,17.62 h 21.6" /><path
             id="path96"
             style="fill:#ff9300;fill-opacity:1;fill-rule:nonzero;stroke:none"
             d="m 10670.1,7515 c -5.4,0 -12.1,-0.27 -20.1,-0.81 -8.4,-0.28 -15.8,-1.84 -23.2,-3.89 -7.6,-1.82 -13.7,-5.25 -18.9,-9.57 -5.6,-4.23 -7.9,-10.27 -7.9,-17.84 0,-4.93 1,-9.24 3,-12.81 2.1,-3.26 4.8,-6.48 8.3,-8.75 3.3,-2.05 7.2,-3.9 11.4,-4.88 3.9,-0.79 8.4,-1.45 12.7,-1.45 7.5,0 14.4,1.3 20,3.89 5.6,2.63 10.5,6.1 14.4,10.53 3.6,4.63 6.6,9.63 8.5,15.58 1.7,5.95 2.7,12.27 2.7,18.97 V 7515 Z m 10.9,17 v 3.88 c 0,26.12 -12.8,39.12 -38.4,39.12 -17.7,0 -32.8,-6 -45.8,-18 l -12.8,15.13 c 14.1,14.87 35.2,21.87 63.3,21.87 7.2,0 14.2,-1.07 21,-3.22 6.6,-2.06 12.5,-5.4 17.4,-9.78 4.7,-4.39 8.8,-9.9 11.8,-16.53 2.8,-6.45 4.5,-14.54 4.5,-23.74 v -67.04 c 0,-5.67 0.3,-11.81 0.8,-18.13 0.3,-6.17 1.1,-11.5 1.8,-15.56 h -20.4 c -0.7,3.61 -1.1,7.55 -1.4,11.8 -0.6,4.33 -0.5,8.41 -0.5,12.45 h -0.7 c -6.4,-9.81 -13.5,-17.29 -22,-21.67 -8.6,-4.24 -18.7,-6.58 -30.9,-6.58 -6.9,0 -13.1,0.91 -19.3,2.73 -6.3,1.9 -11.7,4.6 -16.5,8.35 -5.1,4.05 -8.7,8.35 -11.6,13.8 -3,5.5 -4.3,11.82 -4.3,19.1 0,12.21 3.2,21.78 9.5,28.74 6.1,7.05 14.2,12.15 23.7,15.58 9.5,3.66 19.7,5.56 30.5,6.42 10.6,0.94 20.7,1.28 29.7,1.28 h 10.6" /><path
             id="path98"
             style="fill:#ff9300;fill-opacity:1;fill-rule:nonzero;stroke:none"
             d="m 10751,7556.67 c 0,5.66 -0.2,11.1 -0.5,16.66 -0.5,5.78 -0.7,11.12 -1.1,16.67 h 22.6 v -22.62 h 0.6 c 4.9,8.97 12.2,15.39 21.3,19.89 8.7,4.73 18,6.73 27,6.73 3.7,0 8.4,-0.43 12.9,-1.28 4.3,-0.76 9,-2.41 13.3,-4.66 4.2,-1.93 8.3,-5.4 12,-9.47 3.7,-3.93 6.9,-9.3 9.4,-15.71 4.1,9.66 11,17.21 20.3,22.78 9,5.67 18.9,8.34 28.9,8.34 19,0 33.4,-5.09 42.6,-15.25 9,-10.07 13.7,-24.65 13.7,-43.47 V 7440 h -21 v 87.75 c 0,15.3 -2.7,26.89 -8,35.03 -5.3,8.22 -15.3,12.22 -29.8,12.22 -7.9,0 -14.5,-1.56 -19.8,-4.67 -5.5,-2.88 -9.6,-7.23 -13,-12.38 -3.4,-5.12 -5.7,-10.97 -7.2,-17.51 -1.5,-6.35 -2.2,-13.34 -2.2,-20.41 V 7440 h -21 v 87.75 c 0,15.3 -2.7,26.89 -8,35.03 -5.3,8.22 -15.3,12.22 -29.8,12.22 -1.3,0 -4.2,-0.43 -8.8,-1.3 -4.7,-0.75 -9.3,-3.21 -14.2,-7.06 -5,-3.73 -9.3,-9.64 -13.3,-17.36 -4.2,-7.47 -5.9,-18.42 -5.9,-32.14 V 7440 h -21 v 116.67" /><path
             id="path100"
             style="fill:#ff9300;fill-opacity:1;fill-rule:nonzero;stroke:none"
             d="m 11140,7526 c 0,14.59 -4.3,26.41 -12.8,35.44 -8.6,9.22 -20.4,13.56 -35.8,13.56 -6.9,0 -13.4,-1.37 -19.8,-4.09 -6.6,-2.69 -12,-6.37 -16.8,-10.94 -5,-4.56 -8.6,-9.81 -11.5,-15.69 -3,-5.64 -4.3,-11.97 -4.3,-18.28 z m -101.6,-17 c 0.5,-7.5 2.4,-14.57 5.4,-21.22 2.8,-6.56 7,-12.37 11.9,-17.19 4.7,-4.68 10.7,-8.63 17.1,-11.42 6.2,-2.51 13.4,-4.17 20.9,-4.17 11.2,0 21.2,2.62 29.5,7.86 8.2,5.3 14.5,11.3 18.8,18.14 l 16,-13.41 c -9,-11.13 -18.9,-19.35 -29.7,-24.25 -10.9,-4.67 -22.3,-7.34 -34.7,-7.34 -11.3,0 -21.5,1.98 -31,5.94 -9.7,3.97 -17.6,9.47 -24.5,16.53 -6.9,7.25 -12.2,15.42 -16.2,25.06 -4.2,9.79 -5.9,20.13 -5.9,31.47 0,11.34 1.9,21.83 5.8,31.47 3.5,9.81 9.1,17.98 15.9,25.05 6.6,7.23 14.8,12.58 24,16.54 8.9,4.27 19.1,5.94 29.7,5.94 11.2,0 21.4,-2.04 30.4,-6.12 8.7,-4.04 16.4,-9.5 22.5,-16.25 6,-6.64 10.7,-14.71 13.9,-23.83 3.1,-9.06 4.8,-18.84 4.8,-29.14 V 7509 h -124.6" /><path
             id="path102"
             style="fill:#ffffff;fill-opacity:1;fill-rule:nonzero;stroke:none"
             d="m 11366,7523 v -19 h -163 v 19 z m 0,48 v -19 h -163 v 19 h 163" /><path
             id="path104"
             style="fill:#ef5fa7;fill-opacity:1;fill-rule:nonzero;stroke:none"
             d="m 11488,7667 h 19 v -75 h -19 z m -46,0 h 19 v -75 h -19 v 75" /><path
             id="path106"
             style="fill:#ef5fa7;fill-opacity:1;fill-rule:nonzero;stroke:none"
             d="m 11612,7566 h 36.9 c 9.9,0 18.9,1.08 26,3.23 6.8,2.43 12.7,5.04 17,8.6 3.9,3.62 7.3,7.77 9.2,12.62 1.9,5.04 2.9,10.09 2.9,15.71 0,5.68 -1,10.53 -2.9,15.39 -1.9,5 -5,9.11 -9.2,12.78 -4.5,3.9 -9.9,6.54 -17,8.59 -7.4,2.08 -15.8,3.08 -26,3.08 h -36.9 z m -23,101 h 65.7 c 22.7,0 41.1,-5.05 54.4,-15.14 13.2,-10.04 19.9,-25.32 19.9,-45.7 0,-20.11 -6.6,-35.68 -19.9,-45.88 -13.3,-9.95 -31.4,-15.28 -54.4,-15.28 h -42.7 v -105 h -23 v 227" /><path
             id="path108"
             style="fill:#ef5fa7;fill-opacity:1;fill-rule:nonzero;stroke:none"
             d="m 11849.1,7515 c -5.4,0 -12.1,-0.27 -20.1,-0.81 -8.4,-0.28 -15.8,-1.84 -23.2,-3.89 -7.6,-1.82 -13.7,-5.25 -18.9,-9.57 -5.6,-4.23 -7.9,-10.27 -7.9,-17.84 0,-4.93 1,-9.24 3,-12.81 2.1,-3.26 4.8,-6.48 8.3,-8.75 3.3,-2.05 7.2,-3.9 11.4,-4.88 3.9,-0.79 8.4,-1.45 12.7,-1.45 7.5,0 14.4,1.3 20,3.89 5.6,2.63 10.5,6.1 14.4,10.53 3.6,4.63 6.6,9.63 8.5,15.58 1.7,5.95 2.7,12.27 2.7,18.97 V 7515 Z m 10.9,17 v 3.88 c 0,26.12 -12.8,39.12 -38.4,39.12 -17.7,0 -32.8,-6 -45.8,-18 l -12.8,15.13 c 14.1,14.87 35.2,21.87 63.3,21.87 7.2,0 14.2,-1.07 21,-3.22 6.6,-2.06 12.5,-5.4 17.4,-9.78 4.7,-4.39 8.8,-9.9 11.8,-16.53 2.8,-6.45 4.5,-14.54 4.5,-23.74 v -67.04 c 0,-5.67 0.3,-11.81 0.8,-18.13 0.3,-6.17 1.1,-11.5 1.8,-15.56 h -20.4 c -0.7,3.61 -1.1,7.55 -1.4,11.8 -0.6,4.33 -0.5,8.41 -0.5,12.45 h -0.7 c -6.4,-9.81 -13.5,-17.29 -22,-21.67 -8.6,-4.24 -18.7,-6.58 -30.9,-6.58 -6.9,0 -13.1,0.91 -19.3,2.73 -6.3,1.9 -11.7,4.6 -16.5,8.35 -5.1,4.05 -8.7,8.35 -11.6,13.8 -3,5.5 -4.3,11.82 -4.3,19.1 0,12.21 3.2,21.78 9.5,28.74 6.1,7.05 14.2,12.15 23.7,15.58 9.5,3.66 19.7,5.56 30.5,6.42 10.6,0.94 20.7,1.28 29.7,1.28 h 10.6" /><path
             id="path110"
             style="fill:#ef5fa7;fill-opacity:1;fill-rule:nonzero;stroke:none"
             d="m 12007,7571 h -43 v -88.94 c 0,-5.27 0.5,-10.15 1.6,-13.68 0.8,-3.34 2.5,-6.29 4.4,-8.22 1.9,-1.66 4.2,-3.28 6.8,-4.03 2.4,-0.47 5.6,-1.13 8.7,-1.13 3.4,0 7.3,0.53 11.1,1.59 3.6,1.21 7.3,2.46 10.4,4.18 l 1,-19.38 c -7.8,-3.39 -17.2,-5.39 -28.2,-5.39 -4.3,0 -8.2,0.54 -12.5,1.61 -4.5,1.2 -8.3,3.11 -11.9,6.11 -3.8,3.09 -6.6,7.07 -8.9,12.2 -2.5,5.17 -3.5,11.9 -3.5,20.25 V 7571 h -32 v 19 h 32 v 42 h 21 v -42 h 43 v -19" /><path
             id="path112"
             style="fill:#ef5fa7;fill-opacity:1;fill-rule:nonzero;stroke:none"
             d="m 12039,7543.2 c 0,6.89 -0.2,13.35 -0.5,20.19 -0.5,7.05 -0.6,15.71 -0.8,26.61 h 20.7 v -27.77 h 0.6 c 1.5,4.32 3.7,7.97 6.5,11.71 2.6,3.77 6.1,7.11 10.1,10.11 3.8,3.31 8.6,5.4 13.8,7.22 5.1,2.06 11.2,2.73 17.9,2.73 5.9,0 11.2,-0.64 15.7,-1.91 l -4.2,-20.7 c -3,1.27 -6.8,1.61 -12.2,1.61 -8.3,0 -15.1,-1.55 -20.9,-4.66 -6,-2.88 -10.6,-7.07 -14.4,-11.89 -4,-4.63 -6.7,-10 -8.6,-15.57 -2,-5.54 -2.7,-10.93 -2.7,-16.07 V 7440 h -21 v 103.2" /><path
             id="path114"
             style="fill:#ef5fa7;fill-opacity:1;fill-rule:nonzero;stroke:none"
             d="m 12174,7647.5 c 0,-4.36 -1.6,-8.23 -4.8,-11.14 -3.3,-2.7 -6.8,-4.36 -10.7,-4.36 -4,0 -7.4,1.45 -10.7,4.36 -3.5,3.12 -4.8,6.62 -4.8,11.14 0,4.69 1.6,8.23 4.8,11.14 3,3.02 6.8,4.36 10.7,4.36 3.7,0 7.4,-1.45 10.7,-4.36 3.1,-2.79 4.8,-6.62 4.8,-11.14 z m -5,-207.5 h -21 v 150 h 21 v -150" /><path
             id="path116"
             style="fill:#ef5fa7;fill-opacity:1;fill-rule:nonzero;stroke:none"
             d="m 12328.7,7555 c -3.8,5.59 -8.7,10.32 -15.2,14.19 -6.6,4.14 -13.9,5.81 -22.2,5.81 -8.8,0.21 -16.6,-1.2 -23.5,-4.2 -7.2,-2.94 -12.9,-7.2 -17.8,-12.58 -4.9,-5.12 -8.6,-11.77 -11.2,-19.19 -2.8,-7.09 -3.8,-15.43 -3.8,-24.03 0,-8.61 1.3,-16.62 3.8,-24.03 2.3,-7.41 6.3,-13.82 11.2,-19.2 4.9,-5.3 10.9,-9.57 17.8,-12.58 6.7,-2.73 14.8,-4.4 23.5,-4.19 8.2,0 15.7,1.93 22.2,5.8 6.4,3.94 11.6,8.61 15.2,14.2 l 17.3,-13.11 c -7.5,-8.7 -15.9,-15.19 -25.3,-19.34 -9.6,-4.01 -19.2,-6.34 -29.4,-6.55 -12.2,-0.21 -23.1,1.67 -32.9,5.63 -10,4.08 -18.2,9.46 -25.1,16.53 -7,7.34 -12.2,15.46 -15.9,25.2 -3.7,9.96 -5.4,20.3 -5.4,31.64 0,11.34 1.8,21.88 5.4,31.63 3.5,9.87 8.9,18.15 15.9,25.21 6.8,7.12 15.3,12.57 25.1,16.54 9.7,4.17 20.8,5.84 32.9,5.62 10.1,-0.21 20,-2.39 29.4,-6.55 9.2,-3.97 17.8,-10.6 25.3,-19.34 l -17.3,-13.11" /><path
             id="path118"
             style="fill:#ef5fa7;fill-opacity:1;fill-rule:nonzero;stroke:none"
             d="m 12395,7522.38 71,67.62 h 32 l -75,-68.59 83,-81.41 h -33 l -78,78.84 V 7440 h -21 v 242 h 21 v -159.62" /><path
             id="path120"
             style="fill:#ef5fa7;fill-opacity:1;fill-rule:nonzero;stroke:none"
             d="m 12601,7667 h 19 v -75 h -19 z m -46,0 h 19 v -75 h -19 v 75" /><path
             id="path122"
             style="fill:#ffffff;fill-opacity:1;fill-rule:nonzero;stroke:none"
             d="m 12692,7434 -19,6.08 97,231.92 18,-6.39 -96,-231.61" /><path
             id="path124"
             style="fill:#ffffff;fill-opacity:1;fill-rule:nonzero;stroke:none"
             d="m 12815,7620 163,-76 v -15 l -163,-76 v 19 l 137.1,64.5 -137.1,64.5 v 19" /></g></g><path
         id="path126"
         style="fill:#d5d5d5;fill-opacity:1;fill-rule:nonzero;stroke:none"
         d="m 6768.62,2017.3 h 8574.07 V 4496.01 H 6768.62 Z" /><path
         id="path128"
         style="fill:none;stroke:#000000;stroke-width:10;stroke-linecap:butt;stroke-linejoin:miter;stroke-miterlimit:4;stroke-dasharray:none;stroke-opacity:1"
         d="m 6768.62,2017.3 h 8574.07 V 4496.01 H 6768.62 Z" /><g
         id="g130"><g
           clip-path="url(#clipPath136)"
           id="g132"><path
             id="path138"
             style="fill:#000000;fill-opacity:1;fill-rule:nonzero;stroke:none"
             d="M 9648,4321 9510.89,4256.5 9648,4192 v -19 l -163,76 v 15 l 163,76 v -19" /><path
             id="path140"
             style="fill:#000000;fill-opacity:1;fill-rule:nonzero;stroke:none"
             d="m 9727,4286 h 36.92 c 9.88,0 18.83,1.08 25.94,3.23 6.83,2.43 12.79,5.04 17.03,8.6 3.95,3.62 7.33,7.77 9.24,12.62 1.87,5.04 2.87,10.09 2.87,15.71 0,5.68 -0.96,10.53 -2.87,15.39 -1.95,5 -4.99,9.11 -9.24,12.78 -4.54,3.9 -9.92,6.54 -17.03,8.59 -7.39,2.08 -15.75,3.08 -25.94,3.08 H 9727 Z m -23,101 h 65.69 c 22.74,0 41.09,-5.05 54.37,-15.14 13.27,-10.04 19.94,-25.32 19.94,-45.7 0,-20.11 -6.64,-35.68 -19.92,-45.88 -13.31,-9.95 -31.4,-15.28 -54.36,-15.28 H 9727 v -105 h -23 v 227" /><path
             id="path142"
             style="fill:#000000;fill-opacity:1;fill-rule:nonzero;stroke:none"
             d="m 9996,4246 c 0,14.59 -4.26,26.41 -12.78,35.44 -8.59,9.22 -20.45,13.56 -35.8,13.56 -6.96,0 -13.43,-1.37 -19.83,-4.09 -6.58,-2.69 -11.98,-6.37 -16.78,-10.94 -5.06,-4.56 -8.62,-9.81 -11.5,-15.69 -2.98,-5.64 -4.31,-11.97 -4.31,-18.28 z m -101.64,-17 c 0.52,-7.5 2.47,-14.57 5.47,-21.22 2.73,-6.56 6.97,-12.37 11.9,-17.19 4.7,-4.68 10.63,-8.63 17.07,-11.42 6.17,-2.51 13.41,-4.17 20.92,-4.17 11.13,0 21.19,2.62 29.45,7.86 8.21,5.3 14.54,11.3 18.83,18.14 l 16,-13.41 c -9,-11.13 -18.87,-19.35 -29.66,-24.25 -10.9,-4.67 -22.38,-7.34 -34.76,-7.34 -11.31,0 -21.43,1.98 -30.94,5.94 -9.73,3.97 -17.69,9.47 -24.53,16.53 -6.87,7.25 -12.23,15.42 -16.19,25.06 -4.26,9.79 -5.92,20.13 -5.92,31.47 0,11.34 1.91,21.83 5.75,31.47 3.58,9.81 9.16,17.98 15.97,25.05 6.58,7.23 14.81,12.58 23.97,16.54 8.94,4.27 19.08,5.94 29.73,5.94 11.15,0 21.41,-2.04 30.36,-6.12 8.69,-4.04 16.45,-9.5 22.52,-16.25 6,-6.64 10.7,-14.71 13.9,-23.83 3.1,-9.06 4.8,-18.84 4.8,-29.14 V 4229 h -124.64" /><path
             id="path144"
             style="fill:#000000;fill-opacity:1;fill-rule:nonzero;stroke:none"
             d="m 10060,4263.2 c 0,6.89 -0.2,13.35 -0.5,20.19 -0.5,7.05 -0.6,15.71 -0.8,26.61 h 20.7 v -27.77 h 0.6 c 1.5,4.32 3.7,7.97 6.5,11.71 2.6,3.77 6.1,7.11 10.1,10.11 3.8,3.31 8.6,5.4 13.8,7.22 5.1,2.06 11.2,2.73 17.9,2.73 5.9,0 11.2,-0.64 15.7,-1.91 l -4.2,-20.7 c -3,1.27 -6.8,1.61 -12.2,1.61 -8.3,0 -15.1,-1.55 -20.9,-4.66 -6,-2.88 -10.6,-7.07 -14.4,-11.89 -4,-4.63 -6.7,-10 -8.6,-15.57 -2,-5.54 -2.7,-10.93 -2.7,-16.07 V 4160 h -21 v 103.2" /><path
             id="path146"
             style="fill:#000000;fill-opacity:1;fill-rule:nonzero;stroke:none"
             d="m 10243.2,4275 c -3.3,6.13 -7.5,11 -12.8,14.59 -5.4,3.74 -11.8,5.41 -19.4,5.41 -4,0 -7.3,-0.44 -11.1,-1.31 -4,-0.76 -7,-2.23 -10,-4.08 -3.3,-1.72 -5.4,-4.18 -7.2,-7.02 -2,-2.68 -2.7,-6.3 -2.7,-10.43 0,-6.91 2.4,-12.42 7.3,-15.68 4.8,-3.09 12.2,-6.09 22,-8.48 l 21.4,-5.11 c 10.2,-2.31 19,-7.09 25.9,-14.22 6.7,-7.03 10.4,-16.03 10.4,-26.67 0,-8.09 -1.6,-15.07 -4.9,-20.92 -3.3,-5.55 -7.6,-10.65 -13.1,-14.38 -5.4,-3.63 -11.5,-6.44 -18.5,-8.14 -7.2,-1.56 -14.1,-2.56 -21.3,-2.56 -11.5,0 -22.1,2.21 -31.9,6.63 -10,4.53 -18.3,12 -25.3,22.78 l 18.1,12.59 c 4.2,-7.01 9.5,-12.6 16,-16.77 6.4,-3.9 14.1,-6.23 23,-6.23 4.2,0 8.5,0.48 12.7,1.44 4,1.15 8,2.47 11.2,4.5 3.3,2.06 6,4.66 8,7.87 1.7,3.28 3,6.98 3,11.27 0,7.8 -2.8,12.9 -8.3,16.22 -5.8,3.55 -12.2,5.94 -20.1,7.87 l -20.4,4.83 c -2.6,0.64 -6,1.72 -10.3,3.22 -4.7,1.76 -8.6,3.75 -12.8,6.75 -4.2,3.02 -7.7,6.93 -10.6,11.76 -3.2,4.93 -4.5,10.79 -4.5,17.88 0,7.85 1.5,14.47 4.6,20.27 2.9,5.84 7.3,10.52 12.5,14.17 5.2,3.97 11.1,6.39 17.7,8.22 6.3,2.06 13.4,2.73 20.4,2.73 10.4,0 20.1,-2.01 29.1,-6.03 8.8,-4 15.8,-10.88 20.7,-20.61 l -18.8,-12.36" /><path
             id="path148"
             style="fill:#000000;fill-opacity:1;fill-rule:nonzero;stroke:none"
             d="m 10428,4235 c 0,8.38 -1.3,16.23 -4,23.55 -2.7,7.46 -6.5,13.65 -11.4,19.03 -5.1,5.51 -10.8,9.62 -17.7,12.73 -7.3,3.35 -14.8,4.69 -23.6,4.69 -8.8,0 -16.5,-1.56 -23.5,-4.69 -7.2,-2.88 -12.8,-7.36 -17.6,-12.73 -4.9,-5.24 -8.5,-11.72 -11.2,-19.03 -2.7,-7.17 -4,-15.17 -4,-23.55 0,-8.39 1.3,-16.23 4,-23.55 2.7,-7.13 6.4,-13.65 11.2,-19.03 4.7,-5.18 10.7,-9.62 17.6,-12.75 6.7,-3.01 14.8,-4.67 23.5,-4.67 8.7,0 16.6,1.55 23.6,4.67 6.6,3.24 12.8,7.38 17.7,12.75 4.7,5.57 8.7,11.72 11.4,19.03 2.7,7.5 4,15.16 4,23.55 z m 23,0 c 0,-11.34 -2,-21.84 -5.9,-31.47 -4,-9.48 -9.5,-17.99 -16.5,-25.06 -7.2,-6.89 -15.4,-12.58 -25.1,-16.53 -9.9,-3.94 -20.4,-5.94 -32.2,-5.94 -11.6,0 -22.1,1.98 -31.8,5.94 -9.9,3.97 -18.1,9.47 -25.1,16.53 -7.2,7.25 -12.5,15.42 -16.5,25.06 -4.2,9.79 -5.9,20.13 -5.9,31.47 0,11.34 2,21.83 5.9,31.47 3.7,9.81 9.5,17.98 16.5,25.05 6.9,7.23 15.4,12.58 25.1,16.54 9.5,4.27 20.3,5.94 31.8,5.94 11.7,0 22.5,-1.98 32.2,-5.94 9.5,-3.65 18.1,-9.47 25.1,-16.54 6.8,-6.91 12.5,-15.42 16.5,-25.05 3.9,-9.46 5.9,-20.13 5.9,-31.47" /><path
             id="path150"
             style="fill:#000000;fill-opacity:1;fill-rule:nonzero;stroke:none"
             d="m 10510,4310 c 0.5,-4.04 0.7,-8.03 0.8,-11.95 -0.1,-3.61 0.2,-7.92 0.2,-11.96 h 0.6 c 2.2,4.37 5.4,7.8 9,11.22 3.4,3.66 7.7,6.37 12.1,8.83 4.3,2.74 9.2,4.38 14.2,5.77 4.7,1.42 10,2.09 14.9,2.09 18.9,0 33.3,-5.09 42.5,-15.25 9,-10.07 13.7,-24.65 13.7,-43.47 V 4160 h -21 v 83.25 c 0,16.97 -2.9,29.52 -8.6,38.41 -5.9,9 -16.4,13.34 -32,13.34 -1.2,0 -4.1,-0.43 -9,-1.3 -5,-0.75 -10,-3.21 -15.5,-7.06 -5.7,-3.73 -10.3,-9.64 -14.5,-17.36 -4.4,-7.47 -6.4,-18.42 -6.4,-32.14 V 4160 h -21 v 116.98 c 0,4.07 -0.2,9.2 -0.5,15.4 -0.5,6.4 -0.7,12.07 -1.1,17.62 h 21.6" /><path
             id="path152"
             style="fill:#000000;fill-opacity:1;fill-rule:nonzero;stroke:none"
             d="m 10670,4340 163,-76 v -15 l -163,-76 v 19 l 137.1,64.5 -137.1,64.5 v 19" /><path
             id="path154"
             style="fill:#000000;fill-opacity:1;fill-rule:nonzero;stroke:none"
             d="m 11164,4195.56 c -3.8,-5.6 -8.5,-11.18 -14.2,-16.29 -5.9,-4.88 -12,-9.55 -19.3,-13.29 -7.4,-3.72 -15,-6.65 -23.4,-8.78 -8.4,-1.86 -17.2,-3.2 -26.6,-3.2 -16.9,0 -32.3,2.98 -46.6,8.95 -14.6,5.99 -26.8,14.23 -37.3,24.78 -10.7,10.65 -18.7,23.1 -24.7,37.6 -6.2,14.73 -8.9,30.4 -8.9,47.67 0,17.27 3,33.16 8.9,47.66 5.7,14.62 14.2,27.04 24.8,37.59 10.3,10.81 23,18.83 37.3,24.8 14.4,6.28 30,8.95 46.8,8.95 13.8,0 28.1,-2.78 42.1,-8.34 13.8,-5.44 26.1,-14.75 36.1,-27.58 l -20.1,-15.08 c -2.6,3.66 -5.5,7.31 -9.6,10.97 -4.1,3.66 -8.6,6.88 -13.8,9.67 -5.4,2.92 -10.8,5.06 -16.8,6.78 -6.2,1.91 -11.9,2.58 -17.9,2.58 -14.7,0 -27.4,-2.67 -38.9,-8.02 -11.8,-5.32 -21.2,-12.48 -29.2,-21.45 -8.2,-8.81 -14.1,-19.38 -18.3,-31.23 -4.4,-11.61 -6.4,-24.28 -6.4,-37.3 0,-13.02 2.1,-25.46 6.4,-37.31 4.1,-11.74 10.3,-22.25 18.3,-31.22 7.7,-8.79 17.6,-16.13 29.1,-21.47 11.2,-5.34 24.4,-8 38.8,-8 5.8,0 11.8,0.53 17.7,1.59 5.7,1.21 11.5,2.89 17.2,5.46 5.4,2.89 10.9,6.05 15.9,10.43 4.8,4.56 9.6,9.9 13.8,16.52 l 18.8,-13.44" /><path
             id="path156"
             style="fill:#000000;fill-opacity:1;fill-rule:nonzero;stroke:none"
             d="m 11323,4235 c 0,8.38 -1.3,16.23 -4,23.55 -2.7,7.46 -6.5,13.65 -11.4,19.03 -5.1,5.51 -10.8,9.62 -17.7,12.73 -7.3,3.35 -14.8,4.69 -23.6,4.69 -8.8,0 -16.5,-1.56 -23.5,-4.69 -7.2,-2.88 -12.8,-7.36 -17.6,-12.73 -4.9,-5.24 -8.5,-11.72 -11.2,-19.03 -2.7,-7.17 -4,-15.17 -4,-23.55 0,-8.39 1.3,-16.23 4,-23.55 2.7,-7.13 6.4,-13.65 11.2,-19.03 4.7,-5.18 10.7,-9.62 17.6,-12.75 6.7,-3.01 14.8,-4.67 23.5,-4.67 8.7,0 16.6,1.55 23.6,4.67 6.6,3.24 12.8,7.38 17.7,12.75 4.7,5.57 8.7,11.72 11.4,19.03 2.7,7.5 4,15.16 4,23.55 z m 23,0 c 0,-11.34 -2,-21.84 -5.9,-31.47 -4,-9.48 -9.5,-17.99 -16.5,-25.06 -7.2,-6.89 -15.4,-12.58 -25.1,-16.53 -9.9,-3.94 -20.4,-5.94 -32.2,-5.94 -11.6,0 -22.1,1.98 -31.8,5.94 -9.9,3.97 -18.1,9.47 -25.1,16.53 -7.2,7.25 -12.5,15.42 -16.5,25.06 -4.2,9.79 -5.9,20.13 -5.9,31.47 0,11.34 2,21.83 5.9,31.47 3.7,9.81 9.5,17.98 16.5,25.05 6.9,7.23 15.4,12.58 25.1,16.54 9.5,4.27 20.3,5.94 31.8,5.94 11.7,0 22.5,-1.98 32.2,-5.94 9.5,-3.65 18.1,-9.47 25.1,-16.54 6.8,-6.91 12.5,-15.42 16.5,-25.05 3.9,-9.46 5.9,-20.13 5.9,-31.47" /><path
             id="path158"
             style="fill:#000000;fill-opacity:1;fill-rule:nonzero;stroke:none"
             d="m 11385,4276.67 c 0,5.66 -0.2,11.1 -0.5,16.66 -0.5,5.78 -0.7,11.12 -1.1,16.67 h 22.6 v -22.62 h 0.6 c 4.9,8.97 12.2,15.39 21.3,19.89 8.7,4.73 18,6.73 27,6.73 3.7,0 8.4,-0.43 12.9,-1.28 4.3,-0.76 9,-2.41 13.3,-4.66 4.2,-1.93 8.3,-5.4 12,-9.47 3.7,-3.93 6.9,-9.3 9.4,-15.71 4.1,9.66 11,17.21 20.3,22.78 9,5.67 18.9,8.34 28.9,8.34 19,0 33.4,-5.09 42.6,-15.25 9,-10.07 13.7,-24.65 13.7,-43.47 V 4160 h -21 v 87.75 c 0,15.3 -2.7,26.89 -8,35.03 -5.3,8.22 -15.3,12.22 -29.8,12.22 -7.9,0 -14.5,-1.56 -19.8,-4.67 -5.5,-2.88 -9.6,-7.23 -13,-12.38 -3.4,-5.12 -5.7,-10.97 -7.2,-17.51 -1.5,-6.35 -2.2,-13.34 -2.2,-20.41 V 4160 h -21 v 87.75 c 0,15.3 -2.7,26.89 -8,35.03 -5.3,8.22 -15.3,12.22 -29.8,12.22 -1.3,0 -4.2,-0.43 -8.8,-1.3 -4.7,-0.75 -9.3,-3.21 -14.2,-7.06 -5,-3.73 -9.3,-9.64 -13.3,-17.36 -4.2,-7.47 -5.9,-18.42 -5.9,-32.14 V 4160 h -21 v 116.67" /><path
             id="path160"
             style="fill:#000000;fill-opacity:1;fill-rule:nonzero;stroke:none"
             d="m 11795,4235 c 0,8.38 -1.3,16.23 -4,23.55 -3,7.46 -6.5,13.65 -11.4,19.03 -5.1,5.51 -10.9,9.62 -17.9,12.73 -7.2,3.35 -14.8,4.69 -23.6,4.69 -8.8,0 -16.8,-1.56 -24.1,-4.69 -7.3,-2.88 -13.6,-7.36 -18.9,-12.73 -5.4,-5.24 -9.6,-11.72 -12.6,-19.03 -3.1,-7.17 -4.5,-15.17 -4.5,-23.55 0,-8.39 1.5,-16.23 4.5,-23.55 2.9,-7.13 7.2,-13.65 12.6,-19.03 5.3,-5.18 11.7,-9.62 18.9,-12.75 7.3,-3.01 15.3,-4.67 24.1,-4.67 8.8,0 16.7,1.55 23.6,4.67 6.8,3.24 12.9,7.38 17.9,12.75 4.7,5.57 8.7,11.72 11.4,19.03 2.3,7.5 4,15.16 4,23.55 z m -137,75 h 21 v -24.91 h 0.6 c 3.3,5.44 7.5,9.52 12.2,13.16 4.5,3.89 9.7,6.64 14.8,9 4.9,2.6 10.4,4.07 15.9,5.14 5.3,1.27 10.6,1.61 15.6,1.61 11.7,0 22.5,-1.98 32.2,-5.94 9.7,-3.65 18.2,-9.47 25.2,-16.54 6.9,-6.91 12.6,-15.42 16.6,-25.05 3.9,-9.46 5.9,-20.13 5.9,-31.47 0,-11.34 -2,-21.84 -5.9,-31.47 -4,-9.48 -9.5,-17.99 -16.6,-25.06 -7.2,-6.89 -15.4,-12.58 -25.2,-16.53 -9.8,-3.94 -20.5,-5.94 -32.2,-5.94 -5,0 -10.1,0.54 -15.6,1.61 -5.6,1.2 -10.8,2.78 -15.9,5.14 -5.3,2.44 -10,5.35 -14.8,8.98 -4.9,3.74 -8.7,8.04 -12.2,13.18 h -0.6 V 4068 h -21 v 242" /><path
             id="path162"
             style="fill:#000000;fill-opacity:1;fill-rule:nonzero;stroke:none"
             d="m 11981,4235 c 0,8.38 -1.3,16.23 -4,23.55 -2.7,7.46 -6.5,13.65 -11.4,19.03 -5.1,5.51 -10.8,9.62 -17.7,12.73 -7.3,3.35 -14.8,4.69 -23.6,4.69 -8.8,0 -16.5,-1.56 -23.5,-4.69 -7.2,-2.88 -12.8,-7.36 -17.6,-12.73 -4.9,-5.24 -8.5,-11.72 -11.2,-19.03 -2.7,-7.17 -4,-15.17 -4,-23.55 0,-8.39 1.3,-16.23 4,-23.55 2.7,-7.13 6.4,-13.65 11.2,-19.03 4.7,-5.18 10.7,-9.62 17.6,-12.75 6.7,-3.01 14.8,-4.67 23.5,-4.67 8.7,0 16.6,1.55 23.6,4.67 6.6,3.24 12.8,7.38 17.7,12.75 4.7,5.57 8.7,11.72 11.4,19.03 2.7,7.5 4,15.16 4,23.55 z m 23,0 c 0,-11.34 -2,-21.84 -5.9,-31.47 -4,-9.48 -9.5,-17.99 -16.5,-25.06 -7.2,-6.89 -15.4,-12.58 -25.1,-16.53 -9.9,-3.94 -20.4,-5.94 -32.2,-5.94 -11.6,0 -22.1,1.98 -31.8,5.94 -9.9,3.97 -18.1,9.47 -25.1,16.53 -7.2,7.25 -12.5,15.42 -16.5,25.06 -4.2,9.79 -5.9,20.13 -5.9,31.47 0,11.34 2,21.83 5.9,31.47 3.7,9.81 9.5,17.98 16.5,25.05 6.9,7.23 15.4,12.58 25.1,16.54 9.5,4.27 20.3,5.94 31.8,5.94 11.7,0 22.5,-1.98 32.2,-5.94 9.5,-3.65 18.1,-9.47 25.1,-16.54 6.8,-6.91 12.5,-15.42 16.5,-25.05 3.9,-9.46 5.9,-20.13 5.9,-31.47" /><path
             id="path164"
             style="fill:#000000;fill-opacity:1;fill-rule:nonzero;stroke:none"
             d="m 12063,4310 c 0.5,-4.04 0.7,-8.03 0.8,-11.95 -0.1,-3.61 0.2,-7.92 0.2,-11.96 h 0.6 c 2.2,4.37 5.4,7.8 9,11.22 3.4,3.66 7.7,6.37 12.1,8.83 4.3,2.74 9.2,4.38 14.2,5.77 4.7,1.42 10,2.09 14.9,2.09 18.9,0 33.3,-5.09 42.5,-15.25 9,-10.07 13.7,-24.65 13.7,-43.47 V 4160 h -21 v 83.25 c 0,16.97 -2.9,29.52 -8.6,38.41 -5.9,9 -16.4,13.34 -32,13.34 -1.2,0 -4.1,-0.43 -9,-1.3 -5,-0.75 -10,-3.21 -15.5,-7.06 -5.7,-3.73 -10.3,-9.64 -14.5,-17.36 -4.4,-7.47 -6.4,-18.42 -6.4,-32.14 V 4160 h -21 v 116.98 c 0,4.07 -0.2,9.2 -0.5,15.4 -0.5,6.4 -0.7,12.07 -1.1,17.62 h 21.6" /><path
             id="path166"
             style="fill:#000000;fill-opacity:1;fill-rule:nonzero;stroke:none"
             d="m 12337,4246 c 0,14.59 -4.3,26.41 -12.8,35.44 -8.6,9.22 -20.4,13.56 -35.8,13.56 -6.9,0 -13.4,-1.37 -19.8,-4.09 -6.6,-2.69 -12,-6.37 -16.8,-10.94 -5,-4.56 -8.6,-9.81 -11.5,-15.69 -3,-5.64 -4.3,-11.97 -4.3,-18.28 z m -101.6,-17 c 0.5,-7.5 2.4,-14.57 5.4,-21.22 2.8,-6.56 7,-12.37 11.9,-17.19 4.7,-4.68 10.7,-8.63 17.1,-11.42 6.2,-2.51 13.4,-4.17 20.9,-4.17 11.2,0 21.2,2.62 29.5,7.86 8.2,5.3 14.5,11.3 18.8,18.14 l 16,-13.41 c -9,-11.13 -18.9,-19.35 -29.7,-24.25 -10.9,-4.67 -22.3,-7.34 -34.7,-7.34 -11.3,0 -21.5,1.98 -31,5.94 -9.7,3.97 -17.6,9.47 -24.5,16.53 -6.9,7.25 -12.2,15.42 -16.2,25.06 -4.2,9.79 -5.9,20.13 -5.9,31.47 0,11.34 1.9,21.83 5.8,31.47 3.5,9.81 9.1,17.98 15.9,25.05 6.6,7.23 14.8,12.58 24,16.54 8.9,4.27 19.1,5.94 29.7,5.94 11.2,0 21.4,-2.04 30.4,-6.12 8.7,-4.04 16.4,-9.5 22.5,-16.25 6,-6.64 10.7,-14.71 13.9,-23.83 3.1,-9.06 4.8,-18.84 4.8,-29.14 V 4229 h -124.6" /><path
             id="path168"
             style="fill:#000000;fill-opacity:1;fill-rule:nonzero;stroke:none"
             d="m 12419,4310 c 0.5,-4.04 0.7,-8.03 0.8,-11.95 -0.1,-3.61 0.2,-7.92 0.2,-11.96 h 0.6 c 2.2,4.37 5.4,7.8 9,11.22 3.4,3.66 7.7,6.37 12.1,8.83 4.3,2.74 9.2,4.38 14.2,5.77 4.7,1.42 10,2.09 14.9,2.09 18.9,0 33.3,-5.09 42.5,-15.25 9,-10.07 13.7,-24.65 13.7,-43.47 V 4160 h -21 v 83.25 c 0,16.97 -2.9,29.52 -8.6,38.41 -5.9,9 -16.4,13.34 -32,13.34 -1.2,0 -4.1,-0.43 -9,-1.3 -5,-0.75 -10,-3.21 -15.5,-7.06 -5.7,-3.73 -10.3,-9.64 -14.5,-17.36 -4.4,-7.47 -6.4,-18.42 -6.4,-32.14 V 4160 h -21 v 116.98 c 0,4.07 -0.2,9.2 -0.5,15.4 -0.5,6.4 -0.7,12.07 -1.1,17.62 h 21.6" /><path
             id="path170"
             style="fill:#000000;fill-opacity:1;fill-rule:nonzero;stroke:none"
             d="m 12654,4291 h -43 v -88.94 c 0,-5.27 0.5,-10.15 1.6,-13.68 0.8,-3.34 2.5,-6.29 4.4,-8.22 1.9,-1.66 4.2,-3.28 6.8,-4.03 2.4,-0.47 5.6,-1.13 8.7,-1.13 3.4,0 7.3,0.53 11.1,1.59 3.6,1.21 7.3,2.46 10.4,4.18 l 1,-19.38 c -7.8,-3.39 -17.2,-5.39 -28.2,-5.39 -4.3,0 -8.2,0.54 -12.5,1.61 -4.5,1.2 -8.3,3.11 -11.9,6.11 -3.8,3.09 -6.6,7.07 -8.9,12.2 -2.5,5.17 -3.5,11.9 -3.5,20.25 V 4291 h -32 v 19 h 32 v 42 h 21 v -42 h 43 v -19" /></g></g><path
         id="path172"
         style="fill:#5e5e5e;fill-opacity:1;fill-rule:nonzero;stroke:none"
         d="m 7011.05,2676.87 h 8089.21 V 3836.44 H 7011.05 Z" /><g
         id="g174"><g
           clip-path="url(#clipPath180)"
           id="g176"><path
             id="path182"
             style="fill:#ffffff;fill-opacity:1;fill-rule:nonzero;stroke:none"
             d="M 9468,3311 9330.89,3246.5 9468,3182 v -19 l -163,76 v 15 l 163,76 v -19" /><path
             id="path184"
             style="fill:#ffffff;fill-opacity:1;fill-rule:nonzero;stroke:none"
             d="m 9516,3392 h 21 v -115.91 h 0.64 c 2.13,4.37 5.32,7.8 8.94,11.22 3.43,3.66 7.67,6.37 12.14,8.83 4.23,2.74 9.2,4.38 14.2,5.77 4.71,1.42 9.96,2.09 14.86,2.09 18.91,0 33.33,-5.09 42.49,-15.25 9.06,-10.07 13.73,-24.65 13.73,-43.47 V 3150 h -21 v 83.25 c 0,16.97 -2.88,29.52 -8.64,38.41 -5.87,9 -16.41,13.34 -31.97,13.34 -1.19,0 -4.05,-0.43 -8.95,-1.3 -5.05,-0.75 -10.06,-3.21 -15.5,-7.06 -5.75,-3.73 -10.29,-9.64 -14.55,-17.36 -4.39,-7.47 -6.39,-18.42 -6.39,-32.14 V 3150 h -21 v 242" /><path
             id="path186"
             style="fill:#ffffff;fill-opacity:1;fill-rule:nonzero;stroke:none"
             d="m 9782,3150 h -23 v 198.14 L 9718.39,3312 9704,3329.38 9761.56,3377 H 9782 v -227" /><path
             id="path188"
             style="fill:#ffffff;fill-opacity:1;fill-rule:nonzero;stroke:none"
             d="m 9874,3330 163,-76 v -15 l -163,-76 v 19 l 137.1,64.5 -137.1,64.5 v 19" /><path
             id="path190"
             style="fill:#ffffff;fill-opacity:1;fill-rule:nonzero;stroke:none"
             d="m 10066,3252 c 7.1,0 13.6,3.08 19.3,9.25 5.7,6.41 8.7,14.88 8.7,26.14 v 56.75 c 0,7.72 1,13.71 2.9,18.81 1.6,5.12 4.4,9.2 7.6,12.28 3.1,3.34 6.9,5.32 11.1,6.69 3.9,1.41 8.5,2.08 12.9,2.08 h 20.5 v -19 h -18 c -3.8,0 -6.9,-0.8 -9.1,-2.39 -2.5,-1.47 -3.9,-3.67 -4.8,-6.22 -1,-2.35 -1.6,-5.43 -1.8,-8.62 -0.3,-3.11 -0.3,-6.27 -0.3,-9.24 v -54.87 c 0,-7.55 -1.1,-14.09 -3.3,-19.3 -2.5,-5 -4.9,-9.36 -7.9,-12.44 -3.3,-3.06 -6.2,-5.32 -9.4,-6.7 -3.3,-1.13 -5.6,-2.18 -7.5,-2.39 v -0.64 c 1.6,0.05 4.4,-1.03 7.5,-2.42 3.1,-1.31 6.3,-3.64 9.4,-6.75 2.8,-2.78 5.7,-7.29 7.9,-12.55 2,-5.08 3.3,-11.74 3.3,-19.45 v -55.32 c 0,-2.91 0.1,-6.11 0.3,-9.32 0.1,-3.01 0.8,-6.12 1.8,-8.69 0.9,-2.47 2.5,-4.66 4.8,-6.27 1.9,-1.42 5.3,-2.42 9.1,-2.42 h 18 v -19 h -20.5 c -4.6,0 -8.8,0.7 -12.9,2.09 -4.4,1.69 -7.9,3.64 -11.1,6.75 -3.3,3.16 -5.7,7.23 -7.6,12.36 -2.2,5.41 -2.9,11.46 -2.9,18.96 v 57.18 c 0,11.57 -2.9,20.12 -8.7,26.33 -5.8,6.33 -12.2,9.33 -19.3,9.33 v 19" /><path
             id="path192"
             style="fill:#fbe232;fill-opacity:1;fill-rule:nonzero;stroke:none"
             d="m 10305,3225 c 0,8.38 -1.3,16.23 -4,23.55 -3,7.46 -6.5,13.65 -11.4,19.03 -5.1,5.51 -10.9,9.62 -17.9,12.73 -7.2,3.35 -14.8,4.69 -23.6,4.69 -8.8,0 -16.8,-1.56 -24.1,-4.69 -7.3,-2.88 -13.6,-7.36 -18.9,-12.73 -5.4,-5.24 -9.6,-11.72 -12.6,-19.03 -3.1,-7.17 -4.5,-15.17 -4.5,-23.55 0,-8.39 1.5,-16.23 4.5,-23.55 2.9,-7.13 7.2,-13.65 12.6,-19.03 5.3,-5.18 11.7,-9.62 18.9,-12.75 7.3,-3.01 15.3,-4.67 24.1,-4.67 8.8,0 16.7,1.55 23.6,4.67 6.8,3.24 12.9,7.38 17.9,12.75 4.7,5.57 8.7,11.72 11.4,19.03 2.3,7.5 4,15.16 4,23.55 z m -137,75 h 21 v -24.91 h 0.6 c 3.3,5.44 7.5,9.52 12.2,13.16 4.5,3.89 9.7,6.64 14.8,9 4.9,2.6 10.4,4.07 15.9,5.14 5.3,1.27 10.6,1.61 15.6,1.61 11.7,0 22.5,-1.98 32.2,-5.94 9.7,-3.65 18.2,-9.47 25.2,-16.54 6.9,-6.91 12.6,-15.42 16.6,-25.05 3.9,-9.46 5.9,-20.13 5.9,-31.47 0,-11.34 -2,-21.84 -5.9,-31.47 -4,-9.48 -9.5,-17.99 -16.6,-25.06 -7.2,-6.89 -15.4,-12.58 -25.2,-16.53 -9.8,-3.94 -20.5,-5.94 -32.2,-5.94 -5,0 -10.1,0.54 -15.6,1.61 -5.6,1.2 -10.8,2.78 -15.9,5.14 -5.3,2.44 -10,5.35 -14.8,8.98 -4.9,3.74 -8.7,8.04 -12.2,13.18 h -0.6 V 3058 h -21 v 242" /><path
             id="path194"
             style="fill:#fbe232;fill-opacity:1;fill-rule:nonzero;stroke:none"
             d="m 10366,3253.2 c 0,6.89 -0.2,13.35 -0.5,20.19 -0.5,7.05 -0.6,15.71 -0.8,26.61 h 20.7 v -27.77 h 0.6 c 1.5,4.32 3.7,7.97 6.5,11.71 2.6,3.77 6.1,7.11 10.1,10.11 3.8,3.31 8.6,5.4 13.8,7.22 5.1,2.06 11.2,2.73 17.9,2.73 5.9,0 11.2,-0.64 15.7,-1.91 l -4.2,-20.7 c -3,1.27 -6.8,1.61 -12.2,1.61 -8.3,0 -15.1,-1.55 -20.9,-4.66 -6,-2.88 -10.6,-7.07 -14.4,-11.89 -4,-4.63 -6.7,-10 -8.6,-15.57 -2,-5.54 -2.7,-10.93 -2.7,-16.07 V 3150 h -21 v 103.2" /><path
             id="path196"
             style="fill:#fbe232;fill-opacity:1;fill-rule:nonzero;stroke:none"
             d="m 10592,3225 c 0,8.38 -1.3,16.23 -4,23.55 -2.7,7.46 -6.5,13.65 -11.4,19.03 -5.1,5.51 -10.8,9.62 -17.7,12.73 -7.3,3.35 -14.8,4.69 -23.6,4.69 -8.8,0 -16.5,-1.56 -23.5,-4.69 -7.2,-2.88 -12.8,-7.36 -17.6,-12.73 -4.9,-5.24 -8.5,-11.72 -11.2,-19.03 -2.7,-7.17 -4,-15.17 -4,-23.55 0,-8.39 1.3,-16.23 4,-23.55 2.7,-7.13 6.4,-13.65 11.2,-19.03 4.7,-5.18 10.7,-9.62 17.6,-12.75 6.7,-3.01 14.8,-4.67 23.5,-4.67 8.7,0 16.6,1.55 23.6,4.67 6.6,3.24 12.8,7.38 17.7,12.75 4.7,5.57 8.7,11.72 11.4,19.03 2.7,7.5 4,15.16 4,23.55 z m 23,0 c 0,-11.34 -2,-21.84 -5.9,-31.47 -4,-9.48 -9.5,-17.99 -16.5,-25.06 -7.2,-6.89 -15.4,-12.58 -25.1,-16.53 -9.9,-3.94 -20.4,-5.94 -32.2,-5.94 -11.6,0 -22.1,1.98 -31.8,5.94 -9.9,3.97 -18.1,9.47 -25.1,16.53 -7.2,7.25 -12.5,15.42 -16.5,25.06 -4.2,9.79 -5.9,20.13 -5.9,31.47 0,11.34 2,21.83 5.9,31.47 3.7,9.81 9.5,17.98 16.5,25.05 6.9,7.23 15.4,12.58 25.1,16.54 9.5,4.27 20.3,5.94 31.8,5.94 11.7,0 22.5,-1.98 32.2,-5.94 9.5,-3.65 18.1,-9.47 25.1,-16.54 6.8,-6.91 12.5,-15.42 16.5,-25.05 3.9,-9.46 5.9,-20.13 5.9,-31.47" /><path
             id="path198"
             style="fill:#fbe232;fill-opacity:1;fill-rule:nonzero;stroke:none"
             d="m 10791,3225 c 0,8.38 -1.3,16.23 -4,23.55 -3,7.46 -6.5,13.65 -11.4,19.03 -5.1,5.51 -10.9,9.62 -17.9,12.73 -7.2,3.35 -14.8,4.69 -23.6,4.69 -8.8,0 -16.8,-1.56 -24.1,-4.69 -7.3,-2.88 -13.6,-7.36 -18.9,-12.73 -5.4,-5.24 -9.6,-11.72 -12.6,-19.03 -3.1,-7.17 -4.5,-15.17 -4.5,-23.55 0,-8.39 1.5,-16.23 4.5,-23.55 2.9,-7.13 7.2,-13.65 12.6,-19.03 5.3,-5.18 11.7,-9.62 18.9,-12.75 7.3,-3.01 15.3,-4.67 24.1,-4.67 8.8,0 16.7,1.55 23.6,4.67 6.8,3.24 12.9,7.38 17.9,12.75 4.7,5.57 8.7,11.72 11.4,19.03 2.3,7.5 4,15.16 4,23.55 z m -137,75 h 21 v -24.91 h 0.6 c 3.3,5.44 7.5,9.52 12.2,13.16 4.5,3.89 9.7,6.64 14.8,9 4.9,2.6 10.4,4.07 15.9,5.14 5.3,1.27 10.6,1.61 15.6,1.61 11.7,0 22.5,-1.98 32.2,-5.94 9.7,-3.65 18.2,-9.47 25.2,-16.54 6.9,-6.91 12.6,-15.42 16.6,-25.05 3.9,-9.46 5.9,-20.13 5.9,-31.47 0,-11.34 -2,-21.84 -5.9,-31.47 -4,-9.48 -9.5,-17.99 -16.6,-25.06 -7.2,-6.89 -15.4,-12.58 -25.2,-16.53 -9.8,-3.94 -20.5,-5.94 -32.2,-5.94 -5,0 -10.1,0.54 -15.6,1.61 -5.6,1.2 -10.8,2.78 -15.9,5.14 -5.3,2.44 -10,5.35 -14.8,8.98 -4.9,3.74 -8.7,8.04 -12.2,13.18 h -0.6 V 3058 h -21 v 242" /><path
             id="path200"
             style="fill:#fbe232;fill-opacity:1;fill-rule:nonzero;stroke:none"
             d="m 10929.2,3265 c -3.3,6.13 -7.5,11 -12.8,14.59 -5.4,3.74 -11.8,5.41 -19.4,5.41 -4,0 -7.3,-0.44 -11.1,-1.31 -4,-0.76 -7,-2.23 -10,-4.08 -3.3,-1.72 -5.4,-4.18 -7.2,-7.02 -2,-2.68 -2.7,-6.3 -2.7,-10.43 0,-6.91 2.4,-12.42 7.3,-15.68 4.8,-3.09 12.2,-6.09 22,-8.48 l 21.4,-5.11 c 10.2,-2.31 19,-7.09 25.9,-14.22 6.7,-7.03 10.4,-16.03 10.4,-26.67 0,-8.09 -1.6,-15.07 -4.9,-20.92 -3.3,-5.55 -7.6,-10.65 -13.1,-14.38 -5.4,-3.63 -11.5,-6.44 -18.5,-8.14 -7.2,-1.56 -14.1,-2.56 -21.3,-2.56 -11.5,0 -22.1,2.21 -31.9,6.63 -10,4.53 -18.3,12 -25.3,22.78 l 18.1,12.59 c 4.2,-7.01 9.5,-12.6 16,-16.77 6.4,-3.9 14.1,-6.23 23,-6.23 4.2,0 8.5,0.48 12.7,1.44 4,1.15 8,2.47 11.2,4.5 3.3,2.06 6,4.66 8,7.87 1.7,3.28 3,6.98 3,11.27 0,7.8 -2.8,12.9 -8.3,16.22 -5.8,3.55 -12.2,5.94 -20.1,7.87 l -20.4,4.83 c -2.6,0.64 -6,1.72 -10.3,3.22 -4.7,1.76 -8.6,3.75 -12.8,6.75 -4.2,3.02 -7.7,6.93 -10.6,11.76 -3.2,4.93 -4.5,10.79 -4.5,17.88 0,7.85 1.5,14.47 4.6,20.27 2.9,5.84 7.3,10.52 12.5,14.17 5.2,3.97 11.1,6.39 17.7,8.22 6.3,2.06 13.4,2.73 20.4,2.73 10.4,0 20.1,-2.01 29.1,-6.03 8.8,-4 15.8,-10.88 20.7,-20.61 l -18.8,-12.36" /><path
             id="path202"
             style="fill:#ffffff;fill-opacity:1;fill-rule:nonzero;stroke:none"
             d="m 11025,3165.5 c 0,-4.37 -1.6,-8.59 -4.9,-12.16 -3.2,-3.34 -7.4,-5.34 -12.6,-5.34 -5.4,0 -9.4,1.78 -12.6,5.34 -3.6,3.79 -4.9,7.62 -4.9,12.16 0,4.71 1.6,8.59 4.9,12.16 2.9,3.67 7.4,5.34 12.6,5.34 5,0 9.4,-1.78 12.6,-5.34 3.2,-3.45 4.9,-7.62 4.9,-12.16" /><path
             id="path204"
             style="fill:#ff9300;fill-opacity:1;fill-rule:nonzero;stroke:none"
             d="m 11095,3300 c 0.5,-4.04 0.7,-8.03 0.8,-11.95 -0.1,-3.61 0.2,-7.92 0.2,-11.96 h 0.6 c 2.2,4.37 5.4,7.8 9,11.22 3.4,3.66 7.7,6.37 12.1,8.83 4.3,2.74 9.2,4.38 14.2,5.77 4.7,1.42 10,2.09 14.9,2.09 18.9,0 33.3,-5.09 42.5,-15.25 9,-10.07 13.7,-24.65 13.7,-43.47 V 3150 h -21 v 83.25 c 0,16.97 -2.9,29.52 -8.6,38.41 -5.9,9 -16.4,13.34 -32,13.34 -1.2,0 -4.1,-0.43 -9,-1.3 -5,-0.75 -10,-3.21 -15.5,-7.06 -5.7,-3.73 -10.3,-9.64 -14.5,-17.36 -4.4,-7.47 -6.4,-18.42 -6.4,-32.14 V 3150 h -21 v 116.98 c 0,4.07 -0.2,9.2 -0.5,15.4 -0.5,6.4 -0.7,12.07 -1.1,17.62 h 21.6" /><path
             id="path206"
             style="fill:#ff9300;fill-opacity:1;fill-rule:nonzero;stroke:none"
             d="m 11338.1,3225 c -5.4,0 -12.1,-0.27 -20.1,-0.81 -8.4,-0.28 -15.8,-1.84 -23.2,-3.89 -7.6,-1.82 -13.7,-5.25 -18.9,-9.57 -5.6,-4.23 -7.9,-10.27 -7.9,-17.84 0,-4.93 1,-9.24 3,-12.81 2.1,-3.26 4.8,-6.48 8.3,-8.75 3.3,-2.05 7.2,-3.9 11.4,-4.88 3.9,-0.79 8.4,-1.45 12.7,-1.45 7.5,0 14.4,1.3 20,3.89 5.6,2.63 10.5,6.1 14.4,10.53 3.6,4.63 6.6,9.63 8.5,15.58 1.7,5.95 2.7,12.27 2.7,18.97 V 3225 Z m 10.9,17 v 3.88 c 0,26.12 -12.8,39.12 -38.4,39.12 -17.7,0 -32.8,-6 -45.8,-18 l -12.8,15.13 c 14.1,14.87 35.2,21.87 63.3,21.87 7.2,0 14.2,-1.07 21,-3.22 6.6,-2.06 12.5,-5.4 17.4,-9.78 4.7,-4.39 8.8,-9.9 11.8,-16.53 2.8,-6.45 4.5,-14.54 4.5,-23.74 v -67.04 c 0,-5.67 0.3,-11.81 0.8,-18.13 0.3,-6.17 1.1,-11.5 1.8,-15.56 h -20.4 c -0.7,3.61 -1.1,7.55 -1.4,11.8 -0.6,4.33 -0.5,8.41 -0.5,12.45 h -0.7 c -6.4,-9.81 -13.5,-17.29 -22,-21.67 -8.6,-4.24 -18.7,-6.58 -30.9,-6.58 -6.9,0 -13.1,0.91 -19.3,2.73 -6.3,1.9 -11.7,4.6 -16.5,8.35 -5.1,4.05 -8.7,8.35 -11.6,13.8 -3,5.5 -4.3,11.82 -4.3,19.1 0,12.21 3.2,21.78 9.5,28.74 6.1,7.05 14.2,12.15 23.7,15.58 9.5,3.66 19.7,5.56 30.5,6.42 10.6,0.94 20.7,1.28 29.7,1.28 h 10.6" /><path
             id="path208"
             style="fill:#ff9300;fill-opacity:1;fill-rule:nonzero;stroke:none"
             d="m 11419,3266.67 c 0,5.66 -0.2,11.1 -0.5,16.66 -0.5,5.78 -0.7,11.12 -1.1,16.67 h 22.6 v -22.62 h 0.6 c 4.9,8.97 12.2,15.39 21.3,19.89 8.7,4.73 18,6.73 27,6.73 3.7,0 8.4,-0.43 12.9,-1.28 4.3,-0.76 9,-2.41 13.3,-4.66 4.2,-1.93 8.3,-5.4 12,-9.47 3.7,-3.93 6.9,-9.3 9.4,-15.71 4.1,9.66 11,17.21 20.3,22.78 9,5.67 18.9,8.34 28.9,8.34 19,0 33.4,-5.09 42.6,-15.25 9,-10.07 13.7,-24.65 13.7,-43.47 V 3150 h -21 v 87.75 c 0,15.3 -2.7,26.89 -8,35.03 -5.3,8.22 -15.3,12.22 -29.8,12.22 -7.9,0 -14.5,-1.56 -19.8,-4.67 -5.5,-2.88 -9.6,-7.23 -13,-12.38 -3.4,-5.12 -5.7,-10.97 -7.2,-17.51 -1.5,-6.35 -2.2,-13.34 -2.2,-20.41 V 3150 h -21 v 87.75 c 0,15.3 -2.7,26.89 -8,35.03 -5.3,8.22 -15.3,12.22 -29.8,12.22 -1.3,0 -4.2,-0.43 -8.8,-1.3 -4.7,-0.75 -9.3,-3.21 -14.2,-7.06 -5,-3.73 -9.3,-9.64 -13.3,-17.36 -4.2,-7.47 -5.9,-18.42 -5.9,-32.14 V 3150 h -21 v 116.67" /><path
             id="path210"
             style="fill:#ff9300;fill-opacity:1;fill-rule:nonzero;stroke:none"
             d="m 11807,3236 c 0,14.59 -4.3,26.41 -12.8,35.44 -8.6,9.22 -20.4,13.56 -35.8,13.56 -6.9,0 -13.4,-1.37 -19.8,-4.09 -6.6,-2.69 -12,-6.37 -16.8,-10.94 -5,-4.56 -8.6,-9.81 -11.5,-15.69 -3,-5.64 -4.3,-11.97 -4.3,-18.28 z m -101.6,-17 c 0.5,-7.5 2.4,-14.57 5.4,-21.22 2.8,-6.56 7,-12.37 11.9,-17.19 4.7,-4.68 10.7,-8.63 17.1,-11.42 6.2,-2.51 13.4,-4.17 20.9,-4.17 11.2,0 21.2,2.62 29.5,7.86 8.2,5.3 14.5,11.3 18.8,18.14 l 16,-13.41 c -9,-11.13 -18.9,-19.35 -29.7,-24.25 -10.9,-4.67 -22.3,-7.34 -34.7,-7.34 -11.3,0 -21.5,1.98 -31,5.94 -9.7,3.97 -17.6,9.47 -24.5,16.53 -6.9,7.25 -12.2,15.42 -16.2,25.06 -4.2,9.79 -5.9,20.13 -5.9,31.47 0,11.34 1.9,21.83 5.8,31.47 3.5,9.81 9.1,17.98 15.9,25.05 6.6,7.23 14.8,12.58 24,16.54 8.9,4.27 19.1,5.94 29.7,5.94 11.2,0 21.4,-2.04 30.4,-6.12 8.7,-4.04 16.4,-9.5 22.5,-16.25 6,-6.64 10.7,-14.71 13.9,-23.83 3.1,-9.06 4.8,-18.84 4.8,-29.14 V 3219 h -124.6" /><path
             id="path212"
             style="fill:#ffffff;fill-opacity:1;fill-rule:nonzero;stroke:none"
             d="m 11925,3233 c -7.1,0 -13.6,-3.11 -19.4,-9.33 -5.9,-6.1 -8.6,-14.98 -8.6,-26.33 v -57.18 c 0,-7.22 -1,-13.82 -2.9,-18.96 -1.9,-4.86 -4.5,-9.25 -7.6,-12.36 -3.4,-3.06 -6.9,-5.36 -11.1,-6.75 -4.3,-1.09 -8.5,-2.09 -12.9,-2.09 h -20.5 v 19 h 18 c 3.5,0 6.9,0.81 9.1,2.42 2.2,1.8 3.8,3.7 4.8,6.27 0.7,2.68 1.6,5.47 1.8,8.69 0,3.41 0.3,6.31 0.3,9.31 V 3201 c 0,7.72 1.1,14.2 3.3,19.45 2.1,5.44 4.9,9.44 7.9,12.55 3,3.11 6.2,5.36 9.3,6.75 3,1.48 5.7,2.2 7.6,2.42 v 0.64 c -1.9,0.27 -4.4,1.01 -7.6,2.39 -3.3,1.65 -6.2,3.62 -9.3,6.71 -3.1,3.11 -5.7,7.22 -7.9,12.43 -2.3,5.43 -3.3,11.64 -3.3,19.3 v 54.88 c 0,3.14 -0.1,6.06 -0.3,9.25 -0.5,3.27 -0.8,6.07 -1.8,8.62 -1.3,2.75 -2.6,4.63 -4.8,6.22 -2.3,1.72 -5.3,2.39 -9.1,2.39 h -18 v 19 h 20.5 c 4.3,0 8.8,-0.7 12.9,-2.08 4,-1.35 7.9,-3.6 11.1,-6.69 3,-2.82 5.7,-7.18 7.6,-12.28 1.9,-5.09 2.9,-11.37 2.9,-18.81 v -56.75 c 0,-11.06 2.9,-19.98 8.6,-26.14 5.6,-5.92 12.3,-9.25 19.4,-9.25 v -19" /><path
             id="path214"
             style="fill:#ffffff;fill-opacity:1;fill-rule:nonzero;stroke:none"
             d="m 12118,3311 -137.1,-64.5 137.1,-64.5 v -19 l -163,76 v 15 l 163,76 v -19" /><path
             id="path216"
             style="fill:#ffffff;fill-opacity:1;fill-rule:nonzero;stroke:none"
             d="m 12164,3144 -19,6.08 97,231.92 18,-6.39 -96,-231.61" /><path
             id="path218"
             style="fill:#ffffff;fill-opacity:1;fill-rule:nonzero;stroke:none"
             d="m 12284,3392 h 21 v -115.91 h 0.6 c 2.2,4.37 5.4,7.8 9,11.22 3.4,3.66 7.7,6.37 12.1,8.83 4.2,2.74 9.2,4.38 14.2,5.77 4.7,1.42 10,2.09 14.9,2.09 18.9,0 33.3,-5.09 42.5,-15.25 9,-10.07 13.7,-24.65 13.7,-43.47 V 3150 h -21 v 83.25 c 0,16.97 -2.9,29.52 -8.6,38.41 -5.9,9 -16.4,13.34 -32,13.34 -1.2,0 -4.1,-0.43 -9,-1.3 -5,-0.75 -10,-3.21 -15.5,-7.06 -5.7,-3.73 -10.3,-9.64 -14.5,-17.36 -4.4,-7.47 -6.4,-18.42 -6.4,-32.14 V 3150 h -21 v 242" /><path
             id="path220"
             style="fill:#ffffff;fill-opacity:1;fill-rule:nonzero;stroke:none"
             d="m 12550,3150 h -23 v 198.14 l -40.6,-36.14 -14.4,17.38 57.6,47.62 h 20.4 v -227" /><path
             id="path222"
             style="fill:#ffffff;fill-opacity:1;fill-rule:nonzero;stroke:none"
             d="m 12642,3330 163,-76 v -15 l -163,-76 v 19 l 137.1,64.5 -137.1,64.5 v 19" /></g></g><path
         id="path224"
         style="fill:#ff9300;fill-opacity:1;fill-rule:nonzero;stroke:none"
         d="m 4290.98,8451.95 h 17.99 v -70.98 h -17.99 z m -44,0 h 18 v -70.98 h -18 v 70.98" /><path
         id="path226"
         style="fill:#ff9300;fill-opacity:1;fill-rule:nonzero;stroke:none"
         d="m 4504.97,8309.98 c -0.33,7.83 -1.25,15.15 -3.75,21.97 -2.56,6.84 -6.03,12.74 -10.63,17.75 -4.78,5.12 -10.11,8.99 -16.59,11.89 -6.48,3.05 -13.81,4.38 -21.98,4.38 -8.18,0.01 -15.64,-1.46 -22.43,-4.38 -6.98,-2.77 -12.66,-6.87 -17.65,-11.89 -5.31,-4.91 -8.89,-10.93 -11.67,-17.75 -2.89,-6.81 -4.19,-14.15 -4.19,-21.97 -0.03,-7.82 1.39,-15.15 4.19,-21.98 2.7,-6.82 6.68,-12.74 11.67,-17.75 4.67,-4.76 10.87,-8.98 17.65,-11.89 6.59,-2.7 14.26,-4.36 22.43,-4.36 8.17,0 15.5,1.45 21.98,4.36 6.48,3.13 12.01,6.88 16.59,11.89 4.4,5.26 8.14,10.93 10.63,17.75 2.42,6.83 3.75,14.16 3.75,21.98 z M 4377,8379.97 h 19.98 v -23.08 h 0.6 c 3.01,4.85 7.01,8.92 11.4,12.33 4.08,3.67 9.01,6.22 13.82,8.42 4.54,2.33 9.77,3.81 14.87,4.81 4.88,1.19 9.96,1.52 14.55,1.52 10.92,0.01 21.05,-1.86 30.16,-5.56 8.98,-3.52 16.97,-8.88 23.57,-15.5 6.29,-6.59 11.76,-14.44 15.46,-23.46 3.56,-8.84 5.54,-18.84 5.54,-29.47 -0.32,-10.62 -1.85,-20.44 -5.54,-29.46 -3.84,-8.86 -8.86,-16.85 -15.46,-23.47 -6.92,-6.3 -14.46,-11.78 -23.57,-15.49 -9.24,-3.56 -19.16,-5.56 -30.16,-5.56 -4.67,0 -9.45,0.51 -14.55,1.52 -5.33,1.16 -10.06,2.59 -14.87,4.79 -5.07,2.44 -9.41,5.02 -13.82,8.42 -4.72,3.51 -8.19,7.54 -11.4,12.35 h -0.6 V 8154.02 H 4377 v 225.95" /><path
         id="path228"
         style="fill:#ff9300;fill-opacity:1;fill-rule:nonzero;stroke:none"
         d="m 4563,8336.3 c 0,6.41 -0.15,12.45 -0.45,18.84 -0.49,6.67 -0.56,14.66 -0.75,24.83 h 19.68 v -25.7 h 0.61 c 1.37,4.04 3.4,7.45 6,10.95 2.59,3.76 5.78,6.65 9.49,9.45 3.52,2.91 8.03,5.05 12.95,6.75 4.74,1.89 10.49,2.55 16.7,2.55 5.53,0.01 10.52,-0.61 14.74,-1.81 l -3.91,-19.69 c -2.62,1.17 -6.42,1.5 -11.43,1.5 -7.84,0.01 -14.15,-1.45 -19.57,-4.34 -5.43,-2.78 -9.93,-6.6 -13.54,-11.1 -3.78,-4.33 -6.27,-9.33 -7.97,-14.51 -1.89,-4.86 -2.57,-10.17 -2.57,-14.96 V 8240 H 4563 v 96.3" /><path
         id="path230"
         style="fill:#ff9300;fill-opacity:1;fill-rule:nonzero;stroke:none"
         d="m 4773.97,8309.98 c -0.33,7.83 -1.24,15.15 -3.72,21.97 -2.56,6.84 -6,12.74 -10.56,17.75 -4.8,5.12 -10.07,8.99 -16.52,11.89 -6.49,3.05 -13.72,4.38 -21.84,4.38 -8.24,0.01 -15.42,-1.46 -21.86,-4.38 -6.59,-2.77 -11.89,-6.87 -16.36,-11.89 -4.5,-4.91 -7.93,-10.93 -10.41,-17.75 -2.71,-6.81 -3.72,-14.15 -3.72,-21.97 -0.32,-7.82 1.24,-15.15 3.72,-21.98 2.25,-6.82 5.95,-12.74 10.41,-17.75 4.43,-4.76 9.92,-8.98 16.36,-11.89 6.29,-2.7 13.73,-4.36 21.86,-4.36 8.01,0 15.4,1.45 21.84,4.36 6.39,3.13 11.96,6.88 16.52,11.89 4.33,5.26 8.08,10.93 10.56,17.75 2.39,6.83 3.72,14.16 3.72,21.98 z m 21.98,0 c -0.32,-10.62 -1.85,-20.44 -5.54,-29.46 -3.83,-8.86 -8.83,-16.85 -15.43,-23.47 -6.92,-6.3 -14.43,-11.78 -23.53,-15.49 -9.24,-3.56 -19.13,-5.56 -30.12,-5.56 -10.9,0 -20.74,1.86 -29.83,5.56 -9.26,3.85 -16.94,8.87 -23.53,15.49 -6.91,6.94 -11.73,14.44 -15.42,23.47 -3.89,9.18 -5.55,18.84 -5.55,29.46 0,10.63 1.85,20.45 5.55,29.47 3.51,9.21 8.83,16.84 15.42,23.46 6.27,6.65 14.44,11.79 23.53,15.5 8.93,3.9 19.04,5.56 29.83,5.56 10.88,0.01 21.03,-1.86 30.12,-5.56 8.94,-3.52 16.94,-8.88 23.53,-15.5 6.27,-6.59 11.74,-14.44 15.43,-23.46 3.56,-8.84 5.54,-18.84 5.54,-29.47" /><path
         id="path232"
         style="fill:#ff9300;fill-opacity:1;fill-rule:nonzero;stroke:none"
         d="m 4959.97,8309.98 c -0.33,7.83 -1.25,15.15 -3.75,21.97 -2.56,6.84 -6.03,12.74 -10.63,17.75 -4.78,5.12 -10.11,8.99 -16.59,11.89 -6.48,3.05 -13.81,4.38 -21.98,4.38 -8.18,0.01 -15.64,-1.46 -22.43,-4.38 -6.98,-2.77 -12.66,-6.87 -17.65,-11.89 -5.31,-4.91 -8.89,-10.93 -11.67,-17.75 -2.89,-6.81 -4.19,-14.15 -4.19,-21.97 -0.03,-7.82 1.39,-15.15 4.19,-21.98 2.7,-6.82 6.68,-12.74 11.67,-17.75 4.67,-4.76 10.87,-8.98 17.65,-11.89 6.59,-2.7 14.26,-4.36 22.43,-4.36 8.17,0 15.5,1.45 21.98,4.36 6.48,3.13 12.01,6.88 16.59,11.89 4.4,5.26 8.14,10.93 10.63,17.75 2.42,6.83 3.75,14.16 3.75,21.98 z M 4832,8379.97 h 19.98 v -23.08 h 0.6 c 3.01,4.85 7.01,8.92 11.4,12.33 4.08,3.67 9.01,6.22 13.82,8.42 4.54,2.33 9.77,3.81 14.87,4.81 4.88,1.19 9.96,1.52 14.55,1.52 10.92,0.01 21.05,-1.86 30.16,-5.56 8.98,-3.52 16.97,-8.88 23.57,-15.5 6.29,-6.59 11.76,-14.44 15.46,-23.46 3.56,-8.84 5.54,-18.84 5.54,-29.47 -0.32,-10.62 -1.85,-20.44 -5.54,-29.46 -3.84,-8.86 -8.86,-16.85 -15.46,-23.47 -6.92,-6.3 -14.46,-11.78 -23.57,-15.49 -9.24,-3.56 -19.16,-5.56 -30.16,-5.56 -4.67,0 -9.45,0.51 -14.55,1.52 -5.33,1.16 -10.06,2.59 -14.87,4.79 -5.07,2.44 -9.41,5.02 -13.82,8.42 -4.72,3.51 -8.19,7.54 -11.4,12.35 h -0.6 V 8154.02 H 4832 v 225.95" /><path
         id="path234"
         style="fill:#ff9300;fill-opacity:1;fill-rule:nonzero;stroke:none"
         d="m 5084.98,8451.95 h 17.99 v -70.98 h -17.99 z m -44,0 h 18 v -70.98 h -18 v 70.98" /><path
         id="path236"
         style="fill:#ff9300;fill-opacity:1;fill-rule:nonzero;stroke:none"
         d="m 5274.08,8379.97 c 0.37,-3.72 0.64,-7.42 0.73,-11.05 -0.17,-3.61 0.16,-7.32 0.16,-11.04 h 0.61 c 1.99,3.84 4.97,7.3 8.34,10.5 3.08,3.4 7.17,5.94 11.35,8.23 4.09,2.43 8.61,4.1 13.29,5.41 4.49,1.62 9.3,1.95 13.88,1.95 17.76,0.01 31.13,-4.75 39.69,-14.25 8.51,-9.41 12.84,-23.05 12.84,-40.64 V 8240 h -20 v 77.69 c -0.33,15.69 -2.68,27.52 -8.03,35.83 -5.67,8.46 -15.26,12.45 -29.72,12.45 -1.06,0.01 -3.77,-0.4 -8.33,-1.2 -4.86,-0.73 -9.37,-3.01 -14.44,-6.61 -5.2,-3.32 -9.56,-9 -13.53,-16.19 -4.26,-7.18 -5.94,-17.18 -5.94,-29.99 V 8240 H 5255 v 109.16 c 0,4.07 -0.15,8.57 -0.45,14.36 -0.48,5.94 -0.64,11.26 -1.05,16.45 h 20.58" /><path
         id="path238"
         style="fill:#ff9300;fill-opacity:1;fill-rule:nonzero;stroke:none"
         d="m 5500.84,8309.98 c -5.23,0.01 -11.14,-0.25 -18.57,-0.76 -7.53,-0.24 -14.59,-1.71 -21.44,-3.63 -7.12,-1.78 -12.7,-4.89 -17.56,-8.93 -4.95,-3.92 -7.29,-9.58 -7.29,-16.64 -0.32,-4.32 0.95,-8.64 2.83,-11.96 1.62,-3.01 4.41,-6.04 7.58,-8.17 3.05,-2.08 6.7,-3.62 10.56,-4.53 3.56,-0.7 7.8,-1.36 11.77,-1.36 6.91,0 13.34,1.21 18.59,3.63 5.16,2.55 9.67,5.7 13.24,9.82 3.39,4.32 6.2,8.98 7.89,14.53 1.54,5.56 2.53,11.46 2.53,17.71 v 10.29 z m 10.13,16 v 3.61 c -0.33,24.39 -12.01,36.38 -36.03,36.38 -16.73,0.01 -30.73,-5.67 -42.94,-17 l -12,14.3 c 13.23,14.04 33.08,20.7 59.55,20.7 6.63,0.01 13.37,-1 19.68,-3 6.24,-1.99 11.78,-5.06 16.4,-9.16 4.4,-4.03 8.32,-9.24 11.12,-15.45 2.56,-5.98 4.22,-13.59 4.22,-22.17 v -62.69 c -0.33,-5.23 0.25,-11.05 0.75,-16.95 0.26,-5.75 1.05,-10.75 1.64,-14.55 h -19.39 c -0.92,3.35 -1.04,7 -1.34,10.94 -0.52,3.97 -0.46,7.79 -0.46,11.54 h -0.59 c -5.99,-9.25 -12.63,-16.19 -20.52,-20.31 -7.9,-3.83 -17.5,-6.17 -28.87,-6.17 -6.25,0 -12.18,0.86 -17.97,2.56 -5.86,1.85 -10.92,4.3 -15.41,7.82 -4.76,3.72 -8.08,7.83 -10.78,12.95 -2.7,5.33 -4.03,11.08 -4.03,17.89 0,11.69 2.94,20.41 8.83,26.94 5.61,6.8 13.26,11.38 22.14,14.59 8.56,3.3 18.36,5.23 28.44,6.03 9.94,0.88 19.31,1.2 27.68,1.2 h 9.88" /><path
         id="path240"
         style="fill:#ff9300;fill-opacity:1;fill-rule:nonzero;stroke:none"
         d="m 5578,8348.86 c 0,5.23 -0.15,10.37 -0.45,15.55 -0.48,5.38 -0.64,10.37 -1.05,15.56 h 21.48 v -20.91 h 0.6 c 4.62,8.51 11.47,14.4 20,18.6 8.33,4.32 16.99,6.31 25.4,6.31 3.49,0.01 7.87,-0.4 12.18,-1.2 4.25,-0.73 8.45,-2.26 12.47,-4.36 3.8,-1.9 7.76,-5.05 11.26,-8.85 3.21,-3.65 6.47,-8.68 8.88,-14.68 3.75,9.03 10.36,16.09 19.07,21.29 8.44,5.47 17.79,7.8 27.21,7.8 18.01,0.01 31.35,-4.75 39.97,-14.25 8.61,-9.41 12.92,-23.05 12.92,-40.64 V 8240 h -19.99 v 81.89 c -0.32,14.22 -2.5,25.08 -7.5,32.67 -5.15,7.75 -14.3,11.41 -27.9,11.41 -7.58,0.01 -13.6,-1.45 -18.6,-4.36 -5.31,-2.77 -9.04,-6.75 -12.14,-11.55 -3.36,-4.48 -5.34,-10.24 -6.75,-16.34 -1.42,-6 -2.09,-12.44 -2.09,-19.03 V 8240 h -20 v 81.89 c -0.33,14.22 -2.5,25.08 -7.5,32.67 -5.16,7.75 -14.3,11.41 -27.89,11.41 -1.39,0.01 -3.95,-0.4 -8.25,-1.2 -4.4,-0.73 -8.74,-3.01 -13.35,-6.61 -4.93,-3.32 -8.75,-9 -12.45,-16.19 -3.87,-7.18 -5.55,-17.18 -5.55,-29.99 V 8240 H 5578 v 108.86" /><path
         id="path242"
         style="fill:#ff9300;fill-opacity:1;fill-rule:nonzero;stroke:none"
         d="m 5941.97,8320.98 c -0.33,13.4 -3.97,24.23 -11.91,32.54 -7.95,8.46 -19.02,12.45 -33.29,12.45 -6.61,0.01 -12.5,-1.25 -18.44,-3.75 -6.06,-2.24 -11.16,-5.85 -15.63,-10.05 -4.69,-3.92 -8.02,-8.99 -10.7,-14.39 -2.68,-5.32 -4.02,-10.99 -4.02,-16.8 z m -94.58,-16 c 0.47,-7.07 2.3,-13.76 5.09,-20.04 2.65,-6.25 6.5,-11.69 11.1,-16.24 4.41,-4.44 9.9,-8.13 15.9,-10.76 5.84,-2.61 12.5,-3.94 19.5,-3.94 10.27,0 19.74,2.41 27.44,7.25 7.56,5.09 13.55,10.42 17.55,16.73 l 15,-12.5 c -8.73,-10.35 -17.67,-18.07 -27.78,-22.64 -10.17,-4.5 -20.96,-6.84 -32.55,-6.84 -10.62,0 -20.06,1.86 -28.97,5.56 -9.13,3.85 -16.56,8.87 -22.97,15.49 -6.63,6.94 -11.45,14.44 -15.15,23.47 -3.89,9.18 -5.55,18.84 -5.55,29.46 0,10.63 1.8,20.45 5.39,29.47 3.47,9.21 8.6,16.84 15,23.46 6.27,6.65 13.89,11.79 22.49,15.5 8.31,3.9 17.9,5.56 27.9,5.56 10.33,0.01 20.09,-1.9 28.49,-5.69 8.31,-3.55 15.45,-8.83 21.15,-15.11 5.56,-6.01 10.05,-13.66 13.05,-22.14 2.84,-8.15 4.5,-17.49 4.5,-27.06 v -8.99 h -116.58" /><path
         id="path244"
         style="fill:#ff9300;fill-opacity:1;fill-rule:nonzero;stroke:none"
         d="m 4290.98,4171.95 h 17.99 v -70.98 h -17.99 z m -44,0 h 18 v -70.98 h -18 v 70.98" /><path
         id="path246"
         style="fill:#ff9300;fill-opacity:1;fill-rule:nonzero;stroke:none"
         d="m 4504.97,4029.98 c -0.33,7.83 -1.25,15.15 -3.75,21.97 -2.56,6.84 -6.03,12.74 -10.63,17.75 -4.78,5.12 -10.11,8.99 -16.59,11.89 -6.48,3.05 -13.81,4.38 -21.98,4.38 -8.18,0.01 -15.64,-1.46 -22.43,-4.38 -6.98,-2.77 -12.66,-6.87 -17.65,-11.89 -5.31,-4.91 -8.89,-10.93 -11.67,-17.75 -2.89,-6.81 -4.19,-14.15 -4.19,-21.97 -0.03,-7.82 1.39,-15.15 4.19,-21.98 2.7,-6.82 6.68,-12.74 11.67,-17.75 4.67,-4.76 10.87,-8.98 17.65,-11.89 6.59,-2.7 14.26,-4.36 22.43,-4.36 8.17,0 15.5,1.45 21.98,4.36 6.48,3.13 12.01,6.88 16.59,11.89 4.4,5.26 8.14,10.93 10.63,17.75 2.42,6.83 3.75,14.16 3.75,21.98 z M 4377,4099.97 h 19.98 v -23.08 h 0.6 c 3.01,4.85 7.01,8.92 11.4,12.33 4.08,3.67 9.01,6.22 13.82,8.42 4.54,2.33 9.77,3.81 14.87,4.81 4.88,1.19 9.96,1.52 14.55,1.52 10.92,0.01 21.05,-1.86 30.16,-5.56 8.98,-3.52 16.97,-8.88 23.57,-15.5 6.29,-6.59 11.76,-14.44 15.46,-23.46 3.56,-8.84 5.54,-18.84 5.54,-29.47 -0.32,-10.62 -1.85,-20.44 -5.54,-29.46 -3.84,-8.86 -8.86,-16.85 -15.46,-23.47 -6.92,-6.3 -14.46,-11.78 -23.57,-15.49 -9.24,-3.56 -19.16,-5.56 -30.16,-5.56 -4.67,0 -9.45,0.51 -14.55,1.52 -5.33,1.16 -10.06,2.59 -14.87,4.79 -5.07,2.44 -9.41,5.02 -13.82,8.42 -4.72,3.51 -8.19,7.54 -11.4,12.35 h -0.6 V 3874.02 H 4377 v 225.95" /><path
         id="path248"
         style="fill:#ff9300;fill-opacity:1;fill-rule:nonzero;stroke:none"
         d="m 4563,4056.3 c 0,6.41 -0.15,12.45 -0.45,18.84 -0.49,6.67 -0.56,14.66 -0.75,24.83 h 19.68 v -25.7 h 0.61 c 1.37,4.04 3.4,7.45 6,10.95 2.59,3.76 5.78,6.65 9.49,9.45 3.52,2.91 8.03,5.05 12.95,6.75 4.74,1.89 10.49,2.55 16.7,2.55 5.53,0.01 10.52,-0.61 14.74,-1.81 l -3.91,-19.69 c -2.62,1.17 -6.42,1.5 -11.43,1.5 -7.84,0.01 -14.15,-1.45 -19.57,-4.34 -5.43,-2.78 -9.93,-6.6 -13.54,-11.1 -3.78,-4.33 -6.27,-9.33 -7.97,-14.51 -1.89,-4.86 -2.57,-10.17 -2.57,-14.96 V 3960 H 4563 v 96.3" /><path
         id="path250"
         style="fill:#ff9300;fill-opacity:1;fill-rule:nonzero;stroke:none"
         d="m 4773.97,4029.98 c -0.33,7.83 -1.24,15.15 -3.72,21.97 -2.56,6.84 -6,12.74 -10.56,17.75 -4.8,5.12 -10.07,8.99 -16.52,11.89 -6.49,3.05 -13.72,4.38 -21.84,4.38 -8.24,0.01 -15.42,-1.46 -21.86,-4.38 -6.59,-2.77 -11.89,-6.87 -16.36,-11.89 -4.5,-4.91 -7.93,-10.93 -10.41,-17.75 -2.71,-6.81 -3.72,-14.15 -3.72,-21.97 -0.32,-7.82 1.24,-15.15 3.72,-21.98 2.25,-6.82 5.95,-12.74 10.41,-17.75 4.43,-4.76 9.92,-8.98 16.36,-11.89 6.29,-2.7 13.73,-4.36 21.86,-4.36 8.01,0 15.4,1.45 21.84,4.36 6.39,3.13 11.96,6.88 16.52,11.89 4.33,5.26 8.08,10.93 10.56,17.75 2.39,6.83 3.72,14.16 3.72,21.98 z m 21.98,0 c -0.32,-10.62 -1.85,-20.44 -5.54,-29.46 -3.83,-8.86 -8.83,-16.85 -15.43,-23.47 -6.92,-6.3 -14.43,-11.78 -23.53,-15.49 -9.24,-3.56 -19.13,-5.56 -30.12,-5.56 -10.9,0 -20.74,1.86 -29.83,5.56 -9.26,3.85 -16.94,8.87 -23.53,15.49 -6.91,6.94 -11.73,14.44 -15.42,23.47 -3.89,9.18 -5.55,18.84 -5.55,29.46 0,10.63 1.85,20.45 5.55,29.47 3.51,9.21 8.83,16.84 15.42,23.46 6.27,6.65 14.44,11.79 23.53,15.5 8.93,3.9 19.04,5.56 29.83,5.56 10.88,0.01 21.03,-1.86 30.12,-5.56 8.94,-3.52 16.94,-8.88 23.53,-15.5 6.27,-6.59 11.74,-14.44 15.43,-23.46 3.56,-8.84 5.54,-18.84 5.54,-29.47" /><path
         id="path252"
         style="fill:#ff9300;fill-opacity:1;fill-rule:nonzero;stroke:none"
         d="m 4959.97,4029.98 c -0.33,7.83 -1.25,15.15 -3.75,21.97 -2.56,6.84 -6.03,12.74 -10.63,17.75 -4.78,5.12 -10.11,8.99 -16.59,11.89 -6.48,3.05 -13.81,4.38 -21.98,4.38 -8.18,0.01 -15.64,-1.46 -22.43,-4.38 -6.98,-2.77 -12.66,-6.87 -17.65,-11.89 -5.31,-4.91 -8.89,-10.93 -11.67,-17.75 -2.89,-6.81 -4.19,-14.15 -4.19,-21.97 -0.03,-7.82 1.39,-15.15 4.19,-21.98 2.7,-6.82 6.68,-12.74 11.67,-17.75 4.67,-4.76 10.87,-8.98 17.65,-11.89 6.59,-2.7 14.26,-4.36 22.43,-4.36 8.17,0 15.5,1.45 21.98,4.36 6.48,3.13 12.01,6.88 16.59,11.89 4.4,5.26 8.14,10.93 10.63,17.75 2.42,6.83 3.75,14.16 3.75,21.98 z M 4832,4099.97 h 19.98 v -23.08 h 0.6 c 3.01,4.85 7.01,8.92 11.4,12.33 4.08,3.67 9.01,6.22 13.82,8.42 4.54,2.33 9.77,3.81 14.87,4.81 4.88,1.19 9.96,1.52 14.55,1.52 10.92,0.01 21.05,-1.86 30.16,-5.56 8.98,-3.52 16.97,-8.88 23.57,-15.5 6.29,-6.59 11.76,-14.44 15.46,-23.46 3.56,-8.84 5.54,-18.84 5.54,-29.47 -0.32,-10.62 -1.85,-20.44 -5.54,-29.46 -3.84,-8.86 -8.86,-16.85 -15.46,-23.47 -6.92,-6.3 -14.46,-11.78 -23.57,-15.49 -9.24,-3.56 -19.16,-5.56 -30.16,-5.56 -4.67,0 -9.45,0.51 -14.55,1.52 -5.33,1.16 -10.06,2.59 -14.87,4.79 -5.07,2.44 -9.41,5.02 -13.82,8.42 -4.72,3.51 -8.19,7.54 -11.4,12.35 h -0.6 V 3874.02 H 4832 v 225.95" /><path
         id="path254"
         style="fill:#ff9300;fill-opacity:1;fill-rule:nonzero;stroke:none"
         d="m 5084.98,4171.95 h 17.99 v -70.98 h -17.99 z m -44,0 h 18 v -70.98 h -18 v 70.98" /><path
         id="path256"
         style="fill:#ff9300;fill-opacity:1;fill-rule:nonzero;stroke:none"
         d="m 5274.08,4099.97 c 0.37,-3.72 0.64,-7.42 0.73,-11.05 -0.17,-3.61 0.16,-7.32 0.16,-11.04 h 0.61 c 1.99,3.84 4.97,7.3 8.34,10.5 3.08,3.4 7.17,5.94 11.35,8.23 4.09,2.43 8.61,4.1 13.29,5.41 4.49,1.62 9.3,1.95 13.88,1.95 17.76,0.01 31.13,-4.75 39.69,-14.25 8.51,-9.41 12.84,-23.05 12.84,-40.64 V 3960 h -20 v 77.69 c -0.33,15.69 -2.68,27.52 -8.03,35.83 -5.67,8.46 -15.26,12.45 -29.72,12.45 -1.06,0.01 -3.77,-0.4 -8.33,-1.2 -4.86,-0.73 -9.37,-3.01 -14.44,-6.61 -5.2,-3.32 -9.56,-9 -13.53,-16.19 -4.26,-7.18 -5.94,-17.18 -5.94,-29.99 V 3960 H 5255 v 109.16 c 0,4.07 -0.15,8.57 -0.45,14.36 -0.48,5.94 -0.64,11.26 -1.05,16.45 h 20.58" /><path
         id="path258"
         style="fill:#ff9300;fill-opacity:1;fill-rule:nonzero;stroke:none"
         d="m 5500.84,4029.98 c -5.23,0.01 -11.14,-0.25 -18.57,-0.76 -7.53,-0.24 -14.59,-1.71 -21.44,-3.63 -7.12,-1.78 -12.7,-4.89 -17.56,-8.93 -4.95,-3.92 -7.29,-9.58 -7.29,-16.64 -0.32,-4.32 0.95,-8.64 2.83,-11.96 1.62,-3.01 4.41,-6.04 7.58,-8.17 3.05,-2.08 6.7,-3.62 10.56,-4.53 3.56,-0.7 7.8,-1.36 11.77,-1.36 6.91,0 13.34,1.21 18.59,3.63 5.16,2.55 9.67,5.7 13.24,9.82 3.39,4.32 6.2,8.98 7.89,14.53 1.54,5.56 2.53,11.46 2.53,17.71 v 10.29 z m 10.13,16 v 3.61 c -0.33,24.39 -12.01,36.38 -36.03,36.38 -16.73,0.01 -30.73,-5.67 -42.94,-17 l -12,14.3 c 13.23,14.04 33.08,20.7 59.55,20.7 6.63,0.01 13.37,-1 19.68,-3 6.24,-1.99 11.78,-5.06 16.4,-9.16 4.4,-4.03 8.32,-9.24 11.12,-15.45 2.56,-5.98 4.22,-13.59 4.22,-22.17 v -62.69 c -0.33,-5.23 0.25,-11.05 0.75,-16.95 0.26,-5.75 1.05,-10.75 1.64,-14.55 h -19.39 c -0.92,3.35 -1.04,7 -1.34,10.94 -0.52,3.97 -0.46,7.79 -0.46,11.54 h -0.59 c -5.99,-9.25 -12.63,-16.19 -20.52,-20.31 -7.9,-3.83 -17.5,-6.17 -28.87,-6.17 -6.25,0 -12.18,0.86 -17.97,2.56 -5.86,1.85 -10.92,4.3 -15.41,7.82 -4.76,3.72 -8.08,7.83 -10.78,12.95 -2.7,5.33 -4.03,11.08 -4.03,17.89 0,11.69 2.94,20.41 8.83,26.94 5.61,6.8 13.26,11.38 22.14,14.59 8.56,3.3 18.36,5.23 28.44,6.03 9.94,0.88 19.31,1.2 27.68,1.2 h 9.88" /><path
         id="path260"
         style="fill:#ff9300;fill-opacity:1;fill-rule:nonzero;stroke:none"
         d="m 5578,4068.86 c 0,5.23 -0.15,10.37 -0.45,15.55 -0.48,5.38 -0.64,10.37 -1.05,15.56 h 21.48 v -20.91 h 0.6 c 4.62,8.51 11.47,14.4 20,18.6 8.33,4.32 16.99,6.31 25.4,6.31 3.49,0.01 7.87,-0.4 12.18,-1.2 4.25,-0.73 8.45,-2.26 12.47,-4.36 3.8,-1.9 7.76,-5.05 11.26,-8.85 3.21,-3.65 6.47,-8.68 8.88,-14.68 3.75,9.03 10.36,16.09 19.07,21.29 8.44,5.47 17.79,7.8 27.21,7.8 18.01,0.01 31.35,-4.75 39.97,-14.25 8.61,-9.41 12.92,-23.05 12.92,-40.64 V 3960 h -19.99 v 81.89 c -0.32,14.22 -2.5,25.08 -7.5,32.67 -5.15,7.75 -14.3,11.41 -27.9,11.41 -7.58,0.01 -13.6,-1.45 -18.6,-4.36 -5.31,-2.77 -9.04,-6.75 -12.14,-11.55 -3.36,-4.48 -5.34,-10.24 -6.75,-16.34 -1.42,-6 -2.09,-12.44 -2.09,-19.03 V 3960 h -20 v 81.89 c -0.33,14.22 -2.5,25.08 -7.5,32.67 -5.16,7.75 -14.3,11.41 -27.89,11.41 -1.39,0.01 -3.95,-0.4 -8.25,-1.2 -4.4,-0.73 -8.74,-3.01 -13.35,-6.61 -4.93,-3.32 -8.75,-9 -12.45,-16.19 -3.87,-7.18 -5.55,-17.18 -5.55,-29.99 V 3960 H 5578 v 108.86" /><path
         id="path262"
         style="fill:#ff9300;fill-opacity:1;fill-rule:nonzero;stroke:none"
         d="m 5941.97,4040.98 c -0.33,13.4 -3.97,24.23 -11.91,32.54 -7.95,8.46 -19.02,12.45 -33.29,12.45 -6.61,0.01 -12.5,-1.25 -18.44,-3.75 -6.06,-2.24 -11.16,-5.85 -15.63,-10.05 -4.69,-3.92 -8.02,-8.99 -10.7,-14.39 -2.68,-5.32 -4.02,-10.99 -4.02,-16.8 z m -94.58,-16 c 0.47,-7.07 2.3,-13.76 5.09,-20.04 2.65,-6.25 6.5,-11.69 11.1,-16.24 4.41,-4.44 9.9,-8.13 15.9,-10.76 5.84,-2.61 12.5,-3.94 19.5,-3.94 10.27,0 19.74,2.41 27.44,7.25 7.56,5.09 13.55,10.42 17.55,16.73 l 15,-12.5 c -8.73,-10.35 -17.67,-18.07 -27.78,-22.64 -10.17,-4.5 -20.96,-6.84 -32.55,-6.84 -10.62,0 -20.06,1.86 -28.97,5.56 -9.13,3.85 -16.56,8.87 -22.97,15.49 -6.63,6.94 -11.45,14.44 -15.15,23.47 -3.89,9.18 -5.55,18.84 -5.55,29.46 0,10.63 1.8,20.45 5.39,29.47 3.47,9.21 8.6,16.84 15,23.46 6.27,6.65 13.89,11.79 22.49,15.5 8.31,3.9 17.9,5.56 27.9,5.56 10.33,0.01 20.09,-1.9 28.49,-5.69 8.31,-3.55 15.45,-8.83 21.15,-15.11 5.56,-6.01 10.05,-13.66 13.05,-22.14 2.84,-8.15 4.5,-17.49 4.5,-27.06 v -8.99 h -116.58" /><path
         id="path264"
         style="fill:none;stroke:#ff9300;stroke-width:30;stroke-linecap:butt;stroke-linejoin:miter;stroke-miterlimit:4;stroke-dasharray:none;stroke-opacity:1"
         d="m 6213.28,8345.36 c 1492.43,248.21 2930.53,60.67 4314.32,-562.62 l 13.7,-6.29" /><path
         id="path266"
         style="fill:#ff9300;fill-opacity:1;fill-rule:nonzero;stroke:none"
         d="m 10500,7722.76 147.6,4.79 -92.4,115.13" /><path
         id="path268"
         style="fill:none;stroke:#ff9300;stroke-width:30;stroke-linecap:butt;stroke-linejoin:miter;stroke-miterlimit:4;stroke-dasharray:none;stroke-opacity:1"
         d="M 4293.36,4393.25 C 3745.41,5552.18 3726,6711.64 4235.13,7871.62 l 6.23,13.7" /><path
         id="path270"
         style="fill:#ff9300;fill-opacity:1;fill-rule:nonzero;stroke:none"
         d="m 4295.24,7844.35 -5.45,147.48 -114.72,-92.85" /><path
         id="path272"
         style="fill:none;stroke:#ff9300;stroke-width:30;stroke-linecap:butt;stroke-linejoin:miter;stroke-miterlimit:4;stroke-dasharray:none;stroke-opacity:1"
         d="m 6351.4,4111.09 c 1688.92,237.16 3322.8,45.17 4901.6,-575.97 l 14,-5.6" /><path
         id="path274"
         style="fill:#ff9300;fill-opacity:1;fill-rule:nonzero;stroke:none"
         d="m 11228.5,3473.84 147.1,12.16 -98,110.37" /></g></g></svg>